<svg width="1225" height="342" viewBox="0 0 1225 342" fill="none" xmlns="http://www.w3.org/2000/svg">
<path d="M297.099 5.99937C293.699 6.34937 290.309 6.92937 286.909 7.25937C285.249 7.41937 284.339 8.15937 283.879 9.67937C281.999 15.8794 279.069 21.6194 276.259 27.4194C272.929 34.2894 269.859 41.2994 266.629 48.2194C262.629 56.7694 258.479 65.2594 254.589 73.8594C251.779 80.0594 249.429 86.4694 246.609 92.6694C242.409 101.929 237.299 110.719 231.879 119.309C226.179 128.349 220.189 137.199 214.389 146.179C210.829 151.699 206.629 156.709 202.259 161.589C201.529 162.409 200.669 163.149 199.749 163.759C197.399 165.299 195.159 164.619 194.119 162.019C193.639 160.819 193.169 159.519 193.109 158.249C192.869 153.189 193.179 148.119 194.749 143.299C196.969 136.499 199.179 129.649 202.029 123.099C208.379 108.499 215.059 94.0294 221.749 79.5694C224.829 72.9094 228.249 66.3994 231.499 59.8094C236.079 50.5194 240.639 41.2194 245.209 31.9194C247.379 27.4894 249.449 23.0094 251.749 18.6494C253.819 14.7394 256.109 10.9394 258.369 7.13937C259.029 6.03937 258.969 5.09937 258.389 4.02937C256.799 1.10937 253.359 0.479371 251.059 2.86937C249.599 4.38937 248.479 6.22937 247.109 7.83937C243.379 12.2194 239.509 16.3994 234.579 19.5694C229.129 23.0694 223.439 26.0594 217.639 28.8794C213.499 30.8894 209.529 33.3094 205.259 34.9894C198.629 37.5994 191.829 39.7994 185.059 42.0294C180.809 43.4294 176.709 45.2094 172.309 46.2194C169.149 46.9394 166.359 48.7594 163.019 49.3494C160.039 49.8694 157.259 51.5494 154.409 52.7394C148.409 55.2594 142.279 57.4094 136.359 60.1394C128.809 63.6194 120.959 66.3894 113.549 70.2794C105.319 74.5994 97.7492 79.6594 91.3592 86.4694C85.7792 92.4094 81.2092 98.8694 79.3892 106.979C79.1692 107.939 78.4292 108.839 78.4092 109.769C78.2892 114.859 77.9892 119.929 78.6492 125.039C79.5492 132.019 82.3892 138.109 86.3092 143.789C86.8492 144.569 87.7892 145.129 88.6592 145.609C89.5792 146.109 90.4192 145.789 90.9692 144.859C92.1192 142.909 92.8492 140.899 92.1692 138.589C91.5191 136.369 90.8192 134.139 90.3592 131.879C89.2292 126.289 87.6992 120.859 89.2292 114.929C91.1392 107.519 94.8291 101.459 100.309 96.2794C109.239 87.8294 119.869 82.1494 130.949 77.1594C138.869 73.5894 147.239 71.3194 155.439 68.5694C159.919 67.0694 164.419 65.6494 168.829 63.9694C173.589 62.1494 178.289 60.1494 182.949 58.0994C193.419 53.4894 203.869 48.8394 214.279 44.1094C217.809 42.5094 221.199 40.5894 224.669 38.8694C225.529 38.4494 226.479 38.2094 227.839 37.7394C227.479 38.8694 227.359 39.5294 227.069 40.1194C226.319 41.6394 225.449 43.0994 224.709 44.6294C217.989 58.5794 210.739 72.2394 203.099 85.6994C200.919 89.5394 198.309 93.1294 196.069 96.9394C192.669 102.719 189.429 108.599 186.109 114.429C182.359 121.029 178.509 127.579 174.859 134.239C170.149 142.809 164.919 151.059 159.509 159.199C157.339 162.459 154.889 165.549 152.959 168.939C145.829 181.409 137.349 192.869 127.549 203.349C126.719 204.239 125.469 204.929 124.289 205.249C122.169 205.829 119.949 206.059 117.769 206.429C112.619 207.299 107.419 207.949 102.319 209.089C93.3492 211.099 84.1891 211.489 75.0992 212.149C68.6392 212.619 62.0692 212.059 55.5792 211.529C47.1692 210.829 38.9992 208.959 31.1092 205.799C24.7592 203.259 19.4692 199.539 15.6692 193.789C15.3392 193.289 14.6292 192.869 14.0192 192.739C11.6292 192.229 10.4492 192.699 9.23916 194.839C7.95916 197.089 6.73916 199.399 5.75916 201.789C2.31916 210.219 -0.060844 218.949 -0.000843989 228.109C0.049156 235.739 -0.0708442 243.539 4.13916 250.399C6.07916 253.559 8.05916 256.809 10.6392 259.419C15.7892 264.629 21.9392 268.359 29.0792 270.509C36.9492 272.879 44.8792 273.379 52.9292 272.289C64.2292 270.749 74.1492 265.499 83.8292 259.979C89.4092 256.799 94.4992 252.729 99.7092 248.929C106.629 243.889 113.059 238.249 119.189 232.259C120.669 230.809 122.079 229.299 123.459 227.889C122.449 226.239 121.199 226.609 120.019 226.769C117.129 227.159 114.239 227.839 111.339 227.909C106.799 228.029 103.269 229.539 99.7792 232.699C92.0891 239.659 83.6592 245.709 74.4392 250.619C66.5192 254.829 58.3192 258.049 49.4092 259.219C39.3292 260.539 29.7792 259.559 21.1192 253.409C15.9692 249.759 12.6192 245.169 11.3492 239.069C10.8392 236.619 10.6692 234.099 10.3292 231.609C9.31916 224.319 11.5592 217.639 14.1492 211.019C14.2792 210.679 14.6292 210.429 15.0592 209.929C16.2092 210.879 17.2692 211.789 18.3592 212.639C23.1192 216.379 28.0992 219.759 33.9092 221.669C40.2492 223.759 46.8292 224.539 53.4492 224.869C57.0292 225.049 60.7492 224.279 64.1892 224.989C69.6592 226.119 74.9091 223.589 80.2691 224.719C83.5491 223.379 86.9592 223.849 90.3592 223.909C93.2892 223.959 96.0592 222.379 99.0891 222.889C99.8591 223.019 100.729 223.039 101.479 222.839C104.929 221.929 108.489 221.879 111.989 220.949C117.629 219.459 123.609 219.289 129.439 218.489C131.109 218.259 132.729 217.769 134.389 217.429C139.079 216.469 143.789 215.569 148.469 214.549C151.779 213.829 155.109 213.149 158.339 212.129C161.119 211.249 164.009 211.429 166.789 210.779C168.329 210.419 169.849 209.939 171.399 209.619C174.249 209.019 177.119 208.529 179.969 207.909C182.979 207.249 185.969 206.439 188.979 205.759C189.929 205.539 191.019 205.729 191.889 205.369C194.899 204.109 198.529 205.259 201.239 202.909C201.289 202.859 201.429 202.939 201.529 202.929C204.999 202.639 208.499 202.479 211.949 202.009C214.619 201.649 217.209 200.719 219.879 200.359C224.939 199.689 230.029 199.249 235.099 198.719C236.879 198.529 238.549 198.179 240.269 197.449C241.779 196.809 243.759 197.359 245.529 197.249C248.239 197.089 250.949 196.789 253.659 196.579C259.149 196.169 264.649 195.759 270.139 195.399C271.849 195.289 273.579 195.279 275.289 195.319C276.559 195.349 277.829 195.639 279.099 195.669C284.799 195.779 290.499 195.689 296.189 195.949C301.099 196.169 305.999 196.739 310.899 197.209C314.609 197.569 318.329 197.869 322.009 198.449C329.369 199.609 336.609 201.269 343.689 203.619C350.439 205.859 356.889 208.599 362.469 213.119C365.369 215.469 366.029 218.509 364.399 221.899C364.169 222.379 364.219 222.989 364.129 223.549C366.609 223.679 367.359 223.169 367.529 220.829C367.819 216.939 367.009 213.259 364.869 209.929C361.939 205.359 357.489 202.549 352.869 200.169C346.809 197.039 340.329 194.809 333.659 193.399C326.559 191.889 319.449 190.069 312.059 190.979C310.979 191.109 309.899 191.419 308.809 191.429C303.519 191.519 298.239 191.559 292.949 191.579C292.369 191.579 291.779 191.289 290.509 190.939C291.699 190.349 292.179 189.969 292.709 189.879C295.379 189.419 298.059 188.829 300.749 188.649C307.079 188.229 313.439 188.059 319.779 187.719C324.399 187.469 329.019 186.859 333.639 186.839C343.009 186.809 352.379 186.999 361.739 187.239C365.439 187.339 369.159 187.649 372.819 188.189C377.199 188.829 381.559 189.709 385.879 190.669C388.829 191.319 391.839 191.959 394.589 193.139C401.209 195.979 407.179 199.699 411.629 205.679C415.459 210.829 415.919 215.899 412.289 221.189C411.949 221.679 411.719 222.259 411.489 222.819C410.649 224.879 411.119 226.509 412.719 227.209C414.029 227.779 416.009 227.049 416.719 225.359C417.369 223.819 417.689 222.109 417.909 220.439C418.119 218.849 417.879 217.209 418.079 215.619C419.179 207.029 416.239 199.719 410.599 193.549C405.369 187.829 398.309 184.879 391.069 182.749C381.889 180.039 372.379 178.669 362.849 177.999C352.619 177.289 342.339 177.099 332.079 176.879C326.669 176.759 321.249 176.959 315.839 177.199C308.109 177.549 300.389 177.989 292.679 178.539C287.049 178.939 281.439 179.539 275.819 180.109C272.319 180.469 268.829 180.899 265.349 181.369C262.009 181.819 258.679 182.389 255.339 182.879C252.859 183.239 250.359 183.489 247.879 183.899C245.279 184.329 242.699 184.959 240.099 185.379C237.829 185.749 235.519 185.849 233.259 186.249C230.109 186.799 226.999 187.599 223.839 188.129C218.589 188.999 213.309 189.719 208.039 190.539C204.069 191.159 200.099 191.829 196.139 192.499C192.319 193.149 188.509 193.909 184.679 194.469C182.759 194.749 180.769 194.579 178.839 194.839C177.169 195.059 175.549 195.869 173.889 195.929C171.429 196.019 169.189 196.539 167.039 197.699C166.479 197.999 165.679 197.889 164.989 197.909C164.399 197.919 163.749 197.669 163.219 197.829C159.429 198.929 155.619 199.879 151.669 200.129C150.659 200.199 149.759 201.589 148.469 200.189C148.899 199.629 149.359 199.029 149.829 198.419C152.629 194.769 155.609 191.229 158.189 187.429C160.489 184.049 162.339 180.359 164.419 176.829C167.929 170.849 171.649 164.979 174.939 158.869C178.469 152.309 181.599 145.529 184.909 138.839C185.309 138.039 185.749 137.249 186.169 136.459C186.369 136.569 186.569 136.679 186.769 136.779C185.599 139.649 184.549 142.579 183.229 145.379C180.799 150.549 179.389 155.999 178.699 161.629C178.069 166.779 178.189 171.969 180.259 176.809C182.089 181.099 183.989 182.559 188.579 182.479C190.619 182.439 192.749 181.769 194.639 180.919C198.069 179.379 201.059 177.119 203.519 174.239C207.889 169.099 212.369 164.039 216.529 158.739C219.069 155.509 221.249 151.969 223.319 148.409C225.449 144.749 227.239 140.899 229.209 137.149C229.449 136.699 229.849 136.339 230.179 135.939C230.219 137.289 229.719 138.349 229.329 139.439C227.599 144.269 225.509 149.019 224.279 153.979C222.759 160.129 223.469 166.209 227.029 171.709C228.999 174.749 232.279 176.209 235.849 175.619C240.219 174.899 243.779 172.489 246.819 169.579C254.559 162.159 261.469 154.049 266.049 144.209C266.389 143.469 266.899 142.799 267.329 142.099C267.519 142.189 267.709 142.289 267.899 142.379C267.459 143.579 267.109 144.819 266.559 145.969C264.499 150.299 263.319 154.899 262.669 159.589C262.299 162.249 262.269 165.049 262.689 167.699C263.519 172.879 267.919 175.919 272.629 175.519C275.759 175.249 278.839 174.159 281.439 172.089C286.819 167.799 291.589 162.909 295.949 157.609C297.639 155.559 299.239 153.449 300.879 151.359C301.079 151.449 301.269 151.539 301.469 151.629C301.429 152.699 301.439 153.769 301.329 154.829C300.909 158.789 301.279 162.619 302.489 166.459C304.059 171.409 306.239 173.089 311.339 172.429C312.609 172.269 313.959 171.879 315.029 171.209C317.759 169.509 320.679 167.919 322.909 165.679C326.669 161.909 329.959 157.669 333.419 153.609C334.099 152.819 334.689 151.949 335.209 151.249C335.959 154.499 336.479 157.559 337.389 160.499C339.279 166.629 346.679 171.619 354.069 169.419C357.859 168.289 361.149 166.429 363.919 163.759C372.299 155.709 379.169 146.569 383.259 135.559C383.579 134.689 384.029 133.869 384.409 133.019C384.419 135.759 383.789 138.299 383.619 140.869C383.189 147.349 384.669 153.439 387.489 159.299C389.579 163.629 392.899 166.549 397.129 168.469C402.719 171.009 408.409 170.199 413.889 168.119C422.369 164.889 429.769 160.069 435.809 153.109C441.859 146.139 446.189 138.359 448.849 129.539C450.419 124.339 450.759 119.039 450.889 113.699C450.969 110.289 450.789 106.859 450.569 103.449C450.379 100.399 448.529 98.2294 446.209 96.5094C444.939 95.5694 443.489 95.4794 441.979 96.3094C440.369 97.1994 440.559 98.5394 440.759 99.9794C441.199 103.069 441.829 106.159 441.969 109.269C442.499 121.329 438.119 131.829 431.069 141.299C426.429 147.529 420.719 152.609 413.539 155.849C410.849 157.069 408.069 157.829 405.059 157.779C401.629 157.719 399.249 155.939 397.829 153.119C396.679 150.819 395.869 148.249 395.419 145.709C394.359 139.749 395.479 133.799 396.499 127.979C399.369 111.579 407.069 97.4094 417.669 84.7494C419.459 82.6194 421.699 80.8494 423.809 79.0094C424.779 78.1694 426.019 77.0894 427.309 78.0694C428.629 79.0794 427.729 80.6494 427.209 81.6794C425.559 85.0094 423.779 88.2894 421.789 91.4294C419.099 95.6594 417.079 100.099 416.369 105.079C416.049 107.349 416.519 107.929 418.909 108.659C419.879 106.949 420.769 105.149 421.869 103.499C423.409 101.209 425.489 100.049 428.359 100.959C428.899 101.129 429.519 101.029 429.989 101.049C431.129 97.9194 432.169 94.9994 433.249 92.0894C434.979 87.4694 436.849 82.8994 438.449 78.2294C439.399 75.4494 439.579 72.5194 438.909 69.5894C438.069 65.8694 436.359 64.2294 432.669 63.6094C426.759 62.6094 421.739 64.7094 417.169 68.1494C411.899 72.1294 407.459 76.9194 403.979 82.5594C401.229 87.0094 398.309 91.3594 395.859 95.9694C393.459 100.489 390.729 104.909 389.729 110.059C389.649 110.489 389.089 110.829 388.739 111.229C388.399 110.889 388.169 110.769 388.139 110.609C387.869 108.889 386.809 108.129 385.159 108.369C383.229 108.649 383.809 110.299 383.669 111.509C383.529 112.709 383.489 113.919 383.349 115.109C382.609 121.319 380.159 126.879 377.259 132.379C372.929 140.589 367.659 147.989 360.899 154.349C359.089 156.049 357.039 157.259 354.639 157.859C352.749 158.329 350.949 157.949 349.619 156.529C347.859 154.649 346.779 152.439 346.799 149.739C346.839 144.259 347.679 138.949 349.229 133.669C353.059 120.599 356.939 107.559 364.409 95.9694C367.299 91.4894 369.899 86.7694 374.049 83.2394C374.929 82.4894 375.939 81.8994 376.839 81.2594C378.689 82.6794 377.869 84.0994 377.299 85.2794C374.729 90.6394 371.939 95.8994 369.419 101.279C368.279 103.719 367.349 106.309 366.739 108.919C366.279 110.899 366.859 111.269 369.189 111.529C371.699 107.679 373.119 102.579 378.959 102.889C379.969 100.229 380.789 97.7494 381.839 95.3694C383.659 91.2194 385.719 87.1694 387.499 82.9994C388.899 79.7194 389.359 76.2094 389.059 72.6394C388.759 69.0994 386.349 66.6894 382.879 66.3594C379.399 66.0294 376.289 67.1494 373.459 69.0294C363.489 75.6494 356.029 84.4894 350.759 95.1794C349.219 98.2894 347.869 101.499 346.069 105.439C345.779 104.659 345.689 104.249 345.479 103.909C345.219 103.479 344.929 103.029 344.549 102.729C343.479 101.879 342.329 102.309 342.149 103.689C342.019 104.669 342.169 105.689 342.199 106.699C342.249 108.409 342.399 110.119 342.339 111.829C341.979 121.939 338.399 131.119 334.169 140.129C331.959 144.839 329.069 149.079 325.349 152.689C323.779 154.209 321.989 155.619 320.069 156.659C317.619 157.989 315.519 156.659 315.589 153.869C315.649 151.469 315.899 149.039 316.449 146.709C318.759 136.999 322.799 127.879 326.189 118.529C327.799 114.089 329.679 109.749 331.479 105.379C333.129 101.389 334.719 97.3594 336.569 93.4494C338.929 88.4394 341.579 83.5694 343.989 78.5894C344.899 76.6994 345.709 74.6994 346.179 72.6594C346.719 70.3394 345.469 68.9294 343.109 68.9194C341.399 68.9194 339.679 69.0694 337.989 69.3194C335.229 69.7194 333.079 71.1494 331.779 73.6394C330.899 75.3294 330.109 77.0894 329.399 78.8594C326.379 86.4394 323.449 94.0494 320.389 101.609C319.459 103.899 318.229 106.069 316.869 108.839C316.399 107.389 316.179 106.539 315.849 105.739C315.519 104.939 315.339 103.919 314.049 104.099C312.819 104.269 312.809 105.259 312.619 106.119C312.509 106.609 312.509 107.119 312.489 107.619C312.209 113.949 310.709 120.029 308.129 125.769C304.909 132.939 301.229 139.879 296.169 145.979C293.099 149.679 290.099 153.449 286.919 157.049C285.739 158.379 284.239 159.519 282.689 160.409C279.379 162.319 276.609 160.799 276.399 156.979C276.319 155.599 276.649 154.179 276.979 152.809C279.579 141.919 283.149 131.319 287.049 120.849C289.639 113.879 292.399 106.949 295.529 100.209C298.779 93.1994 301.659 85.9894 305.909 79.4594C306.859 78.0094 307.319 76.0894 307.529 74.3394C307.859 71.5694 306.619 70.4094 303.849 70.4894C302.339 70.5294 300.829 70.8394 299.319 70.7994C296.789 70.7294 294.999 71.9094 293.869 73.9794C292.429 76.6294 291.199 79.3794 289.949 82.1294C287.129 88.3594 284.329 94.6094 281.559 100.869C280.139 104.059 278.779 107.289 277.199 110.949C276.729 109.839 276.469 109.219 276.209 108.589C275.689 107.349 274.779 106.579 273.399 106.759C271.849 106.959 271.999 108.309 271.989 109.359C271.949 115.089 270.509 120.489 268.489 125.819C266.299 131.589 263.939 137.239 260.149 142.169C257.209 145.999 254.259 149.839 251.159 153.549C248.959 156.169 246.559 158.599 243.559 160.419C240.079 162.539 237.099 160.759 236.929 157.089C236.789 154.209 236.809 151.169 237.569 148.429C239.089 142.909 240.989 137.469 243.049 132.119C245.319 126.209 248.029 120.469 250.359 114.589C252.469 109.269 254.149 103.769 256.349 98.4894C259.439 91.0594 262.749 83.7094 266.119 76.4094C268.389 71.4894 271.039 66.7494 273.309 61.8294C275.659 56.7294 277.679 51.4694 279.999 46.3494C282.599 40.5994 285.399 34.9394 288.049 29.2094C291.349 22.0694 294.599 14.9094 300.179 9.14937C300.579 8.73937 300.759 8.11937 300.979 7.68937C300.209 5.67937 298.579 5.79937 297.089 5.94937L297.099 5.99937ZM719.399 179.179C720.549 177.369 721.709 175.619 722.779 173.819C726.799 167.079 730.739 160.279 734.799 153.559C740.259 144.519 745.769 135.499 751.319 126.509C754.549 121.289 757.929 116.159 761.169 110.939C762.229 109.239 763.039 107.389 764.069 105.389C764.979 105.429 765.969 105.359 766.919 105.529C769.069 105.919 771.089 105.649 773.069 104.739C774.989 103.859 776.899 102.859 778.919 102.289C780.409 101.869 782.079 101.889 783.639 102.009C785.319 102.139 785.799 103.539 786.149 104.999C786.499 106.489 785.499 106.999 784.519 107.519C781.179 109.279 779.079 112.299 776.889 115.159C770.309 123.779 764.799 133.119 759.019 142.279C755.209 148.309 751.029 154.089 747.069 160.029C745.469 162.429 744.029 164.929 742.509 167.379L743.009 167.919C743.739 167.399 744.579 166.969 745.199 166.329C753.049 158.309 761.709 151.239 770.709 144.579C772.409 143.319 774.159 142.079 776.049 141.169C777.539 140.449 779.279 139.979 780.929 139.899C784.099 139.749 785.149 140.739 785.079 144.009C784.989 147.899 784.759 151.819 784.129 155.649C783.449 159.799 782.469 163.929 781.219 167.939C778.419 176.899 774.919 185.569 770.179 193.709C768.809 196.059 767.659 198.539 766.239 200.849C760.489 210.229 754.079 219.139 746.749 227.349C743.119 231.419 738.629 234.429 733.439 235.899C728.889 237.189 724.409 236.609 720.179 233.789C715.769 230.859 713.659 226.549 711.719 221.999C711.369 221.179 711.069 220.339 710.509 218.909C704.029 227.919 698.839 237.089 693.469 246.909C694.979 246.829 695.929 246.849 696.859 246.709C703.119 245.739 709.359 244.619 715.629 243.749C726.279 242.269 736.939 240.869 747.619 239.559C754.819 238.679 762.039 237.859 769.269 237.259C780.889 236.309 792.529 235.569 804.159 234.729C810.569 234.269 816.969 233.479 823.379 233.419C832.439 233.329 841.409 232.049 850.449 231.829C858.199 231.639 865.939 230.919 873.699 230.589C881.339 230.259 888.989 230.139 896.639 229.899C899.849 229.799 903.049 229.589 906.259 229.519C907.969 229.479 909.679 229.669 911.389 229.679C917.719 229.709 924.059 229.649 930.389 229.719C937.589 229.799 944.789 229.939 951.989 230.149C954.989 230.239 957.979 230.579 960.979 230.769C967.289 231.159 973.619 231.369 979.909 231.939C986.099 232.509 992.249 233.719 998.449 234.129C1004.55 234.539 1010.32 236.349 1016.19 237.679C1020.57 238.669 1024.75 240.549 1029.01 242.079C1035.03 244.239 1040.6 247.329 1045.7 251.079C1051.39 255.249 1056.65 259.969 1059.71 266.609C1062.24 272.099 1062.48 277.679 1060.42 283.349C1059.33 286.329 1057.49 287.629 1054.86 287.409C1053.09 287.259 1051.62 285.999 1051.55 284.459C1051.49 283.169 1051.97 282.269 1053.24 281.569C1057.49 279.219 1058.3 276.059 1055.22 271.889C1052.68 268.449 1049.45 265.739 1045.86 263.409C1040.8 260.119 1035.46 257.369 1029.89 255.059C1026.18 253.519 1022.49 251.879 1018.7 250.569C1011.93 248.229 1005 246.589 997.819 246.019C994.919 245.789 992.069 244.959 989.169 244.689C983.479 244.169 977.759 243.859 972.059 243.469C968.939 243.259 965.819 242.999 962.699 242.869C954.869 242.549 946.979 242.719 939.199 241.889C932.009 241.119 924.939 242.229 917.799 242.029C910.369 241.819 902.909 242.469 895.469 242.679C890.149 242.819 884.819 242.769 879.489 242.939C873.449 243.129 867.419 243.479 861.379 243.719C859.479 243.799 857.579 243.779 855.679 243.799C850.969 243.849 846.249 243.759 841.549 243.959C836.049 244.199 830.549 244.619 825.069 245.099C821.299 245.429 817.559 246.009 813.799 246.459C812.799 246.579 811.789 246.639 810.779 246.669C807.519 246.769 804.249 246.709 800.999 246.959C796.239 247.329 791.509 247.929 786.759 248.389C773.119 249.699 759.459 250.859 745.839 252.339C737.329 253.259 728.869 254.649 720.389 255.829C714.899 256.589 709.409 257.319 703.929 258.139C702.079 258.419 700.259 258.909 698.459 259.769C699.959 259.829 701.469 260.079 702.939 259.919C708.719 259.299 714.489 258.599 720.249 257.819C725.239 257.149 730.199 256.229 735.189 255.589C741.679 254.759 748.179 254.029 754.689 253.369C762.279 252.599 769.879 251.919 777.479 251.249C781.479 250.899 785.509 250.829 789.479 250.319C795.979 249.489 802.489 249.339 809.019 249.219C811.709 249.169 814.399 248.819 817.099 248.599C817.499 248.569 817.909 248.459 818.299 248.499C824.589 249.129 830.899 248.299 837.189 248.729C844.119 249.209 851.039 249.779 857.959 250.379C866.999 251.159 875.839 253.129 884.579 255.419C891.239 257.159 897.889 259.289 903.709 263.149C908.669 266.439 913.239 270.169 915.829 275.799C916.989 278.319 917.349 280.739 916.049 283.329C914.969 285.459 914.069 285.679 911.739 283.899C912.059 283.049 912.339 282.099 912.769 281.219C913.769 279.139 913.699 277.339 912.019 275.819C908.119 272.289 903.919 269.299 898.639 268.009C895.349 267.199 892.179 265.829 888.979 264.669C883.169 262.559 877.129 261.439 871.059 260.529C863.519 259.399 855.959 258.319 848.389 257.419C844.799 256.989 841.159 256.999 837.529 256.879C833.929 256.759 830.319 256.669 826.719 256.689C821.009 256.729 815.299 256.789 809.599 256.999C798.449 257.409 787.289 257.659 776.169 258.489C767.249 259.149 758.389 260.549 749.499 261.639C743.919 262.319 738.339 263.039 732.759 263.749C725.679 264.649 718.589 265.539 711.509 266.469C705.829 267.209 700.139 267.939 694.479 268.789C681.329 270.759 668.179 272.719 655.059 274.829C647.709 276.009 640.439 277.669 633.079 278.729C625.809 279.779 618.489 280.489 611.169 281.119C605.069 281.639 598.939 281.949 592.819 282.109C589.919 282.179 587.009 281.719 584.109 281.409C582.319 281.209 580.549 280.879 578.779 280.529C569.819 278.769 561.199 276.079 553.859 270.419C548.069 265.949 544.539 259.939 543.599 252.649C543.019 248.129 544.719 244.189 547.859 240.389C548.369 241.299 548.879 241.889 549.059 242.569C549.569 244.499 549.919 246.479 550.369 248.429C551.689 254.209 555.319 258.269 560.669 260.239C567.559 262.769 574.729 264.619 582.189 264.429C585.599 264.339 588.999 263.689 592.409 263.569C597.759 263.389 602.899 262.029 608.129 261.189C617.259 259.719 626.419 258.499 635.549 257.069C640.709 256.259 645.819 255.189 650.969 254.349C658.409 253.139 665.869 252.059 673.309 250.849C675.319 250.519 676.959 249.729 678.069 247.639C680.009 244.009 682.569 240.709 684.509 237.079C687.569 231.379 691.259 226.119 695.019 220.899C695.299 220.519 695.539 220.109 695.449 219.409C694.639 220.359 693.829 221.309 693.029 222.269C688.989 227.069 684.679 231.599 679.199 234.789C677.409 235.829 675.409 236.909 673.419 237.099C669.319 237.499 666.889 235.429 665.029 230.349C663.499 226.169 664.629 221.979 665.059 217.799C665.099 217.429 665.169 217.069 665.299 216.259C664.479 216.799 663.879 216.999 663.569 217.419C659.899 222.389 655.499 226.699 650.939 230.799C647.179 234.169 643.039 237.029 637.799 237.819C632.229 238.659 627.889 236.749 625.019 231.989C624.249 230.709 623.409 229.479 622.409 227.939C621.589 228.559 620.919 228.949 620.399 229.469C615.559 234.359 610.359 238.789 604.059 241.689C601.899 242.679 599.519 243.439 597.169 243.729C591.349 244.459 587.089 240.499 585.929 234.719C584.749 228.879 586.099 223.249 587.889 217.759C590.069 211.059 592.519 204.439 594.979 197.839C595.409 196.679 596.469 195.739 597.319 194.759C598.679 193.209 600.099 191.729 601.489 190.209C601.289 189.999 601.089 189.779 600.899 189.569C600.199 190.169 599.499 190.779 598.779 191.369C593.029 196.089 586.609 199.269 579.049 199.599C575.189 199.759 571.939 198.459 569.939 194.919C568.769 192.849 567.709 190.729 566.499 188.459C565.899 188.819 565.089 189.199 564.389 189.719C556.029 195.879 546.929 200.519 536.889 203.259C529.899 205.169 523.049 205.449 516.199 202.439C511.489 200.369 507.999 197.119 505.059 193.039C500.889 187.239 499.459 180.829 500.499 173.839C501.159 169.469 501.779 165.069 502.769 160.769C505.309 149.789 509.919 139.629 515.189 129.709C520.739 119.259 527.149 109.419 535.009 100.579C540.119 94.8394 545.889 89.8594 552.559 85.9494C560.309 81.3994 568.549 80.5894 577.019 83.1994C580.969 84.4094 583.759 87.3994 585.939 90.9394C588.899 95.7694 589.749 101.159 589.679 106.619C589.649 109.359 588.719 112.199 587.699 114.809C584.909 121.929 582.039 129.039 578.859 135.999C574.089 146.439 569.029 156.759 564.079 167.119C563.729 167.849 563.179 168.489 562.929 169.239C561.419 173.829 557.889 176.399 553.809 178.399C550.839 179.859 547.819 181.209 544.419 182.189C545.419 180.289 546.429 178.399 547.409 176.489C550.929 169.569 554.629 162.739 557.899 155.709C562.319 146.209 566.569 136.609 570.579 126.929C573.309 120.329 576.019 113.689 577.519 106.649C578.109 103.869 578.529 101.089 577.679 98.2794C576.549 94.5494 574.259 92.8194 570.439 93.6394C567.739 94.2094 564.969 95.2294 562.649 96.7094C556.249 100.799 550.649 105.899 545.829 111.789C543.999 114.029 542.439 116.509 540.949 118.999C538.049 123.819 535.059 128.599 532.509 133.599C529.299 139.869 526.269 146.259 523.579 152.769C520.769 159.559 518.109 166.439 516.779 173.729C515.909 178.489 515.039 183.229 516.529 188.059C517.679 191.799 520.229 194.139 524.169 194.189C526.449 194.219 528.849 194.019 531.019 193.339C539.299 190.749 547.519 187.989 555.099 183.649C561.879 179.759 568.309 175.399 573.019 169.009C575.049 166.259 576.819 163.319 578.629 160.409C582.149 154.749 586.019 149.359 590.579 144.459C592.439 142.459 594.049 140.289 596.829 139.469C598.679 138.929 600.469 138.449 602.449 139.059C605.189 139.909 606.529 142.139 605.439 144.819C604.729 146.559 603.769 148.249 602.659 149.769C598.659 155.289 594.449 160.659 590.499 166.219C587.149 170.939 583.959 175.789 580.889 180.709C580.029 182.079 579.649 183.869 579.469 185.519C579.259 187.459 580.179 188.279 582.209 188.219C583.599 188.179 585.079 188.039 586.359 187.529C588.969 186.499 591.479 185.189 594.029 184.009C598.239 182.049 600.659 178.189 603.609 174.919C609.499 168.379 613.849 160.759 618.459 153.309C621.489 148.419 625.219 144.059 629.999 140.689C632.219 139.119 634.519 139.199 636.899 140.029C640.149 141.159 641.279 143.689 639.679 146.709C638.509 148.909 637.049 150.989 635.509 152.969C629.899 160.219 624.449 167.599 620.029 175.649C616.979 181.209 614.039 186.859 611.399 192.629C608.389 199.209 605.749 205.959 602.989 212.649C601.129 217.159 600.199 221.899 599.719 226.729C599.389 230.009 601.199 231.479 604.069 229.949C609.959 226.829 615.799 223.469 619.569 217.739C621.259 215.179 622.469 212.199 623.369 209.249C625.409 202.529 628.479 196.309 632.049 190.349C636.399 183.089 640.819 175.869 645.529 168.849C649.919 162.309 655.449 156.709 661.039 151.159C664.389 147.839 668.139 145.219 672.349 143.209C677.949 140.539 683.559 140.349 689.169 143.249C690.789 144.089 691.839 145.359 692.379 147.049C693.019 149.039 693.999 150.939 693.739 153.159C693.649 153.909 694.039 154.719 694.319 156.029C696.379 152.919 698.139 150.139 700.029 147.459C702.219 144.339 704.219 141.079 707.389 138.739C709.519 137.169 711.729 136.459 714.159 137.519C716.689 138.629 717.829 140.839 718.069 143.549C718.229 145.309 717.339 146.619 716.339 147.919C713.339 151.839 710.239 155.699 707.429 159.749C704.509 163.959 701.729 168.279 699.129 172.699C694.999 179.729 690.919 186.799 687.089 193.989C683.979 199.839 681.099 205.839 678.429 211.909C676.819 215.569 675.189 219.369 675.589 223.539C675.709 224.749 676.009 226.359 676.839 226.999C678.179 228.039 679.759 227.129 680.909 226.059C683.329 223.799 685.799 221.559 688.019 219.109C695.049 211.359 701.869 203.429 707.229 194.389C709.699 190.219 711.539 185.739 711.859 180.789C711.999 178.669 712.739 177.949 714.879 178.019C715.669 178.049 716.459 178.279 717.239 178.489C717.909 178.669 718.559 178.929 719.429 179.219L719.399 179.179ZM671.799 183.029C671.839 178.649 672.219 178.249 676.719 179.079C678.459 179.399 679.349 178.869 680.049 177.359C681.059 175.169 682.369 173.099 683.249 170.859C685.039 166.269 686.639 161.579 686.499 156.559C686.409 153.009 684.859 151.899 681.389 152.759C680.639 152.949 679.889 153.369 679.289 153.869C675.129 157.349 671.309 161.139 667.779 165.269C662.519 171.449 657.529 177.839 653.069 184.589C647.799 192.569 642.579 200.629 638.699 209.419C637.119 212.999 635.769 216.699 634.539 220.419C634.069 221.839 634.289 223.439 635.799 224.459C637.229 225.419 638.549 224.909 639.739 224.079C643.369 221.539 647.159 219.169 650.489 216.289C657.569 210.169 663.109 202.719 667.959 194.759C670.119 191.209 671.939 187.489 671.799 183.029ZM771.559 154.819C771.319 154.729 771.079 154.639 770.839 154.549C763.179 160.029 756.509 166.629 749.929 173.309C746.869 176.409 743.959 179.649 741.069 182.899C738.149 186.179 735.279 189.509 732.509 192.909C730.939 194.839 729.659 197.009 728.129 198.969C724.769 203.279 722.259 207.929 721.099 213.349C720.519 216.069 721.369 218.309 722.479 220.549C723.189 221.979 724.559 222.559 726.189 222.789C729.559 223.259 732.069 221.739 734.249 219.529C736.219 217.529 737.969 215.309 739.849 213.229C745.819 206.629 750.439 199.049 754.999 191.489C758.939 184.959 762.389 178.139 765.939 171.379C768.229 167.019 770.059 162.439 771.199 157.619C771.409 156.709 771.449 155.749 771.569 154.809L771.559 154.819ZM1130.87 172.819C1127.58 172.679 1124.47 172.579 1121.36 172.419C1119.86 172.339 1118.37 172.139 1116.87 171.979C1115.63 171.849 1114.87 172.259 1114.28 173.499C1109.29 184.059 1103.31 194.149 1098.97 205.029C1098.08 207.269 1097.34 209.579 1096.64 211.889C1095.8 214.639 1093.58 216.559 1091.33 216.309C1088.58 216.009 1086.04 213.079 1086.12 210.199C1086.24 205.839 1087.93 201.979 1090.07 198.279C1091.41 195.969 1093.1 193.839 1094.02 190.539C1093.01 191.139 1092.4 191.289 1092.16 191.679C1088.66 197.349 1083.32 201.159 1078 204.719C1071.99 208.739 1065.46 212.139 1058.01 212.689C1051.48 213.179 1046.7 211.119 1043.96 205.499C1043 203.519 1042.9 201.759 1044.53 199.949C1045.69 198.659 1046.85 197.199 1047.25 194.609C1046.25 195.509 1045.65 195.939 1045.19 196.479C1039.43 203.199 1032.38 208.019 1024.18 211.319C1020.47 212.809 1016.7 213.679 1012.74 213.749C1008.86 213.819 1005.44 212.749 1002.72 209.709C1000.72 207.479 999.869 204.999 1000.89 202.239C1001.99 199.239 1003.36 196.309 1004.86 193.489C1007.55 188.419 1010.44 183.449 1013.23 178.439C1013.36 178.199 1013.35 177.879 1013.46 177.309C1007.37 178.399 1001.6 181.009 995.069 179.539C993.889 181.889 992.769 184.229 991.539 186.519C988.159 192.819 984.739 199.089 981.329 205.369C980.179 207.499 979.029 209.629 977.879 211.749C977.299 212.809 976.769 213.909 976.099 214.909C974.029 217.989 970.719 219.229 967.119 218.349C964.909 217.809 964.129 216.899 963.949 214.569C963.689 211.219 964.869 208.219 966.289 205.289C966.939 203.949 967.609 202.629 967.949 201.089C965.959 203.439 964.019 205.839 961.959 208.129C958.139 212.379 953.709 215.799 948.299 217.799C943.359 219.619 939.779 217.669 938.589 212.479C937.949 209.689 937.739 206.909 938.819 204.139C939.059 203.529 939.019 202.819 938.639 201.849C937.229 203.359 935.829 204.869 934.409 206.369C931.079 209.889 927.729 213.369 923.579 215.959C922.559 216.599 921.519 217.259 920.409 217.719C913.169 220.699 909.289 219.369 905.159 213.079C902.699 209.329 902.879 204.839 904.149 200.499C905.859 194.679 908.079 189.059 910.899 183.689C911.079 183.349 911.139 182.939 911.349 182.249C909.639 181.799 908.039 181.279 906.399 180.959C900.219 179.759 894.799 177.029 890.239 172.729C887.659 170.299 885.609 167.399 884.629 163.909C884.389 163.059 884.539 162.099 884.499 160.729C887.369 163.069 889.739 164.999 892.259 167.049C892.949 166.169 893.429 165.689 893.769 165.109C896.559 160.389 898.639 155.389 899.679 149.979C899.869 148.989 900.039 147.969 899.999 146.979C899.869 143.999 897.459 142.179 894.599 142.949C893.259 143.309 891.949 143.909 890.709 144.549C885.619 147.199 881.579 151.139 877.789 155.359C872.799 160.919 867.739 166.449 864.069 172.999C859.109 181.879 854.389 190.879 850.939 200.489C850.039 202.999 849.549 205.519 849.529 208.169C849.499 212.659 853.489 215.939 857.829 214.899C861.409 214.039 864.249 211.849 866.619 209.239C869.729 205.819 872.619 202.179 875.399 198.479C877.989 195.019 880.369 191.399 882.719 187.759C884.249 185.389 885.519 182.859 886.959 180.439C888.159 178.419 888.489 178.429 890.459 179.669C891.909 180.579 893.449 181.319 894.969 182.109C896.029 182.659 897.119 183.149 898.519 183.819C897.809 185.239 897.329 186.539 896.569 187.669C892.279 194.009 888.099 200.439 883.559 206.599C877.989 214.149 871.299 220.509 862.489 224.239C859.419 225.539 856.259 226.509 852.819 226.259C847.799 225.889 843.749 223.799 840.659 219.829C836.849 214.919 835.749 209.479 836.809 203.339C838.079 196.009 840.879 189.219 843.519 182.349C843.979 181.139 844.499 179.959 845.219 178.189C844.209 178.649 843.699 178.809 843.279 179.089C839.089 181.879 834.879 184.649 830.749 187.529C829.869 188.139 829.099 189.029 828.549 189.959C822.429 200.309 815.169 209.839 807.329 218.899C803.049 223.849 798.249 228.309 791.959 230.829C784.559 233.789 776.809 230.269 773.919 223.449C772.019 218.979 771.829 214.459 772.489 209.819C773.489 202.859 776.139 196.409 779.029 190.099C782.089 183.399 785.719 176.979 790.719 171.469C791.449 170.659 792.289 169.919 793.189 169.309C798.709 165.519 803.259 170.199 803.499 174.749C803.589 176.479 803.189 178.429 802.399 179.969C800.699 183.279 798.539 186.339 796.699 189.579C791.969 197.909 787.249 206.259 786.009 215.999C785.879 216.999 785.799 218.019 785.869 219.009C786.049 221.569 788.359 223.429 790.889 222.869C792.209 222.579 793.609 221.969 794.629 221.099C801.959 214.879 808.459 207.869 813.979 199.969C815.019 198.479 816.189 197.089 817.219 195.599C817.659 194.969 817.909 194.219 818.369 193.249C816.819 193.019 815.559 192.769 814.279 192.669C811.429 192.449 809.089 191.019 806.879 189.449C804.599 187.829 804.049 184.909 805.009 182.129C805.659 180.229 806.409 178.309 806.659 176.339C807.399 170.429 804.119 166.339 797.729 164.859C797.689 164.669 797.549 164.419 797.629 164.309C802.669 157.029 807.339 149.449 812.889 142.569C817.629 136.699 823.879 132.489 831.679 131.329C838.219 130.359 845.409 133.849 848.529 139.599C850.879 143.929 850.519 148.609 849.549 153.169C848.909 156.199 847.769 159.139 846.599 162.019C845.599 164.479 844.239 166.799 842.969 169.319C847.349 166.339 851.309 163.119 853.279 157.839C855.039 153.139 857.229 148.599 859.179 143.969C860.659 140.449 861.999 136.859 863.509 133.349C865.589 128.549 867.749 123.789 869.919 119.039C872.849 112.629 875.729 106.189 878.789 99.8394C882.319 92.4994 886.009 85.2494 889.659 77.9694C890.549 76.1794 891.959 75.2994 894.059 75.4994C898.169 75.8994 902.289 76.1294 906.399 76.5794C907.259 76.6694 908.059 77.4094 909.059 77.9394C907.799 79.5994 906.769 80.9094 905.779 82.2594C900.709 89.1894 896.699 96.7494 892.429 104.169C886.089 115.209 881.099 126.879 875.669 138.349C875.509 138.689 875.479 139.089 875.759 139.809C876.779 138.969 877.879 138.219 878.799 137.279C883.029 132.979 888.059 129.849 893.369 127.149C897.759 124.919 905.339 126.579 908.709 130.359C913.739 135.999 914.919 142.579 913.549 149.829C912.209 156.889 910.139 163.719 907.029 170.209C906.769 170.749 906.559 171.319 906.359 171.889C906.299 172.059 906.379 172.279 906.419 172.899C908.809 173.169 911.269 173.509 913.739 173.689C915.259 173.799 916.229 173.039 917.079 171.639C920.589 165.799 924.139 159.969 927.939 154.299C933.809 145.539 940.929 137.899 949.549 131.769C953.089 129.249 956.979 127.219 961.229 126.179C966.659 124.849 971.439 125.899 974.889 130.739C975.169 131.129 975.479 131.489 975.969 132.109C977.329 130.189 978.579 128.499 979.729 126.759C981.959 123.389 985.079 122.349 988.919 123.079C991.509 123.569 992.879 125.349 992.159 127.899C991.569 129.989 990.499 131.989 989.399 133.879C984.549 142.239 979.519 150.489 974.729 158.879C968.849 169.189 963.119 179.579 957.369 189.959C955.029 194.179 952.749 198.439 950.539 202.729C949.979 203.819 949.809 205.099 949.419 206.449C951.579 206.689 952.779 205.689 953.849 204.699C957.319 201.479 960.839 198.289 964.059 194.819C968.739 189.779 972.619 184.149 975.619 177.919C977.589 173.829 978.559 169.579 978.669 165.089C978.689 164.399 978.649 163.629 978.919 163.029C979.849 160.999 981.849 160.559 983.679 161.959C984.539 162.619 985.259 163.449 986.229 164.379C986.539 163.869 986.949 163.239 987.309 162.589C990.929 156.079 994.559 149.569 998.169 143.059C1000.85 138.219 1003.28 133.219 1006.3 128.599C1007.84 126.239 1010.23 124.279 1012.6 122.669C1014.32 121.499 1016.72 121.369 1018.58 122.809C1020.52 124.309 1020.95 126.659 1020.52 128.849C1020.07 131.179 1019.22 133.509 1018.14 135.629C1014.03 143.699 1009.74 151.689 1005.54 159.719C1003.82 163.009 1002.13 166.319 1000.15 170.169C1002.68 169.739 1004.88 169.639 1006.89 168.949C1011.16 167.479 1015.35 165.759 1019.53 164.039C1021.81 163.099 1023.59 161.469 1024.96 159.379C1031.63 149.179 1038.32 138.979 1045.01 128.799C1046.39 126.699 1047.67 124.509 1049.27 122.579C1050.95 120.539 1053.36 119.539 1055.99 119.739C1059.33 119.999 1061.35 124.089 1059.87 127.429C1059.26 128.799 1058.41 130.069 1057.63 131.359C1054.09 137.219 1050.54 143.079 1046.98 148.929C1042.79 155.809 1038.57 162.669 1034.41 169.579C1031.55 174.319 1028.79 179.119 1025.97 183.879C1023.86 187.429 1021.64 190.919 1019.63 194.519C1018.36 196.799 1017.26 199.199 1016.29 201.629C1015.41 203.839 1015.88 204.529 1018.14 205.089C1019.73 205.479 1021.17 205.349 1022.77 204.659C1030.33 201.429 1036.55 196.559 1042 190.429C1046.18 185.719 1049.91 180.789 1052.57 175.069C1055.18 169.469 1057.15 163.679 1057.82 157.499C1057.94 156.419 1058.28 155.309 1058.78 154.349C1059.84 152.319 1061.49 152.259 1062.73 154.159C1063.09 154.719 1063.18 155.459 1063.54 156.559C1064.95 153.989 1066.11 151.629 1067.48 149.409C1073.57 139.549 1079.13 129.329 1086.66 120.429C1087.75 119.139 1089.03 117.919 1090.45 117.029C1093.28 115.259 1095.89 115.659 1097.82 117.839C1099.94 120.239 1100.31 123.499 1098.65 125.939C1097.17 128.099 1095.56 130.169 1094.09 132.339C1089.8 138.659 1085.94 145.239 1082.35 151.989C1076.85 162.349 1071.19 172.619 1065.66 182.969C1062.98 187.989 1060.39 193.069 1057.83 198.149C1057.06 199.669 1056.05 201.549 1057.21 202.979C1058.43 204.489 1060.4 203.629 1062.02 203.079C1070.53 200.139 1077.98 195.409 1084.66 189.449C1090.23 184.479 1094.52 178.559 1097.45 171.669C1098.71 168.699 1098.88 165.629 1098.71 162.469C1098.64 161.199 1098.74 159.849 1099.11 158.649C1099.65 156.889 1101.01 156.229 1102.9 156.419C1104.47 156.569 1104.73 157.729 1104.98 158.969C1105.12 159.619 1105.42 160.239 1105.71 161.039C1108.28 156.119 1110.7 151.389 1113.21 146.709C1117.59 138.539 1122.03 130.409 1126.44 122.259C1127.54 120.219 1128.55 118.139 1129.69 116.119C1131.39 113.109 1134.84 111.729 1137.91 112.729C1140.54 113.589 1142.62 117.259 1142.15 120.379C1141.99 121.459 1141.73 122.589 1141.25 123.559C1139.41 127.259 1137.52 130.929 1135.53 134.549C1133.35 138.509 1130.98 142.359 1128.79 146.319C1126.17 151.069 1123.65 155.869 1121.09 160.649C1120.76 161.259 1120.5 161.909 1120.03 162.919C1124.85 164.199 1129.52 163.759 1134.36 163.589C1135.74 160.479 1137.11 157.359 1138.49 154.249C1138.86 153.419 1139.13 152.539 1139.58 151.769C1143.24 145.549 1146.01 138.809 1150.77 133.239C1151.87 131.949 1152.55 130.289 1153.63 128.969C1156.18 125.849 1158.83 122.819 1161.48 119.779C1164.94 115.819 1168.81 112.269 1173.29 109.509C1179.58 105.629 1186.17 102.359 1193.7 101.649C1196.75 101.359 1199.78 101.569 1202.56 102.979C1208.58 106.019 1210.15 111.149 1209.14 117.759C1208.38 122.739 1205.89 127.129 1203.18 131.219C1196.76 140.899 1188.61 149.009 1179.01 155.519C1173.02 159.579 1166.7 163.159 1160.49 166.899C1159.39 167.559 1158.11 167.899 1156.5 168.559C1156.18 167.449 1155.59 166.499 1155.73 165.679C1156.44 161.519 1157.76 157.849 1162.1 155.799C1167.76 153.139 1173.02 149.769 1177.64 145.469C1180.73 142.599 1184.07 139.969 1187.05 136.979C1191.88 132.139 1195.34 126.349 1197.88 120.009C1197.95 119.819 1198.08 119.649 1198.11 119.449C1198.4 117.899 1199.15 116.279 1197.62 114.929C1196.05 113.549 1194.39 114.029 1192.85 114.889C1188.9 117.109 1184.61 118.949 1181.17 121.809C1174.12 127.679 1167.49 134.089 1162.74 142.079C1159.55 147.449 1156.49 152.899 1153.63 158.439C1151.93 161.739 1150.76 165.319 1149.29 168.749C1146.86 174.409 1144.41 180.069 1143.67 186.249C1143.34 189.029 1143.3 191.869 1143.35 194.669C1143.47 201.099 1145.12 207.149 1147.94 212.939C1151.72 220.689 1157.69 225.459 1166.28 226.529C1170.72 227.089 1175.1 226.489 1179.22 224.419C1189.01 219.509 1196.13 211.909 1201.71 202.649C1204.6 197.859 1206.7 192.779 1208.19 187.399C1210.24 179.989 1209.36 172.809 1206.61 165.799C1205.66 163.369 1204.28 161.109 1203.11 158.769C1202.7 157.959 1202.25 157.159 1201.94 156.319C1201.2 154.289 1201.53 153.189 1203.08 152.129C1205.1 150.749 1206.53 150.559 1207.97 152.089C1210.51 154.789 1213.6 155.849 1217.16 155.969C1218.14 155.999 1218.84 156.349 1219.24 157.369C1221.41 162.899 1223.7 168.359 1224.51 174.349C1225.58 182.339 1224.75 190.009 1221.61 197.439C1216.53 209.489 1209.55 220.219 1199.78 229.009C1195.97 232.439 1192.04 235.709 1187.27 237.869C1178.55 241.829 1169.43 242.879 1160.44 240.069C1149.28 236.579 1140.84 229.279 1135.19 218.859C1127.84 205.289 1127 191.069 1130.56 176.329C1130.72 175.649 1130.88 174.959 1130.99 174.269C1131.03 173.989 1130.93 173.679 1130.83 172.839L1130.87 172.819ZM818.989 180.909C822.129 181.199 825.029 180.209 827.699 178.819C829.339 177.969 830.959 176.639 831.969 175.109C836.299 168.529 839.809 161.489 842.139 153.949C842.809 151.779 842.969 149.389 842.959 147.099C842.949 144.749 841.399 143.509 839.039 143.359C836.829 143.219 834.839 143.909 833.009 145.039C828.059 148.089 823.769 151.859 820.519 156.719C818.619 159.569 816.649 162.369 814.869 165.299C812.769 168.759 811.769 172.489 812.689 176.579C813.269 179.149 814.239 180.159 816.889 180.659C817.579 180.789 818.289 180.829 818.989 180.909ZM935.529 171.349C935.669 171.579 935.809 171.799 935.949 172.029C937.569 171.589 939.209 171.219 940.789 170.689C944.749 169.359 948.079 166.869 951.439 164.509C958.489 159.549 963.629 152.869 967.959 145.529C968.919 143.899 969.529 142.059 970.159 140.269C970.369 139.679 970.289 138.869 970.039 138.279C969.269 136.399 967.699 135.919 965.519 137.019C961.809 138.879 958.249 141.099 955.569 144.279C950.839 149.889 946.269 155.649 941.849 161.519C939.509 164.619 937.619 168.069 935.529 171.359V171.349ZM916.989 208.369C918.569 209.189 919.659 208.249 920.579 207.389C924.839 203.409 929.239 199.539 933.199 195.269C938.749 189.299 943.949 183.019 949.289 176.849C949.559 176.539 949.659 176.069 950.039 175.249C948.999 175.659 948.439 175.849 947.899 176.099C942.559 178.509 937.009 180.309 931.239 181.309C929.469 181.619 928.319 182.379 927.419 183.839C923.789 189.769 920.209 195.729 917.899 202.319C917.229 204.249 916.129 206.219 916.989 208.359V208.369ZM863.789 54.0894C859.699 52.3894 855.489 51.7194 851.189 51.3594C848.399 51.1194 845.649 50.3694 842.879 49.9194C835.419 48.6994 827.959 47.5094 820.499 46.3094C812.239 44.9794 803.989 43.6194 795.729 42.3594C792.839 41.9194 789.899 41.8194 787.009 41.3894C775.059 39.6194 763.129 37.6994 751.169 35.9794C742.019 34.6694 732.829 33.6294 723.549 33.8894C718.469 34.0294 713.379 33.7694 708.299 33.9794C705.029 34.1194 701.779 34.8594 698.519 35.2094C689.609 36.1394 681.059 38.6794 672.539 41.2494C668.239 42.5494 664.099 44.4994 660.019 46.4194C657.409 47.6494 654.999 49.3094 652.569 50.8794C651.489 51.5794 650.559 52.5194 649.589 53.3694C646.149 56.3894 645.259 60.2594 645.819 64.6194C645.919 65.3994 646.029 66.1794 646.179 67.2794C645.159 67.2394 644.349 67.1994 643.389 67.1694C643.459 65.5794 643.259 64.0294 643.619 62.6294C645.559 54.9594 649.779 48.5794 655.759 43.5894C659.919 40.1194 664.869 37.7494 669.959 35.7394C675.509 33.5494 681.139 31.6194 686.999 30.5594C692.939 29.4894 698.919 28.5294 704.919 27.9094C711.519 27.2194 718.159 26.6294 724.789 26.6194C730.699 26.6094 736.619 27.3694 742.519 27.9294C747.019 28.3594 751.519 28.9194 755.999 29.5594C766.069 30.9894 776.129 32.5394 786.199 33.9494C795.969 35.3194 805.779 36.4694 815.549 37.8994C823.299 39.0394 831.009 40.4894 838.739 41.7294C848.299 43.2694 857.859 44.7594 867.429 46.2094C874.169 47.2294 880.929 48.0994 887.669 49.0794C893.379 49.9094 899.109 50.5394 904.849 51.0994C905.449 51.1594 906.059 51.2194 906.639 51.3794C909.089 52.0894 910.869 51.6494 912.709 49.4994C915.009 46.8194 917.959 44.6894 920.689 42.3894C922.749 40.6494 924.889 39.0194 927.009 37.3394C932.979 32.6094 939.179 28.2594 945.749 24.3394C950.509 21.4994 955.279 18.7994 960.359 16.6194C963.369 15.3294 966.279 13.7794 969.319 12.5694C974.969 10.3094 980.629 8.07937 986.379 6.09937C989.969 4.86937 993.699 4.00937 997.409 3.18937C1000.92 2.40937 1004.47 1.77937 1008.04 1.30937C1011.72 0.819371 1015.44 0.599372 1019.14 0.289372C1020.74 0.159372 1022.37 -0.120628 1023.95 0.0293716C1030.05 0.609372 1036.26 0.769372 1042.18 2.15937C1047.99 3.51937 1053.89 5.26937 1058.94 8.75937C1064.94 12.9094 1069.69 18.1394 1072.26 25.1094C1073.68 28.9694 1073.06 32.8694 1072.43 36.7594C1071.73 41.1194 1069.76 45.0494 1067.22 48.4894C1064.6 52.0294 1061.12 54.8794 1057.31 57.2294C1050.42 61.4894 1042.93 64.3794 1035.32 67.0294C1029.65 69.0094 1023.79 70.3294 1017.91 71.3294C1007.44 73.1094 996.939 74.7694 986.229 74.4594C980.099 74.2894 973.959 74.7694 967.829 74.7194C953.809 74.5994 939.799 74.0894 925.819 72.8294C914.479 71.8094 903.059 71.2794 891.799 69.6894C882.079 68.3194 872.319 68.2294 862.589 67.8494C853.119 67.4794 843.689 66.6994 834.259 66.0294C825.119 65.3794 816.019 64.1594 806.879 63.6494C796.929 63.0894 786.979 61.9494 776.989 62.7594C771.059 63.2394 765.139 63.7594 759.229 64.4194C752.029 65.2294 744.779 65.8194 737.679 67.2094C731.199 68.4794 724.659 69.8394 718.589 72.6994C716.149 73.8494 713.599 74.7494 711.119 75.8194C705.629 78.1894 700.749 81.5594 695.999 85.1294C692.639 87.6494 689.279 90.2094 686.819 93.6694C684.889 96.3794 683.399 99.3094 682.739 102.639C682.149 105.599 682.869 108.229 684.239 110.779C684.339 110.959 684.449 111.119 684.549 111.299C685.789 113.459 685.799 114.309 684.599 114.879C682.879 115.689 680.919 114.879 680.249 112.929C678.889 108.929 677.849 104.809 676.279 100.899C674.109 95.4994 674.979 90.4894 677.269 85.4194C679.349 80.8094 682.479 77.0694 686.249 73.8094C693.919 67.1794 702.879 62.8994 712.369 59.6094C716.449 58.1994 720.509 56.6594 724.689 55.5794C733.359 53.3394 742.129 51.6794 751.119 51.1694C758.259 50.7594 765.359 49.8294 772.499 49.4094C779.639 48.9994 786.779 48.6594 793.939 49.2894C798.219 49.6594 802.549 49.4994 806.849 49.7694C812.559 50.1294 818.259 50.6794 823.959 51.1494C834.679 52.0294 845.399 52.9294 856.119 53.7694C858.679 53.9694 861.259 53.9994 863.829 54.0994L863.789 54.0894ZM931.489 53.3994C931.549 53.6394 931.619 53.8894 931.679 54.1294C933.699 54.4594 935.699 54.9594 937.729 55.0894C941.479 55.3194 945.239 55.2694 948.999 55.4594C951.779 55.5994 954.559 55.8594 957.329 56.1694C960.669 56.5494 964.129 55.4594 967.369 57.0094C967.519 57.0794 967.799 57.0594 967.949 56.9694C969.909 55.7794 971.959 56.3294 973.999 56.6294C974.589 56.7194 975.199 56.6694 975.799 56.6794C978.549 56.6894 981.309 56.7794 984.049 56.6794C986.199 56.6094 988.339 56.3294 990.479 56.0994C992.079 55.9294 993.669 55.5694 995.279 55.5294C1003.06 55.3094 1010.76 54.4894 1018.36 52.8094C1021.1 52.2094 1023.89 51.7794 1026.58 51.0094C1029.66 50.1294 1032.67 48.9694 1035.69 47.8894C1042.4 45.4694 1048.32 41.7194 1053.59 36.9594C1056.3 34.5094 1057.8 31.3294 1058.36 27.7294C1058.67 25.7394 1058.33 23.8294 1056.77 22.4594C1052.88 19.0394 1048.6 16.3694 1043.44 15.1494C1035.92 13.3694 1028.32 13.4294 1020.71 13.9294C1012.65 14.4594 1004.78 16.0894 997.069 18.4694C993.719 19.4994 990.419 20.6994 987.079 21.7894C984.429 22.6594 981.649 23.2294 979.129 24.3694C973.559 26.9094 968.069 29.6494 962.629 32.4594C957.749 34.9694 952.689 37.1494 948.279 40.5394C944.189 43.6894 939.939 46.6394 935.809 49.7394C934.299 50.8694 932.929 52.1794 931.499 53.3994H931.489ZM545.679 206.239C539.769 214.519 533.949 222.609 527.289 230.079C523.479 234.359 520.219 239.139 516.569 243.569C515.039 245.419 513.169 246.989 511.379 248.609C507.339 252.269 503.209 255.799 498.189 258.089C492.599 260.629 486.979 261.559 480.929 259.379C476.239 257.689 472.109 255.429 469.129 251.379C468.119 250.009 467.129 248.569 466.449 247.019C463.139 239.489 461.609 231.649 462.799 223.419C463.379 219.429 463.949 215.429 464.789 211.489C466.069 205.449 469.269 200.249 472.809 195.339C475.619 191.439 478.869 187.869 481.909 184.139C482.629 183.259 483.699 182.529 483.409 181.029C482.099 180.839 481.509 181.739 480.839 182.419C476.519 186.779 472.289 191.239 467.869 195.509C462.789 200.409 457.529 205.149 451.469 208.809C448.009 210.899 444.119 212.139 440.019 212.269C434.749 212.439 429.279 205.839 430.259 200.609C430.689 198.309 433.299 196.609 435.299 197.969C439.059 200.529 441.939 198.479 444.729 196.709C460.499 186.739 474.589 174.739 486.989 160.799C489.729 157.719 492.119 154.319 494.699 151.089C495.449 150.149 496.189 149.129 497.139 148.439C497.659 148.059 498.809 147.999 499.329 148.329C499.779 148.619 500.029 149.719 499.889 150.369C499.069 154.219 497.899 157.999 497.239 161.859C496.279 167.519 495.819 173.259 494.789 178.899C494.309 181.519 493.109 184.039 491.979 186.489C489.429 192.019 486.589 197.419 484.139 202.989C482.849 205.919 481.869 209.049 481.209 212.179C479.869 218.459 478.729 224.789 477.749 231.139C477.309 233.999 477.249 236.909 477.819 239.849C478.339 242.559 479.609 244.739 481.349 246.729C483.329 248.989 488.169 249.909 491.209 248.599C495.119 246.909 498.669 244.739 501.859 241.819C510.099 234.269 517.159 225.779 523.039 216.309C523.889 214.949 524.429 213.399 525.289 212.049C525.719 211.369 526.519 210.519 527.209 210.469C533.319 210.019 539.059 208.169 544.789 206.229C544.959 206.169 545.169 206.229 545.659 206.259L545.679 206.239ZM672.729 279.789C670.989 282.579 669.419 285.509 667.459 288.149C662.349 295.039 656.609 301.429 650.299 307.199C645.109 311.939 639.419 316.149 633.709 320.269C626.589 325.419 618.559 328.979 610.629 332.649C603.189 336.089 595.229 337.989 587.209 339.609C575.769 341.919 564.349 341.479 553.069 338.739C544.319 336.619 536.699 332.239 529.809 326.429C523.579 321.189 518.789 314.859 515.499 307.569C512.759 301.519 511.379 295.009 511.889 288.179C512.289 282.879 513.419 277.869 516.029 273.239C517.319 270.949 519.249 269.419 521.899 268.869C523.279 268.579 524.599 268.639 525.479 269.799C526.379 270.979 525.479 272.079 524.929 273.129C520.349 281.849 519.449 291.039 522.389 300.329C524.389 306.649 528.409 311.929 533.469 316.269C541.419 323.099 550.659 327.249 561.059 328.189C571.889 329.169 582.769 329.199 593.439 326.519C595.869 325.909 598.179 324.809 600.519 323.889C608.429 320.799 615.359 315.979 622.359 311.309C625.599 309.149 628.609 306.659 631.739 304.329C633.169 303.259 634.679 302.279 636.059 301.139C642.519 295.829 648.369 289.909 653.819 283.579C654.389 282.919 655.109 282.149 655.889 281.939C661.229 280.489 666.659 279.499 672.179 279.129C672.359 279.349 672.529 279.569 672.709 279.789H672.729Z" fill="url(#paint0_linear_2779_37650)"/>
<defs>
<linearGradient id="paint0_linear_2779_37650" x1="-0.000843989" y1="170.539" x2="1225" y2="170.539" gradientUnits="userSpaceOnUse">
<stop stop-color="#D89818"/>
<stop offset="0.32" stop-color="#FFCF28"/>
<stop offset="0.68" stop-color="#F8EF91"/>
<stop offset="1" stop-color="#EBBE26"/>
</linearGradient>
</defs>
</svg>
