<svg width="311" height="200" viewBox="0 0 311 200" fill="none" xmlns="http://www.w3.org/2000/svg">
<path d="M13.8418 135.603C13.8867 131.088 15.3018 127.427 18.1094 124.619C20.917 121.812 24.5557 120.419 29.0703 120.419C33.5625 120.419 37.2236 121.812 40.0312 124.619C42.8389 127.427 44.2539 131.11 44.2988 135.647C44.2539 140.162 42.8389 143.823 40.0312 146.631C37.2236 149.438 33.585 150.831 29.0703 150.831C24.5781 150.831 20.9395 149.416 18.1318 146.608C15.3242 143.801 13.8867 140.14 13.8418 135.603ZM21.6807 127.741C19.7266 129.74 18.7607 132.368 18.7607 135.603C18.7607 138.837 19.7266 141.465 21.6807 143.464C23.6123 145.485 26.083 146.496 29.0703 146.496C32.0576 146.496 34.5283 145.485 36.4824 143.486C38.4141 141.487 39.3799 138.882 39.3799 135.647C39.3799 132.413 38.4141 129.785 36.4824 127.764C34.5283 125.765 32.0576 124.754 29.0703 124.754C26.083 124.754 23.6123 125.742 21.6807 127.741ZM47.5107 130.212V120.936H52.1602V129.448C52.1602 132.256 52.7441 134.12 54.002 135.131C55.2598 136.142 56.8096 136.479 59.168 136.479C60.291 136.479 61.5039 136.344 62.7842 136.052C64.0645 135.76 65.1426 135.378 66.0186 134.906V120.936H70.668V150H66.0186V139.106C64.8955 139.735 63.5703 140.207 62.0205 140.521C60.4707 140.836 58.9658 140.993 57.5508 140.993C54.541 141.038 51.5986 140.117 49.5996 137.669C48.3418 136.074 47.5107 133.469 47.5107 130.212ZM78.8662 150H73.7227L87.6035 120.936H88.9736L103.236 150H98.0479L95.2402 144.07H81.5391L78.8662 150ZM88.2998 129.111L83.3359 140.117H93.3984L88.2998 129.111ZM110.918 150H106.291V120.936H117.364C121.34 120.936 124.395 122.036 126.124 123.923C127.854 125.81 128.685 128.168 128.685 131.043C128.685 138.545 123.047 141.308 117.185 141.308C115.051 141.308 112.962 141.083 110.918 140.611V150ZM110.918 125.248V136.703C112.445 137.018 114.197 137.175 116.174 137.175C118.487 137.175 120.352 136.681 121.722 135.67C123.092 134.659 123.766 133.087 123.766 130.908C123.766 127.786 122.351 125.248 116.915 125.248H110.918ZM131.447 135.603C131.492 131.088 132.907 127.427 135.715 124.619C138.522 121.812 142.161 120.419 146.676 120.419C151.168 120.419 154.829 121.812 157.637 124.619C160.444 127.427 161.859 131.11 161.904 135.647C161.859 140.162 160.444 143.823 157.637 146.631C154.829 149.438 151.19 150.831 146.676 150.831C142.184 150.831 138.545 149.416 135.737 146.608C132.93 143.801 131.492 140.14 131.447 135.603ZM139.286 127.741C137.332 129.74 136.366 132.368 136.366 135.603C136.366 138.837 137.332 141.465 139.286 143.464C141.218 145.485 143.688 146.496 146.676 146.496C149.663 146.496 152.134 145.485 154.088 143.486C156.02 141.487 156.985 138.882 156.985 135.647C156.985 132.413 156.02 129.785 154.088 127.764C152.134 125.765 149.663 124.754 146.676 124.754C143.688 124.754 141.218 125.742 139.286 127.741ZM167.25 149.955V120.936C171.428 120.778 174.752 120.688 177.223 120.688C184.837 120.688 188.543 123.249 188.543 127.562C188.543 131.133 186.881 133.491 183.579 134.637C187.869 135.647 189.688 137.983 189.688 141.667C189.688 144.43 188.588 146.519 186.364 147.956C184.141 149.416 181.063 150.135 177.133 150.135C173.651 150.135 170.372 150.067 167.25 149.955ZM171.877 137.13V146.092C172.865 146.159 174.595 146.182 177.043 146.182C182.254 146.182 184.77 144.744 184.77 141.442C184.77 138.567 182.299 137.13 177.357 137.13H171.877ZM171.877 124.844V133.267H177.133C181.063 133.267 183.534 131.762 183.534 128.797C183.534 125.967 181.288 124.552 176.818 124.552C175.044 124.552 173.404 124.642 171.877 124.844ZM196.202 150H191.059L204.939 120.936H206.31L220.572 150H215.384L212.576 144.07H198.875L196.202 150ZM205.636 129.111L200.672 140.117H210.734L205.636 129.111ZM228.254 150H223.627V120.936H228.254V133.199H243.64V120.936H248.267V150H243.64V137.624H228.254V150ZM257.094 150H255.297V120.936H259.924V140.993L279.061 120.936H280.857V150H276.208V129.897L257.094 150ZM308.934 150H287.865V120.936H308.731V125.248H292.312V133.199H306.71V137.579H292.312V145.665H308.934V150Z" fill="white"/>
<path d="M283.6 13.912C283.6 17.944 282.288 21.688 279.664 25.144C277.04 28.536 273.52 31.672 269.104 34.552C264.752 37.432 259.696 40.024 253.936 42.328C248.24 44.632 242.256 46.68 235.984 48.472C229.776 50.264 223.536 51.832 217.264 53.176C210.992 54.456 205.104 55.544 199.6 56.44C196.848 59.832 194 63.736 191.056 68.152C188.112 72.568 185.424 77.08 182.992 81.688C180.56 86.232 178.544 90.584 176.944 94.744C175.408 98.904 174.64 102.392 174.64 105.208C174.64 106.936 175.056 108.44 175.888 109.72C176.72 111 177.776 112.056 179.056 112.888C180.336 113.72 181.744 114.36 183.28 114.808C184.816 115.192 186.288 115.384 187.696 115.384C190.32 115.384 192.88 114.84 195.376 113.752C197.936 112.6 200.368 111.096 202.672 109.24C204.976 107.32 207.152 105.112 209.2 102.616C211.312 100.12 213.232 97.496 214.96 94.744C213.104 97.752 211.216 100.632 209.296 103.384C207.376 106.072 205.264 108.472 202.96 110.584C200.72 112.632 198.224 114.264 195.472 115.48C192.72 116.696 189.584 117.304 186.064 117.304C184.016 117.304 182.064 117.016 180.208 116.44C178.352 115.864 176.72 115.032 175.312 113.944C173.904 112.792 172.784 111.384 171.952 109.72C171.12 107.992 170.704 106.008 170.704 103.768C170.704 100.632 171.408 97.016 172.816 92.92C174.224 88.76 175.984 84.536 178.096 80.248C180.272 75.96 182.672 71.832 185.296 67.864C187.92 63.832 190.448 60.344 192.88 57.4L182.224 58.456L144.88 103.864C140.848 108.792 137.392 112.248 134.512 114.232C131.632 116.152 129.392 117.112 127.792 117.112C126.768 117.112 126 116.76 125.488 116.056C124.976 115.352 124.72 114.424 124.72 113.272C124.72 111.992 125.008 110.52 125.584 108.856C126.224 107.128 127.184 105.336 128.464 103.48C129.872 101.368 131.728 98.68 134.032 95.416C136.4 92.152 139.056 88.568 142 84.664C145.008 80.76 148.208 76.728 151.6 72.568C154.992 68.408 158.448 64.408 161.968 60.568L149.008 62.008C146 65.656 142.448 69.496 138.352 73.528C134.256 77.56 129.776 81.56 124.912 85.528C120.048 89.496 114.864 93.304 109.36 96.952C103.92 100.536 98.352 103.704 92.656 106.456C86.96 109.208 81.232 111.416 75.472 113.08C69.712 114.68 64.08 115.48 58.576 115.48C52.944 115.48 47.6 114.552 42.544 112.696C37.552 110.776 33.008 107.608 28.912 103.192C24.56 106.584 20.784 110.2 17.584 114.04C14.32 117.88 11.632 121.848 9.52 125.944C7.344 130.104 5.744 134.328 4.72 138.616C3.632 142.968 3.088 147.288 3.088 151.576C3.088 158.296 4.208 164.472 6.448 170.104C8.688 175.736 11.984 180.568 16.336 184.6C20.624 188.696 25.936 191.864 32.272 194.104C38.608 196.408 45.84 197.56 53.968 197.56C57.232 197.56 61.168 197.016 65.776 195.928C70.384 194.84 75.184 193.24 80.176 191.128C85.232 189.08 90.224 186.488 95.152 183.352C100.144 180.216 104.592 176.568 108.496 172.408C112.464 168.312 115.664 163.736 118.096 158.68C120.592 153.624 121.84 148.088 121.84 142.072C121.84 139.064 121.232 136.472 120.016 134.296C118.8 132.12 117.2 130.328 115.216 128.92C113.232 127.576 110.928 126.584 108.304 125.944C105.68 125.304 102.992 124.984 100.24 124.984C95.696 124.984 91.504 125.912 87.664 127.768C83.888 129.688 80.464 132.12 77.392 135.064C74.32 138.008 71.632 141.272 69.328 144.856C67.088 148.504 65.264 152.056 63.856 155.512C65.008 151.672 66.704 147.864 68.944 144.088C71.248 140.376 73.968 137.016 77.104 134.008C80.304 131.064 83.856 128.664 87.76 126.808C91.728 124.952 95.984 124.024 100.528 124.024C103.664 124.024 106.64 124.44 109.456 125.272C112.336 126.168 114.864 127.48 117.04 129.208C119.216 130.936 120.944 133.08 122.224 135.64C123.568 138.264 124.24 141.272 124.24 144.664C124.24 150.424 123.056 155.768 120.688 160.696C118.32 165.624 115.184 170.104 111.28 174.136C107.44 178.232 102.992 181.848 97.936 184.984C92.944 188.12 87.792 190.744 82.48 192.856C77.168 194.968 71.888 196.568 66.64 197.656C61.456 198.808 56.72 199.384 52.432 199.384C45.456 199.384 38.832 198.296 32.56 196.12C26.288 194.008 20.816 190.936 16.144 186.904C11.408 182.872 7.664 177.976 4.912 172.216C2.16 166.52 0.783998 160.088 0.783998 152.92C0.783998 148.44 1.392 143.928 2.608 139.384C3.76 134.84 5.488 130.36 7.792 125.944C10.032 121.592 12.848 117.368 16.24 113.272C19.568 109.176 23.44 105.336 27.856 101.752C26.192 99.832 24.656 97.176 23.248 93.784C21.904 90.392 21.232 86.488 21.232 82.072C21.232 77.784 21.968 73.784 23.44 70.072C24.912 66.36 26.896 62.968 29.392 59.896C31.888 56.824 34.768 54.104 38.032 51.736C41.36 49.304 44.816 47.256 48.4 45.592C52.048 43.928 55.728 42.68 59.44 41.848C63.216 40.952 66.832 40.504 70.288 40.504C74.704 40.504 78.736 41.048 82.384 42.136C86.032 43.224 89.136 44.792 91.696 46.84C94.32 48.888 96.336 51.384 97.744 54.328C99.216 57.272 99.952 60.632 99.952 64.408C99.952 64.856 99.92 65.304 99.856 65.752C99.856 66.2 99.824 66.68 99.76 67.192C108.208 64.952 116.496 63.32 124.624 62.296C132.816 61.208 140.592 60.408 147.952 59.896C151.216 56.952 154.288 54.072 157.168 51.256C160.048 48.44 162.96 45.624 165.904 42.808C168.912 39.928 172.08 37.048 175.408 34.168C178.8 31.224 182.576 28.152 186.736 24.952C188.784 23.352 190.576 22.104 192.112 21.208C193.712 20.248 194.928 19.768 195.76 19.768C196.464 19.768 196.816 20.088 196.816 20.728C196.816 21.304 196.496 22.168 195.856 23.32C195.216 24.472 194.16 25.944 192.688 27.736L168.208 58.456L180.784 57.112C183.216 53.848 186.16 50.584 189.616 47.32C193.072 43.992 196.592 40.824 200.176 37.816C203.76 34.808 207.184 32.056 210.448 29.56C213.712 27 216.4 24.888 218.512 23.224C215.824 25.528 212.816 28.184 209.488 31.192C206.224 34.136 202.96 37.176 199.696 40.312C196.496 43.448 193.456 46.488 190.576 49.432C187.76 52.376 185.424 54.936 183.568 57.112L194.032 55.672C196.912 52.664 200.144 49.368 203.728 45.784C207.376 42.136 211.248 38.456 215.344 34.744C219.44 31.032 223.76 27.448 228.304 23.992C232.848 20.536 237.488 17.464 242.224 14.776C247.024 12.088 251.824 9.94399 256.624 8.34399C261.488 6.67999 266.32 5.84799 271.12 5.84799C272.656 5.84799 274.16 6.03999 275.632 6.424C277.168 6.744 278.512 7.256 279.664 7.96C280.816 8.6 281.744 9.432 282.448 10.456C283.216 11.416 283.6 12.568 283.6 13.912ZM282.352 14.104C282.352 12.952 282.032 11.928 281.392 11.032C280.752 10.136 279.888 9.4 278.8 8.82399C277.776 8.18399 276.592 7.70399 275.248 7.384C273.904 7.064 272.528 6.904 271.12 6.904C267.088 6.904 262.832 7.70399 258.352 9.30399C253.872 10.84 249.36 12.92 244.816 15.544C240.272 18.104 235.792 21.08 231.376 24.472C226.96 27.8 222.8 31.256 218.896 34.84C214.992 38.36 211.472 41.88 208.336 45.4C205.2 48.92 202.64 52.12 200.656 55C207.504 53.72 214.256 52.28 220.912 50.68C227.632 49.016 234 47.192 240.016 45.208C246.096 43.224 251.696 41.08 256.816 38.776C262 36.472 266.48 34.04 270.256 31.48C274.032 28.856 276.976 26.104 279.088 23.224C281.264 20.28 282.352 17.24 282.352 14.104ZM194.992 21.688C194.992 21.432 194.864 21.304 194.608 21.304C193.968 21.304 192.784 21.88 191.056 23.032C189.328 24.184 187.536 25.528 185.68 27.064C181.712 30.2 178.224 33.144 175.216 35.896C172.208 38.648 169.392 41.336 166.768 43.96C164.208 46.52 161.68 49.112 159.184 51.736C156.688 54.296 154 57.016 151.12 59.896L163.312 58.84L191.248 27.064C192.592 25.592 193.552 24.408 194.128 23.512C194.704 22.616 194.992 22.008 194.992 21.688ZM166.864 59.896L132.592 105.592C129.328 109.944 127.696 113.016 127.696 114.808C127.696 115.64 128.048 116.056 128.752 116.056C129.776 116.056 131.6 115.16 134.224 113.368C136.848 111.512 140.048 108.216 143.824 103.48L179.728 58.456L166.864 59.896ZM146.224 62.008C144.24 62.072 141.904 62.232 139.216 62.488C136.592 62.744 133.776 63.064 130.768 63.448C127.824 63.832 124.816 64.28 121.744 64.792C118.672 65.24 115.728 65.72 112.912 66.232C110.16 66.744 107.6 67.288 105.232 67.864C102.864 68.376 100.944 68.856 99.472 69.304C98.768 72.312 97.296 75.32 95.056 78.328C92.88 81.336 90.256 84.056 87.184 86.488C84.176 88.92 80.912 90.904 77.392 92.44C73.872 93.912 70.448 94.648 67.12 94.648C64.432 94.648 61.872 94.072 59.44 92.92C57.072 91.768 55.056 89.848 53.392 87.16C50.192 88.568 46.704 90.552 42.928 93.112C39.152 95.608 35.408 98.264 31.696 101.08C35.856 105.624 40.368 108.92 45.232 110.968C50.16 112.952 55.44 113.944 61.072 113.944C65.68 113.944 70.608 113.112 75.856 111.448C81.104 109.72 86.416 107.48 91.792 104.728C97.232 101.912 102.608 98.712 107.92 95.128C113.232 91.544 118.256 87.832 122.992 83.992C127.792 80.152 132.176 76.344 136.144 72.568C140.112 68.728 143.472 65.208 146.224 62.008ZM97.744 69.688C90.576 71.608 83.312 73.976 75.952 76.792C68.592 79.544 61.648 82.744 55.12 86.392C56.208 88.632 57.808 90.264 59.92 91.288C62.032 92.312 64.432 92.824 67.12 92.824C70 92.824 73.008 92.28 76.144 91.192C79.344 90.04 82.352 88.472 85.168 86.488C88.048 84.44 90.608 82.008 92.848 79.192C95.088 76.312 96.72 73.144 97.744 69.688ZM98.512 63.352C98.448 59.896 97.616 56.824 96.016 54.136C94.48 51.448 92.4 49.176 89.776 47.32C87.152 45.4 84.112 43.96 80.656 43C77.2 42.04 73.52 41.56 69.616 41.56C66.352 41.56 62.96 41.976 59.44 42.808C55.984 43.64 52.56 44.856 49.168 46.456C45.84 48.056 42.64 50.008 39.568 52.312C36.56 54.616 33.904 57.24 31.6 60.184C29.36 63.064 27.568 66.264 26.224 69.784C24.88 73.304 24.208 77.08 24.208 81.112C24.208 85.272 24.88 88.952 26.224 92.152C27.632 95.288 29.104 97.784 30.64 99.64C32.368 98.168 34.224 96.728 36.208 95.32C38.192 93.848 40.176 92.504 42.16 91.288C44.144 90.008 46.032 88.856 47.824 87.832C49.68 86.808 51.312 85.976 52.72 85.336C52.272 84.44 52.048 83.448 52.048 82.36C52.048 81.4 52.176 80.408 52.432 79.384C52.752 78.36 53.2 77.368 53.776 76.408C54.416 75.448 55.184 74.584 56.08 73.816C57.04 73.048 58.128 72.472 59.344 72.088C57.296 73.944 55.856 75.64 55.024 77.176C54.192 78.712 53.776 80.12 53.776 81.4C53.776 82.616 54 83.704 54.448 84.664C58.608 82.68 62.512 80.856 66.16 79.192C69.872 77.528 73.456 76.024 76.912 74.68C80.368 73.336 83.792 72.088 87.184 70.936C90.64 69.784 94.256 68.664 98.032 67.576C98.16 66.744 98.256 66.008 98.32 65.368C98.448 64.664 98.512 63.992 98.512 63.352ZM252.921 72.088C249.593 77.336 246.361 82.584 243.225 87.832C240.153 93.08 236.761 98.296 233.049 103.48C231.833 105.144 231.001 106.52 230.553 107.608C230.169 108.696 229.977 109.688 229.977 110.584C229.977 111.096 230.073 111.64 230.265 112.216C231.097 113.496 232.217 114.136 233.625 114.136C235.289 114.136 237.177 113.4 239.289 111.928C241.273 110.584 243.001 109.272 244.473 107.992C246.009 106.648 247.673 105.272 249.465 103.864L250.137 104.536C249.241 105.24 248.313 106.008 247.353 106.84C246.393 107.608 245.433 108.376 244.473 109.144C243.577 109.912 242.681 110.648 241.785 111.352C240.953 111.992 240.249 112.536 239.673 112.984C238.393 113.688 237.241 114.2 236.217 114.52C235.193 114.776 234.265 114.904 233.433 114.904C232.473 114.904 231.641 114.776 230.937 114.52C230.297 114.2 229.721 113.784 229.209 113.272C228.505 112.632 227.993 111.832 227.673 110.872C227.417 109.848 227.289 108.856 227.289 107.896C227.289 106.488 227.449 105.368 227.769 104.536C227.065 105.432 226.393 106.264 225.753 107.032C225.113 107.8 224.409 108.536 223.641 109.24C222.937 109.88 222.105 110.552 221.145 111.256C220.249 111.896 219.193 112.568 217.977 113.272C217.145 113.592 216.217 113.944 215.193 114.328C214.169 114.648 213.209 114.808 212.313 114.808C211.289 114.808 210.521 114.552 210.009 114.04C209.113 112.952 208.665 111.48 208.665 109.624C208.665 108.024 208.921 106.392 209.433 104.728C210.009 103.064 210.649 101.72 211.353 100.696L230.265 72.088H235.161C234.521 73.176 233.465 74.84 231.993 77.08C230.521 79.32 228.825 81.848 226.905 84.664C225.049 87.48 223.065 90.456 220.953 93.592C218.905 96.728 216.985 99.704 215.193 102.52C214.809 103.096 214.361 103.8 213.849 104.632C213.337 105.4 212.825 106.232 212.313 107.128C211.865 107.96 211.481 108.792 211.161 109.624C210.841 110.392 210.681 111.032 210.681 111.544C210.681 112.504 210.905 113.176 211.353 113.56C211.801 113.944 212.377 114.136 213.081 114.136C213.849 114.136 214.713 113.944 215.673 113.56C216.633 113.176 217.529 112.728 218.361 112.216C220.473 110.936 222.361 109.4 224.025 107.608C225.753 105.752 227.225 104.056 228.441 102.52L248.025 72.088H252.921ZM282.558 76.216C282.558 77.496 282.014 78.68 280.926 79.768C279.902 80.792 278.622 81.848 277.086 82.936L276.798 82.264C278.462 81.176 279.55 80.312 280.062 79.672C280.638 78.968 280.926 78.072 280.926 76.984C280.926 74.552 279.806 73.336 277.566 73.336C275.838 73.336 273.598 74.424 270.846 76.6C268.798 78.2 266.59 80.344 264.222 83.032C261.854 85.656 259.646 88.504 257.598 91.576C255.55 94.584 253.822 97.592 252.414 100.6C251.07 103.608 250.398 106.264 250.398 108.568C250.398 110.232 250.814 111.576 251.646 112.6C252.542 113.56 253.886 114.04 255.678 114.04C258.558 114.04 261.278 113.464 263.838 112.312C266.462 111.096 268.83 109.688 270.942 108.088C273.054 106.424 274.846 104.76 276.318 103.096C277.79 101.368 278.846 99.992 279.486 98.968H280.638C279.23 101.144 277.598 103.224 275.742 105.208C273.95 107.128 271.934 108.856 269.694 110.392C267.518 111.864 265.182 113.048 262.686 113.944C260.19 114.776 257.598 115.192 254.91 115.192C252.03 115.192 249.982 114.36 248.766 112.696C247.614 110.968 247.038 108.856 247.038 106.36C247.038 104.312 247.422 102.072 248.19 99.64C249.022 97.144 250.11 94.648 251.454 92.152C252.862 89.592 254.526 87.128 256.446 84.76C258.43 82.328 260.574 80.184 262.878 78.328C265.246 76.472 267.71 75 270.27 73.912C272.894 72.76 275.582 72.184 278.334 72.184C279.806 72.184 280.83 72.568 281.406 73.336C282.046 74.04 282.43 75 282.558 76.216ZM310.402 76.216C310.402 77.496 309.858 78.68 308.77 79.768C307.746 80.792 306.466 81.848 304.93 82.936L304.642 82.264C306.306 81.176 307.394 80.312 307.906 79.672C308.482 78.968 308.77 78.072 308.77 76.984C308.77 74.552 307.65 73.336 305.41 73.336C303.682 73.336 301.442 74.424 298.69 76.6C296.642 78.2 294.434 80.344 292.066 83.032C289.698 85.656 287.49 88.504 285.442 91.576C283.394 94.584 281.666 97.592 280.258 100.6C278.914 103.608 278.242 106.264 278.242 108.568C278.242 110.232 278.658 111.576 279.49 112.6C280.386 113.56 281.73 114.04 283.522 114.04C286.402 114.04 289.122 113.464 291.682 112.312C294.306 111.096 296.674 109.688 298.786 108.088C300.898 106.424 302.69 104.76 304.162 103.096C305.634 101.368 306.69 99.992 307.33 98.968H308.482C307.074 101.144 305.442 103.224 303.586 105.208C301.794 107.128 299.778 108.856 297.538 110.392C295.362 111.864 293.026 113.048 290.53 113.944C288.034 114.776 285.442 115.192 282.754 115.192C279.874 115.192 277.826 114.36 276.61 112.696C275.458 110.968 274.882 108.856 274.882 106.36C274.882 104.312 275.266 102.072 276.034 99.64C276.866 97.144 277.954 94.648 279.298 92.152C280.706 89.592 282.37 87.128 284.29 84.76C286.274 82.328 288.418 80.184 290.722 78.328C293.09 76.472 295.554 75 298.114 73.912C300.738 72.76 303.426 72.184 306.178 72.184C307.65 72.184 308.674 72.568 309.25 73.336C309.89 74.04 310.274 75 310.402 76.216Z" fill="white"/>
</svg>
