<svg width="801" height="801" viewBox="0 0 801 250" fill="none" style="background-color: #ffffff;" xmlns="http://www.w3.org/2000/svg">
<path d="M65.169 132.079L39.434 92.1051H19.2419V132.079H0V17.6416H45.0561C71.9789 17.6416 85.4403 31.5489 85.4403 54.9131C85.4403 73.2707 77.0467 85.827 60.3388 90.2773L87.2616 132.079H65.169ZM19.2419 35.6019V74.2244H44.8977C58.6759 74.2244 66.1984 67.3105 66.1984 54.9131C66.1984 42.4363 58.6759 35.6019 44.8977 35.6019H19.2419Z" fill="#08090b"/>
<path d="M188.704 132.079H100.599V17.6416H188.704V35.6019H119.762V63.8138H179.202V81.774H119.762V114.118H188.704V132.079Z" fill="#08090B"/>
<path d="M218.943 132.079H199.78V17.6416H284.005V35.6019H218.943V68.9793H274.423V86.9396H218.943V132.079Z" fill="#08090B"/>
<path d="M549.862 132.079L524.127 92.1051H503.935V132.079H484.693V17.6416H529.75C556.672 17.6416 570.134 31.5489 570.134 54.9131C570.134 73.2707 561.74 85.827 545.032 90.2773L571.955 132.079H549.862ZM503.935 35.6019V74.2244H529.591C543.369 74.2244 550.892 67.3105 550.892 54.9131C550.892 42.4363 543.369 35.6019 529.591 35.6019H503.935Z" fill="#08090B"/>
<path d="M600.72 132.079H581.478V17.6416H600.641L637.462 94.6482L674.283 17.6416H693.445V132.079H674.283V56.1052L645.539 116.344H629.385L600.72 56.1052V132.079Z" fill="#08090B"/>
<path d="M762.444 17.6416L800.136 132.079H780.023L771.946 107.284H727.444L719.367 132.079H699.254L737.025 17.6416H762.444ZM733.225 89.4032H766.165L749.695 38.6217L733.225 89.4032Z" fill="#08090B"/>
<path fill-rule="evenodd" clip-rule="evenodd" d="M349.645 139.15C341.026 132.415 334.562 123.424 330.284 112.05C327.594 104.936 325.755 97.3316 324.762 89.2686C325.552 105.255 327.817 120.392 331.373 134.144C316.115 118.682 306.63 97.3459 306.948 73.2477C307.55 49.6575 317.289 29.0518 332.547 14.1929H332.578C328.989 27.0633 326.506 41.1551 325.292 56.0485C326.353 49.385 328.016 43.0557 330.284 37.0748C334.499 25.8285 340.963 16.8377 349.645 10.1026C358.296 3.36755 368.879 0 381.491 0C394.102 0 404.813 3.36755 413.463 10.1026C422.082 16.8377 428.546 25.8285 432.856 37.0748C434.934 42.6215 436.52 48.4696 437.592 54.619C436.598 40.6075 434.46 27.3126 431.304 15.1083C446.562 30.5705 456.047 51.8747 455.729 76.0046C455.127 99.5948 445.357 120.201 430.13 135.059H430.099C433.297 123.591 435.604 111.165 436.929 98.0548C435.909 102.913 434.552 107.579 432.856 112.05C428.578 123.36 422.177 132.415 413.463 139.15C404.813 145.885 394.166 149.252 381.491 149.252C368.816 149.252 358.359 145.885 349.645 139.15ZM406.714 111.129C412.766 101.948 415.808 89.7801 415.808 74.5308C415.808 59.2815 412.766 47.1774 406.714 38.1232C400.662 29.0689 392.201 24.4941 381.459 24.4941C370.717 24.4941 362.415 29.0689 356.331 38.1867C350.279 47.3045 347.237 59.4086 347.237 74.4673C347.237 89.5259 350.279 101.884 356.331 111.066C362.384 120.247 370.781 124.822 381.459 124.822C392.138 124.822 400.63 120.279 406.714 111.066V111.129ZM304.652 40.7478L303.978 107.133C296.563 97.9471 292.165 86.3936 292.294 73.4511C292.615 60.7928 297.237 49.555 304.652 40.7478ZM458.025 108.964L458.699 42.1209C466.114 51.3703 470.512 63.0034 470.384 76.0351C470.063 88.7807 465.44 100.096 458.025 108.964Z" fill="#DD2F1F"/>
<path d="M179.14 248.88H145.566V195.12H154.82V240.443H179.14V248.88Z" fill="#08090B"/>
<path d="M212.116 195.12L230.318 248.88H220.605L216.705 237.232H195.214L191.314 248.88H181.601L199.841 195.12H212.116ZM198.006 228.832H213.913L205.959 204.976L198.006 228.832Z" fill="#08090B"/>
<path d="M258.186 248.88H236.963V195.12H257.612C267.822 195.12 275.891 199.749 275.891 209.232C275.891 216.176 271.57 219.872 267.975 220.955C272.334 221.739 277.688 225.957 277.688 233.909C277.688 244.4 268.931 248.88 258.186 248.88ZM257.804 203.557H246.217V217.035H258.186C262.851 217.035 266.56 215.355 266.56 210.24C266.56 205.125 262.775 203.557 257.804 203.557ZM246.217 240.443H258.186C263.539 240.443 268.434 239.136 268.434 232.864C268.434 226.741 263.501 225.323 258.492 225.323H246.217V240.443Z" fill="#08090B"/>
<path d="M295.961 248.88H286.516V239.659H295.961V248.88Z" fill="#08090B"/>
<path d="M331.501 250C315.02 250 305.154 238.688 305.154 222C305.154 205.312 315.02 194 331.501 194C348.02 194 357.886 205.312 357.886 222C357.886 238.688 348.02 250 331.501 250ZM331.501 241.525C342.59 241.525 348.135 233.76 348.135 222C348.135 210.24 342.59 202.475 331.501 202.475C320.411 202.475 314.943 210.24 314.905 222C314.867 233.76 320.411 241.525 331.501 241.525Z" fill="#08090B"/>
<path d="M396.968 248.88L384.54 230.101H374.789V248.88H365.497V195.12H387.255C400.256 195.12 406.757 201.653 406.757 212.629C406.757 221.253 402.703 227.152 394.635 229.243L407.636 248.88H396.968ZM374.789 203.557V221.701H387.178C393.832 221.701 397.465 218.453 397.465 212.629C397.465 206.768 393.832 203.557 387.178 203.557H374.789Z" fill="#08090B"/>
<path d="M442.52 195.12L460.722 248.88H451.009L447.109 237.232H425.619L421.718 248.88H412.006L430.246 195.12H442.52ZM428.41 228.832H444.317L436.364 204.976L428.41 228.832Z" fill="#08090B"/>
<path d="M483.92 248.88H474.628V203.557H458.223V195.12H500.248V203.557H483.92V248.88Z" fill="#08090B"/>
<path d="M529.641 250C513.16 250 503.294 238.688 503.294 222C503.294 205.312 513.16 194 529.641 194C546.16 194 556.026 205.312 556.026 222C556.026 238.688 546.16 250 529.641 250ZM529.641 241.525C540.73 241.525 546.275 233.76 546.275 222C546.275 210.24 540.73 202.475 529.641 202.475C518.552 202.475 513.084 210.24 513.045 222C513.007 233.76 518.552 241.525 529.641 241.525Z" fill="#08090B"/>
<path d="M595.108 248.88L582.68 230.101H572.929V248.88H563.637V195.12H585.395C598.396 195.12 604.897 201.653 604.897 212.629C604.897 221.253 600.844 227.152 592.775 229.243L605.777 248.88H595.108ZM572.929 203.557V221.701H585.319C591.972 221.701 595.605 218.453 595.605 212.629C595.605 206.768 591.972 203.557 585.319 203.557H572.929Z" fill="#08090B"/>
<path d="M635.829 248.88H626.575V226.853L607.8 195.12H618.545L631.202 216.549L643.821 195.12H654.566L635.829 226.853V248.88Z" fill="#08090B"/>
</svg>
