<?xml version="1.0" encoding="utf-8"?>
<!-- Generator: Adobe Illustrator 28.0.0, SVG Export Plug-In . SVG Version: 6.00 Build 0)  -->
<svg version="1.1" id="Слой_1" xmlns="http://www.w3.org/2000/svg" xmlns:xlink="http://www.w3.org/1999/xlink" x="0px" y="0px"
	 viewBox="0 0 595.28 595.28" style="enable-background:new 0 0 595.28 595.28;" xml:space="preserve">
<style type="text/css">
	.st0{clip-path:url(#SVGID_00000176020859399985211990000007038530455470249390_);}
	.st1{clip-path:url(#SVGID_00000137845077089751848160000003174572509611135143_);}
	.st2{clip-path:url(#SVGID_00000024715810177394771640000003017934288028492474_);}
	.st3{clip-path:url(#SVGID_00000019661525822829135780000007878570367351352236_);}
	.st4{clip-path:url(#SVGID_00000075863222339746152810000007600823222925214850_);fill:#EFEFEF;}
	.st5{fill:none;}
	.st6{clip-path:url(#SVGID_00000033348870520793964930000005091049268285142188_);fill:#EFEFEF;}
	.st7{clip-path:url(#SVGID_00000021085489717276515150000010981689630271017138_);}
	.st8{clip-path:url(#SVGID_00000104680384408186735030000009147218300866115988_);}
	.st9{clip-path:url(#SVGID_00000018224409286816729710000006617761333424539811_);}
	.st10{clip-path:url(#SVGID_00000135653272932722895740000015513475652646650556_);}
	.st11{clip-path:url(#SVGID_00000004541514519683418630000015558648488879463077_);}
	.st12{clip-path:url(#SVGID_00000059277258957156145680000017755658266359610253_);}
	.st13{clip-path:url(#SVGID_00000083793588514030752830000014951527378949335480_);}
	.st14{clip-path:url(#SVGID_00000057132889049382832180000011531149916087251620_);}
	.st15{clip-path:url(#SVGID_00000052808751185689501240000008106592471073517498_);}
</style>
<g transform="translate(0, 194.34)">
<g>
	<defs>
		<rect id="SVGID_1_" x="-590.37" y="-169.4" width="527.47" height="163.74"/>
	</defs>
	<clipPath id="SVGID_00000084521883718758358910000011341792617598018700_">
		<use xlink:href="#SVGID_1_"  style="overflow:visible;"/>
	</clipPath>
	<g style="clip-path:url(#SVGID_00000084521883718758358910000011341792617598018700_);">
		<defs>
			<rect id="SVGID_00000026883870335947090280000010334590183225629333_" x="-45.32" y="-294.68" width="677.47" height="958.13"/>
		</defs>
		<clipPath id="SVGID_00000107577620037008249100000004330524699528378789_">
			<use xlink:href="#SVGID_00000026883870335947090280000010334590183225629333_"  style="overflow:visible;"/>
		</clipPath>
		<polygon style="clip-path:url(#SVGID_00000107577620037008249100000004330524699528378789_);" points="0.46,-22.91 8.71,-22.91 
			8.71,57.58 66.11,57.58 64.59,63.77 0.46,63.77 		"/>
		<polygon style="clip-path:url(#SVGID_00000107577620037008249100000004330524699528378789_);" points="145.35,21.17 90.84,21.17 
			90.84,57.58 150.54,57.58 149.32,63.77 82.6,63.77 82.6,-22.91 148.1,-22.91 148.1,-16.72 90.84,-16.72 90.84,14.98 145.35,14.98 
					"/>
		<g style="clip-path:url(#SVGID_00000107577620037008249100000004330524699528378789_);">
			<defs>
				<rect id="SVGID_00000131341294389709562110000009053784279354573496_" x="-45.32" y="-294.68" width="677.47" height="958.13"/>
			</defs>
			<clipPath id="SVGID_00000008850594827241398290000006544013144842521738_">
				<use xlink:href="#SVGID_00000131341294389709562110000009053784279354573496_"  style="overflow:visible;"/>
			</clipPath>
			<path style="clip-path:url(#SVGID_00000008850594827241398290000006544013144842521738_);" d="M260.77,19.81
				c0,23.65-15.57,45.2-48.55,45.2c-30.08,0-47.64-19.69-47.64-44.58c0-24.52,16.95-44.58,48.7-44.58
				C242.61-24.15,260.77-5.45,260.77,19.81 M172.33,20.37c0,19.94,14.7,41.54,40.35,41.54c27.64,0,41.42-20.98,41.42-41.54
				c0-20.18-15.07-41.09-40.87-41.09C185.74-20.72,172.33,0.8,172.33,20.37"/>
			<polygon style="clip-path:url(#SVGID_00000008850594827241398290000006544013144842521738_);" points="303.52,-16.72 
				267.64,-16.72 267.64,-22.91 347.95,-22.91 347.95,-16.72 311.92,-16.72 311.92,63.77 303.52,63.77 			"/>
			<path style="clip-path:url(#SVGID_00000008850594827241398290000006544013144842521738_);" d="M362.76,33.81l-13.59,29.97h-8.4
				l39.24-86.68h9.77l40.92,86.68h-9.01L407.8,33.81H362.76z M405.05,27.61c-11.91-25.76-18.02-38.14-20.15-43.96h-0.15
				c-2.6,6.56-9.47,21.92-19.08,43.96H405.05z"/>
			<polygon style="clip-path:url(#SVGID_00000008850594827241398290000006544013144842521738_);" points="449.63,-22.91 
				457.87,-22.91 457.87,57.58 515.28,57.58 513.75,63.77 449.63,63.77 			"/>
			<polygon style="clip-path:url(#SVGID_00000008850594827241398290000006544013144842521738_);" points="594.52,21.17 
				540.01,21.17 540.01,57.58 599.71,57.58 598.49,63.77 531.77,63.77 531.77,-22.91 597.27,-22.91 597.27,-16.72 540.01,-16.72 
				540.01,14.98 594.52,14.98 			"/>
		</g>
		<g style="clip-path:url(#SVGID_00000107577620037008249100000004330524699528378789_);">
			<defs>
				<rect id="SVGID_00000029024727209519193310000006778590223308201856_" x="-45.32" y="-294.68" width="677.47" height="958.13"/>
			</defs>
			<clipPath id="SVGID_00000168835638426722766380000013588059739948880565_">
				<use xlink:href="#SVGID_00000029024727209519193310000006778590223308201856_"  style="overflow:visible;"/>
			</clipPath>
			<polygon style="clip-path:url(#SVGID_00000168835638426722766380000013588059739948880565_);" points="12.79,266.41 
				45.48,266.41 45.48,268.32 -1.21,268.32 -1.21,134.13 12.79,134.13 			"/>
			<polygon style="clip-path:url(#SVGID_00000168835638426722766380000013588059739948880565_);" points="71.16,266.41 
				99.18,266.41 99.18,268.32 57.15,268.32 57.15,134.13 99.18,134.13 99.18,136.05 71.16,136.05 71.16,182.06 85.17,182.06 
				85.17,183.98 71.16,183.98 			"/>
			<path style="clip-path:url(#SVGID_00000168835638426722766380000013588059739948880565_);" d="M190.24,132.03
				c45.3,0,84.29,32.01,84.29,69.2c0,37.19-38.99,69.01-84.29,69.01c-45.3,0-84.06-31.82-84.06-69.01
				C106.19,164.04,144.95,132.03,190.24,132.03 M190.24,268.32c45.3,0,65.61-29.91,65.61-67.1c0-37.19-20.31-67.29-65.61-67.29
				c-45.3,0-65.38,30.1-65.38,67.29C124.86,238.42,144.95,268.32,190.24,268.32"/>
			<polygon style="clip-path:url(#SVGID_00000168835638426722766380000013588059739948880565_);" points="269.86,136.05 
				269.86,134.13 339.91,134.13 339.91,136.05 311.89,136.05 311.89,268.32 297.88,268.32 297.88,136.05 			"/>
			<path style="clip-path:url(#SVGID_00000168835638426722766380000013588059739948880565_);" d="M367.93,229.98h-17.28l-5.37,38.34
				h-3.04l15.41-110.04l-3.5-24.15h14.24l19.61,134.19h-14.48L367.93,229.98z M367.69,228.07l-7.94-55.78h-0.93l-7.94,55.78H367.69z
				"/>
			<polygon style="clip-path:url(#SVGID_00000168835638426722766380000013588059739948880565_);" points="423.03,266.41 
				455.72,266.41 455.72,268.32 409.02,268.32 409.02,134.13 423.03,134.13 			"/>
			<polygon style="clip-path:url(#SVGID_00000168835638426722766380000013588059739948880565_);" points="481.4,266.41 
				509.42,266.41 509.42,268.32 467.39,268.32 467.39,134.13 509.42,134.13 509.42,136.05 481.4,136.05 481.4,182.06 495.41,182.06 
				495.41,183.98 481.4,183.98 			"/>
			<path style="clip-path:url(#SVGID_00000168835638426722766380000013588059739948880565_);" d="M192.22,141.04
				c-1.09-2.86,3.4-2.47,5.07-2.23c1.6,0.12,3.74,1.55,3.25,3.58c-0.27,1.38-1.63,1.92-2.86,1.95c-1.26,0.18-2.77,0.32-3.78,1.07
				c-0.76,0.64-1.26,1.85-1.01,2.83c0.12,0.28,0.04,0.72-0.2,0.92c-3.41,2.64-7.74,3.8-11.98,4.13c-1.79,0.2-3.71-0.23-5.33,0.68
				c-1.51,0.91-2.88,2.11-4.12,3.45c0.07-0.2-0.09,0.12-0.07,0.31c0.01,0.7,0.35,1.35,0.7,1.97l-0.19-0.11
				c0.7,0.2-0.09,1.1-0.3,1.42c-1.72,2.23-3.76,4.19-5.75,6.18c-1.11,1.16-3.89,3.82-2.01,5.07c1.29,0.63,3.68,0.58,4.66-0.58
				c1.12-1.84,2.71-3.16,4.22-4.59c3.72-3.14,7.74-6.49,12.77-7.25c1.83-0.29,3.56,0.6,4.93,1.81c7.42,6.44,11.56,16.33,12.61,25.93
				c-0.11,12.91-2.89,25.53-5.14,38.17c-2.4,12.59-5.15,25.1-8.07,37.58l-0.47-0.12c0.12-0.77-0.14-1.64-0.58-2.31
				c-1.25-1.89-3.48-2.39-5.47-3.22c-4.25-2.16-5.07-7.2-5.22-11.54c0-0.25,0.01,0.47,0.01,0.45c-4.26-10.8-5.99-9.72-15.88-13.73
				c-2.82-1.14-5.34-3.45-6.62-6.22c3.78-5.37,7.69-10.61,11.83-15.69c2.03-2.47,4.14-4.89,6.41-7.16c2.34-2.19,4.64-4.69,7.89-5.5
				c2.13-2.04,0.6-6.89-1.25-9.07c0,0-0.02-0.01,0.02,0.01l0.77-0.01c-0.29,0.29-0.65,0.66-0.52,1.1c0.2,2.69-3.92,2.29-4.92,0.6
				c-0.2-0.25-0.33-0.6-0.48-0.89c-0.8-1.43-2.94-1.87-4.44-2.5c-4.24-1.97-9.14-9.93-7.88-14.54l-0.48,0.06l0-0.03
				c-0.43,0.03,0.59-0.12,0.48-0.04c0.05,0.24,0.11,0.66,0.16,0.9c0.8,4.94,3.7,10.19,8.27,12.47c1.91,0.66,3.9,0.94,5.22,2.87
				c0.12,0.16,0.3,0.61,0.44,0.75c0.38,0.58,1.55,0.73,1.97,0.47c-0.02,0.04-0.08,0.18-0.05,0.24c-0.31-1.15,0.43-2.33,1.45-2.82
				l0.43-0.23l0.35,0.21c2.71,2.06,4.09,8.98,0.69,10.87c-3.07,0.77-5.45,3.32-7.64,5.51c-6.52,6.96-12.04,14.84-17.17,22.86
				l0.01-0.82l0.03,0.04c3.19,4.46,8.8,4.66,13.73,6.18c5.81,1.77,10.23,7.45,10.53,13.52c0,0,0.02,0.5,0.01,0.51
				c-0.8,2.96-0.47,6.79,1.71,9.08c1.25,1.21,3.06,1.64,4.41,2.77c1.47,1.16,2.78,2.98,2.27,4.96l-0.47-0.12
				c3.77-18.81,7.44-37.66,10.27-56.64c0.85-6.62,2.06-13.42,1.62-20.07c-0.9-5.78-2.96-11.45-5.95-16.47
				c-1.83-2.99-4-5.81-6.82-7.81c-0.82-0.65-1.74-0.92-2.84-0.8c-1.42,0.13-2.87,0.71-4.25,1.39c-4.09,2.15-7.98,5.14-11.12,8.56
				c-0.61,0.69-0.99,1.61-1.8,1.9c-1.92,0.8-5.17,1-6.21-1.23c-0.6-2.29,1.56-4.1,2.99-5.52c1.75-1.62,3.51-3.25,5.14-4.99
				c0.46-0.52,1-1.03,1.3-1.66c0.02,0.04,0.02,0.13,0.19,0.16l-0.19-0.11l-0.01-0.02c-0.74-0.85-1.44-2.48-0.87-3.15
				c1.54-4.26,6.18-4.59,10.06-4.36c4.07-0.12,8.36-1.12,11.59-3.68c0.12-0.16,0.11-0.12,0.05-0.37c-0.31-1.25,0.23-2.62,1.09-3.54
				c1.46-1.36,3.39-1.53,5.11-2.24c0.43-0.3,0.46-0.75,0.17-1.27c-0.66-1.36-2.79-1.77-4.28-1.63c-0.44,0.03-1.59,0.21-1.22,0.75
				L192.22,141.04"/>
			<path style="clip-path:url(#SVGID_00000168835638426722766380000013588059739948880565_);" d="M199.23,149.6
				c-1.23-0.41-2.79,0.12-4.04,0.45c-1.23,0.38-2.91,1.02-3.84,1.61c0.13-0.18,0.06-0.59-0.17-0.71c1.76,0.14,5.69-0.56,7.71-0.77
				l0.11,0.49c-2.51,0.77-5.04,1.53-7.7,1.63c-0.24-0.03-0.41,0.04-0.88-0.21c-0.31-0.17-0.48-0.67-0.34-0.97
				c0.53-1.01,1.78-1.25,2.63-1.61c2.19-0.53,4.65-1.46,6.8-0.3L199.23,149.6"/>
			<path style="clip-path:url(#SVGID_00000168835638426722766380000013588059739948880565_);" d="M194.76,234.71
				c1.95,1.15,4.56,0.79,6.77,0.67c2.15-0.17,4.46-0.46,6.28-1.4c0.44-0.23,0.89-0.57,1.02-0.82c-0.01,0.04-0.01-0.01-0.05,0.21
				c0.53-3.55,1.16-7.37,1.49-10.92c0.47-4.56,0.36-9.16-0.68-13.7c-0.98-4.63-2.55-9.15-2.43-14c0.32-4.78,2.61-9.12,3.67-13.6
				c0.97-3.39,0.31-6.99,1.86-10.3c0.61-1.15,1.52-2.02,2.02-2.91c0.99-1.8,0.81-3.89-0.82-5.35c-1.97-1.89-4.81-2.98-7.4-4.15
				c-1.36-0.88-3.88-2.48-5.24-3.37c-0.8-0.57-1.43-1.43-1.64-2.38c-0.36-1.05,0.15-2.45-0.54-3.25l0.28-0.39
				c1.05,0.8,0.6,2.37,1.04,3.42c0.24,0.76,0.78,1.33,1.43,1.75c1.37,0.79,3.92,2.2,5.29,2.97l1.6,0.62
				c4.48,1.64,10.99,5.19,7.19,10.87c-0.77,1.07-1.68,1.77-2.16,2.71c-1.13,2.13-0.14,4.27,0.23,6.61
				c0.45,6.18-4.4,11.14-5.42,16.87c-0.86,7.03,3.05,13.6,3.98,20.49c0.92,5.91,0.74,11.95-0.13,17.84
				c-0.06,1.92-1.65,3.23-3.2,3.79c-5.28,1.76-9.65,0.06-14.77,1.86L194.76,234.71"/>
			<path style="clip-path:url(#SVGID_00000168835638426722766380000013588059739948880565_);" d="M222.23,17.03
				c-0.45,10.25-2.1,20.46-4.7,30.39c-0.76,2.51-1.1,5.14-2.47,7.44c-0.5,0.78-1.28,1.57-2.34,1.75l-0.58,0.13l-0.04-0.59
				c-0.65-9.54-0.32-19.39-3.8-28.4c-0.05-0.16-0.14-0.4-0.18-0.46c-0.02-0.05-0.01,0.02,0.13,0.07c0.4,0.1,0.42-0.22,0.13,0.25
				c-2.94,5.73-3.46,12.9-7.37,18.13c0,0-2.95,3.02-2.95,3.02l2.18-3.65c2.17-4.13,1.08-9.13,1.08-13.71
				c0.03-2.43,0.27-4.93,1.31-7.28c0.88-2.27,3.07-3.78,4.22-5.78c0.76-1.3,0.76-2.39,0.34-3.77l-0.14-0.89
				c-0.27-1.78-0.69-4.34-1.01-5.76c0.29,0.42,1.04,0.28,1.15-0.2c0.14,0.79,0.73,2.72,1.04,3.76c0.07,0.29,0.18,0.64,0.19,0.94
				c0,0.57-0.51,0.89-1.07,0.95c-1.06,0.04-1.44-0.98-2.13-1.44c-2.99-1.17-4.98-4.07-5.28-7.17l0.99-0.13
				c0.35,2.2,1.51,4.39,3.38,5.43c0.65,0.33,1.87,0.75,2.43,1.49c0.2,0.23,0.38,0.41,0.5,0.47c0.15,0.04-0.06,0.04,0.04,0
				c-0.03,0.01-0.19,0.22-0.19,0.31c-0.02,0.04-0.01,0.16-0.02,0.09c-0.04-0.2-0.1-0.38-0.14-0.56c-0.32-1.02-0.79-2.4-1.05-3.44
				c-0.07-0.33-0.17-0.66-0.08-1.05c0.16-0.74,1.21-0.9,1.53-0.1c0.72,2.27,0.94,4.74,1.38,7.06c0.56,1.5,0.35,3.48-0.49,4.79
				c-1.18,2.15-3.21,3.46-4.14,5.67c-2.96,6.56,0.86,14.47-3.01,20.88l-0.77-0.63c0.51-0.56,0.9-1.39,1.25-2.18
				c1.7-4.15,2.71-8.53,4.16-12.79c0.51-1.29,1.69-5.78,3.66-3.64c4.04,9.09,3.58,19.81,3.72,29.69l-0.62-0.46
				c1.26-0.51,1.89-2.14,2.37-3.69c0.5-1.62,1.02-3.24,1.49-4.87C219.19,37.27,221.19,27.22,222.23,17.03"/>
			<path style="clip-path:url(#SVGID_00000168835638426722766380000013588059739948880565_);" d="M225.92,5.07
				c0.51-0.25,1.07-0.42,1.55-0.72c0.16-0.1,0.28-0.23,0.18-0.27c-1.52-1.09-3.78-0.81-5.4-1.95c-0.58-0.4-1.05-1-1.35-1.64
				l0.96-0.22c-0.03,0.28-0.43,0.32-0.89,0.55l0.04-0.18c-0.42-1.21-0.52-2.51-1.27-3.52l0.43,0.23c0,0-0.8,0-0.8,0l0.44-0.25
				c-1.05,1.68,0.09,3.49-0.31,5.41c-0.27,1.27-1.83,1.73-2.91,1.64c-3.56-0.88-5.26-4.55-7.58-6.9l-0.17-0.41
				c0.05,0.26,0.02,0.1-0.02,0.08c-0.32-0.33-0.99-0.64-1.29-0.15l-0.04-0.71c2.16,2.69,3.41,6.58,1.68,9.85l-0.12,0.21l-0.23,0.07
				c-2.68,0.82-5.87,0.81-8.18-0.99c-0.08-0.08-0.34-0.3-0.42-0.39c-0.35-0.36-0.36-0.97-0.29-1.31c0.03-0.47,0.44-1.25,0.67-1.47
				c1.51-1.84,1.95-4.79,4.19-6.12c2.17-0.9,4.48-1.07,6.17-2.21c0.84-0.57,1.35-1.31,1.55-2.39c0.35-1.29,1.54-2.28,2.79-2.49
				c0.89-0.21,2.13,0.11,2.65-0.78c0.45-0.57,0.11-1.88-0.31-2.29c-0.71-0.54-1.78-0.98-2.65-0.77c-0.94,0.26-1.58,1.48-1.63,2.43
				c0.11-0.56-0.01-1.15,0.18-1.7c0.6-2.06,3.31-2,4.83-0.95c0.74,0.55,0.84,1.24,0.91,1.88c0.04,0.64-0.01,1.34-0.39,1.97
				c-0.71,1.26-2.17,1.16-3.36,1.3c-0.94,0.18-1.68,0.83-1.93,1.7c-0.13,0.6-0.33,1.19-0.67,1.7c-1.6,2.49-5.66,2.77-7.57,3.62
				c-0.88,0.52-1.45,1.52-1.97,2.58c-0.53,1.08-1.03,2.28-1.88,3.32c-0.14,0.14-0.33,0.56-0.36,0.86c-0.03,0.15-0.01,0.31,0,0.3
				c0,0-0.01-0.02-0.02-0.03c0.04,0.05,0.26,0.23,0.31,0.28c1.94,1.49,4.74,1.46,7.01,0.75l-0.35,0.28
				c0.73-1.25,0.81-2.84,0.49-4.33c-0.35-1.65-1.17-3.21-2.27-4.48l0.25-0.36c0.84-1.39,3.22-0.7,3.46,0.73l-0.17-0.41
				c2.31,2.34,3.68,5.62,6.93,6.66l-0.17-0.03c0.81,0,1.6-0.01,1.88-0.82c0.24-0.93-0.33-2.85-0.1-4.16
				c0.1-0.64,0.38-1.23,0.71-1.76c0.35,0,1.02,0,1.37,0c0.87,1.21,0.93,2.75,1.26,4.1L221,0.56c-0.05-0.14-0.08-0.23-0.13-0.24
				l0.61-1.18l0.35,0.96c0.38,1.15,1.34,1.84,2.47,2.22c1.16,0.43,2.51,0.69,3.52,1.58c0.11,0.08,0.11,0.33,0.01,0.4
				C227.28,4.76,226.54,4.81,225.92,5.07"/>
			<path style="clip-path:url(#SVGID_00000168835638426722766380000013588059739948880565_);" d="M216.07,48.86
				c1.17-0.76,1.85-2.9,2.44-4.01c1.36-4.87,3.22-9.76,3.29-14.86c-0.02-4.77-2.23-10.67-2.12-15.09c-0.52-1.59,0.54-3.41,1.16-4.4
				c0.75-1.57,0.64-3.5,0.65-5.39c0.38-1.68,1.28-3.06,1.62-4.46l-0.02,0.16c0.01-0.52-0.25-1.18-0.59-1.54l0.07,0.06
				c-2.07-1.5-4.6-2.76-5.87-5.15c-0.45-0.84-0.56-2.03-0.05-2.92l0.89,0.44c-0.31,0.64-0.21,1.33,0.15,1.97
				c1.29,2.11,3.64,3.23,5.65,4.64c0.72,0.71,1.11,1.66,1.05,2.66c-0.4,1.65-1.24,3-1.58,4.38c0.07,1.11-0.04,4.07-0.92,5.67
				c-0.67,1.04-1.57,2.42-1.2,3.64c-0.02,5.06,2.04,10,2.1,15.32c-0.06,5.2-2.01,10.18-3.34,15.15c-0.75,1.55-1.28,3.4-2.75,4.52
				L216.07,48.86z"/>
		</g>
	</g>
</g>
<g>
	<defs>
		<rect id="SVGID_00000060739340957713753330000012287492504517159812_" x="1.08" y="64.34" width="593.4" height="824.17"/>
	</defs>
	<clipPath id="SVGID_00000116236264827249212990000006891957017677944746_">
		<use xlink:href="#SVGID_00000060739340957713753330000012287492504517159812_"  style="overflow:visible;"/>
	</clipPath>
</g>
<g>
	<defs>
		<rect id="SVGID_00000121253850982707582540000004182514989501760926_" x="1.08" y="-205.28" width="593.4" height="824.17"/>
	</defs>
	<clipPath id="SVGID_00000145033988822946170930000003340650068928397954_">
		<use xlink:href="#SVGID_00000121253850982707582540000004182514989501760926_"  style="overflow:visible;"/>
	</clipPath>
	<polygon style="clip-path:url(#SVGID_00000145033988822946170930000003340650068928397954_);fill:#EFEFEF;" points="57.64,166 
		90.39,166 90.39,167.92 43.61,167.92 43.61,33.76 57.64,33.76 	"/>
	<polygon style="clip-path:url(#SVGID_00000145033988822946170930000003340650068928397954_);fill:#EFEFEF;" points="116.12,166 
		144.18,166 144.18,167.92 102.08,167.92 102.08,33.76 144.18,33.76 144.18,35.67 116.12,35.67 116.12,81.67 130.15,81.67 
		130.15,83.59 116.12,83.59 	"/>
	<path style="clip-path:url(#SVGID_00000145033988822946170930000003340650068928397954_);fill:#EFEFEF;" d="M316.15,76.06
		c-8.99-29.24-42.22-47.36-77.87-45.44c-0.65,0.04-2.06,1.08-1.84,2.17c31.71-1.45,52.76,19.26,61.83,48.77
		c10.92,35.54,0.26,70.1-43.12,83.43c-43.37,13.33-71.39-9.34-82.31-44.88c-10.92-35.54-0.54-70.21,42.84-83.54
		c5.53-1.7,10.81-2.81,15.85-3.38c0.85,0.16-0.55-1.88-1.04-1.8c-2.7,0.48-11.11,2.04-15.37,3.35
		c-43.37,13.33-71.08,55.33-60.16,90.87c10.92,35.54,57.39,54.54,100.76,41.21C299.09,153.48,327.08,111.6,316.15,76.06"/>
	<polygon style="clip-path:url(#SVGID_00000145033988822946170930000003340650068928397954_);fill:#EFEFEF;" points="315.17,35.67 
		315.17,33.76 385.34,33.76 385.34,35.67 357.27,35.67 357.27,167.92 343.24,167.92 343.24,35.67 	"/>
	<path style="clip-path:url(#SVGID_00000145033988822946170930000003340650068928397954_);fill:#EFEFEF;" d="M413.4,129.58H396.1
		l-5.38,38.33h-3.04l15.44-110.01l-3.51-24.15h14.27l19.65,134.16h-14.5L413.4,129.58z M413.17,127.67l-7.95-55.77h-0.94
		l-7.95,55.77H413.17z"/>
	<polygon style="clip-path:url(#SVGID_00000145033988822946170930000003340650068928397954_);fill:#EFEFEF;" points="468.6,166 
		501.35,166 501.35,167.92 454.57,167.92 454.57,33.76 468.6,33.76 	"/>
	<polygon style="clip-path:url(#SVGID_00000145033988822946170930000003340650068928397954_);fill:#EFEFEF;" points="527.08,166 
		555.15,166 555.15,167.92 513.04,167.92 513.04,33.76 555.15,33.76 555.15,35.67 527.08,35.67 527.08,81.67 541.11,81.67 
		541.11,83.59 527.08,83.59 	"/>
	<path style="clip-path:url(#SVGID_00000145033988822946170930000003340650068928397954_);fill:#EFEFEF;" d="M233.48,28.4
		c-0.54,1.07-0.62,2.07-0.6,2.63c0.08,2.5,1.75,4.14,2.22,4.57c-0.12-0.45-0.24-0.86-0.35-1.23c-0.15-0.55-0.21-1-0.22-1.09
		c-0.16-1.08,0.45-3.73,2.25-4.33c3.3-1.1,4.87,0.15,4.95,0c0.17-0.34-0.59-2.25-2.2-2.75C237.71,25.65,234.58,26.2,233.48,28.4"/>
	<path style="clip-path:url(#SVGID_00000145033988822946170930000003340650068928397954_);fill:#EFEFEF;" d="M281.53,87.63
		c-0.06,0-0.13,0-0.19-0.01c-0.14-0.31-8.06-2.83-15.34-6.5c-8.63-5.26-14.65-9.87-16.13-12.18c-0.36-0.56-1.19-1.87-0.88-3.31
		c0.22-0.99,0.91-1.58,1.3-2c1.59-1.72,3.25-3.46,4.46-5.44c1.8-2.96,2.69-6.22,1.61-9.89c-3.4,1.47-6.76,2.09-10.2,2.53
		c-0.77,0.1-2.43,0.49-4.17,1.65c-1.35,0.9-2.09,1.85-2.29,2.11c-0.98,1.3-1.36,2.59-1.53,3.35c-0.86-3.44-2.87-5.38-5.86-6.09
		c-1.52-0.36-3.18-0.3-4.76-0.23c-3.07,0.13-6.04-0.13-8.91-1.31c-2.78-1.15-4.48-3.28-5.35-6.01c-0.94-2.96,1.09-5.01,4.11-4.31
		c0.97,0.23,1.91,0.64,2.83,1.03c1.63,0.68,3.21,1.49,4.86,2.1c4.21,1.58,8.22,1.47,11.8-1.81c2.02,2.27,4.61,2.85,7.38,2.45
		c3.32-0.48,6.6-1.23,9.91-1.81c2.15-0.38,4.3-0.81,6.47-0.96c2.84-0.21,3.27,1.5,2.62,3.76c-0.21,0.71-0.61,1.39-1.04,2.01
		c-0.81,1.14-1.7,2.23-2.56,3.33c3.25-1.16,5.3-3.49,6.29-6.64c0.69-2.18-0.55-4.2-2.72-5.01c-1.95-0.73-3.76-0.24-5.64,0.41
		c-3.57,1.24-7.17,2.45-10.84,3.34c-1.83,0.45-3.9,0.52-5.74,0.13c-3.72-0.78-4.51-3.47-1.83-5.63c4.17-3.35-3.52-1.7-3.37,2.58
		c0.06,1.76-1.96,2.56-3.56,2.89c-2.17,0.45-4.35,0.36-6.34-0.89c-1.21-0.76-2.43-1.52-3.7-2.19c-3-1.59-6.16-2.31-9.49-1.18
		c-2.62,0.89-3.68,2.85-3,5.55c0.97,3.88,3.4,6.45,4.01,6.99c0.54,0.48,1.72,1.5,3.47,2.24c2.7,7.81,4.48,9.01,10.75,14.66
		c2,2.75,1.74,7.37,1.64,7.74c-0.88,3.21-2.33,6.13-4.38,8.75c-4.52,5.79-9.76,10.63-16.88,13.12c-5.36,1.88-10.89,2.9-16.5,3.53
		c-2.32,0.26-4.66,0.39-6.95,0.57c-0.46,3.44,0.38,7.32,2.5,10.97c5.82,10,14.77,15.03,26.13,15.52
		c10.46,0.46,19.99-0.77,28.75-6.51c5.7-3.73,17.85-16.92,19.65-14.2c0.28,0.42,0.1,0.7,0.03,0.81c-0.25,0.43-0.52,0.87-0.84,1.25
		c-4.42,5.33-9.25,10.27-14.72,14.49c-2.64,2.04-3.22,4.23-2.49,7.23c1.54,6.29,4.56,11.72,9.18,16.26
		c0.66,0.65,1.29,1.33,1.97,1.95c0.61,0.55,1.28,1.03,1.92,1.55c-2.41-3.8-4.44-7.63-5.69-11.86c-2.4-8.12-0.96-15.26,5.13-21.35
		c5-5,10-10,14.82-15.16c3.21-3.43,6.16-7.12,9.16-10.75C281.21,90.28,282.16,89.19,281.53,87.63 M224.4,61.09
		c-2.96-3.17-3.11-5.39-3.78-7.59c0.98,0.07,1.97,0.01,3.13-0.06c2.38-0.14,2.4-0.45,4.44-0.48c2.17-0.03,3.62,0.3,4.75,0.75
		c1,0.39,1.53,0.77,1.84,1.03c0.76,0.65,1.16,1.39,1.54,2.02c1.16,1.89,1.66,4.29,1.79,5.3c0.05-0.97,0.26-2.5,1.13-4.08
		c1.6-2.94,4.34-4.1,5.95-4.77c3.72-1.57,7.15-1.25,8.88-0.96c0.38,2.51-0.08,4.23-0.59,5.36c-1.72,3.82-5.85,4.89-5.79,7.99
		c0.01,0.57,0.16,0.99,0.47,1.84c0.8,2.21,2.19,3.65,3.08,4.43c-0.91,1.07-4.6,5.18-10.85,6.02c-4.48,0.6-7.94-0.57-9.64-2.08
		c0.02,0.01,0.04,0.02,0.06,0.02c0.34-0.04,0.36-2.59,0.05-4.63c-0.1-0.66-0.28-1.81-0.78-3.06
		C229.03,65.43,227.86,64.79,224.4,61.09 M256.31,107.05c-3,2.3-7.47,5.39-10.58,7.51c-8,5.47-16.49,8.6-25.33,8.68
		c-2.12,0.02-7.97-0.05-14.73-2.68c-3.29-1.28-9.67-3.86-13.68-10.17c-1.32-2.08-2.78-5.81-2.78-5.81s7.37-0.22,15.15-1.9
		c10.46-2.27,17.46-11.04,19.39-13.41c3.73-4.57,5.67-9.11,6.69-12.13c0,0,1.58,0.82,2.29,1.05c0.97,0.32,7.52,2.46,12.87-0.35
		c3.89-2.05,6.56-4.93,6.56-4.93s4.31,4.12,9.84,7.92c0,0,9.23,5.48,14.44,7.04C279.64,90.44,263.72,101.37,256.31,107.05"/>
</g>
</g>
<rect x="1.08" y="-205.28" class="st5" width="593.4" height="824.17"/>
</svg>
