<?xml version="1.0" encoding="UTF-8" standalone="no"?>
<!DOCTYPE svg PUBLIC "-//W3C//DTD SVG 1.1//EN" "http://www.w3.org/Graphics/SVG/1.1/DTD/svg11.dtd">
<svg xmlns="http://www.w3.org/2000/svg" version="1.1" viewBox="0 0 1024 1024" width="1024.0pt" height="1024.0pt" xmlns:xlink="http://www.w3.org/1999/xlink">
<defs>
<path d="M 0.00 0.00 L 1024.00 0.00 L 1024.00 1024.00 L 0.00 1024.00 L 0.00 0.00 Z M 475.52 531.52 C 497.55 531.20 519.60 531.47 541.63 531.38 C 527.34 522.41 515.95 509.45 508.76 494.20 C 501.72 479.00 498.93 461.61 501.33 445.00 C 503.78 426.18 512.60 408.42 525.97 394.97 C 535.88 384.89 548.37 377.34 561.85 373.10 C 577.39 368.27 594.31 367.88 610.04 372.08 C 626.67 376.46 641.83 385.92 653.12 398.88 C 664.94 412.24 672.41 429.27 674.38 446.99 C 675.28 457.43 674.95 467.83 672.33 478.02 C 667.31 498.61 654.52 517.08 637.08 529.11 C 626.01 536.84 613.12 541.81 599.76 543.70 C 592.43 544.90 584.50 544.27 577.00 544.51 C 543.22 545.20 509.34 545.39 475.59 546.47 C 475.75 559.67 475.61 572.88 475.62 586.08 C 465.56 568.47 456.22 550.43 446.14 532.82 C 439.35 520.47 432.63 508.09 425.76 495.79 C 424.96 494.18 423.77 492.35 424.29 490.47 C 424.99 488.36 426.28 486.41 427.35 484.47 C 453.60 437.48 479.59 390.57 505.82 343.56 C 487.87 343.43 469.90 343.40 451.95 343.57 C 425.40 392.71 399.01 442.34 372.65 491.37 C 388.20 521.19 404.23 550.77 419.81 580.58 C 432.76 604.92 445.55 629.23 458.73 653.48 C 476.85 653.44 495.11 653.93 513.22 653.49 L 513.26 652.16 C 513.56 632.19 513.29 612.00 513.40 592.00 C 513.51 587.09 513.08 582.08 513.63 577.20 C 514.13 575.35 515.30 575.39 516.95 575.30 C 545.40 574.70 573.56 574.41 602.00 573.64 C 606.00 573.65 610.13 573.16 614.10 573.70 C 616.68 574.69 618.42 577.83 620.14 579.89 C 639.85 604.31 659.38 629.00 678.92 653.56 C 694.60 653.67 710.28 653.58 725.96 653.61 C 704.13 626.21 682.28 598.89 660.42 571.52 C 657.28 567.27 653.86 563.23 650.89 558.86 C 671.72 546.42 688.63 527.71 698.57 505.56 C 708.11 484.49 711.02 460.61 707.04 437.85 C 703.71 418.54 695.33 400.20 683.06 384.94 C 667.95 366.04 647.00 351.97 623.80 345.09 C 607.84 340.22 591.04 339.17 574.50 340.86 C 542.17 344.72 511.31 361.64 492.86 388.82 C 490.15 393.19 487.96 397.84 485.18 402.17 C 481.67 409.61 478.42 417.48 477.72 425.73 C 477.00 434.13 475.17 442.59 475.36 451.00 C 475.43 477.84 475.51 504.68 475.52 531.52 Z M 314.33 653.48 C 328.95 653.41 343.58 653.65 358.19 653.35 C 358.20 550.11 358.18 446.87 358.20 343.62 C 343.63 343.37 329.00 343.40 314.43 343.59 C 314.19 346.04 314.28 348.54 314.28 351.00 C 314.34 451.82 314.23 552.66 314.33 653.48 Z M 581.14 390.04 C 569.65 392.97 562.07 404.92 565.06 416.57 C 567.82 428.37 580.30 435.75 592.03 433.03 C 603.33 430.67 611.44 419.55 609.47 408.01 C 607.57 394.82 593.83 386.60 581.14 390.04 Z M 629.58 435.88 C 621.84 437.47 615.50 443.42 613.10 450.90 C 610.30 460.29 613.71 470.66 621.97 476.06 C 629.73 481.38 640.59 480.80 647.80 474.78 C 656.23 468.07 658.35 455.38 652.79 446.21 C 648.14 438.21 638.65 434.00 629.58 435.88 Z M 537.49 436.73 C 526.36 439.26 518.93 450.79 521.44 461.99 C 523.50 472.93 534.52 480.64 545.51 478.80 C 555.59 477.32 563.60 468.21 563.57 458.00 C 563.89 449.39 558.39 441.02 550.41 437.81 C 546.33 436.07 541.81 435.82 537.49 436.73 Z M 583.27 447.31 C 576.87 449.87 573.67 457.71 577.27 463.82 C 581.14 470.74 590.93 472.13 596.65 466.67 C 601.13 462.69 601.64 455.74 597.90 451.08 C 594.54 446.71 588.33 445.18 583.27 447.31 Z M 584.48 483.66 C 573.35 485.67 565.15 496.78 567.28 508.04 C 569.02 518.69 579.31 526.46 590.00 525.65 C 602.12 525.28 612.12 514.19 610.49 501.99 C 609.06 489.55 596.59 481.17 584.48 483.66 Z M 313.72 665.80 C 313.69 672.66 313.71 679.53 313.71 686.40 C 315.85 686.38 317.98 686.37 320.12 686.34 C 320.12 679.47 320.39 672.64 319.91 665.77 C 317.85 665.78 315.78 665.79 313.72 665.80 Z M 320.31 675.24 C 323.40 679.50 327.95 682.66 331.66 686.39 C 334.76 686.38 337.86 686.38 340.96 686.35 C 336.54 682.89 332.23 679.31 327.82 675.85 C 331.51 672.32 335.56 669.22 339.36 665.82 C 336.61 665.79 333.83 665.73 331.09 665.85 C 327.34 668.81 324.06 672.28 320.31 675.24 Z M 342.73 665.79 C 342.70 672.65 342.74 679.51 342.71 686.37 C 344.73 686.38 346.75 686.39 348.77 686.39 C 348.77 679.52 348.77 672.66 348.76 665.79 C 346.75 665.79 344.74 665.79 342.73 665.79 Z M 351.51 665.79 C 351.51 672.60 351.50 679.42 351.51 686.24 C 353.50 686.24 355.48 686.24 357.46 686.24 C 357.49 681.12 357.42 676.01 357.55 670.88 C 361.68 676.01 365.82 681.14 370.00 686.23 C 373.44 686.24 376.88 686.23 380.33 686.24 C 380.32 679.42 380.33 672.60 380.32 665.78 C 378.32 665.79 376.31 665.79 374.31 665.78 C 374.27 670.88 374.34 675.97 374.23 681.07 C 370.16 675.96 365.99 670.91 361.91 665.80 C 358.45 665.78 354.98 665.78 351.51 665.79 Z M 396.00 665.65 C 392.49 665.79 388.14 665.18 384.92 666.72 C 381.78 668.56 382.98 672.94 382.72 676.00 C 382.97 678.96 381.82 683.49 384.87 685.23 C 387.44 686.68 391.13 686.27 394.00 686.37 C 397.65 686.28 401.41 686.59 405.03 686.07 C 407.33 685.70 409.49 684.43 409.56 681.86 C 409.75 678.01 409.75 673.85 409.54 670.00 C 409.56 668.06 407.76 666.53 405.98 666.15 C 402.79 665.39 399.27 665.74 396.00 665.65 Z M 412.12 665.79 C 412.10 672.65 412.11 679.52 412.11 686.38 C 414.21 686.38 416.32 686.38 418.42 686.38 C 418.44 681.22 418.42 676.07 418.45 670.91 C 422.59 670.80 426.69 670.73 430.79 671.42 C 430.54 672.34 431.12 674.55 429.85 674.71 C 426.63 675.74 422.65 675.03 419.28 675.27 C 423.44 678.91 427.54 682.61 431.58 686.38 C 433.85 686.38 436.12 686.37 438.39 686.33 C 435.96 683.84 433.37 681.54 430.53 679.53 C 432.13 678.92 434.04 678.48 435.38 677.40 C 437.03 675.34 436.86 671.90 436.42 669.46 C 435.58 666.36 432.79 666.08 430.04 665.83 C 424.07 665.69 418.09 665.84 412.12 665.79 Z M 454.00 665.65 C 450.64 665.75 446.94 665.35 443.68 666.25 C 441.98 666.66 440.44 668.16 440.44 669.99 C 440.26 673.88 440.26 678.10 440.45 682.00 C 440.52 684.89 443.48 686.05 445.96 686.22 C 450.96 686.47 456.04 686.41 461.05 686.27 C 463.38 686.13 466.08 685.42 466.92 682.96 C 467.53 680.09 467.19 676.94 467.28 674.00 C 467.14 671.19 467.78 668.55 465.07 666.77 C 461.91 665.16 457.48 665.81 454.00 665.65 Z M 483.00 665.65 C 479.73 665.74 476.16 665.36 472.99 666.23 C 471.33 666.61 469.77 668.20 469.72 669.92 C 469.54 673.90 469.53 678.13 469.73 682.11 C 470.01 684.84 472.44 685.92 474.88 686.18 C 479.57 686.51 484.31 686.35 489.01 686.33 C 491.87 686.18 494.88 686.05 496.24 683.08 C 496.68 678.75 496.53 674.28 496.38 669.92 C 496.39 668.04 494.55 666.50 492.80 666.15 C 489.66 665.41 486.21 665.73 483.00 665.65 Z M 498.85 665.81 C 499.03 672.59 498.51 679.58 499.09 686.30 C 500.97 686.44 502.87 686.41 504.76 686.41 C 504.78 681.43 504.73 676.45 504.82 671.47 C 507.48 676.42 509.91 681.49 512.56 686.44 C 514.01 686.40 515.45 686.35 516.89 686.31 C 519.27 681.30 521.79 676.35 524.29 671.40 C 524.41 676.40 524.34 681.39 524.37 686.39 C 526.32 686.38 528.27 686.37 530.22 686.36 C 530.21 679.51 530.23 672.66 530.21 665.81 C 526.98 665.81 523.75 665.81 520.52 665.75 C 518.36 669.70 516.55 673.78 514.69 677.88 C 512.56 673.88 510.84 669.71 508.65 665.75 C 505.38 665.82 502.12 665.81 498.85 665.81 Z M 545.83 665.81 C 545.83 672.67 545.83 679.53 545.83 686.39 C 547.80 686.38 549.76 686.38 551.73 686.39 C 551.74 681.44 551.68 676.49 551.81 671.56 C 554.44 676.49 556.84 681.54 559.49 686.45 C 560.94 686.40 562.39 686.34 563.84 686.29 C 566.20 681.32 568.67 676.38 571.23 671.51 C 571.38 676.48 571.29 681.42 571.31 686.39 C 573.27 686.38 575.23 686.38 577.19 686.37 C 577.18 679.52 577.20 672.67 577.18 665.82 C 573.93 665.81 570.67 665.81 567.42 665.75 C 565.34 669.61 563.60 673.60 561.72 677.55 C 559.18 673.83 557.81 669.64 555.57 665.75 C 552.32 665.81 549.07 665.81 545.83 665.81 Z M 593.00 665.65 C 589.46 665.79 585.11 665.19 581.84 666.69 C 578.58 668.62 579.92 672.84 579.61 676.00 C 579.81 678.57 579.02 682.24 580.68 684.36 C 582.62 686.51 586.36 686.28 589.00 686.36 C 593.29 686.29 597.68 686.59 601.95 686.07 C 604.15 685.71 606.22 684.50 606.37 682.06 C 606.58 678.12 606.58 673.87 606.37 669.93 C 606.35 668.02 604.58 666.51 602.81 666.15 C 599.67 665.40 596.22 665.73 593.00 665.65 Z M 627.96 681.62 C 621.82 682.09 615.61 681.76 609.44 681.89 C 609.44 683.39 609.43 684.89 609.43 686.39 C 615.30 686.37 621.17 686.41 627.04 686.39 C 629.42 686.34 631.80 686.30 633.34 684.18 C 634.50 681.58 634.44 678.60 633.32 675.99 C 631.94 674.02 629.74 674.16 627.57 673.87 C 623.52 673.67 619.47 673.67 615.43 673.40 C 615.39 672.43 615.37 671.47 615.34 670.50 C 621.36 670.13 627.44 670.38 633.47 670.31 C 633.46 668.80 633.45 667.30 633.43 665.79 C 626.65 665.97 619.79 665.52 613.04 666.00 C 610.61 666.25 609.53 667.68 609.08 669.97 C 608.55 672.60 608.75 676.83 611.98 677.61 C 616.91 678.92 622.33 677.82 627.35 678.82 C 627.59 679.74 627.80 680.68 627.96 681.62 Z M 660.48 686.38 C 660.48 684.73 660.48 683.08 660.48 681.42 C 654.57 681.32 648.63 681.61 642.73 681.30 L 641.81 680.28 C 641.54 677.33 641.69 674.32 641.68 671.36 C 647.84 670.37 654.27 671.03 660.50 670.85 C 660.48 669.16 660.45 667.47 660.42 665.78 C 654.61 665.88 648.78 665.71 642.96 665.84 C 640.23 666.05 637.39 666.39 636.56 669.46 C 636.07 673.56 636.24 677.86 636.43 681.99 C 636.64 684.99 639.28 686.15 641.95 686.31 C 648.12 686.52 654.31 686.30 660.48 686.38 Z M 676.00 665.66 C 672.56 665.83 667.95 665.09 664.91 666.89 C 662.74 668.19 663.03 670.81 662.86 673.00 C 662.88 676.25 662.61 679.68 663.26 682.88 C 663.76 685.27 666.81 686.17 668.95 686.26 C 673.95 686.41 679.06 686.46 684.05 686.23 C 686.29 686.08 689.06 685.20 689.58 682.71 C 689.95 678.52 689.84 674.20 689.67 670.00 C 689.69 667.70 687.54 666.37 685.52 665.96 C 682.41 665.48 679.15 665.71 676.00 665.66 Z M 691.81 665.83 C 694.34 672.75 697.50 679.41 700.11 686.32 C 702.47 686.36 704.84 686.38 707.21 686.40 C 708.75 681.61 710.11 676.78 711.86 672.06 C 713.09 676.87 714.73 681.55 716.06 686.34 C 718.42 686.37 720.78 686.38 723.15 686.38 C 725.92 679.51 728.88 672.74 731.60 665.86 C 729.53 665.81 727.46 665.77 725.39 665.72 C 723.27 670.15 721.57 674.86 719.84 679.46 C 718.18 674.95 716.66 670.39 715.15 665.82 C 712.92 665.81 710.69 665.79 708.47 665.75 C 706.50 670.17 705.53 674.86 703.36 679.19 C 701.60 674.74 699.96 670.24 698.17 665.79 C 696.05 665.81 693.93 665.81 691.81 665.83 Z" id="p0" />
<path d="M 574.50 340.86 C 591.04 339.17 607.84 340.22 623.80 345.09 C 647.00 351.97 667.95 366.04 683.06 384.94 C 695.33 400.20 703.71 418.54 707.04 437.85 C 711.02 460.61 708.11 484.49 698.57 505.56 C 688.63 527.71 671.72 546.42 650.89 558.86 C 653.86 563.23 657.28 567.27 660.42 571.52 C 682.28 598.89 704.13 626.21 725.96 653.61 C 710.28 653.58 694.60 653.67 678.92 653.56 C 659.38 629.00 639.85 604.31 620.14 579.89 C 618.42 577.83 616.68 574.69 614.10 573.70 C 610.13 573.16 606.00 573.65 602.00 573.64 C 573.56 574.41 545.40 574.70 516.95 575.30 C 515.30 575.39 514.13 575.35 513.63 577.20 C 513.08 582.08 513.51 587.09 513.40 592.00 C 513.29 612.00 513.56 632.19 513.26 652.16 C 511.86 651.90 510.93 651.23 510.50 650.14 C 499.07 628.69 486.92 607.59 475.62 586.08 C 475.61 572.88 475.75 559.67 475.59 546.47 C 509.34 545.39 543.22 545.20 577.00 544.51 C 584.50 544.27 592.43 544.90 599.76 543.70 C 613.12 541.81 626.01 536.84 637.08 529.11 C 654.52 517.08 667.31 498.61 672.33 478.02 C 674.95 467.83 675.28 457.43 674.38 446.99 C 672.41 429.27 664.94 412.24 653.12 398.88 C 641.83 385.92 626.67 376.46 610.04 372.08 C 594.31 367.88 577.39 368.27 561.85 373.10 C 548.37 377.34 535.88 384.89 525.97 394.97 C 512.60 408.42 503.78 426.18 501.33 445.00 C 498.93 461.61 501.72 479.00 508.76 494.20 C 515.95 509.45 527.34 522.41 541.63 531.38 C 519.60 531.47 497.55 531.20 475.52 531.52 C 475.51 504.68 475.43 477.84 475.36 451.00 C 475.17 442.59 477.00 434.13 477.72 425.73 C 478.42 417.48 481.67 409.61 485.18 402.17 C 487.96 397.84 490.15 393.19 492.86 388.82 C 511.31 361.64 542.17 344.72 574.50 340.86 Z" id="p1" />
<path d="M 314.43 343.59 C 329.00 343.40 343.63 343.37 358.20 343.62 C 358.18 446.87 358.20 550.11 358.19 653.35 C 343.58 653.65 328.95 653.41 314.33 653.48 C 314.23 552.66 314.34 451.82 314.28 351.00 C 314.28 348.54 314.19 346.04 314.43 343.59 Z" id="p2" />
<path d="M 505.82 343.56 C 479.59 390.57 453.60 437.48 427.35 484.47 C 426.28 486.41 424.99 488.36 424.29 490.47 C 423.77 492.35 424.96 494.18 425.76 495.79 C 432.63 508.09 439.35 520.47 446.14 532.82 C 456.22 550.43 465.56 568.47 475.62 586.08 C 486.92 607.59 499.07 628.69 510.50 650.14 C 510.93 651.23 511.86 651.90 513.26 652.16 L 513.22 653.49 C 495.11 653.93 476.85 653.44 458.73 653.48 C 445.55 629.23 432.76 604.92 419.81 580.58 C 404.23 550.77 388.20 521.19 372.65 491.37 C 399.01 442.34 425.40 392.71 451.95 343.57 C 469.90 343.40 487.87 343.43 505.82 343.56 Z" id="p3" />
<path d="M 581.14 390.04 C 593.83 386.60 607.57 394.82 609.47 408.01 C 611.44 419.55 603.33 430.67 592.03 433.03 C 580.30 435.75 567.82 428.37 565.06 416.57 C 562.07 404.92 569.65 392.97 581.14 390.04 Z" id="p4" />
<path d="M 629.58 435.88 C 638.65 434.00 648.14 438.21 652.79 446.21 C 658.35 455.38 656.23 468.07 647.80 474.78 C 640.59 480.80 629.73 481.38 621.97 476.06 C 613.71 470.66 610.30 460.29 613.10 450.90 C 615.50 443.42 621.84 437.47 629.58 435.88 Z" id="p5" />
<path d="M 537.49 436.73 C 541.81 435.82 546.33 436.07 550.41 437.81 C 558.39 441.02 563.89 449.39 563.57 458.00 C 563.60 468.21 555.59 477.32 545.51 478.80 C 534.52 480.64 523.50 472.93 521.44 461.99 C 518.93 450.79 526.36 439.26 537.49 436.73 Z" id="p6" />
<path d="M 583.27 447.31 C 588.33 445.18 594.54 446.71 597.90 451.08 C 601.64 455.74 601.13 462.69 596.65 466.67 C 590.93 472.13 581.14 470.74 577.27 463.82 C 573.67 457.71 576.87 449.87 583.27 447.31 Z" id="p7" />
<path d="M 584.48 483.66 C 596.59 481.17 609.06 489.55 610.49 501.99 C 612.12 514.19 602.12 525.28 590.00 525.65 C 579.31 526.46 569.02 518.69 567.28 508.04 C 565.15 496.78 573.35 485.67 584.48 483.66 Z" id="p8" />
<path d="M 313.72 665.80 C 315.78 665.79 317.85 665.78 319.91 665.77 C 320.39 672.64 320.12 679.47 320.12 686.34 C 317.98 686.37 315.85 686.38 313.71 686.40 C 313.71 679.53 313.69 672.66 313.72 665.80 Z" id="p9" />
<path d="M 331.09 665.85 C 333.83 665.73 336.61 665.79 339.36 665.82 C 335.56 669.22 331.51 672.32 327.82 675.85 C 332.23 679.31 336.54 682.89 340.96 686.35 C 337.86 686.38 334.76 686.38 331.66 686.39 C 327.95 682.66 323.40 679.50 320.31 675.24 C 324.06 672.28 327.34 668.81 331.09 665.85 Z" id="p10" />
<path d="M 342.73 665.79 C 344.74 665.79 346.75 665.79 348.76 665.79 C 348.77 672.66 348.77 679.52 348.77 686.39 C 346.75 686.39 344.73 686.38 342.71 686.37 C 342.74 679.51 342.70 672.65 342.73 665.79 Z" id="p11" />
<path d="M 351.51 665.79 C 354.98 665.78 358.45 665.78 361.91 665.80 C 365.99 670.91 370.16 675.96 374.23 681.07 C 374.34 675.97 374.27 670.88 374.31 665.78 C 376.31 665.79 378.32 665.79 380.32 665.78 C 380.33 672.60 380.32 679.42 380.33 686.24 C 376.88 686.23 373.44 686.24 370.00 686.23 C 365.82 681.14 361.68 676.01 357.55 670.88 C 357.42 676.01 357.49 681.12 357.46 686.24 C 355.48 686.24 353.50 686.24 351.51 686.24 C 351.50 679.42 351.51 672.60 351.51 665.79 Z" id="p12" />
<path d="M 396.00 665.65 C 399.27 665.74 402.79 665.39 405.98 666.15 C 407.76 666.53 409.56 668.06 409.54 670.00 C 409.75 673.85 409.75 678.01 409.56 681.86 C 409.49 684.43 407.33 685.70 405.03 686.07 C 401.41 686.59 397.65 686.28 394.00 686.37 C 391.13 686.27 387.44 686.68 384.87 685.23 C 381.82 683.49 382.97 678.96 382.72 676.00 C 382.98 672.94 381.78 668.56 384.92 666.72 C 388.14 665.18 392.49 665.79 396.00 665.65 Z M 388.59 670.71 C 388.43 674.24 388.43 677.75 388.58 681.28 C 393.58 681.39 398.60 681.37 403.61 681.32 C 403.93 677.75 403.92 674.21 403.64 670.63 C 398.62 670.64 393.60 670.59 388.59 670.71 Z" id="p13" />
<path d="M 412.12 665.79 C 418.09 665.84 424.07 665.69 430.04 665.83 C 432.79 666.08 435.58 666.36 436.42 669.46 C 436.86 671.90 437.03 675.34 435.38 677.40 C 434.04 678.48 432.13 678.92 430.53 679.53 C 433.37 681.54 435.96 683.84 438.39 686.33 C 436.12 686.37 433.85 686.38 431.58 686.38 C 427.54 682.61 423.44 678.91 419.28 675.27 C 422.65 675.03 426.63 675.74 429.85 674.71 C 431.12 674.55 430.54 672.34 430.79 671.42 C 426.69 670.73 422.59 670.80 418.45 670.91 C 418.42 676.07 418.44 681.22 418.42 686.38 C 416.32 686.38 414.21 686.38 412.11 686.38 C 412.11 679.52 412.10 672.65 412.12 665.79 Z" id="p14" />
<path d="M 454.00 665.65 C 457.48 665.81 461.91 665.16 465.07 666.77 C 467.78 668.55 467.14 671.19 467.28 674.00 C 467.19 676.94 467.53 680.09 466.92 682.96 C 466.08 685.42 463.38 686.13 461.05 686.27 C 456.04 686.41 450.96 686.47 445.96 686.22 C 443.48 686.05 440.52 684.89 440.45 682.00 C 440.26 678.10 440.26 673.88 440.44 669.99 C 440.44 668.16 441.98 666.66 443.68 666.25 C 446.94 665.35 450.64 665.75 454.00 665.65 Z M 446.35 681.32 C 451.35 681.36 456.35 681.40 461.36 681.28 C 461.58 677.74 461.58 674.22 461.41 670.68 C 456.40 670.61 451.39 670.62 446.37 670.65 C 446.09 674.22 446.10 677.76 446.35 681.32 Z" id="p15" />
<path d="M 472.99 666.23 C 476.16 665.36 479.73 665.74 483.00 665.65 C 486.21 665.73 489.66 665.41 492.80 666.15 C 494.55 666.50 496.39 668.04 496.38 669.92 C 496.53 674.28 496.68 678.75 496.24 683.08 C 494.88 686.05 491.87 686.18 489.01 686.33 C 484.31 686.35 479.57 686.51 474.88 686.18 C 472.44 685.92 470.01 684.84 469.73 682.11 C 469.53 678.13 469.54 673.90 469.72 669.92 C 469.77 668.20 471.33 666.61 472.99 666.23 Z M 475.51 681.30 C 480.53 681.38 485.54 681.38 490.56 681.29 C 490.82 677.75 490.81 674.21 490.61 670.66 C 485.60 670.65 480.58 670.53 475.58 670.73 C 475.21 674.25 475.32 677.77 475.51 681.30 Z" id="p16" />
<path d="M 498.85 665.81 C 502.12 665.81 505.38 665.82 508.65 665.75 C 510.84 669.71 512.56 673.88 514.69 677.88 C 516.55 673.78 518.36 669.70 520.52 665.75 C 523.75 665.81 526.98 665.81 530.21 665.81 C 530.23 672.66 530.21 679.51 530.22 686.36 C 528.27 686.37 526.32 686.38 524.37 686.39 C 524.34 681.39 524.41 676.40 524.29 671.40 C 521.79 676.35 519.27 681.30 516.89 686.31 C 515.45 686.35 514.01 686.40 512.56 686.44 C 509.91 681.49 507.48 676.42 504.82 671.47 C 504.73 676.45 504.78 681.43 504.76 686.41 C 502.87 686.41 500.97 686.44 499.09 686.30 C 498.51 679.58 499.03 672.59 498.85 665.81 Z" id="p17" />
<path d="M 545.83 665.81 C 549.07 665.81 552.32 665.81 555.57 665.75 C 557.81 669.64 559.18 673.83 561.72 677.55 C 563.60 673.60 565.34 669.61 567.42 665.75 C 570.67 665.81 573.93 665.81 577.18 665.82 C 577.20 672.67 577.18 679.52 577.19 686.37 C 575.23 686.38 573.27 686.38 571.31 686.39 C 571.29 681.42 571.38 676.48 571.23 671.51 C 568.67 676.38 566.20 681.32 563.84 686.29 C 562.39 686.34 560.94 686.40 559.49 686.45 C 556.84 681.54 554.44 676.49 551.81 671.56 C 551.68 676.49 551.74 681.44 551.73 686.39 C 549.76 686.38 547.80 686.38 545.83 686.39 C 545.83 679.53 545.83 672.67 545.83 665.81 Z" id="p18" />
<path d="M 593.00 665.65 C 596.22 665.73 599.67 665.40 602.81 666.15 C 604.58 666.51 606.35 668.02 606.37 669.93 C 606.58 673.87 606.58 678.12 606.37 682.06 C 606.22 684.50 604.15 685.71 601.95 686.07 C 597.68 686.59 593.29 686.29 589.00 686.36 C 586.36 686.28 582.62 686.51 580.68 684.36 C 579.02 682.24 579.81 678.57 579.61 676.00 C 579.92 672.84 578.58 668.62 581.84 666.69 C 585.11 665.19 589.46 665.79 593.00 665.65 Z M 585.50 681.30 C 590.52 681.38 595.53 681.38 600.55 681.30 C 600.83 677.75 600.82 674.21 600.60 670.65 C 595.57 670.62 590.54 670.60 585.51 670.69 C 585.31 674.24 585.31 677.75 585.50 681.30 Z" id="p19" />
<path d="M 613.04 666.00 C 619.79 665.52 626.65 665.97 633.43 665.79 C 633.45 667.30 633.46 668.80 633.47 670.31 C 627.44 670.38 621.36 670.13 615.34 670.50 C 615.37 671.47 615.39 672.43 615.43 673.40 C 619.47 673.67 623.52 673.67 627.57 673.87 C 629.74 674.16 631.94 674.02 633.32 675.99 C 634.44 678.60 634.50 681.58 633.34 684.18 C 631.80 686.30 629.42 686.34 627.04 686.39 C 621.17 686.41 615.30 686.37 609.43 686.39 C 609.43 684.89 609.44 683.39 609.44 681.89 C 615.61 681.76 621.82 682.09 627.96 681.62 C 627.80 680.68 627.59 679.74 627.35 678.82 C 622.33 677.82 616.91 678.92 611.98 677.61 C 608.75 676.83 608.55 672.60 609.08 669.97 C 609.53 667.68 610.61 666.25 613.04 666.00 Z" id="p20" />
<path d="M 642.96 665.84 C 648.78 665.71 654.61 665.88 660.42 665.78 C 660.45 667.47 660.48 669.16 660.50 670.85 C 654.27 671.03 647.84 670.37 641.68 671.36 C 641.69 674.32 641.54 677.33 641.81 680.28 L 642.73 681.30 C 648.63 681.61 654.57 681.32 660.48 681.42 C 660.48 683.08 660.48 684.73 660.48 686.38 C 654.31 686.30 648.12 686.52 641.95 686.31 C 639.28 686.15 636.64 684.99 636.43 681.99 C 636.24 677.86 636.07 673.56 636.56 669.46 C 637.39 666.39 640.23 666.05 642.96 665.84 Z" id="p21" />
<path d="M 676.00 665.66 C 679.15 665.71 682.41 665.48 685.52 665.96 C 687.54 666.37 689.69 667.70 689.67 670.00 C 689.84 674.20 689.95 678.52 689.58 682.71 C 689.06 685.20 686.29 686.08 684.05 686.23 C 679.06 686.46 673.95 686.41 668.95 686.26 C 666.81 686.17 663.76 685.27 663.26 682.88 C 662.61 679.68 662.88 676.25 662.86 673.00 C 663.03 670.81 662.74 668.19 664.91 666.89 C 667.95 665.09 672.56 665.83 676.00 665.66 Z M 668.71 670.73 C 668.60 674.25 668.60 677.75 668.71 681.27 C 673.51 681.31 678.36 681.55 683.14 681.22 C 684.81 680.13 684.11 677.75 684.31 676.00 C 684.14 674.34 684.73 671.88 683.33 670.72 C 678.47 670.47 673.58 670.65 668.71 670.73 Z" id="p22" />
<path d="M 691.81 665.83 C 693.93 665.81 696.05 665.81 698.17 665.79 C 699.96 670.24 701.60 674.74 703.36 679.19 C 705.53 674.86 706.50 670.17 708.47 665.75 C 710.69 665.79 712.92 665.81 715.15 665.82 C 716.66 670.39 718.18 674.95 719.84 679.46 C 721.57 674.86 723.27 670.15 725.39 665.72 C 727.46 665.77 729.53 665.81 731.60 665.86 C 728.88 672.74 725.92 679.51 723.15 686.38 C 720.78 686.38 718.42 686.37 716.06 686.34 C 714.73 681.55 713.09 676.87 711.86 672.06 C 710.11 676.78 708.75 681.61 707.21 686.40 C 704.84 686.38 702.47 686.36 700.11 686.32 C 697.50 679.41 694.34 672.75 691.81 665.83 Z" id="p23" />
<path d="M 388.59 670.71 C 393.60 670.59 398.62 670.64 403.64 670.63 C 403.92 674.21 403.93 677.75 403.61 681.32 C 398.60 681.37 393.58 681.39 388.58 681.28 C 388.43 677.75 388.43 674.24 388.59 670.71 Z" id="p24" />
<path d="M 446.37 670.65 C 451.39 670.62 456.40 670.61 461.41 670.68 C 461.58 674.22 461.58 677.74 461.36 681.28 C 456.35 681.40 451.35 681.36 446.35 681.32 C 446.10 677.76 446.09 674.22 446.37 670.65 Z" id="p25" />
<path d="M 475.58 670.73 C 480.58 670.53 485.60 670.65 490.61 670.66 C 490.81 674.21 490.82 677.75 490.56 681.29 C 485.54 681.38 480.53 681.38 475.51 681.30 C 475.32 677.77 475.21 674.25 475.58 670.73 Z" id="p26" />
<path d="M 585.51 670.69 C 590.54 670.60 595.57 670.62 600.60 670.65 C 600.82 674.21 600.83 677.75 600.55 681.30 C 595.53 681.38 590.52 681.38 585.50 681.30 C 585.31 677.75 585.31 674.24 585.51 670.69 Z" id="p27" />
<path d="M 668.71 670.73 C 673.58 670.65 678.47 670.47 683.33 670.72 C 684.73 671.88 684.14 674.34 684.31 676.00 C 684.11 677.75 684.81 680.13 683.14 681.22 C 678.36 681.55 673.51 681.31 668.71 681.27 C 668.60 677.75 668.60 674.25 668.71 670.73 Z" id="p28" />
</defs>
<g stroke-width="10pt">
<use stroke="#000000" xlink:href="#p0" />
<use stroke="#ffffff" xlink:href="#p1" />
<use stroke="#feac00" xlink:href="#p2" />
<use stroke="#feac00" xlink:href="#p3" />
<use stroke="#ffffff" xlink:href="#p4" />
<use stroke="#ffffff" xlink:href="#p5" />
<use stroke="#ffffff" xlink:href="#p6" />
<use stroke="#ffffff" xlink:href="#p7" />
<use stroke="#ffffff" xlink:href="#p8" />
<use stroke="#ffffff" xlink:href="#p9" />
<use stroke="#ffffff" xlink:href="#p10" />
<use stroke="#ffffff" xlink:href="#p11" />
<use stroke="#ffffff" xlink:href="#p12" />
<use stroke="#ffffff" xlink:href="#p13" />
<use stroke="#ffffff" xlink:href="#p14" />
<use stroke="#ffffff" xlink:href="#p15" />
<use stroke="#ffffff" xlink:href="#p16" />
<use stroke="#ffffff" xlink:href="#p17" />
<use stroke="#ffffff" xlink:href="#p18" />
<use stroke="#ffffff" xlink:href="#p19" />
<use stroke="#ffffff" xlink:href="#p20" />
<use stroke="#ffffff" xlink:href="#p21" />
<use stroke="#ffffff" xlink:href="#p22" />
<use stroke="#ffffff" xlink:href="#p23" />
<use stroke="#000000" xlink:href="#p24" />
<use stroke="#000000" xlink:href="#p25" />
<use stroke="#000000" xlink:href="#p26" />
<use stroke="#000000" xlink:href="#p27" />
<use stroke="#000000" xlink:href="#p28" />
</g>
<g>
<use fill="#000000" xlink:href="#p0" />
<use fill="#ffffff" xlink:href="#p1" />
<use fill="#feac00" xlink:href="#p2" />
<use fill="#feac00" xlink:href="#p3" />
<use fill="#ffffff" xlink:href="#p4" />
<use fill="#ffffff" xlink:href="#p5" />
<use fill="#ffffff" xlink:href="#p6" />
<use fill="#ffffff" xlink:href="#p7" />
<use fill="#ffffff" xlink:href="#p8" />
<use fill="#ffffff" xlink:href="#p9" />
<use fill="#ffffff" xlink:href="#p10" />
<use fill="#ffffff" xlink:href="#p11" />
<use fill="#ffffff" xlink:href="#p12" />
<use fill="#ffffff" xlink:href="#p13" />
<use fill="#ffffff" xlink:href="#p14" />
<use fill="#ffffff" xlink:href="#p15" />
<use fill="#ffffff" xlink:href="#p16" />
<use fill="#ffffff" xlink:href="#p17" />
<use fill="#ffffff" xlink:href="#p18" />
<use fill="#ffffff" xlink:href="#p19" />
<use fill="#ffffff" xlink:href="#p20" />
<use fill="#ffffff" xlink:href="#p21" />
<use fill="#ffffff" xlink:href="#p22" />
<use fill="#ffffff" xlink:href="#p23" />
<use fill="#000000" xlink:href="#p24" />
<use fill="#000000" xlink:href="#p25" />
<use fill="#000000" xlink:href="#p26" />
<use fill="#000000" xlink:href="#p27" />
<use fill="#000000" xlink:href="#p28" />
</g>
</svg>