<svg width="632" height="148" viewBox="0 0 632 148" fill="none" xmlns="http://www.w3.org/2000/svg">
<path d="M587.696 145.068C587.423 145.068 587.183 144.999 586.974 144.862C586.765 144.722 586.602 144.526 586.484 144.273C586.366 144.019 586.307 143.719 586.307 143.372C586.307 143.028 586.366 142.73 586.484 142.477C586.602 142.224 586.766 142.029 586.976 141.891C587.186 141.754 587.429 141.685 587.705 141.685C587.918 141.685 588.086 141.72 588.21 141.791C588.335 141.861 588.43 141.94 588.495 142.03C588.562 142.118 588.614 142.19 588.651 142.247H588.693V140.636H589.196V145H588.71V144.497H588.651C588.614 144.557 588.561 144.632 588.493 144.723C588.425 144.812 588.327 144.893 588.201 144.964C588.075 145.033 587.906 145.068 587.696 145.068ZM587.764 144.616C587.966 144.616 588.136 144.564 588.276 144.459C588.415 144.352 588.521 144.205 588.593 144.018C588.665 143.829 588.702 143.611 588.702 143.364C588.702 143.119 588.666 142.906 588.595 142.722C588.524 142.538 588.419 142.394 588.28 142.292C588.141 142.188 587.969 142.136 587.764 142.136C587.551 142.136 587.374 142.191 587.232 142.3C587.091 142.408 586.985 142.555 586.914 142.741C586.844 142.926 586.81 143.134 586.81 143.364C586.81 143.597 586.845 143.808 586.916 143.999C586.989 144.187 587.095 144.338 587.236 144.45C587.378 144.561 587.554 144.616 587.764 144.616ZM590.187 145V141.727H590.69V145H590.187ZM590.442 141.182C590.344 141.182 590.26 141.148 590.189 141.082C590.119 141.015 590.085 140.935 590.085 140.841C590.085 140.747 590.119 140.667 590.189 140.6C590.26 140.533 590.344 140.5 590.442 140.5C590.54 140.5 590.624 140.533 590.694 140.6C590.765 140.667 590.8 140.747 590.8 140.841C590.8 140.935 590.765 141.015 590.694 141.082C590.624 141.148 590.54 141.182 590.442 141.182ZM592.574 145.077C592.366 145.077 592.178 145.038 592.009 144.96C591.84 144.88 591.706 144.766 591.606 144.616C591.507 144.466 591.457 144.284 591.457 144.071C591.457 143.884 591.494 143.732 591.568 143.615C591.642 143.497 591.741 143.405 591.864 143.338C591.988 143.271 592.124 143.222 592.273 143.189C592.424 143.155 592.575 143.128 592.727 143.108C592.926 143.082 593.087 143.063 593.211 143.05C593.336 143.036 593.427 143.013 593.483 142.98C593.542 142.947 593.571 142.891 593.571 142.81V142.793C593.571 142.582 593.513 142.419 593.398 142.303C593.285 142.186 593.112 142.128 592.881 142.128C592.64 142.128 592.452 142.18 592.316 142.286C592.18 142.391 592.084 142.503 592.028 142.622L591.551 142.452C591.636 142.253 591.75 142.098 591.892 141.987C592.035 141.875 592.192 141.797 592.361 141.753C592.531 141.707 592.699 141.685 592.863 141.685C592.969 141.685 593.089 141.697 593.226 141.723C593.363 141.747 593.496 141.798 593.624 141.874C593.753 141.951 593.861 142.067 593.946 142.222C594.031 142.376 594.074 142.584 594.074 142.844V145H593.571V144.557H593.545C593.511 144.628 593.454 144.704 593.375 144.785C593.295 144.866 593.189 144.935 593.057 144.991C592.925 145.048 592.764 145.077 592.574 145.077ZM592.65 144.625C592.849 144.625 593.017 144.586 593.153 144.508C593.291 144.43 593.395 144.329 593.464 144.205C593.535 144.082 593.571 143.952 593.571 143.815V143.355C593.55 143.381 593.503 143.404 593.43 143.425C593.359 143.445 593.277 143.463 593.183 143.479C593.091 143.493 593.001 143.506 592.912 143.517C592.826 143.527 592.756 143.536 592.702 143.543C592.571 143.56 592.449 143.587 592.335 143.626C592.223 143.663 592.132 143.719 592.062 143.794C591.994 143.868 591.96 143.969 591.96 144.097C591.96 144.271 592.025 144.403 592.154 144.493C592.285 144.581 592.45 144.625 592.65 144.625ZM594.991 145V141.727H595.477V142.239H595.52C595.588 142.064 595.698 141.928 595.85 141.832C596.002 141.734 596.185 141.685 596.398 141.685C596.614 141.685 596.793 141.734 596.937 141.832C597.082 141.928 597.195 142.064 597.276 142.239H597.31C597.393 142.07 597.519 141.935 597.687 141.836C597.854 141.735 598.055 141.685 598.29 141.685C598.582 141.685 598.822 141.776 599.008 141.96C599.194 142.141 599.287 142.425 599.287 142.81V145H598.784V142.81C598.784 142.568 598.718 142.396 598.586 142.292C598.454 142.188 598.298 142.136 598.119 142.136C597.889 142.136 597.711 142.206 597.585 142.345C597.458 142.483 597.395 142.658 597.395 142.869V145H596.884V142.759C596.884 142.572 596.823 142.423 596.702 142.309C596.582 142.194 596.426 142.136 596.236 142.136C596.105 142.136 595.983 142.171 595.869 142.241C595.757 142.31 595.666 142.407 595.597 142.531C595.528 142.653 595.494 142.794 595.494 142.955V145H594.991ZM601.536 145.068C601.24 145.068 600.981 144.998 600.758 144.857C600.537 144.717 600.363 144.52 600.238 144.267C600.115 144.014 600.053 143.719 600.053 143.381C600.053 143.04 600.115 142.742 600.238 142.488C600.363 142.234 600.537 142.036 600.758 141.896C600.981 141.755 601.24 141.685 601.536 141.685C601.831 141.685 602.09 141.755 602.311 141.896C602.534 142.036 602.708 142.234 602.831 142.488C602.956 142.742 603.019 143.04 603.019 143.381C603.019 143.719 602.956 144.014 602.831 144.267C602.708 144.52 602.534 144.717 602.311 144.857C602.09 144.998 601.831 145.068 601.536 145.068ZM601.536 144.616C601.76 144.616 601.945 144.559 602.09 144.444C602.235 144.329 602.342 144.178 602.412 143.99C602.481 143.803 602.516 143.599 602.516 143.381C602.516 143.162 602.481 142.958 602.412 142.769C602.342 142.58 602.235 142.428 602.09 142.311C601.945 142.195 601.76 142.136 601.536 142.136C601.311 142.136 601.127 142.195 600.982 142.311C600.837 142.428 600.73 142.58 600.66 142.769C600.591 142.958 600.556 143.162 600.556 143.381C600.556 143.599 600.591 143.803 600.66 143.99C600.73 144.178 600.837 144.329 600.982 144.444C601.127 144.559 601.311 144.616 601.536 144.616ZM604.289 143.031V145H603.786V141.727H604.272V142.239H604.315C604.392 142.072 604.508 141.939 604.664 141.838C604.82 141.736 605.022 141.685 605.269 141.685C605.491 141.685 605.685 141.73 605.851 141.821C606.017 141.911 606.146 142.047 606.239 142.23C606.331 142.412 606.377 142.642 606.377 142.92V145H605.874V142.955C605.874 142.697 605.808 142.497 605.674 142.354C605.541 142.209 605.357 142.136 605.124 142.136C604.964 142.136 604.82 142.171 604.694 142.241C604.569 142.31 604.47 142.412 604.398 142.545C604.325 142.679 604.289 142.841 604.289 143.031ZM608.532 145.068C608.259 145.068 608.018 144.999 607.81 144.862C607.601 144.722 607.438 144.526 607.32 144.273C607.202 144.019 607.143 143.719 607.143 143.372C607.143 143.028 607.202 142.73 607.32 142.477C607.438 142.224 607.602 142.029 607.812 141.891C608.022 141.754 608.265 141.685 608.54 141.685C608.754 141.685 608.922 141.72 609.045 141.791C609.17 141.861 609.266 141.94 609.331 142.03C609.398 142.118 609.45 142.19 609.487 142.247H609.529V140.636H610.032V145H609.546V144.497H609.487C609.45 144.557 609.397 144.632 609.329 144.723C609.261 144.812 609.163 144.893 609.037 144.964C608.911 145.033 608.742 145.068 608.532 145.068ZM608.6 144.616C608.802 144.616 608.972 144.564 609.112 144.459C609.251 144.352 609.357 144.205 609.429 144.018C609.501 143.829 609.538 143.611 609.538 143.364C609.538 143.119 609.502 142.906 609.431 142.722C609.36 142.538 609.255 142.394 609.116 142.292C608.977 142.188 608.805 142.136 608.6 142.136C608.387 142.136 608.21 142.191 608.067 142.3C607.927 142.408 607.821 142.555 607.75 142.741C607.68 142.926 607.646 143.134 607.646 143.364C607.646 143.597 607.681 143.808 607.752 143.999C607.825 144.187 607.931 144.338 608.072 144.45C608.214 144.561 608.39 144.616 608.6 144.616ZM613.341 142.46L612.889 142.588C612.861 142.513 612.819 142.44 612.763 142.369C612.71 142.296 612.636 142.237 612.542 142.19C612.448 142.143 612.328 142.119 612.182 142.119C611.982 142.119 611.815 142.165 611.681 142.258C611.549 142.349 611.483 142.464 611.483 142.605C611.483 142.73 611.528 142.829 611.619 142.901C611.71 142.974 611.852 143.034 612.045 143.082L612.531 143.202C612.824 143.273 613.042 143.381 613.185 143.528C613.329 143.673 613.401 143.859 613.401 144.088C613.401 144.276 613.347 144.443 613.239 144.591C613.132 144.739 612.983 144.855 612.791 144.94C612.599 145.026 612.376 145.068 612.122 145.068C611.788 145.068 611.512 144.996 611.293 144.851C611.075 144.706 610.936 144.494 610.878 144.216L611.355 144.097C611.401 144.273 611.487 144.405 611.613 144.493C611.741 144.581 611.908 144.625 612.114 144.625C612.348 144.625 612.534 144.575 612.672 144.476C612.811 144.375 612.881 144.254 612.881 144.114C612.881 144 612.841 143.905 612.761 143.828C612.682 143.75 612.56 143.692 612.395 143.653L611.849 143.526C611.55 143.455 611.33 143.344 611.189 143.195C611.05 143.045 610.98 142.857 610.98 142.631C610.98 142.446 611.032 142.283 611.136 142.141C611.241 141.999 611.384 141.887 611.564 141.806C611.746 141.725 611.952 141.685 612.182 141.685C612.506 141.685 612.76 141.756 612.945 141.898C613.131 142.04 613.263 142.227 613.341 142.46ZM615.487 145.068C615.18 145.068 614.916 144.996 614.694 144.851C614.473 144.706 614.302 144.506 614.183 144.252C614.064 143.998 614.004 143.707 614.004 143.381C614.004 143.048 614.065 142.755 614.187 142.501C614.311 142.245 614.483 142.045 614.703 141.902C614.925 141.757 615.183 141.685 615.479 141.685C615.709 141.685 615.916 141.727 616.101 141.812C616.285 141.898 616.437 142.017 616.555 142.17C616.672 142.324 616.746 142.503 616.774 142.707H616.271C616.233 142.558 616.148 142.426 616.015 142.311C615.885 142.195 615.709 142.136 615.487 142.136C615.291 142.136 615.119 142.187 614.971 142.29C614.825 142.391 614.711 142.533 614.628 142.718C614.547 142.901 614.507 143.116 614.507 143.364C614.507 143.616 614.547 143.837 614.626 144.024C614.707 144.212 614.821 144.357 614.967 144.461C615.115 144.565 615.288 144.616 615.487 144.616C615.618 144.616 615.736 144.594 615.843 144.548C615.949 144.503 616.04 144.438 616.113 144.352C616.187 144.267 616.24 144.165 616.271 144.045H616.774C616.746 144.239 616.675 144.413 616.563 144.567C616.452 144.721 616.305 144.843 616.122 144.934C615.94 145.023 615.729 145.068 615.487 145.068ZM617.509 145V141.727H618.012V145H617.509ZM617.765 141.182C617.667 141.182 617.582 141.148 617.511 141.082C617.442 141.015 617.407 140.935 617.407 140.841C617.407 140.747 617.442 140.667 617.511 140.6C617.582 140.533 617.667 140.5 617.765 140.5C617.863 140.5 617.947 140.533 618.016 140.6C618.087 140.667 618.123 140.747 618.123 140.841C618.123 140.935 618.087 141.015 618.016 141.082C617.947 141.148 617.863 141.182 617.765 141.182ZM620.356 141.727V142.153H618.66V141.727H620.356ZM619.154 140.943H619.657V144.062C619.657 144.205 619.678 144.311 619.719 144.382C619.762 144.452 619.816 144.499 619.881 144.523C619.948 144.545 620.018 144.557 620.092 144.557C620.147 144.557 620.193 144.554 620.228 144.548C620.264 144.541 620.292 144.536 620.314 144.531L620.416 144.983C620.382 144.996 620.334 145.009 620.273 145.021C620.212 145.036 620.135 145.043 620.041 145.043C619.899 145.043 619.76 145.012 619.623 144.951C619.488 144.89 619.376 144.797 619.287 144.672C619.199 144.547 619.154 144.389 619.154 144.199V140.943ZM621.436 146.227C621.351 146.227 621.275 146.22 621.208 146.206C621.142 146.193 621.096 146.18 621.07 146.168L621.198 145.724C621.32 145.756 621.428 145.767 621.522 145.759C621.615 145.75 621.699 145.708 621.771 145.633C621.845 145.559 621.912 145.439 621.973 145.273L622.067 145.017L620.857 141.727H621.402L622.306 144.335H622.34L623.243 141.727H623.789L622.4 145.477C622.337 145.646 622.26 145.786 622.167 145.897C622.075 146.009 621.968 146.092 621.846 146.146C621.725 146.2 621.588 146.227 621.436 146.227ZM624.614 145.034C624.509 145.034 624.419 144.996 624.343 144.921C624.268 144.846 624.23 144.756 624.23 144.651C624.23 144.545 624.268 144.455 624.343 144.38C624.419 144.305 624.509 144.267 624.614 144.267C624.719 144.267 624.809 144.305 624.884 144.38C624.96 144.455 624.997 144.545 624.997 144.651C624.997 144.72 624.98 144.784 624.944 144.842C624.91 144.901 624.864 144.947 624.806 144.983C624.749 145.017 624.685 145.034 624.614 145.034ZM625.9 145V141.727H626.385V142.222H626.42C626.479 142.06 626.587 141.928 626.743 141.827C626.9 141.727 627.076 141.676 627.272 141.676C627.309 141.676 627.355 141.677 627.41 141.678C627.466 141.68 627.508 141.682 627.536 141.685V142.196C627.519 142.192 627.48 142.185 627.419 142.177C627.359 142.167 627.296 142.162 627.229 142.162C627.07 142.162 626.928 142.195 626.803 142.262C626.68 142.327 626.581 142.418 626.509 142.535C626.438 142.65 626.403 142.781 626.403 142.929V145H625.9ZM630.195 143.662V141.727H630.697V145H630.195V144.446H630.161C630.084 144.612 629.964 144.754 629.803 144.87C629.641 144.985 629.436 145.043 629.189 145.043C628.984 145.043 628.803 144.998 628.643 144.908C628.484 144.817 628.359 144.681 628.268 144.499C628.178 144.316 628.132 144.085 628.132 143.807V141.727H628.635V143.773C628.635 144.011 628.702 144.202 628.835 144.344C628.97 144.486 629.142 144.557 629.351 144.557C629.476 144.557 629.603 144.525 629.732 144.461C629.863 144.397 629.972 144.299 630.06 144.167C630.15 144.035 630.195 143.866 630.195 143.662Z" fill="#1D1D1B"/>
<mask id="mask0_8068_6468" style="mask-type:luminance" maskUnits="userSpaceOnUse" x="586" y="92" width="46" height="45">
<path d="M611.2 92H609.4V93.8H611.2V92Z" fill="white"/>
<path d="M613 92H611.2V93.8H613V92Z" fill="white"/>
<path d="M614.8 92H613V93.8H614.8V92Z" fill="white"/>
<path d="M602.2 93.8H600.4V95.6H602.2V93.8Z" fill="white"/>
<path d="M607.6 93.8H605.8V95.6H607.6V93.8Z" fill="white"/>
<path d="M609.4 93.8H607.6V95.6H609.4V93.8Z" fill="white"/>
<path d="M611.2 93.8H609.4V95.6H611.2V93.8Z" fill="white"/>
<path d="M614.8 93.8H613V95.6H614.8V93.8Z" fill="white"/>
<path d="M616.6 93.8H614.8V95.6H616.6V93.8Z" fill="white"/>
<path d="M607.6 95.6H605.8V97.4H607.6V95.6Z" fill="white"/>
<path d="M614.8 95.6H613V97.4H614.8V95.6Z" fill="white"/>
<path d="M616.6 95.6H614.8V97.4H616.6V95.6Z" fill="white"/>
<path d="M604 97.4H602.2V99.2H604V97.4Z" fill="white"/>
<path d="M605.8 97.4H604V99.2H605.8V97.4Z" fill="white"/>
<path d="M609.4 97.4H607.6V99.2H609.4V97.4Z" fill="white"/>
<path d="M613 97.4H611.2V99.2H613V97.4Z" fill="white"/>
<path d="M614.8 97.4H613V99.2H614.8V97.4Z" fill="white"/>
<path d="M602.2 99.2H600.4V101H602.2V99.2Z" fill="white"/>
<path d="M604 99.2H602.2V101H604V99.2Z" fill="white"/>
<path d="M605.8 99.2H604V101H605.8V99.2Z" fill="white"/>
<path d="M609.4 99.2H607.6V101H609.4V99.2Z" fill="white"/>
<path d="M614.8 99.2H613V101H614.8V99.2Z" fill="white"/>
<path d="M604 101H602.2V102.8H604V101Z" fill="white"/>
<path d="M611.2 101H609.4V102.8H611.2V101Z" fill="white"/>
<path d="M613 101H611.2V102.8H613V101Z" fill="white"/>
<path d="M614.8 101H613V102.8H614.8V101Z" fill="white"/>
<path d="M616.6 101H614.8V102.8H616.6V101Z" fill="white"/>
<path d="M602.2 102.8H600.4V104.6H602.2V102.8Z" fill="white"/>
<path d="M605.8 102.8H604V104.6H605.8V102.8Z" fill="white"/>
<path d="M609.4 102.8H607.6V104.6H609.4V102.8Z" fill="white"/>
<path d="M613 102.8H611.2V104.6H613V102.8Z" fill="white"/>
<path d="M616.6 102.8H614.8V104.6H616.6V102.8Z" fill="white"/>
<path d="M604 104.6H602.2V106.4H604V104.6Z" fill="white"/>
<path d="M605.8 104.6H604V106.4H605.8V104.6Z" fill="white"/>
<path d="M607.6 104.6H605.8V106.4H607.6V104.6Z" fill="white"/>
<path d="M609.4 104.6H607.6V106.4H609.4V104.6Z" fill="white"/>
<path d="M611.2 104.6H609.4V106.4H611.2V104.6Z" fill="white"/>
<path d="M587.8 106.4H586V108.2H587.8V106.4Z" fill="white"/>
<path d="M591.4 106.4H589.6V108.2H591.4V106.4Z" fill="white"/>
<path d="M595 106.4H593.2V108.2H595V106.4Z" fill="white"/>
<path d="M598.6 106.4H596.8V108.2H598.6V106.4Z" fill="white"/>
<path d="M607.6 106.4H605.8V108.2H607.6V106.4Z" fill="white"/>
<path d="M611.2 106.4H609.4V108.2H611.2V106.4Z" fill="white"/>
<path d="M623.8 106.4H622V108.2H623.8V106.4Z" fill="white"/>
<path d="M629.2 106.4H627.4V108.2H629.2V106.4Z" fill="white"/>
<path d="M589.6 108.2H587.8V110H589.6V108.2Z" fill="white"/>
<path d="M591.4 108.2H589.6V110H591.4V108.2Z" fill="white"/>
<path d="M595 108.2H593.2V110H595V108.2Z" fill="white"/>
<path d="M596.8 108.2H595V110H596.8V108.2Z" fill="white"/>
<path d="M602.2 108.2H600.4V110H602.2V108.2Z" fill="white"/>
<path d="M605.8 108.2H604V110H605.8V108.2Z" fill="white"/>
<path d="M613 108.2H611.2V110H613V108.2Z" fill="white"/>
<path d="M616.6 108.2H614.8V110H616.6V108.2Z" fill="white"/>
<path d="M618.4 108.2H616.6V110H618.4V108.2Z" fill="white"/>
<path d="M620.2 108.2H618.4V110H620.2V108.2Z" fill="white"/>
<path d="M631 108.2H629.2V110H631V108.2Z" fill="white"/>
<path d="M587.8 110H586V111.8H587.8V110Z" fill="white"/>
<path d="M591.4 110H589.6V111.8H591.4V110Z" fill="white"/>
<path d="M593.2 110H591.4V111.8H593.2V110Z" fill="white"/>
<path d="M596.8 110H595V111.8H596.8V110Z" fill="white"/>
<path d="M598.6 110H596.8V111.8H598.6V110Z" fill="white"/>
<path d="M604 110H602.2V111.8H604V110Z" fill="white"/>
<path d="M605.8 110H604V111.8H605.8V110Z" fill="white"/>
<path d="M609.4 110H607.6V111.8H609.4V110Z" fill="white"/>
<path d="M613 110H611.2V111.8H613V110Z" fill="white"/>
<path d="M616.6 110H614.8V111.8H616.6V110Z" fill="white"/>
<path d="M623.8 110H622V111.8H623.8V110Z" fill="white"/>
<path d="M627.4 110H625.6V111.8H627.4V110Z" fill="white"/>
<path d="M629.2 110H627.4V111.8H629.2V110Z" fill="white"/>
<path d="M631 110H629.2V111.8H631V110Z" fill="white"/>
<path d="M587.8 111.8H586V113.6H587.8V111.8Z" fill="white"/>
<path d="M589.6 111.8H587.8V113.6H589.6V111.8Z" fill="white"/>
<path d="M593.2 111.8H591.4V113.6H593.2V111.8Z" fill="white"/>
<path d="M596.8 111.8H595V113.6H596.8V111.8Z" fill="white"/>
<path d="M602.2 111.8H600.4V113.6H602.2V111.8Z" fill="white"/>
<path d="M604 111.8H602.2V113.6H604V111.8Z" fill="white"/>
<path d="M611.2 111.8H609.4V113.6H611.2V111.8Z" fill="white"/>
<path d="M613 111.8H611.2V113.6H613V111.8Z" fill="white"/>
<path d="M614.8 111.8H613V113.6H614.8V111.8Z" fill="white"/>
<path d="M616.6 111.8H614.8V113.6H616.6V111.8Z" fill="white"/>
<path d="M629.2 111.8H627.4V113.6H629.2V111.8Z" fill="white"/>
<path d="M589.6 113.6H587.8V115.4H589.6V113.6Z" fill="white"/>
<path d="M598.6 113.6H596.8V115.4H598.6V113.6Z" fill="white"/>
<path d="M604 113.6H602.2V115.4H604V113.6Z" fill="white"/>
<path d="M607.6 113.6H605.8V115.4H607.6V113.6Z" fill="white"/>
<path d="M609.4 113.6H607.6V115.4H609.4V113.6Z" fill="white"/>
<path d="M611.2 113.6H609.4V115.4H611.2V113.6Z" fill="white"/>
<path d="M613 113.6H611.2V115.4H613V113.6Z" fill="white"/>
<path d="M616.6 113.6H614.8V115.4H616.6V113.6Z" fill="white"/>
<path d="M618.4 113.6H616.6V115.4H618.4V113.6Z" fill="white"/>
<path d="M620.2 113.6H618.4V115.4H620.2V113.6Z" fill="white"/>
<path d="M625.6 113.6H623.8V115.4H625.6V113.6Z" fill="white"/>
<path d="M629.2 113.6H627.4V115.4H629.2V113.6Z" fill="white"/>
<path d="M631 113.6H629.2V115.4H631V113.6Z" fill="white"/>
<path d="M591.4 115.4H589.6V117.2H591.4V115.4Z" fill="white"/>
<path d="M593.2 115.4H591.4V117.2H593.2V115.4Z" fill="white"/>
<path d="M595 115.4H593.2V117.2H595V115.4Z" fill="white"/>
<path d="M596.8 115.4H595V117.2H596.8V115.4Z" fill="white"/>
<path d="M600.4 115.4H598.6V117.2H600.4V115.4Z" fill="white"/>
<path d="M604 115.4H602.2V117.2H604V115.4Z" fill="white"/>
<path d="M607.6 115.4H605.8V117.2H607.6V115.4Z" fill="white"/>
<path d="M609.4 115.4H607.6V117.2H609.4V115.4Z" fill="white"/>
<path d="M616.6 115.4H614.8V117.2H616.6V115.4Z" fill="white"/>
<path d="M618.4 115.4H616.6V117.2H618.4V115.4Z" fill="white"/>
<path d="M620.2 115.4H618.4V117.2H620.2V115.4Z" fill="white"/>
<path d="M625.6 115.4H623.8V117.2H625.6V115.4Z" fill="white"/>
<path d="M631 115.4H629.2V117.2H631V115.4Z" fill="white"/>
<path d="M587.8 117.2H586V119H587.8V117.2Z" fill="white"/>
<path d="M593.2 117.2H591.4V119H593.2V117.2Z" fill="white"/>
<path d="M596.8 117.2H595V119H596.8V117.2Z" fill="white"/>
<path d="M598.6 117.2H596.8V119H598.6V117.2Z" fill="white"/>
<path d="M607.6 117.2H605.8V119H607.6V117.2Z" fill="white"/>
<path d="M609.4 117.2H607.6V119H609.4V117.2Z" fill="white"/>
<path d="M611.2 117.2H609.4V119H611.2V117.2Z" fill="white"/>
<path d="M616.6 117.2H614.8V119H616.6V117.2Z" fill="white"/>
<path d="M620.2 117.2H618.4V119H620.2V117.2Z" fill="white"/>
<path d="M622 117.2H620.2V119H622V117.2Z" fill="white"/>
<path d="M627.4 117.2H625.6V119H627.4V117.2Z" fill="white"/>
<path d="M629.2 117.2H627.4V119H629.2V117.2Z" fill="white"/>
<path d="M631 117.2H629.2V119H631V117.2Z" fill="white"/>
<path d="M589.6 119H587.8V120.8H589.6V119Z" fill="white"/>
<path d="M593.2 119H591.4V120.8H593.2V119Z" fill="white"/>
<path d="M596.8 119H595V120.8H596.8V119Z" fill="white"/>
<path d="M604 119H602.2V120.8H604V119Z" fill="white"/>
<path d="M605.8 119H604V120.8H605.8V119Z" fill="white"/>
<path d="M609.4 119H607.6V120.8H609.4V119Z" fill="white"/>
<path d="M611.2 119H609.4V120.8H611.2V119Z" fill="white"/>
<path d="M616.6 119H614.8V120.8H616.6V119Z" fill="white"/>
<path d="M623.8 119H622V120.8H623.8V119Z" fill="white"/>
<path d="M629.2 119H627.4V120.8H629.2V119Z" fill="white"/>
<path d="M587.8 120.8H586V122.6H587.8V120.8Z" fill="white"/>
<path d="M591.4 120.8H589.6V122.6H591.4V120.8Z" fill="white"/>
<path d="M596.8 120.8H595V122.6H596.8V120.8Z" fill="white"/>
<path d="M598.6 120.8H596.8V122.6H598.6V120.8Z" fill="white"/>
<path d="M602.2 120.8H600.4V122.6H602.2V120.8Z" fill="white"/>
<path d="M607.6 120.8H605.8V122.6H607.6V120.8Z" fill="white"/>
<path d="M611.2 120.8H609.4V122.6H611.2V120.8Z" fill="white"/>
<path d="M614.8 120.8H613V122.6H614.8V120.8Z" fill="white"/>
<path d="M616.6 120.8H614.8V122.6H616.6V120.8Z" fill="white"/>
<path d="M618.4 120.8H616.6V122.6H618.4V120.8Z" fill="white"/>
<path d="M620.2 120.8H618.4V122.6H620.2V120.8Z" fill="white"/>
<path d="M622 120.8H620.2V122.6H622V120.8Z" fill="white"/>
<path d="M623.8 120.8H622V122.6H623.8V120.8Z" fill="white"/>
<path d="M625.6 120.8H623.8V122.6H625.6V120.8Z" fill="white"/>
<path d="M602.2 122.6H600.4V124.4H602.2V122.6Z" fill="white"/>
<path d="M604 122.6H602.2V124.4H604V122.6Z" fill="white"/>
<path d="M605.8 122.6H604V124.4H605.8V122.6Z" fill="white"/>
<path d="M607.6 122.6H605.8V124.4H607.6V122.6Z" fill="white"/>
<path d="M611.2 122.6H609.4V124.4H611.2V122.6Z" fill="white"/>
<path d="M613 122.6H611.2V124.4H613V122.6Z" fill="white"/>
<path d="M614.8 122.6H613V124.4H614.8V122.6Z" fill="white"/>
<path d="M616.6 122.6H614.8V124.4H616.6V122.6Z" fill="white"/>
<path d="M623.8 122.6H622V124.4H623.8V122.6Z" fill="white"/>
<path d="M625.6 122.6H623.8V124.4H625.6V122.6Z" fill="white"/>
<path d="M629.2 122.6H627.4V124.4H629.2V122.6Z" fill="white"/>
<path d="M631 122.6H629.2V124.4H631V122.6Z" fill="white"/>
<path d="M604 124.4H602.2V126.2H604V124.4Z" fill="white"/>
<path d="M611.2 124.4H609.4V126.2H611.2V124.4Z" fill="white"/>
<path d="M613 124.4H611.2V126.2H613V124.4Z" fill="white"/>
<path d="M614.8 124.4H613V126.2H614.8V124.4Z" fill="white"/>
<path d="M616.6 124.4H614.8V126.2H616.6V124.4Z" fill="white"/>
<path d="M620.2 124.4H618.4V126.2H620.2V124.4Z" fill="white"/>
<path d="M623.8 124.4H622V126.2H623.8V124.4Z" fill="white"/>
<path d="M625.6 124.4H623.8V126.2H625.6V124.4Z" fill="white"/>
<path d="M629.2 124.4H627.4V126.2H629.2V124.4Z" fill="white"/>
<path d="M631 124.4H629.2V126.2H631V124.4Z" fill="white"/>
<path d="M604 126.2H602.2V128H604V126.2Z" fill="white"/>
<path d="M607.6 126.2H605.8V128H607.6V126.2Z" fill="white"/>
<path d="M611.2 126.2H609.4V128H611.2V126.2Z" fill="white"/>
<path d="M616.6 126.2H614.8V128H616.6V126.2Z" fill="white"/>
<path d="M623.8 126.2H622V128H623.8V126.2Z" fill="white"/>
<path d="M625.6 126.2H623.8V128H625.6V126.2Z" fill="white"/>
<path d="M631 126.2H629.2V128H631V126.2Z" fill="white"/>
<path d="M602.2 128H600.4V129.8H602.2V128Z" fill="white"/>
<path d="M609.4 128H607.6V129.8H609.4V128Z" fill="white"/>
<path d="M611.2 128H609.4V129.8H611.2V128Z" fill="white"/>
<path d="M616.6 128H614.8V129.8H616.6V128Z" fill="white"/>
<path d="M618.4 128H616.6V129.8H618.4V128Z" fill="white"/>
<path d="M620.2 128H618.4V129.8H620.2V128Z" fill="white"/>
<path d="M622 128H620.2V129.8H622V128Z" fill="white"/>
<path d="M623.8 128H622V129.8H623.8V128Z" fill="white"/>
<path d="M625.6 128H623.8V129.8H625.6V128Z" fill="white"/>
<path d="M629.2 128H627.4V129.8H629.2V128Z" fill="white"/>
<path d="M631 128H629.2V129.8H631V128Z" fill="white"/>
<path d="M605.8 129.8H604V131.6H605.8V129.8Z" fill="white"/>
<path d="M607.6 129.8H605.8V131.6H607.6V129.8Z" fill="white"/>
<path d="M609.4 129.8H607.6V131.6H609.4V129.8Z" fill="white"/>
<path d="M611.2 129.8H609.4V131.6H611.2V129.8Z" fill="white"/>
<path d="M613 129.8H611.2V131.6H613V129.8Z" fill="white"/>
<path d="M616.6 129.8H614.8V131.6H616.6V129.8Z" fill="white"/>
<path d="M622 129.8H620.2V131.6H622V129.8Z" fill="white"/>
<path d="M623.8 129.8H622V131.6H623.8V129.8Z" fill="white"/>
<path d="M625.6 129.8H623.8V131.6H625.6V129.8Z" fill="white"/>
<path d="M627.4 129.8H625.6V131.6H627.4V129.8Z" fill="white"/>
<path d="M602.2 131.6H600.4V133.4H602.2V131.6Z" fill="white"/>
<path d="M607.6 131.6H605.8V133.4H607.6V131.6Z" fill="white"/>
<path d="M609.4 131.6H607.6V133.4H609.4V131.6Z" fill="white"/>
<path d="M614.8 131.6H613V133.4H614.8V131.6Z" fill="white"/>
<path d="M623.8 131.6H622V133.4H623.8V131.6Z" fill="white"/>
<path d="M631 131.6H629.2V133.4H631V131.6Z" fill="white"/>
<path d="M609.4 133.4H607.6V135.2H609.4V133.4Z" fill="white"/>
<path d="M611.2 133.4H609.4V135.2H611.2V133.4Z" fill="white"/>
<path d="M613 133.4H611.2V135.2H613V133.4Z" fill="white"/>
<path d="M614.8 133.4H613V135.2H614.8V133.4Z" fill="white"/>
<path d="M616.6 133.4H614.8V135.2H616.6V133.4Z" fill="white"/>
<path d="M620.2 133.4H618.4V135.2H620.2V133.4Z" fill="white"/>
<path d="M623.8 133.4H622V135.2H623.8V133.4Z" fill="white"/>
<path d="M625.6 133.4H623.8V135.2H625.6V133.4Z" fill="white"/>
<path d="M629.2 133.4H627.4V135.2H629.2V133.4Z" fill="white"/>
<path d="M602.2 135.2H600.4V137H602.2V135.2Z" fill="white"/>
<path d="M604 135.2H602.2V137H604V135.2Z" fill="white"/>
<path d="M607.6 135.2H605.8V137H607.6V135.2Z" fill="white"/>
<path d="M609.4 135.2H607.6V137H609.4V135.2Z" fill="white"/>
<path d="M613 135.2H611.2V137H613V135.2Z" fill="white"/>
<path d="M614.8 135.2H613V137H614.8V135.2Z" fill="white"/>
<path d="M616.6 135.2H614.8V137H616.6V135.2Z" fill="white"/>
<path d="M618.4 135.2H616.6V137H618.4V135.2Z" fill="white"/>
<path d="M620.2 135.2H618.4V137H620.2V135.2Z" fill="white"/>
<path d="M622 135.2H620.2V137H622V135.2Z" fill="white"/>
<path d="M629.2 135.2H627.4V137H629.2V135.2Z" fill="white"/>
<path d="M631 135.2H629.2V137H631V135.2Z" fill="white"/>
<path d="M596.71 92H587.89H586V93.89V102.71V104.6H587.89H596.71H598.6V102.71V93.89V92H596.71ZM596.71 102.71H587.89V93.89H596.71V102.71Z" fill="white"/>
<path d="M629.11 92H620.29H618.4V93.89V102.71V104.6H620.29H629.11H631V102.71V93.89V92H629.11ZM629.11 102.71H620.29V93.89H629.11V102.71Z" fill="white"/>
<path d="M596.71 124.4H587.89H586V126.29V135.11V137H587.89H596.71H598.6V135.11V126.29V124.4H596.71ZM596.71 135.11H587.89V126.29H596.71V135.11Z" fill="white"/>
<path d="M595 95.6H589.6V101H595V95.6Z" fill="white"/>
<path d="M627.4 95.6H622V101H627.4V95.6Z" fill="white"/>
<path d="M595 128H589.6V133.4H595V128Z" fill="white"/>
</mask>
<g mask="url(#mask0_8068_6468)">
<path d="M631 92H586V137H631V92Z" fill="url(#paint0_linear_8068_6468)"/>
</g>
<mask id="mask1_8068_6468" style="mask-type:luminance" maskUnits="userSpaceOnUse" x="0" y="0" width="632" height="125">
<path d="M631.132 0H0V124.922H631.132V0Z" fill="white"/>
</mask>
<g mask="url(#mask1_8068_6468)">
<mask id="mask2_8068_6468" style="mask-type:luminance" maskUnits="userSpaceOnUse" x="0" y="0" width="631" height="124">
<path d="M630.554 0H0V123.316H630.554V0Z" fill="white"/>
</mask>
<g mask="url(#mask2_8068_6468)">
<path d="M159.324 50.5045C162.21 50.5045 165.866 51.5753 167.598 56.3937L167.79 56.7506H173.755L173.563 56.0368C172.023 49.2554 167.021 45.5076 159.516 45.5076C149.703 45.5076 142.968 52.2892 142.968 62.4614C142.968 72.6336 149.703 79.4152 159.516 79.4152C167.021 79.4152 172.023 75.6674 173.563 68.8861L173.755 68.1722H167.79L167.598 68.5291C166.058 73.526 162.21 74.4183 159.324 74.4183C152.974 74.4183 149.126 69.9567 149.126 62.283C149.126 55.1445 152.974 50.5045 159.324 50.5045Z" fill="#1D1D1B"/>
<path d="M193.38 46.2217H187.416V79.2368H193.38V46.2217Z" fill="#1D1D1B"/>
<path d="M205.505 51.0402H217.05V79.2368H222.822V51.0402H234.367V46.2217H205.505V51.0402Z" fill="#1D1D1B"/>
<path d="M258.995 60.3202L249.374 46.2217H242.447L255.724 65.3169V79.2368H261.689V65.3169L274.773 46.2217H268.231L258.995 60.3202Z" fill="#1D1D1B"/>
<path d="M318.643 46.2217H306.328V79.2368H318.643C328.841 79.2368 335.768 72.6338 335.768 62.8185C335.768 53.0033 328.841 46.2217 318.643 46.2217ZM329.226 62.6401C329.226 69.7785 324.992 74.4184 318.065 74.4184H312.1V51.0402H318.065C324.992 51.0402 329.226 55.5016 329.226 62.6401Z" fill="#1D1D1B"/>
<path d="M358.09 46.2217H352.125V79.2368H358.09V46.2217Z" fill="#1D1D1B"/>
<path d="M385.991 46.2217L372.521 79.2368H378.679L383.874 66.5662H394.072L399.268 79.2368H405.81L391.956 46.2217H385.991ZM392.148 61.7477H385.798L389.069 53.8955L392.148 61.7477Z" fill="#1D1D1B"/>
<path d="M437.751 67.6369L424.667 46.2217H419.664V79.2368H425.629V59.0708L436.404 76.2031H439.098L449.874 59.0708V79.2368H455.839V46.2217H450.836L437.751 67.6369Z" fill="#1D1D1B"/>
<path d="M485.856 45.6862C476.043 45.6862 469.308 52.4675 469.308 62.6399C469.308 72.8121 476.043 79.5937 485.856 79.5937C495.669 79.5937 502.404 72.8121 502.404 62.6399C502.404 52.6461 495.669 45.6862 485.856 45.6862ZM495.862 62.6399C495.862 69.9568 491.821 74.7752 485.664 74.7752C479.506 74.7752 475.465 69.9568 475.465 62.6399C475.465 55.323 479.506 50.5045 485.664 50.5045C492.013 50.5045 495.862 55.323 495.862 62.6399Z" fill="#1D1D1B"/>
<path d="M540.885 68.8862L520.682 46.2217H516.063V79.2368H522.028V56.5724L542.04 79.2368H546.658V46.2217H540.885V68.8862Z" fill="#1D1D1B"/>
<path d="M574.755 46.2217H562.44V79.2368H574.755C584.953 79.2368 591.88 72.6338 591.88 62.8185C591.88 53.0033 584.953 46.2217 574.755 46.2217ZM585.338 62.6401C585.338 69.7785 581.105 74.4184 574.178 74.4184H568.213V51.0402H574.178C581.105 51.0402 585.338 55.5016 585.338 62.6401Z" fill="#1D1D1B"/>
<path d="M618.432 60.3199C614.199 59.0706 610.735 58.1783 610.735 54.7875C610.735 52.1106 613.237 50.5045 617.47 50.5045C621.703 50.5045 624.012 52.1106 624.589 55.5014V56.0369H630.554V55.323C629.785 49.0769 625.167 45.6862 617.278 45.6862C609.196 45.6862 604.193 49.2553 604.193 55.1445C604.193 61.7475 610.158 63.5322 615.353 65.1383C619.394 66.3875 623.05 67.4583 623.05 70.4921C623.05 73.1691 620.549 74.9537 616.7 74.9537C613.237 74.9537 610.928 73.3474 610.158 70.3138L609.966 69.7783H604.193V70.4921C604.963 76.2029 609.773 79.5937 616.7 79.5937C622.858 79.5937 629.015 76.5598 629.015 69.9568C629.207 63.5322 623.435 61.9261 618.432 60.3199Z" fill="#1D1D1B"/>
<path d="M15.9722 28.7319V60.1409H35.2138V25.1628L15.9722 28.7319Z" fill="url(#paint1_linear_8068_6468)"/>
<path d="M38.4836 0V60.1412H71.0023V20.8798L38.4836 0Z" fill="url(#paint2_linear_8068_6468)"/>
<path d="M0 34.6202V60.1401H12.1223V39.9741L0 34.6202Z" fill="url(#paint3_linear_8068_6468)"/>
<path d="M75.2347 25.1628V60.1409H94.2841V28.7319L75.2347 25.1628Z" fill="url(#paint4_linear_8068_6468)"/>
<path d="M98.1333 39.9741V60.1401H110.448V34.6202L98.1333 39.9741Z" fill="url(#paint5_linear_8068_6468)"/>
<path d="M12.8935 62.9963H0.578735L43.6804 113.857L12.8935 62.9963Z" fill="url(#paint6_linear_8068_6468)"/>
<path d="M109.102 62.9963H96.9795L66.1926 113.857L109.102 62.9963Z" fill="url(#paint7_linear_8068_6468)"/>
<path d="M93.3214 62.9963H73.8871L59.0709 119.568L93.3214 62.9963Z" fill="url(#paint8_linear_8068_6468)"/>
<path d="M35.7898 62.9963H16.3556L50.606 119.568L35.7898 62.9963Z" fill="url(#paint9_linear_8068_6468)"/>
<path d="M70.8114 62.9963H39.0624L54.8407 123.316L70.8114 62.9963Z" fill="url(#paint10_linear_8068_6468)"/>
</g>
</g>
<defs>
<linearGradient id="paint0_linear_8068_6468" x1="586" y1="92" x2="586" y2="137" gradientUnits="userSpaceOnUse">
<stop offset="0.05" stop-color="#EEC880"/>
<stop offset="0.95" stop-color="#C48411"/>
</linearGradient>
<linearGradient id="paint1_linear_8068_6468" x1="17.8767" y1="32.191" x2="63.4901" y2="103.854" gradientUnits="userSpaceOnUse">
<stop offset="0.005618" stop-color="#EEC880"/>
<stop offset="0.1854" stop-color="#E5C080"/>
<stop offset="0.5955" stop-color="#C48411"/>
<stop offset="0.8123" stop-color="#E4B86D"/>
<stop offset="0.8708" stop-color="#EDC686"/>
<stop offset="1" stop-color="#F1E4CE"/>
</linearGradient>
<linearGradient id="paint2_linear_8068_6468" x1="38.7373" y1="18.9129" x2="84.3507" y2="90.5764" gradientUnits="userSpaceOnUse">
<stop offset="0.005618" stop-color="#EEC880"/>
<stop offset="0.1854" stop-color="#E5C080"/>
<stop offset="0.5955" stop-color="#C48411"/>
<stop offset="0.8123" stop-color="#E4B86D"/>
<stop offset="0.8708" stop-color="#EDC686"/>
<stop offset="1" stop-color="#F1E4CE"/>
</linearGradient>
<linearGradient id="paint3_linear_8068_6468" x1="0.88628" y1="43.0037" x2="46.4996" y2="114.667" gradientUnits="userSpaceOnUse">
<stop offset="0.005618" stop-color="#EEC880"/>
<stop offset="0.1854" stop-color="#E5C080"/>
<stop offset="0.5955" stop-color="#C48411"/>
<stop offset="0.8123" stop-color="#E4B86D"/>
<stop offset="0.8708" stop-color="#EDC686"/>
<stop offset="1" stop-color="#F1E4CE"/>
</linearGradient>
<linearGradient id="paint4_linear_8068_6468" x1="57.2106" y1="7.15394" x2="102.824" y2="78.8176" gradientUnits="userSpaceOnUse">
<stop offset="0.005618" stop-color="#EEC880"/>
<stop offset="0.1854" stop-color="#E5C080"/>
<stop offset="0.5955" stop-color="#C48411"/>
<stop offset="0.8123" stop-color="#E4B86D"/>
<stop offset="0.8708" stop-color="#EDC686"/>
<stop offset="1" stop-color="#F1E4CE"/>
</linearGradient>
<linearGradient id="paint5_linear_8068_6468" x1="69.0081" y1="-0.355302" x2="114.621" y2="71.308" gradientUnits="userSpaceOnUse">
<stop offset="0.005618" stop-color="#EEC880"/>
<stop offset="0.1854" stop-color="#E5C080"/>
<stop offset="0.5955" stop-color="#C48411"/>
<stop offset="0.8123" stop-color="#E4B86D"/>
<stop offset="0.8708" stop-color="#EDC686"/>
<stop offset="1" stop-color="#F1E4CE"/>
</linearGradient>
<linearGradient id="paint6_linear_8068_6468" x1="-5.17226" y1="46.8614" x2="40.4411" y2="118.525" gradientUnits="userSpaceOnUse">
<stop offset="0.005618" stop-color="#EEC880"/>
<stop offset="0.1854" stop-color="#E5C080"/>
<stop offset="0.5955" stop-color="#C48411"/>
<stop offset="0.8123" stop-color="#E4B86D"/>
<stop offset="0.8708" stop-color="#EDC686"/>
<stop offset="1" stop-color="#F1E4CE"/>
</linearGradient>
<linearGradient id="paint7_linear_8068_6468" x1="37.047" y1="19.9889" x2="82.6603" y2="91.6525" gradientUnits="userSpaceOnUse">
<stop offset="0.005618" stop-color="#EEC880"/>
<stop offset="0.1854" stop-color="#E5C080"/>
<stop offset="0.5955" stop-color="#C48411"/>
<stop offset="0.8123" stop-color="#E4B86D"/>
<stop offset="0.8708" stop-color="#EDC686"/>
<stop offset="1" stop-color="#F1E4CE"/>
</linearGradient>
<linearGradient id="paint8_linear_8068_6468" x1="27.8136" y1="25.8646" x2="73.427" y2="97.5284" gradientUnits="userSpaceOnUse">
<stop offset="0.005618" stop-color="#EEC880"/>
<stop offset="0.1854" stop-color="#E5C080"/>
<stop offset="0.5955" stop-color="#C48411"/>
<stop offset="0.8123" stop-color="#E4B86D"/>
<stop offset="0.8708" stop-color="#EDC686"/>
<stop offset="1" stop-color="#F1E4CE"/>
</linearGradient>
<linearGradient id="paint9_linear_8068_6468" x1="5.41085" y1="40.1245" x2="51.0241" y2="111.788" gradientUnits="userSpaceOnUse">
<stop offset="0.005618" stop-color="#EEC880"/>
<stop offset="0.1854" stop-color="#E5C080"/>
<stop offset="0.5955" stop-color="#C48411"/>
<stop offset="0.8123" stop-color="#E4B86D"/>
<stop offset="0.8708" stop-color="#EDC686"/>
<stop offset="1" stop-color="#F1E4CE"/>
</linearGradient>
<linearGradient id="paint10_linear_8068_6468" x1="17.7514" y1="32.2708" x2="63.3648" y2="103.935" gradientUnits="userSpaceOnUse">
<stop offset="0.005618" stop-color="#EEC880"/>
<stop offset="0.1854" stop-color="#E5C080"/>
<stop offset="0.5955" stop-color="#C48411"/>
<stop offset="0.8123" stop-color="#E4B86D"/>
<stop offset="0.8708" stop-color="#EDC686"/>
<stop offset="1" stop-color="#F1E4CE"/>
</linearGradient>
</defs>
</svg>
