<svg width="1224" height="792" viewBox="0 0 1224 792" fill="none" xmlns="http://www.w3.org/2000/svg">
<g clip-path="url(#clip0_4355_39790)">
<rect width="792" height="1224" transform="matrix(0 -1 1 0 0 792)" fill="white"/>
<path d="M905.508 321.639C912.08 322.581 919.428 323.262 927.397 323.472C935.056 323.681 942.093 323.472 948.458 323C939.765 313.049 922.999 296.709 896.97 286.024C857.9 269.946 822.867 276.911 810.034 280.159C809.103 272.303 808.171 264.447 807.24 256.59C820.125 258.895 833.062 261.252 845.947 263.556C851.225 257.271 856.503 250.986 861.73 244.702C851.122 231.451 838.599 217.258 823.954 202.803C811.017 190.024 798.287 178.92 786.386 169.336C786.386 169.336 729.36 232.08 695.414 290.895C705.246 289.219 714.767 292.571 720.822 299.223L726.255 323.21C723.564 332.375 715.802 340.022 705.401 342.431C700.795 343.531 696.19 343.426 691.947 342.379L709.541 419.944C710.11 422.353 708.609 424.762 706.229 425.286L695.569 427.748C693.189 428.324 690.808 426.805 690.291 424.396L671.455 341.279C671.196 340.022 670.937 338.765 670.73 337.455C639.423 398.733 616.447 454.301 606.771 499.185C638.543 489.968 688.79 479.598 750.473 484.049C815.261 488.763 865.559 507.879 896.142 522.335C893.865 487.977 891.588 453.568 889.311 419.211C883.774 418.32 876.685 417.797 868.664 418.635C851.38 420.468 838.65 427.748 831.82 432.461C828.974 429.319 827.266 425.181 827.266 420.572C827.266 414.183 830.112 408.369 835.08 405.279C839.013 402.818 843.152 402.87 844.757 402.87C855.572 403.132 880.928 403.184 915.03 403.394C919.532 396.323 924.292 387.734 928.691 377.731C932.624 368.827 935.47 360.447 937.591 353.01C935.625 351.073 933.659 349.135 931.64 347.197C922.947 338.712 914.202 330.175 905.508 321.639Z" fill="black"/>
<path d="M576.135 555C584.932 492.518 605.838 398.298 660.224 296.222C705.607 211.062 758.751 149.628 799.58 109.352C653.756 57.8168 462.86 89.8695 343.893 160.364C373.13 156.646 404.385 153.713 437.504 151.88C475.952 149.785 512.175 149.523 545.707 150.518C508.294 156.122 456.702 168.011 399.78 194.722C345.083 220.437 303.995 251.18 276 275.639C405.265 353.257 506.017 448.577 576.135 555Z" fill="black"/>
<path d="M115 715.006V605.523H150.705V644.321H159.686L181.335 605.523H220.581L187.651 659.803L221.202 715.006H181.956L158.919 675.913H150.741V715.006H115Z" fill="black"/>
<path d="M274.796 605.523V715.006H239.091V605.523H274.796Z" fill="black"/>
<path d="M302.812 715.006V605.523H332.931L369.548 656.995C368.782 650.418 368.635 644.173 368.635 638.224V605.523H404.34V715.006H374.185L337.567 663.72C338.334 670.297 338.48 676.393 338.48 682.158V715.006H302.812Z" fill="black"/>
<path d="M487.631 603C500.299 603 512.675 605.513 522.569 609.577V641.797C515.158 637.105 503.877 634.444 494.129 634.444C478.358 634.444 464.448 641.65 464.448 660.235C464.448 680.89 479.599 685.25 487.485 685.25C489.2 685.25 490.588 685.103 491.793 684.955V653.843H525.161V710.155C513.405 714.847 500.737 717.508 488.361 717.508C457.146 717.508 427.794 699.218 427.794 660.272C427.83 620.071 457.329 603 487.631 603Z" fill="black"/>
<path d="M590.739 603C604.794 603 619.799 606.289 630.46 612.053V643.349C619.945 636.624 606.656 632.708 594.609 632.856C587.344 632.856 585.044 634.74 585.044 637.696C585.044 649.113 637.579 643.94 637.579 681.962C637.579 709.97 617.025 717.471 592.126 717.471C575.734 717.471 561.058 713.887 549.156 707.162V674.461C562.591 683.366 576.975 687.283 588.548 687.283C597.967 687.283 600.742 685.546 600.742 681.962C600.742 670.692 548.207 675.089 548.207 636.92C548.207 613.974 567.228 603 590.739 603Z" fill="black"/>
<path d="M746.199 605.523V637.116H717.139V715.006H681.58V637.116H652.52V605.523H746.199Z" fill="black"/>
<path d="M818.836 603C857.79 603 877.395 628.791 877.395 660.235C877.395 691.68 857.754 717.471 818.836 717.471C779.882 717.471 760.277 691.68 760.277 660.235C760.277 628.828 779.882 603 818.836 603ZM818.836 635.701C804.927 635.701 796.895 645.234 796.895 660.272C796.895 675.311 804.927 684.844 818.836 684.844C832.746 684.844 840.778 675.311 840.778 660.272C840.778 645.234 832.746 635.701 818.836 635.701Z" fill="black"/>
<path d="M900.908 715.006V605.523H951.143C974.18 605.523 997.18 614.281 997.18 644.173C997.18 661.207 989.44 671.405 978.634 676.874L1006.45 715.043H967.207L944.937 682.675H936.577V715.043H900.908V715.006ZM936.613 655.591H950.377C957.313 655.591 961.365 651.378 961.365 645.282C961.365 639.185 957.35 634.973 950.377 634.973H936.613V655.591Z" fill="black"/>
<path d="M1107.11 605.523V633.975H1060.89V646.649H1101.53V673.253H1060.89V686.222H1108.03V715.006H1025.19V605.523H1107.11Z" fill="black"/>
</g>
<defs>
<clipPath id="clip0_4355_39790">
<rect width="792" height="1224" fill="white" transform="matrix(0 -1 1 0 0 792)"/>
</clipPath>
</defs>
</svg>
