<?xml version="1.0" encoding="UTF-8" standalone="no"?>
<!-- Created with Inkscape (http://www.inkscape.org/) -->

<svg
   version="1.1"
   id="svg2"
   width="496.65332"
   height="100.18667"
   viewBox="0 0 496.65332 100.18667"
   sodipodi:docname="Лого Реал синий вектор.eps"
   xmlns:inkscape="http://www.inkscape.org/namespaces/inkscape"
   xmlns:sodipodi="http://sodipodi.sourceforge.net/DTD/sodipodi-0.dtd"
   xmlns="http://www.w3.org/2000/svg"
   xmlns:svg="http://www.w3.org/2000/svg">
  <defs
     id="defs6" />
  <sodipodi:namedview
     id="namedview4"
     pagecolor="#ffffff"
     bordercolor="#000000"
     borderopacity="0.25"
     inkscape:showpageshadow="2"
     inkscape:pageopacity="0.0"
     inkscape:pagecheckerboard="0"
     inkscape:deskcolor="#d1d1d1" />
  <g
     id="g8"
     inkscape:groupmode="layer"
     inkscape:label="ink_ext_XXXXXX"
     transform="matrix(1.3333333,0,0,-1.3333333,0,100.18667)">
    <g
       id="g10"
       transform="scale(0.1)">
      <path
         d="m 2191.25,0.00390625 h 1465.81 c 37.49,0 67.87,30.38279375 67.87,67.86329375 V 255.355 c 0,37.481 -30.38,67.864 -67.87,67.864 H 2191.25 c -37.49,0 -67.87,-30.383 -67.87,-67.864 V 67.8672 c 0,-37.4805 30.38,-67.86329375 67.87,-67.86329375"
         style="fill:#2a71c1;fill-opacity:1;fill-rule:nonzero;stroke:none"
         id="path12" />
      <path
         d="m 994.566,552.359 h 62.544 l -30.61,95.789 z M 1162.32,422.457 h -57.82 c -5.3,0 -9.99,3.426 -11.6,8.477 l -16.11,50.574 H 974.012 l -16.508,-50.653 c -1.637,-5.011 -6.305,-8.398 -11.574,-8.398 h -58.172 c -8.453,0 -14.336,8.406 -11.434,16.348 L 985.52,737.68 c 1.753,4.804 6.324,8 11.437,8 h 59.003 c 5.15,0 9.74,-3.242 11.46,-8.086 l 106.37,-298.879 c 2.82,-7.93 -3.05,-16.258 -11.47,-16.258"
         style="fill:#e5e5e5;fill-opacity:1;fill-rule:nonzero;stroke:none"
         id="path14" />
      <path
         d="m 1271.34,492.438 h 61.24 c 12.24,0 21.57,3.066 27.99,9.187 6.41,6.125 9.62,13.703 9.62,22.746 0,9.324 -3.21,17.051 -9.62,23.172 -6.42,6.125 -15.17,9.191 -26.25,9.191 h -62.98 z m 55.99,184.14 h -55.99 v -54.68 h 52.49 c 10.78,0 19.02,2.551 24.71,7.657 5.69,5.097 8.53,11.738 8.53,19.902 0,7.578 -2.7,13.996 -8.09,19.25 -5.4,5.242 -12.62,7.871 -21.65,7.871 z m 65.6,-76.543 c 19.53,-4.961 34.63,-14.805 45.27,-29.523 10.64,-14.727 15.97,-32.305 15.97,-52.703 0,-27.414 -9.63,-50.157 -28.87,-68.235 -19.54,-18.086 -44.61,-27.117 -75.23,-27.117 h -146.34 c -6.86,0 -12.43,5.566 -12.43,12.43 v 298.371 c 0,6.855 5.57,12.422 12.43,12.422 h 138.9 c 30.03,0 53.21,-8.028 69.55,-24.055 16.62,-15.75 24.93,-34.414 24.93,-55.984 0,-14.289 -4.09,-27.629 -12.25,-40.02 -8.16,-12.394 -18.81,-20.93 -31.93,-25.586"
         style="fill:#ffffff;fill-opacity:1;fill-rule:nonzero;stroke:none"
         id="path16" />
      <path
         d="m 1540.03,434.586 v 232.363 h -77.53 c -6.7,0 -12.13,5.43 -12.13,12.129 v 54.473 c 0,6.699 5.43,12.129 12.13,12.129 h 237.29 c 6.7,0 12.13,-5.43 12.13,-12.129 v -54.473 c 0,-6.699 -5.43,-12.129 -12.13,-12.129 H 1622.7 V 434.586 c 0,-6.699 -5.43,-12.129 -12.13,-12.129 h -58.41 c -6.7,0 -12.13,5.43 -12.13,12.129"
         style="fill:#ffffff;fill-opacity:1;fill-rule:nonzero;stroke:none"
         id="path18" />
      <path
         d="m 1875.21,496.891 c 23.9,0 44.02,8.164 60.35,24.492 16.33,16.328 24.5,36.883 24.5,61.68 -0.59,25.066 -9.05,45.625 -25.37,61.667 -16.33,16.321 -36.16,24.493 -59.48,24.493 -23.62,0 -43.6,-8.309 -59.92,-24.93 -16.34,-16.34 -24.5,-36.738 -24.5,-61.23 0,-24.797 8.16,-45.352 24.5,-61.68 16.32,-16.328 36.3,-24.492 59.92,-24.492 z m 0.43,-80.911 c -48.11,0 -88.5,16.028 -121.15,48.106 -32.08,32.082 -48.11,71.582 -48.11,118.535 0,46.945 16.18,86.602 48.55,118.965 32.36,32.363 72.45,48.547 120.28,48.547 48.11,0 88.35,-16.184 120.71,-48.547 32.37,-32.363 48.55,-72.02 48.55,-118.965 0,-46.66 -16.18,-86.16 -48.55,-118.535 -32.07,-32.078 -72.17,-48.106 -120.28,-48.106"
         style="fill:#ffffff;fill-opacity:1;fill-rule:nonzero;stroke:none"
         id="path20" />
      <path
         d="m 2472.75,422.457 h -395.96 c -6.6,0 -11.96,5.359 -11.96,11.961 v 299.297 c 0,6.613 5.36,11.965 11.96,11.965 h 58.31 c 6.6,0 11.96,-5.352 11.96,-11.965 V 500.746 h 86.6 v 232.969 c 0,6.613 5.36,11.965 11.96,11.965 h 58.3 c 6.61,0 11.97,-5.352 11.97,-11.965 V 500.746 h 86.16 v 232.969 c 0,6.613 5.36,11.965 11.96,11.965 h 58.74 c 6.6,0 11.96,-5.352 11.96,-11.965 V 434.418 c 0,-6.602 -5.36,-11.961 -11.96,-11.961"
         style="fill:#ffffff;fill-opacity:1;fill-rule:nonzero;stroke:none"
         id="path22" />
      <path
         d="m 2798.18,422.457 h -79.62 c -2.9,0 -5.59,1.504 -7.12,3.973 l -69.28,112.375 -34.99,-42.434 v -65.555 c 0,-4.621 -3.74,-8.359 -8.35,-8.359 h -65.08 c -4.62,0 -8.36,3.738 -8.36,8.359 v 306.512 c 0,4.61 3.74,8.352 8.36,8.352 h 65.08 c 4.61,0 8.35,-3.742 8.35,-8.352 V 612.719 l 99.41,129.687 c 1.57,2.063 4.02,3.274 6.63,3.274 h 77.57 c 6.96,0 10.87,-8.02 6.58,-13.508 L 2695.96,602.66 2805.18,435.375 c 3.63,-5.555 -0.36,-12.918 -7,-12.918"
         style="fill:#ffffff;fill-opacity:1;fill-rule:nonzero;stroke:none"
         id="path24" />
      <path
         d="m 2948.76,498.121 c 23.9,0 44.03,8.164 60.36,24.492 16.32,16.328 24.49,36.883 24.49,61.68 -0.59,25.066 -9.04,45.625 -25.37,61.668 -16.33,16.32 -36.16,24.492 -59.48,24.492 -23.62,0 -43.6,-8.308 -59.92,-24.93 -16.34,-16.339 -24.5,-36.738 -24.5,-61.23 0,-24.797 8.16,-45.352 24.5,-61.68 16.32,-16.328 36.3,-24.492 59.92,-24.492 z m 0.44,-80.91 c -48.11,0 -88.5,16.035 -121.15,48.105 -32.09,32.082 -48.12,71.582 -48.12,118.536 0,46.945 16.19,86.601 48.55,118.964 32.37,32.364 72.46,48.547 120.28,48.547 48.11,0 88.35,-16.183 120.72,-48.547 32.36,-32.363 48.55,-72.019 48.55,-118.964 0,-46.661 -16.19,-86.161 -48.55,-118.536 -32.08,-32.07 -72.17,-48.105 -120.28,-48.105"
         style="fill:#ffffff;fill-opacity:1;fill-rule:nonzero;stroke:none"
         id="path26" />
      <path
         d="m 3178.48,422.457 h -62 c -8.45,0 -14.38,8.328 -11.62,16.316 l 103.45,298.633 c 1.72,4.953 6.38,8.274 11.62,8.274 h 73.38 c 5.29,0 9.97,-3.371 11.66,-8.379 l 100.22,-298.645 c 2.67,-7.957 -3.25,-16.199 -11.66,-16.199 h -62.07 c -5.45,0 -10.25,3.582 -11.79,8.809 l -63.44,214.695 -66,-214.824 c -1.59,-5.157 -6.35,-8.68 -11.75,-8.68"
         style="fill:#ffffff;fill-opacity:1;fill-rule:nonzero;stroke:none"
         id="path28" />
      <path
         d="m 3544.89,552.359 h 62.55 l -30.62,95.789 z M 3713,422.457 h -58.35 c -5.19,0 -9.79,3.359 -11.37,8.309 l -16.16,50.742 h -102.79 l -16.55,-50.82 c -1.61,-4.903 -6.19,-8.231 -11.35,-8.231 h -58.69 c -8.29,0 -14.05,8.242 -11.21,16.023 l 109.38,299.368 c 1.72,4.707 6.19,7.832 11.2,7.832 h 59.34 c 5.05,0 9.55,-3.176 11.24,-7.93 l 106.54,-299.367 c 2.77,-7.762 -2.99,-15.926 -11.23,-15.926"
         style="fill:#ffffff;fill-opacity:1;fill-rule:nonzero;stroke:none"
         id="path30" />
      <path
         d="m 955.824,174.957 h 45.046 c 12.54,0 22.23,3.418 29.09,10.273 6.85,6.844 10.28,15.672 10.28,26.465 0,10.496 -3.43,19.239 -10.28,26.239 -6.86,7.004 -15.96,10.5 -27.33,10.5 h -46.806 z m -81.789,135.352 c 0,7.129 5.781,12.91 12.914,12.91 h 115.681 c 41.11,0 71.57,-10.793 91.41,-32.364 20.11,-21.289 30.18,-47.968 30.18,-80.039 0,-31.789 -10.36,-58.027 -31.06,-78.73 -20.41,-20.41 -52.48,-30.617 -96.222,-30.617 H 955.824 V 12.9141 c 0,-7.12894 -5.781,-12.91019375 -12.918,-12.91019375 h -55.957 c -7.133,0 -12.914,5.78125375 -12.914,12.91019375 V 310.309"
         style="fill:#ffffff;fill-opacity:1;fill-rule:nonzero;stroke:none"
         id="path32" />
      <path
         d="m 1377.43,0.00390625 h -209.08 c -6.64,0 -12.02,5.38281375 -12.02,12.01169375 V 311.207 c 0,6.629 5.38,12.012 12.02,12.012 h 209.52 c 6.63,0 12.02,-5.383 12.02,-12.012 v -51.633 c 0,-6.64 -5.39,-12.019 -12.02,-12.019 h -139.32 v -47.676 h 127.95 c 6.63,0 12.01,-5.383 12.01,-12.012 v -51.183 c 0,-6.641 -5.38,-12.032 -12.03,-12.032 H 1238.55 V 75.668 h 138.88 c 6.64,0 12.02,-5.3789 12.02,-12.0196 V 12.0156 c 0,-6.62888 -5.38,-12.01169375 -12.02,-12.01169375"
         style="fill:#ffffff;fill-opacity:1;fill-rule:nonzero;stroke:none"
         id="path34" />
      <path
         d="m 1538.4,129.898 h 62.54 l -30.61,95.79 z M 1711.13,0.00390625 h -65.37 c -3.77,0 -7.1,2.43359375 -8.25,6.02734375 l -16.89,53.01565 h -102.78 l -17.3,-53.06643 c -1.16,-3.5625 -4.48,-5.97656375 -8.23,-5.97656375 h -65.74 c -6.02,0 -10.2,5.97656375 -8.14,11.63279375 l 111.76,305.8983 c 1.25,3.418 4.51,5.684 8.14,5.684 h 63.93 c 3.67,0 6.94,-2.305 8.17,-5.754 L 1719.29,11.5664 c 2.01,-5.64452 -2.17,-11.56249375 -8.16,-11.56249375"
         style="fill:#ffffff;fill-opacity:1;fill-rule:nonzero;stroke:none"
         id="path36" />
      <path
         d="m 1823.01,0.00390625 h -63.53 c -7.96,0 -13.54,7.84375375 -10.94,15.36329375 l 103.94,300.0668 c 1.62,4.66 6.01,7.785 10.95,7.785 h 74.4 c 4.98,0 9.39,-3.176 10.98,-7.891 L 2049.5,15.2695 c 2.52,-7.51169 -3.06,-15.26559375 -10.97,-15.26559375 h -63.6 c -5.13,0 -9.65,3.37109375 -11.1,8.29297375 L 1900.23,223.5 1834.08,8.17969 c -1.49,-4.86328 -5.99,-8.17578375 -11.07,-8.17578375"
         style="fill:#ffffff;fill-opacity:1;fill-rule:nonzero;stroke:none"
         id="path38" />
      <path
         d="m 2258.07,233.793 c -0.21,-1.543 -0.31,-3.348 -0.31,-5.41 0,-2.059 0.1,-3.867 0.31,-5.41 0.31,-3.192 1.03,-5.926 2.16,-8.192 1.14,-2.265 2.56,-4.093 4.26,-5.488 1.69,-1.387 3.57,-2.414 5.63,-3.086 2.07,-0.676 4.18,-1.008 6.34,-1.008 2.58,0 4.74,0.207 6.49,0.617 1.75,0.418 3.25,1.016 4.48,1.778 1.24,0.781 2.29,1.648 3.17,2.636 0.88,0.977 1.73,2.079 2.55,3.321 0.62,0.926 1.35,1.855 2.17,2.781 0.82,0.93 1.8,1.387 2.93,1.387 H 2310 c 1.13,0 2.14,-0.41 3.02,-1.239 0.86,-0.82 1.26,-1.796 1.15,-2.929 -0.1,-2.168 -0.88,-4.797 -2.32,-7.883 -1.44,-3.094 -3.68,-6.055 -6.72,-8.887 -3.04,-2.832 -6.93,-5.234 -11.67,-7.187 -4.74,-1.961 -10.41,-2.938 -17,-2.938 -5.67,0 -10.76,0.957 -15.3,2.86 -4.53,1.906 -8.47,4.484 -11.82,7.726 -3.35,3.25 -5.98,7.012 -7.88,11.289 -1.91,4.266 -3.07,8.778 -3.48,13.516 -0.21,1.855 -0.31,3.914 -0.31,6.18 0,2.265 0.1,4.375 0.31,6.339 0.31,4.735 1.44,9.266 3.4,13.602 1.96,4.328 4.58,8.117 7.88,11.359 3.3,3.243 7.24,5.821 11.83,7.723 4.58,1.906 9.7,2.863 15.37,2.863 6.59,0 12.26,-0.976 17,-2.941 4.74,-1.953 8.63,-4.344 11.67,-7.188 3.04,-2.832 5.28,-5.789 6.72,-8.886 1.44,-3.086 2.22,-5.711 2.32,-7.879 0.11,-1.133 -0.29,-2.11 -1.15,-2.93 -0.88,-0.832 -1.89,-1.242 -3.02,-1.242 h -11.75 c -1.13,0 -2.11,0.461 -2.93,1.398 -0.82,0.918 -1.55,1.844 -2.17,2.774 -0.82,1.238 -1.67,2.344 -2.55,3.328 -0.88,0.976 -1.93,1.855 -3.17,2.617 -1.23,0.781 -2.73,1.367 -4.48,1.789 -1.75,0.41 -3.91,0.613 -6.49,0.613 -2.16,0 -4.27,-0.339 -6.34,-1.003 -2.06,-0.676 -3.94,-1.7 -5.63,-3.098 -1.7,-1.387 -3.12,-3.211 -4.26,-5.477 -1.13,-2.265 -1.85,-5 -2.16,-8.195"
         style="fill:#ffffff;fill-opacity:1;fill-rule:nonzero;stroke:none"
         id="path40" />
      <path
         d="m 2361,251.566 c -2.99,0 -5.54,-0.437 -7.65,-1.316 -2.11,-0.871 -3.89,-2.004 -5.33,-3.398 -1.44,-1.387 -2.55,-2.93 -3.32,-4.641 -0.78,-1.699 -1.27,-3.32 -1.47,-4.863 h 34.92 c -0.2,1.543 -0.59,3.164 -1.15,4.863 -0.58,1.711 -1.5,3.254 -2.79,4.641 -1.29,1.394 -2.98,2.527 -5.1,3.398 -2.11,0.879 -4.82,1.316 -8.11,1.316 z m -37.86,-23.183 c 0,5.773 0.87,11.211 2.62,16.308 1.75,5.098 4.28,9.524 7.57,13.293 3.3,3.758 7.29,6.719 11.98,8.887 4.69,2.156 9.92,3.242 15.69,3.242 5.77,0 11,-1.054 15.69,-3.164 4.68,-2.121 8.68,-4.953 11.98,-8.508 3.29,-3.554 5.84,-7.722 7.65,-12.519 1.79,-4.785 2.7,-9.813 2.7,-15.067 v -6.953 c 0,-1.132 -0.42,-2.109 -1.24,-2.929 -0.82,-0.832 -1.81,-1.243 -2.94,-1.243 h -51.61 c 0,-2.371 0.48,-4.453 1.47,-6.257 0.98,-1.809 2.29,-3.332 3.94,-4.563 1.64,-1.23 3.56,-2.168 5.72,-2.781 2.16,-0.617 4.37,-0.93 6.64,-0.93 3.29,0 5.98,0.332 8.04,1.008 2.06,0.672 3.76,1.523 5.1,2.547 1.13,0.82 2.06,1.387 2.78,1.699 0.72,0.313 1.7,0.469 2.93,0.469 h 12.36 c 1.14,0 2.14,-0.418 3.02,-1.238 0.88,-0.821 1.27,-1.809 1.16,-2.942 -0.1,-1.445 -0.9,-3.289 -2.4,-5.554 -1.49,-2.278 -3.73,-4.485 -6.72,-6.653 -2.98,-2.156 -6.67,-4.012 -11.05,-5.555 -4.38,-1.554 -9.45,-2.324 -15.22,-2.324 -5.77,0 -11,1.004 -15.69,3.016 -4.69,2.004 -8.68,4.863 -11.98,8.574 -3.29,3.711 -5.82,8.117 -7.57,13.215 -1.75,5.098 -2.62,10.742 -2.62,16.922"
         style="fill:#ffffff;fill-opacity:1;fill-rule:nonzero;stroke:none"
         id="path42" />
      <path
         d="m 2477.83,268.57 c 1.14,0 2.12,-0.41 2.94,-1.242 0.82,-0.828 1.24,-1.805 1.24,-2.937 v -10.196 c 0,-1.132 -0.42,-2.121 -1.24,-2.941 -0.82,-0.82 -1.8,-1.231 -2.94,-1.231 h -25.34 v -57.644 c 0,-1.145 -0.42,-2.121 -1.24,-2.941 -0.83,-0.829 -1.8,-1.239 -2.94,-1.239 h -11.73 c -1.15,0 -2.12,0.41 -2.94,1.239 -0.83,0.82 -1.24,1.796 -1.24,2.941 v 57.644 h -25.35 c -1.13,0 -2.11,0.411 -2.93,1.231 -0.83,0.82 -1.24,1.809 -1.24,2.941 v 10.196 c 0,1.132 0.41,2.109 1.24,2.937 0.82,0.832 1.8,1.242 2.93,1.242 h 70.78"
         style="fill:#ffffff;fill-opacity:1;fill-rule:nonzero;stroke:none"
         id="path44" />
      <path
         d="m 2511.37,206.742 h 13.29 c 2.58,0 4.92,0.188 7.04,0.547 2.11,0.363 3.94,1.008 5.48,1.934 1.55,0.918 2.73,2.218 3.56,3.859 0.82,1.648 1.24,3.758 1.24,6.336 0,2.578 -0.42,4.687 -1.24,6.34 -0.83,1.648 -2.01,2.937 -3.56,3.867 -1.54,0.926 -3.37,1.563 -5.48,1.922 -2.12,0.371 -4.46,0.547 -7.04,0.547 h -13.29 z m 50.23,12.676 c 0,-4.637 -0.85,-8.887 -2.55,-12.754 -1.7,-3.855 -4.05,-7.156 -7.03,-9.883 -2.99,-2.734 -6.6,-4.843 -10.82,-6.336 -4.23,-1.496 -8.86,-2.246 -13.91,-2.246 h -31.83 c -1.14,0 -2.12,0.41 -2.94,1.239 -0.83,0.82 -1.24,1.796 -1.24,2.941 v 72.012 c 0,1.132 0.41,2.109 1.24,2.937 0.82,0.832 1.8,1.242 2.94,1.242 h 11.74 c 1.13,0 2.11,-0.41 2.93,-1.242 0.83,-0.828 1.24,-1.805 1.24,-2.937 v -13.75 h 15.92 c 5.05,0 9.68,-0.754 13.91,-2.239 4.22,-1.504 7.83,-3.613 10.82,-6.336 2.98,-2.734 5.33,-6.035 7.03,-9.894 1.7,-3.867 2.55,-8.113 2.55,-12.754"
         style="fill:#ffffff;fill-opacity:1;fill-rule:nonzero;stroke:none"
         id="path46" />
      <path
         d="m 2620.63,233.793 c -0.2,-1.543 -0.31,-3.348 -0.31,-5.41 0,-2.059 0.11,-3.867 0.31,-5.41 0.32,-3.192 1.03,-5.926 2.17,-8.192 1.13,-2.265 2.54,-4.093 4.24,-5.488 1.71,-1.387 3.59,-2.414 5.65,-3.086 2.05,-0.676 4.17,-1.008 6.33,-1.008 2.57,0 4.74,0.207 6.49,0.617 1.75,0.418 3.25,1.016 4.49,1.778 1.23,0.781 2.29,1.648 3.16,2.636 0.88,0.977 1.73,2.079 2.56,3.321 0.62,0.926 1.33,1.855 2.16,2.781 0.82,0.93 1.8,1.387 2.93,1.387 h 11.75 c 1.13,0 2.14,-0.41 3.01,-1.239 0.88,-0.82 1.26,-1.796 1.16,-2.929 -0.1,-2.168 -0.88,-4.797 -2.31,-7.883 -1.45,-3.094 -3.69,-6.055 -6.73,-8.887 -3.04,-2.832 -6.93,-5.234 -11.67,-7.187 -4.74,-1.961 -10.4,-2.938 -17,-2.938 -5.66,0 -10.76,0.957 -15.3,2.86 -4.53,1.906 -8.47,4.484 -11.82,7.726 -3.35,3.25 -5.97,7.012 -7.88,11.289 -1.91,4.266 -3.07,8.778 -3.48,13.516 -0.2,1.855 -0.31,3.914 -0.31,6.18 0,2.265 0.11,4.375 0.31,6.339 0.31,4.735 1.44,9.266 3.4,13.602 1.96,4.328 4.58,8.117 7.88,11.359 3.3,3.243 7.24,5.821 11.83,7.723 4.58,1.906 9.71,2.863 15.37,2.863 6.6,0 12.26,-0.976 17,-2.941 4.74,-1.953 8.63,-4.344 11.67,-7.188 3.04,-2.832 5.28,-5.789 6.73,-8.886 1.43,-3.086 2.21,-5.711 2.31,-7.879 0.1,-1.133 -0.28,-2.11 -1.16,-2.93 -0.87,-0.832 -1.88,-1.242 -3.01,-1.242 h -11.75 c -1.13,0 -2.11,0.461 -2.93,1.398 -0.83,0.918 -1.54,1.844 -2.16,2.774 -0.83,1.238 -1.68,2.344 -2.56,3.328 -0.87,0.976 -1.93,1.855 -3.16,2.617 -1.24,0.781 -2.74,1.367 -4.49,1.789 -1.75,0.41 -3.92,0.613 -6.49,0.613 -2.16,0 -4.28,-0.339 -6.33,-1.003 -2.06,-0.676 -3.94,-1.7 -5.65,-3.098 -1.7,-1.387 -3.11,-3.211 -4.24,-5.477 -1.14,-2.265 -1.85,-5 -2.17,-8.195"
         style="fill:#ffffff;fill-opacity:1;fill-rule:nonzero;stroke:none"
         id="path48" />
      <path
         d="m 2743.81,235.336 c -0.31,3.195 -1.06,5.852 -2.24,7.961 -1.19,2.109 -2.66,3.789 -4.41,5.019 -1.75,1.239 -3.66,2.09 -5.72,2.559 -2.06,0.457 -4.17,0.691 -6.33,0.691 -2.16,0 -4.28,-0.234 -6.34,-0.691 -2.06,-0.469 -3.97,-1.32 -5.72,-2.559 -1.75,-1.23 -3.22,-2.91 -4.4,-5.019 -1.19,-2.109 -1.93,-4.766 -2.24,-7.961 -0.11,-0.82 -0.18,-1.856 -0.24,-3.086 -0.05,-1.238 -0.07,-2.527 -0.07,-3.867 0,-1.336 0.02,-2.656 0.07,-3.934 0.06,-1.301 0.13,-2.297 0.24,-3.019 0.31,-3.192 1.05,-5.848 2.24,-7.957 1.18,-2.121 2.65,-3.789 4.4,-5.032 1.75,-1.23 3.66,-2.078 5.72,-2.546 2.06,-0.461 4.18,-0.696 6.34,-0.696 2.16,0 4.27,0.235 6.33,0.696 2.06,0.468 3.97,1.316 5.72,2.546 1.75,1.243 3.22,2.911 4.41,5.032 1.18,2.109 1.93,4.765 2.24,7.957 0.1,0.722 0.15,1.718 0.15,3.019 0,1.278 0,2.598 0,3.934 0,1.34 0,2.629 0,3.867 0,1.23 -0.05,2.266 -0.15,3.086 z m -18.7,34.777 c 5.66,0 10.79,-0.879 15.38,-2.629 4.58,-1.757 8.55,-4.168 11.9,-7.265 3.34,-3.086 6.02,-6.699 8.03,-10.821 2.01,-4.121 3.17,-8.554 3.48,-13.289 0.1,-0.929 0.15,-2.109 0.15,-3.554 0,-1.438 0,-2.883 0,-4.328 0,-1.434 0,-2.86 0,-4.247 0,-1.398 -0.05,-2.55 -0.15,-3.476 -0.42,-4.738 -1.6,-9.172 -3.56,-13.293 -1.95,-4.121 -4.61,-7.703 -7.95,-10.742 -3.35,-3.035 -7.32,-5.43 -11.9,-7.188 -4.59,-1.746 -9.72,-2.625 -15.38,-2.625 -5.67,0 -10.8,0.879 -15.38,2.625 -4.59,1.758 -8.56,4.153 -11.9,7.188 -3.35,3.039 -6.01,6.621 -7.96,10.742 -1.96,4.121 -3.14,8.555 -3.55,13.293 -0.11,0.926 -0.18,2.078 -0.24,3.476 -0.05,1.387 -0.08,2.813 -0.08,4.247 0,1.445 0.03,2.89 0.08,4.328 0.06,1.445 0.13,2.625 0.24,3.554 0.31,4.735 1.46,9.168 3.47,13.289 2.01,4.122 4.69,7.735 8.04,10.821 3.34,3.097 7.31,5.508 11.9,7.265 4.58,1.75 9.71,2.629 15.38,2.629"
         style="fill:#ffffff;fill-opacity:1;fill-rule:nonzero;stroke:none"
         id="path50" />
      <path
         d="m 2797.9,206.285 h 24.41 c 3.41,0 5.93,0.488 7.58,1.465 1.65,0.977 2.47,2.754 2.47,5.332 0,2.578 -0.82,4.383 -2.47,5.41 -1.65,1.035 -4.17,1.551 -7.58,1.551 h -24.41 z m 32.91,38.016 c 0,2.375 -0.71,3.996 -2.16,4.863 -1.44,0.879 -3.86,1.32 -7.26,1.32 h -23.49 v -12.363 h 23.49 c 3.4,0 5.82,0.438 7.26,1.317 1.45,0.871 2.16,2.492 2.16,4.863 z m -49.91,-56.102 c -0.83,0 -1.55,0.313 -2.17,0.926 -0.61,0.625 -0.92,1.348 -0.92,2.168 v 74.18 c 0,0.82 0.31,1.543 0.92,2.168 0.62,0.617 1.34,0.929 2.17,0.929 h 43.42 c 3.92,0 7.52,-0.547 10.82,-1.621 3.3,-1.086 6.1,-2.578 8.43,-4.484 2.31,-1.914 4.11,-4.227 5.41,-6.961 1.28,-2.727 1.93,-5.742 1.93,-9.035 0,-4.434 -0.72,-7.879 -2.17,-10.36 -1.44,-2.472 -3.29,-4.472 -5.56,-6.027 3.5,-2.156 5.92,-4.785 7.26,-7.879 1.35,-3.098 2.01,-6.64 2.01,-10.664 0,-3.809 -0.65,-7.187 -1.93,-10.117 -1.29,-2.942 -3.07,-5.391 -5.33,-7.344 -2.27,-1.965 -4.95,-3.43 -8.04,-4.406 -3.09,-0.977 -6.49,-1.473 -10.2,-1.473 h -46.05"
         style="fill:#ffffff;fill-opacity:1;fill-rule:nonzero;stroke:none"
         id="path52" />
      <path
         d="m 2924.62,224.059 c 0.31,2.879 0.31,5.769 0,8.652 -0.61,6.699 -2.68,11.512 -6.18,14.453 -3.5,2.938 -7.78,4.402 -12.83,4.402 -5.05,0 -9.3,-1.492 -12.75,-4.48 -3.45,-2.988 -5.44,-7.266 -5.95,-12.824 -0.2,-1.551 -0.31,-3.504 -0.31,-5.879 0,-2.371 0.11,-4.324 0.31,-5.867 0.51,-5.364 2.5,-9.582 5.95,-12.676 3.45,-3.098 7.7,-4.641 12.75,-4.641 5.05,0 9.33,1.465 12.83,4.406 3.5,2.938 5.57,7.754 6.18,14.454 z m -14.37,-37.403 c -3.2,0 -6.05,0.313 -8.58,0.926 -2.52,0.617 -4.73,1.398 -6.64,2.324 -1.91,0.918 -3.53,1.934 -4.87,3.008 -1.34,1.086 -2.42,2.09 -3.25,3.02 v -32.922 c 0,-1.133 -0.41,-2.11 -1.23,-2.938 -0.82,-0.82 -1.8,-1.242 -2.94,-1.242 H 2871 c -1.14,0 -2.12,0.422 -2.94,1.242 -0.83,0.828 -1.24,1.805 -1.24,2.938 v 101.379 c 0,1.132 0.41,2.109 1.24,2.937 0.82,0.832 1.8,1.242 2.94,1.242 h 11.74 c 1.14,0 2.12,-0.41 2.94,-1.242 0.82,-0.828 1.23,-1.805 1.23,-2.937 v -3.555 c 0.83,0.926 1.91,1.934 3.25,3.016 1.34,1.086 2.96,2.089 4.87,3.019 1.91,0.926 4.12,1.699 6.64,2.313 2.53,0.617 5.38,0.929 8.58,0.929 5.15,0 9.82,-1.008 13.99,-3.019 4.17,-2 7.72,-4.688 10.66,-8.028 2.94,-3.359 5.25,-7.214 6.96,-11.601 1.7,-4.375 2.65,-8.934 2.85,-13.672 0.11,-1.543 0.16,-3.348 0.16,-5.41 0,-2.059 -0.05,-3.867 -0.16,-5.41 -0.2,-4.735 -1.15,-9.297 -2.85,-13.68 -1.71,-4.375 -4.02,-8.242 -6.96,-11.582 -2.94,-3.352 -6.49,-6.035 -10.66,-8.039 -4.17,-2.012 -8.84,-3.016 -13.99,-3.016"
         style="fill:#ffffff;fill-opacity:1;fill-rule:nonzero;stroke:none"
         id="path54" />
      <path
         d="m 2992.47,251.566 c -2.99,0 -5.54,-0.437 -7.65,-1.316 -2.11,-0.871 -3.89,-2.004 -5.33,-3.398 -1.44,-1.387 -2.55,-2.93 -3.32,-4.641 -0.78,-1.699 -1.27,-3.32 -1.47,-4.863 h 34.92 c -0.2,1.543 -0.59,3.164 -1.16,4.863 -0.57,1.711 -1.49,3.254 -2.78,4.641 -1.29,1.394 -2.98,2.527 -5.1,3.398 -2.11,0.879 -4.82,1.316 -8.11,1.316 z m -37.86,-23.183 c 0,5.773 0.87,11.211 2.62,16.308 1.75,5.098 4.28,9.524 7.57,13.293 3.3,3.758 7.29,6.719 11.98,8.887 4.69,2.156 9.92,3.242 15.69,3.242 5.77,0 10.99,-1.054 15.69,-3.164 4.68,-2.121 8.68,-4.953 11.97,-8.508 3.3,-3.554 5.85,-7.722 7.65,-12.519 1.8,-4.785 2.71,-9.813 2.71,-15.067 v -6.953 c 0,-1.132 -0.42,-2.109 -1.24,-2.929 -0.82,-0.832 -1.81,-1.243 -2.94,-1.243 h -51.61 c 0,-2.371 0.48,-4.453 1.47,-6.257 0.98,-1.809 2.29,-3.332 3.94,-4.563 1.64,-1.23 3.55,-2.168 5.72,-2.781 2.16,-0.617 4.37,-0.93 6.64,-0.93 3.29,0 5.98,0.332 8.04,1.008 2.06,0.672 3.76,1.523 5.1,2.547 1.13,0.82 2.05,1.387 2.78,1.699 0.72,0.313 1.7,0.469 2.93,0.469 h 12.36 c 1.14,0 2.14,-0.418 3.02,-1.238 0.88,-0.821 1.26,-1.809 1.16,-2.942 -0.1,-1.445 -0.9,-3.289 -2.4,-5.554 -1.49,-2.278 -3.73,-4.485 -6.72,-6.653 -2.99,-2.156 -6.67,-4.012 -11.05,-5.555 -4.38,-1.554 -9.45,-2.324 -15.22,-2.324 -5.77,0 -11,1.004 -15.69,3.016 -4.69,2.004 -8.68,4.863 -11.98,8.574 -3.29,3.711 -5.82,8.117 -7.57,13.215 -1.75,5.098 -2.62,10.742 -2.62,16.922"
         style="fill:#ffffff;fill-opacity:1;fill-rule:nonzero;stroke:none"
         id="path56" />
      <path
         d="m 3086.59,225.758 21.94,39.715 c 0.31,0.625 0.88,1.289 1.7,2.011 0.82,0.715 2.27,1.086 4.32,1.086 h 10.98 c 1.13,0 2.11,-0.41 2.93,-1.242 0.83,-0.828 1.25,-1.805 1.25,-2.937 v -72.012 c 0,-1.145 -0.42,-2.121 -1.25,-2.941 -0.82,-0.829 -1.8,-1.239 -2.93,-1.239 h -11.74 c -1.14,0 -2.12,0.41 -2.94,1.239 -0.83,0.82 -1.24,1.796 -1.24,2.941 v 38.789 l -14.68,-25.969 c -0.51,-0.82 -1.19,-1.679 -2.01,-2.547 -0.83,-0.879 -1.96,-1.308 -3.4,-1.308 h -5.87 c -1.44,0 -2.58,0.429 -3.4,1.308 -0.82,0.868 -1.5,1.727 -2.01,2.547 l -14.68,25.969 v -38.789 c 0,-1.145 -0.42,-2.121 -1.24,-2.941 -0.82,-0.829 -1.8,-1.239 -2.94,-1.239 h -11.74 c -1.14,0 -2.11,0.41 -2.93,1.239 -0.83,0.82 -1.25,1.796 -1.25,2.941 v 72.012 c 0,1.132 0.42,2.109 1.25,2.937 0.82,0.832 1.79,1.242 2.93,1.242 h 10.97 c 2.06,0 3.5,-0.371 4.33,-1.086 0.82,-0.722 1.39,-1.386 1.7,-2.011 l 21.95,-39.715"
         style="fill:#ffffff;fill-opacity:1;fill-rule:nonzero;stroke:none"
         id="path58" />
      <path
         d="m 3181.01,251.566 c -2.99,0 -5.54,-0.437 -7.65,-1.316 -2.11,-0.871 -3.89,-2.004 -5.33,-3.398 -1.44,-1.387 -2.55,-2.93 -3.32,-4.641 -0.78,-1.699 -1.27,-3.32 -1.47,-4.863 h 34.92 c -0.21,1.543 -0.59,3.164 -1.15,4.863 -0.58,1.711 -1.5,3.254 -2.79,4.641 -1.29,1.394 -2.99,2.527 -5.1,3.398 -2.11,0.879 -4.82,1.316 -8.11,1.316 z m -37.86,-23.183 c 0,5.773 0.87,11.211 2.62,16.308 1.75,5.098 4.28,9.524 7.57,13.293 3.3,3.758 7.29,6.719 11.98,8.887 4.69,2.156 9.92,3.242 15.69,3.242 5.77,0 11,-1.054 15.69,-3.164 4.68,-2.121 8.67,-4.953 11.97,-8.508 3.3,-3.554 5.85,-7.722 7.65,-12.519 1.8,-4.785 2.71,-9.813 2.71,-15.067 v -6.953 c 0,-1.132 -0.42,-2.109 -1.24,-2.929 -0.82,-0.832 -1.81,-1.243 -2.94,-1.243 h -51.61 c 0,-2.371 0.48,-4.453 1.47,-6.257 0.98,-1.809 2.29,-3.332 3.94,-4.563 1.64,-1.23 3.55,-2.168 5.71,-2.781 2.17,-0.617 4.38,-0.93 6.65,-0.93 3.29,0 5.98,0.332 8.04,1.008 2.06,0.672 3.76,1.523 5.09,2.547 1.14,0.82 2.06,1.387 2.78,1.699 0.73,0.313 1.71,0.469 2.94,0.469 h 12.36 c 1.14,0 2.14,-0.418 3.02,-1.238 0.88,-0.821 1.26,-1.809 1.16,-2.942 -0.1,-1.445 -0.9,-3.289 -2.4,-5.554 -1.49,-2.278 -3.73,-4.485 -6.72,-6.653 -2.99,-2.156 -6.67,-4.012 -11.05,-5.555 -4.38,-1.554 -9.45,-2.324 -15.22,-2.324 -5.77,0 -11,1.004 -15.69,3.016 -4.69,2.004 -8.68,4.863 -11.98,8.574 -3.29,3.711 -5.82,8.117 -7.57,13.215 -1.75,5.098 -2.62,10.742 -2.62,16.922"
         style="fill:#ffffff;fill-opacity:1;fill-rule:nonzero;stroke:none"
         id="path60" />
      <path
         d="m 3304.18,268.57 c 1.13,0 2.11,-0.41 2.94,-1.242 0.82,-0.828 1.23,-1.805 1.23,-2.937 v -72.012 c 0,-1.145 -0.41,-2.121 -1.23,-2.941 -0.83,-0.829 -1.81,-1.239 -2.94,-1.239 h -11.75 c -1.13,0 -2.11,0.41 -2.93,1.239 -0.83,0.82 -1.24,1.796 -1.24,2.941 v 27.039 h -36.16 v -27.039 c 0,-1.145 -0.42,-2.121 -1.24,-2.941 -0.82,-0.829 -1.8,-1.239 -2.94,-1.239 h -11.74 c -1.14,0 -2.11,0.391 -2.94,1.16 -0.82,0.774 -1.23,1.778 -1.23,3.02 v 72.012 c 0,1.132 0.41,2.109 1.23,2.937 0.83,0.832 1.8,1.242 2.94,1.242 h 11.74 c 1.14,0 2.12,-0.41 2.94,-1.242 0.82,-0.828 1.24,-1.805 1.24,-2.937 v -26.426 h 36.16 v 26.426 c 0,1.132 0.41,2.109 1.24,2.937 0.82,0.832 1.8,1.242 2.93,1.242 h 11.75"
         style="fill:#ffffff;fill-opacity:1;fill-rule:nonzero;stroke:none"
         id="path62" />
      <path
         d="m 3397.99,268.57 c 1.13,0 2.11,-0.41 2.93,-1.242 0.83,-0.828 1.24,-1.805 1.24,-2.937 v -72.012 c 0,-1.145 -0.41,-2.121 -1.24,-2.941 -0.82,-0.829 -1.8,-1.239 -2.93,-1.239 h -11.75 c -1.14,0 -2.11,0.41 -2.94,1.239 -0.82,0.82 -1.23,1.796 -1.23,2.941 v 27.039 h -36.17 v -27.039 c 0,-1.145 -0.41,-2.121 -1.23,-2.941 -0.83,-0.829 -1.81,-1.239 -2.94,-1.239 h -11.75 c -1.13,0 -2.11,0.391 -2.93,1.16 -0.83,0.774 -1.24,1.778 -1.24,3.02 v 72.012 c 0,1.132 0.41,2.109 1.24,2.937 0.82,0.832 1.8,1.242 2.93,1.242 h 11.75 c 1.13,0 2.11,-0.41 2.94,-1.242 0.82,-0.828 1.23,-1.805 1.23,-2.937 v -26.426 h 36.17 v 26.426 c 0,1.132 0.41,2.109 1.23,2.937 0.83,0.832 1.8,1.242 2.94,1.242 h 11.75"
         style="fill:#ffffff;fill-opacity:1;fill-rule:nonzero;stroke:none"
         id="path64" />
      <path
         d="m 3497.66,264.391 c 0,1.132 0.41,2.109 1.24,2.937 0.82,0.832 1.8,1.242 2.93,1.242 h 11.75 c 1.13,0 2.11,-0.41 2.94,-1.242 0.82,-0.828 1.24,-1.805 1.24,-2.937 v -72.012 c 0,-1.145 -0.42,-2.121 -1.24,-2.941 -0.83,-0.829 -1.81,-1.239 -2.94,-1.239 h -11.75 c -1.13,0 -2.11,0.41 -2.93,1.239 -0.83,0.82 -1.24,1.796 -1.24,2.941 z m -57.95,-57.649 H 3453 c 2.57,0 4.92,0.188 7.03,0.547 2.11,0.363 3.94,1.008 5.49,1.934 1.54,0.918 2.73,2.218 3.56,3.859 0.82,1.648 1.23,3.758 1.23,6.336 0,2.578 -0.41,4.687 -1.23,6.34 -0.83,1.648 -2.02,2.937 -3.56,3.867 -1.55,0.926 -3.38,1.563 -5.49,1.922 -2.11,0.371 -4.46,0.547 -7.03,0.547 h -13.29 z m 50.23,12.676 c 0,-4.637 -0.85,-8.887 -2.55,-12.754 -1.7,-3.855 -4.05,-7.156 -7.04,-9.883 -2.98,-2.734 -6.59,-4.843 -10.81,-6.336 -4.23,-1.496 -8.87,-2.246 -13.92,-2.246 h -31.83 c -1.14,0 -2.11,0.41 -2.94,1.239 -0.82,0.82 -1.23,1.796 -1.23,2.941 v 72.012 c 0,1.132 0.41,2.109 1.23,2.937 0.83,0.832 1.8,1.242 2.94,1.242 h 11.75 c 1.13,0 2.11,-0.41 2.93,-1.242 0.83,-0.828 1.24,-1.805 1.24,-2.937 v -13.75 h 15.91 c 5.05,0 9.69,-0.754 13.92,-2.239 4.22,-1.504 7.83,-3.613 10.81,-6.336 2.99,-2.734 5.34,-6.035 7.04,-9.894 1.7,-3.867 2.55,-8.113 2.55,-12.754"
         style="fill:#ffffff;fill-opacity:1;fill-rule:nonzero;stroke:none"
         id="path66" />
      <path
         d="m 3569.53,213.707 -18.23,-22.57 c -1.04,-1.231 -2.09,-2.032 -3.18,-2.391 -1.08,-0.363 -2.29,-0.547 -3.62,-0.547 h -11.9 c -1.14,0 -2.09,0.41 -2.87,1.239 -0.77,0.82 -1.16,1.855 -1.16,3.085 0,0.832 0.21,1.555 0.62,2.168 l 27.82,34.465 -26.58,32.918 c -0.41,0.617 -0.62,1.34 -0.62,2.168 0,1.231 0.39,2.258 1.16,3.086 0.78,0.832 1.72,1.242 2.86,1.242 h 11.9 c 1.34,0 2.55,-0.187 3.63,-0.547 1.09,-0.363 2.14,-1.152 3.17,-2.394 l 17.46,-21.641 17.31,21.641 c 1.03,1.242 2.09,2.031 3.17,2.394 1.09,0.36 2.29,0.547 3.63,0.547 h 11.9 c 1.13,0 2.09,-0.41 2.86,-1.242 0.77,-0.828 1.16,-1.855 1.16,-3.086 0,-0.828 -0.21,-1.551 -0.62,-2.168 l -26.89,-33.535 27.51,-33.848 c 0.41,-0.613 0.62,-1.336 0.62,-2.168 0,-1.23 -0.39,-2.265 -1.16,-3.085 -0.77,-0.829 -1.73,-1.239 -2.86,-1.239 h -11.9 c -1.34,0 -2.55,0.184 -3.63,0.547 -1.08,0.359 -2.14,1.16 -3.17,2.391 l -18.39,22.57"
         style="fill:#ffffff;fill-opacity:1;fill-rule:nonzero;stroke:none"
         id="path68" />
      <path
         d="m 2603.01,64.7695 c 3.5,0 6.62,0.4883 9.35,1.4649 2.73,0.9765 5.03,2.2969 6.88,3.9375 1.85,1.6484 3.24,3.5039 4.17,5.5664 0.93,2.0586 1.39,4.1797 1.39,6.3359 v 1.543 l -21.02,-3.6992 c -4.23,-0.7227 -7.26,-1.7774 -9.12,-3.1758 -1.85,-1.3867 -2.78,-3.2695 -2.78,-5.6328 0,-2.168 1.11,-3.7696 3.33,-4.7969 2.21,-1.0352 4.81,-1.543 7.8,-1.543 z m -25.8,43.5855 c 0.4,2.157 1.36,4.473 2.85,6.954 1.49,2.468 3.61,4.785 6.33,6.953 2.73,2.156 6.09,3.945 10.05,5.332 3.96,1.386 8.58,2.09 13.83,2.09 5.26,0 10,-0.704 14.22,-2.09 4.22,-1.387 7.86,-3.43 10.9,-6.106 3.04,-2.683 5.38,-6.054 7.03,-10.125 1.65,-4.074 2.47,-8.73 2.47,-13.9841 V 51.9375 c 0,-1.1328 -0.41,-2.1094 -1.23,-2.9297 -0.83,-0.8281 -1.81,-1.2383 -2.94,-1.2383 h -11.74 c -1.14,0 -2.12,0.4102 -2.94,1.2383 -0.83,0.8203 -1.24,1.7969 -1.24,2.9297 v 5.1094 c -2.16,-3 -5.28,-5.5469 -9.35,-7.6563 -4.07,-2.1093 -9.25,-3.1758 -15.53,-3.1758 -4.43,0 -8.4,0.5977 -11.9,1.7891 -3.51,1.1797 -6.44,2.8516 -8.81,5.0195 -2.37,2.1563 -4.2,4.7149 -5.49,7.6446 -1.29,2.9414 -1.93,6.164 -1.93,9.6679 0,7.1016 2.52,12.668 7.58,16.6914 5.04,4.0118 11.79,6.7383 20.24,8.1836 l 25.19,4.3243 c 0,4.2308 -1.39,7.2188 -4.17,8.9648 -2.78,1.75 -6.24,2.629 -10.36,2.629 -2.57,0 -4.58,-0.363 -6.02,-1.074 -1.45,-0.723 -2.84,-1.7 -4.18,-2.942 -0.92,-0.828 -1.77,-1.386 -2.55,-1.699 -0.77,-0.312 -1.62,-0.469 -2.55,-0.469 h -14.37 c -1.03,0 -1.91,0.313 -2.63,0.93 -0.72,0.613 -0.98,1.445 -0.76,2.48"
         style="fill:#ffffff;fill-opacity:1;fill-rule:nonzero;stroke:none"
         id="path70" />
      <path
         d="m 2681.67,65.8438 h 24.42 c 3.4,0 5.92,0.5 7.58,1.4765 1.64,0.9766 2.47,2.7539 2.47,5.332 0,2.5782 -0.83,4.375 -2.47,5.4102 -1.66,1.0234 -4.18,1.543 -7.58,1.543 h -24.42 z m 32.92,38.0192 c 0,2.371 -0.72,3.992 -2.16,4.871 -1.45,0.879 -3.87,1.321 -7.27,1.321 h -23.49 V 97.6914 h 23.49 c 3.4,0 5.82,0.4297 7.27,1.3086 1.44,0.8672 2.16,2.5 2.16,4.863 z m -49.92,-56.0935 c -0.82,0 -1.54,0.3125 -2.16,0.9258 -0.62,0.6172 -0.93,1.3399 -0.93,2.1602 v 74.1875 c 0,0.82 0.31,1.543 0.93,2.16 0.62,0.613 1.34,0.926 2.16,0.926 h 43.43 c 3.91,0 7.52,-0.535 10.82,-1.621 3.29,-1.082 6.1,-2.578 8.42,-4.481 2.32,-1.906 4.12,-4.23 5.41,-6.953 1.29,-2.734 1.93,-5.742 1.93,-9.043 0,-4.433 -0.72,-7.8826 -2.16,-10.3513 -1.44,-2.4805 -3.3,-4.4844 -5.56,-6.0274 3.5,-2.1679 5.92,-4.7929 7.26,-7.8789 1.34,-3.0976 2.01,-6.6523 2.01,-10.664 0,-3.8203 -0.65,-7.1875 -1.93,-10.1289 -1.29,-2.9375 -3.07,-5.3789 -5.33,-7.3438 -2.27,-1.9531 -4.95,-3.4258 -8.04,-4.4023 -3.09,-0.9766 -6.49,-1.4649 -10.2,-1.4649 h -46.06"
         style="fill:#ffffff;fill-opacity:1;fill-rule:nonzero;stroke:none"
         id="path72" />
      <path
         d="m 2816.75,128.129 c 1.13,0 2.11,-0.41 2.93,-1.238 0.83,-0.821 1.24,-1.797 1.24,-2.93 v -10.207 c 0,-1.133 -0.41,-2.109 -1.24,-2.93 -0.82,-0.828 -1.8,-1.238 -2.93,-1.238 H 2791.4 V 51.9375 c 0,-1.1328 -0.41,-2.1094 -1.24,-2.9297 -0.82,-0.8281 -1.8,-1.2383 -2.93,-1.2383 h -11.74 c -1.14,0 -2.12,0.4102 -2.94,1.2383 -0.83,0.8203 -1.24,1.7969 -1.24,2.9297 v 57.6485 h -25.34 c -1.14,0 -2.12,0.41 -2.94,1.238 -0.83,0.821 -1.23,1.797 -1.23,2.93 v 10.207 c 0,1.133 0.4,2.109 1.23,2.93 0.82,0.828 1.8,1.238 2.94,1.238 h 70.78"
         style="fill:#ffffff;fill-opacity:1;fill-rule:nonzero;stroke:none"
         id="path74" />
      <path
         d="m 2883.05,94.9063 c -0.31,3.1953 -1.06,5.8397 -2.25,7.9607 -1.18,2.11 -2.65,3.789 -4.4,5.02 -1.75,1.238 -3.65,2.09 -5.71,2.547 -2.07,0.468 -4.18,0.695 -6.34,0.695 -2.16,0 -4.28,-0.227 -6.34,-0.695 -2.06,-0.457 -3.96,-1.309 -5.71,-2.547 -1.76,-1.231 -3.23,-2.91 -4.41,-5.02 -1.18,-2.121 -1.93,-4.7654 -2.24,-7.9607 -0.1,-0.8282 -0.18,-1.8555 -0.24,-3.0938 -0.05,-1.2422 -0.07,-2.5195 -0.07,-3.8594 0,-1.3476 0.02,-2.6562 0.07,-3.9453 0.06,-1.289 0.14,-2.293 0.24,-3.0078 0.31,-3.2031 1.06,-5.8594 2.24,-7.9687 1.18,-2.1094 2.65,-3.7774 4.41,-5.0196 1.75,-1.2383 3.65,-2.0781 5.71,-2.5469 2.06,-0.4687 4.18,-0.6953 6.34,-0.6953 2.16,0 4.27,0.2266 6.34,0.6953 2.06,0.4688 3.96,1.3086 5.71,2.5469 1.75,1.2422 3.22,2.9102 4.4,5.0196 1.19,2.1093 1.94,4.7656 2.25,7.9687 0.1,0.7148 0.15,1.7188 0.15,3.0078 0,1.2891 0,2.5977 0,3.9453 0,1.3399 0,2.6172 0,3.8594 0,1.2383 -0.05,2.2656 -0.15,3.0938 z m -18.7,34.7777 c 5.66,0 10.79,-0.879 15.37,-2.629 4.59,-1.758 8.55,-4.18 11.91,-7.266 3.34,-3.094 6.02,-6.699 8.03,-10.82 2.01,-4.121 3.17,-8.555 3.48,-13.2893 0.1,-0.9297 0.15,-2.1211 0.15,-3.5547 0,-1.4453 0,-2.8906 0,-4.3281 0,-1.4453 0,-2.8594 0,-4.2461 0,-1.3985 -0.05,-2.5508 -0.15,-3.4766 -0.41,-4.7461 -1.6,-9.1719 -3.56,-13.3008 -1.95,-4.1211 -4.61,-7.6953 -7.95,-10.7421 -3.36,-3.0391 -7.32,-5.4297 -11.91,-7.1797 -4.58,-1.7578 -9.71,-2.6368 -15.37,-2.6368 -5.67,0 -10.8,0.879 -15.38,2.6368 -4.59,1.75 -8.55,4.1406 -11.9,7.1797 -3.35,3.0468 -6,6.621 -7.96,10.7421 -1.96,4.1289 -3.15,8.5547 -3.56,13.3008 -0.1,0.9258 -0.17,2.0781 -0.23,3.4766 -0.05,1.3867 -0.07,2.8008 -0.07,4.2461 0,1.4375 0.02,2.8828 0.07,4.3281 0.06,1.4336 0.13,2.625 0.23,3.5547 0.32,4.7343 1.47,9.1683 3.48,13.2893 2.01,4.121 4.69,7.726 8.04,10.82 3.35,3.086 7.31,5.508 11.9,7.266 4.58,1.75 9.71,2.629 15.38,2.629"
         style="fill:#ffffff;fill-opacity:1;fill-rule:nonzero;stroke:none"
         id="path76" />
      <path
         d="m 2932.96,128.129 c 1.14,0 2.12,-0.41 2.94,-1.238 0.82,-0.821 1.24,-1.797 1.24,-2.93 V 66.3125 H 2958 v 57.6485 c 0,1.133 0.41,2.109 1.24,2.93 0.82,0.828 1.8,1.238 2.94,1.238 h 11.74 c 1.13,0 2.11,-0.41 2.94,-1.238 0.82,-0.821 1.23,-1.797 1.23,-2.93 V 66.3125 h 20.87 v 57.6485 c 0,1.133 0.41,2.109 1.23,2.93 0.83,0.828 1.81,1.238 2.94,1.238 h 11.75 c 1.13,0 2.11,-0.41 2.93,-1.238 0.83,-0.821 1.24,-1.797 1.24,-2.93 V 51.9375 c 0,-1.1328 -0.41,-2.1094 -1.24,-2.9297 -0.82,-0.8281 -1.8,-1.2383 -2.93,-1.2383 h -93.66 c -1.14,0 -2.11,0.4102 -2.94,1.2383 -0.83,0.8203 -1.23,1.7969 -1.23,2.9297 v 72.0235 c 0,1.133 0.4,2.109 1.23,2.93 0.83,0.828 1.8,1.238 2.94,1.238 h 11.74"
         style="fill:#ffffff;fill-opacity:1;fill-rule:nonzero;stroke:none"
         id="path78" />
      <path
         d="M 3056.6,76.207 V 51.9375 c 0,-1.1328 -0.42,-2.1094 -1.24,-2.9297 -0.82,-0.8281 -1.8,-1.2383 -2.94,-1.2383 h -11.74 c -1.14,0 -2.11,0.4102 -2.93,1.2383 -0.83,0.8203 -1.24,1.7969 -1.24,2.9297 v 72.0235 c 0,1.133 0.41,2.109 1.24,2.93 0.82,0.828 1.79,1.238 2.93,1.238 h 11.74 c 1.14,0 2.12,-0.41 2.94,-1.238 0.82,-0.821 1.24,-1.797 1.24,-2.93 V 99.5352 l 28.44,25.9688 c 0.61,0.516 1.41,1.082 2.39,1.699 0.98,0.613 2.19,0.926 3.63,0.926 h 14.69 c 1.03,0 1.9,-0.359 2.62,-1.074 0.72,-0.731 1.09,-1.602 1.09,-2.637 0,-0.508 -0.08,-0.996 -0.24,-1.465 -0.15,-0.457 -0.64,-1.004 -1.46,-1.621 l -36.02,-32.6054 39.42,-34.3086 c 0.61,-0.625 1.02,-1.1407 1.23,-1.5508 0.21,-0.4102 0.31,-0.8789 0.31,-1.3867 0,-1.0352 -0.36,-1.9063 -1.08,-2.6289 -0.73,-0.7227 -1.6,-1.0821 -2.63,-1.0821 h -16.38 c -1.55,0 -2.86,0.3125 -3.94,0.9258 -1.08,0.6172 -1.88,1.1836 -2.4,1.6992 L 3056.6,76.207"
         style="fill:#ffffff;fill-opacity:1;fill-rule:nonzero;stroke:none"
         id="path80" />
      <path
         d="m 3169.89,94.9063 c -0.32,3.1953 -1.07,5.8397 -2.25,7.9607 -1.18,2.11 -2.65,3.789 -4.4,5.02 -1.76,1.238 -3.66,2.09 -5.72,2.547 -2.06,0.468 -4.17,0.695 -6.34,0.695 -2.16,0 -4.27,-0.227 -6.33,-0.695 -2.06,-0.457 -3.97,-1.309 -5.72,-2.547 -1.75,-1.231 -3.22,-2.91 -4.41,-5.02 -1.18,-2.121 -1.92,-4.7654 -2.24,-7.9607 -0.1,-0.8282 -0.18,-1.8555 -0.23,-3.0938 -0.05,-1.2422 -0.08,-2.5195 -0.08,-3.8594 0,-1.3476 0.03,-2.6562 0.08,-3.9453 0.05,-1.289 0.13,-2.293 0.23,-3.0078 0.32,-3.2031 1.06,-5.8594 2.24,-7.9687 1.19,-2.1094 2.66,-3.7774 4.41,-5.0196 1.75,-1.2383 3.66,-2.0781 5.72,-2.5469 2.06,-0.4687 4.17,-0.6953 6.33,-0.6953 2.17,0 4.28,0.2266 6.34,0.6953 2.06,0.4688 3.96,1.3086 5.72,2.5469 1.75,1.2422 3.22,2.9102 4.4,5.0196 1.18,2.1093 1.93,4.7656 2.25,7.9687 0.09,0.7148 0.15,1.7188 0.15,3.0078 0,1.2891 0,2.5977 0,3.9453 0,1.3399 0,2.6172 0,3.8594 0,1.2383 -0.06,2.2656 -0.15,3.0938 z m -18.71,34.7777 c 5.66,0 10.79,-0.879 15.38,-2.629 4.59,-1.758 8.55,-4.18 11.9,-7.266 3.35,-3.094 6.03,-6.699 8.03,-10.82 2.01,-4.121 3.18,-8.555 3.49,-13.2893 0.1,-0.9297 0.15,-2.1211 0.15,-3.5547 0,-1.4453 0,-2.8906 0,-4.3281 0,-1.4453 0,-2.8594 0,-4.2461 0,-1.3985 -0.05,-2.5508 -0.15,-3.4766 -0.42,-4.7461 -1.61,-9.1719 -3.56,-13.3008 -1.96,-4.1211 -4.61,-7.6953 -7.96,-10.7421 -3.35,-3.0391 -7.31,-5.4297 -11.9,-7.1797 -4.59,-1.7578 -9.72,-2.6368 -15.38,-2.6368 -5.66,0 -10.79,0.879 -15.37,2.6368 -4.59,1.75 -8.56,4.1406 -11.91,7.1797 -3.35,3.0468 -6,6.621 -7.95,10.7421 -1.96,4.1289 -3.15,8.5547 -3.56,13.3008 -0.1,0.9258 -0.18,2.0781 -0.23,3.4766 -0.05,1.3867 -0.08,2.8008 -0.08,4.2461 0,1.4375 0.03,2.8828 0.08,4.3281 0.05,1.4336 0.13,2.625 0.23,3.5547 0.31,4.7343 1.47,9.1683 3.48,13.2893 2.01,4.121 4.68,7.726 8.03,10.82 3.35,3.086 7.32,5.508 11.91,7.266 4.58,1.75 9.71,2.629 15.37,2.629"
         style="fill:#ffffff;fill-opacity:1;fill-rule:nonzero;stroke:none"
         id="path82" />
      <path
         d="M 3231.55,109.586 V 76.207 c 0,-9.375 -2.35,-16.7187 -7.04,-22.0234 -4.68,-5.3125 -12.03,-7.9688 -22.02,-7.9688 h -3.56 c -1.13,0 -2.11,0.4219 -2.93,1.2422 -0.83,0.8203 -1.24,1.8047 -1.24,2.9375 v 10.1953 c 0,1.1446 0.41,2.1094 1.24,2.9415 0.82,0.8203 1.8,1.2382 2.93,1.2382 h 2.79 c 4.12,0 6.77,1.0547 7.96,3.1641 1.18,2.1211 1.78,5.1289 1.78,9.043 v 46.9844 c 0,1.133 0.4,2.109 1.23,2.93 0.82,0.828 1.8,1.238 2.93,1.238 h 56.73 c 1.13,0 2.1,-0.41 2.93,-1.238 0.83,-0.821 1.24,-1.797 1.24,-2.93 V 51.9375 c 0,-1.1328 -0.41,-2.1094 -1.24,-2.9297 -0.83,-0.8281 -1.8,-1.2383 -2.93,-1.2383 h -11.75 c -1.14,0 -2.11,0.4102 -2.94,1.2383 -0.82,0.8203 -1.23,1.7969 -1.23,2.9297 v 57.6485 h -24.88"
         style="fill:#ffffff;fill-opacity:1;fill-rule:nonzero;stroke:none"
         id="path84" />
      <path
         d="m 114.191,0.00390625 h 521.754 c 63.067,0 114.192,51.12499375 114.192,114.19109375 v 521.746 c 0,63.067 -51.125,114.192 -114.192,114.192 H 114.191 C 51.125,750.133 0,699.008 0,635.941 V 114.195 C 0,51.1289 51.125,0.00390625 114.191,0.00390625"
         style="fill:#2a71c1;fill-opacity:1;fill-rule:nonzero;stroke:none"
         id="path86" />
      <path
         d="m 188.098,410.348 c 3.453,-6.231 9.797,-8.899 16.84,-11.641 14.253,-5.684 10.531,-7.961 15.535,-12.727 6.433,2.297 9.629,9.551 13.679,11.719 l 3.27,3.176 c 12.012,7.723 30.363,-3.887 39.195,-11.152 35.828,-29.473 61.778,-77.539 62.488,-126.418 20.422,-12.539 47.997,-12.039 68.485,-0.41 1.066,38.195 15.43,73.164 37.738,100.664 11.18,13.789 41.176,47.421 61.965,38.515 8.332,-3.574 11,-13.73 19.332,-16.133 0.977,0.95 0.449,0.403 1.426,1.719 0.496,0.754 0.883,1.457 1.437,2.258 1.235,1.902 1.848,2.527 3.407,3.797 9.031,7.246 8.855,0.812 26.339,15.664 0.481,9.016 -4.504,32.539 -7.898,42.355 -0.953,2.793 -1.211,3.301 -2.676,5.039 -28.09,1.786 -77.445,-3.371 -104.265,-10.566 -59.606,-15.969 -56.372,-45.762 -71.274,-45.363 -15.715,0.429 -12.105,35.519 -93.937,50.273 -8.922,1.613 -17.903,1.778 -26.555,3.145 -12.445,1.992 -41.527,3.703 -55.352,2.383 -2.074,-8.27 -11.668,-37.09 -9.179,-46.297 v 0"
         style="fill:#ffffff;fill-opacity:1;fill-rule:evenodd;stroke:none"
         id="path88" />
      <path
         d="m 373.992,190.199 c 33.129,0.09 67.996,8.781 92.153,25.391 5.195,3.586 11.968,6.262 6.953,14.57 -7.012,11.602 -10.336,17.707 -15.27,32.258 -8.488,2.09 -19.672,-13.613 -37.015,-11.094 -11,1.59 -3.918,12.266 -17.661,3.27 -2.875,-1.914 -4.636,-2.774 -8.371,-4.188 -7.316,-2.773 -12.129,-4.035 -20.769,-4.062 -23.942,-0.11 -33.571,12.363 -37.055,12.051 -1.953,-0.188 -9.957,-15.528 -35.531,-0.274 -4.012,2.371 -6.528,5 -11.258,4.774 -2.301,-3.79 -4.91,-11.59 -7.133,-16.29 -9.215,-19.667 -16.855,-22.41 -2.91,-30.82 28.398,-17.234 57.563,-25.633 93.867,-25.586 v 0"
         style="fill:#ffffff;fill-opacity:1;fill-rule:evenodd;stroke:none"
         id="path90" />
      <path
         d="m 215.559,460.746 c 9.046,18.457 76.183,-2.527 90.996,-7.469 18.133,-6.074 39.847,-20.011 52.121,-34.043 22.828,-26.125 10.179,-14.171 44.183,13.457 27.496,22.325 72.825,33.309 107.868,34.883 12.296,0.567 14.433,0.957 21.171,-7.011 l 6.582,-0.012 0.625,21.418 c -55.003,4.453 -117.281,-10.383 -151.89,-54.102 -3.414,-4.297 -8.672,-14.504 -14.094,-15.586 -3.441,0.34 -15.297,19.93 -27.641,30.899 -36.234,32.05 -86.742,41.445 -137.234,38.875 -0.578,-4.512 -0.183,-9.141 -0.211,-13.731 -0.027,-8.699 -0.597,-7.812 7.524,-7.578 v 0"
         style="fill:#ffffff;fill-opacity:1;fill-rule:evenodd;stroke:none"
         id="path92" />
      <path
         d="m 461.879,265.777 c 0.34,-6.164 11.976,-30.957 15.32,-35.089 10.25,0.468 39.668,35.988 46.028,44.16 8.871,11.328 27.312,45.84 29.535,61.562 -2.149,-0.222 -26.883,-10.996 -23.274,12.59 -8.843,3.867 -6.39,5.613 -9.058,11.211 -2.137,-3.703 -2.532,-9.895 -3.989,-14.719 -1.808,-5.84 -3.023,-8.965 -5.011,-14.121 -3.649,-9.687 -7.864,-17.156 -13.168,-25.84 -8.727,-14.355 -24.149,-31.308 -36.383,-39.754 v 0"
         style="fill:#ffffff;fill-opacity:1;fill-rule:evenodd;stroke:none"
         id="path94" />
      <path
         d="m 217.727,348.648 c 1.914,-18.39 -10.457,-14.804 -22.524,-13.156 1.84,-17.722 20.457,-49.304 29.336,-61.894 7.133,-10.106 37.086,-42.86 45.359,-43.368 3.141,5.098 14.938,29.754 15.278,35.547 -25.399,17.215 -44.375,48.145 -54.031,78.368 -1.293,4.043 -2.93,12.453 -4.473,15.39 -1.371,-2.519 -0.692,-4.012 -3.016,-6.738 -2.043,-2.508 -3.703,-2.5 -5.929,-4.149 v 0"
         style="fill:#ffffff;fill-opacity:1;fill-rule:evenodd;stroke:none"
         id="path96" />
      <path
         d="m 227.305,485.523 c 13.367,-0.898 4.55,4.356 24.312,1.786 43.758,-5.633 88.738,-25.157 114.41,-63.133 7.02,-10.383 7.965,-10.313 14.25,-0.969 5.422,8.059 12.446,16.133 19.11,22.285 10.761,9.961 19.082,15.117 32.398,22.481 10.024,5.488 27.36,12.277 39.43,14.765 52.594,10.996 30.918,0.996 48.48,2.891 l -0.015,11.562 c -26.981,2.559 -64.325,-9.023 -87.7,-22.109 -15.085,-8.457 -42.214,-30.047 -52.171,-44.941 -2.317,-3.477 -2.883,-6.348 -6.688,-7.977 -2.058,1.492 -7.269,9.981 -11.957,15.32 -4.297,4.981 -10.059,10.403 -13.891,14.016 -29.785,27.957 -77.546,48.125 -119.929,45.828 l -0.039,-11.805 v 0"
         style="fill:#ffffff;fill-opacity:1;fill-rule:evenodd;stroke:none"
         id="path98" />
      <path
         d="m 533.801,376.285 c -2.692,-4.297 -7.664,-5.344 -8.867,-12.199 -1.961,-11.102 6.57,-7.898 8.754,-11.766 1.945,-3.593 -5.743,-12.746 5.191,-13.761 6.441,-0.586 13.18,2.492 17.008,6.242 7.246,7.137 1.461,12.676 3.109,17.949 0.938,2.957 2.539,3.914 3.43,8.27 1.078,5.214 0.254,6.445 -0.578,11.085 -1.297,7.157 5.113,9.532 2.465,19.676 -2.571,10.078 -8.735,0.703 -13.504,-1.883 -5.836,-3.175 -17.813,-5.812 -19.805,-14.589 -1.387,-6.047 1.195,-5.305 2.797,-9.024 v 0"
         style="fill:#ffffff;fill-opacity:1;fill-rule:evenodd;stroke:none"
         id="path100" />
      <path
         d="m 221.727,357.289 c 1.511,14.883 -4.704,11.731 -8.637,18.996 1.43,3.574 2.457,1.903 2.996,5.645 1.641,11.269 -16.309,15.351 -21.637,18.758 -4.453,2.89 -4.836,6.281 -9.73,5.917 -0.938,-3.23 -2.614,-4.941 -2.504,-10.085 0.152,-6.036 2.723,-7.481 3.187,-11.125 0.493,-3.868 -1.894,-6.563 -1.058,-12.762 0.562,-4.582 2.836,-6.68 3.523,-10.352 1.735,-9.426 -4.574,-12.988 6.914,-20.246 7.301,-4.558 13.172,-5.488 19.461,0.129 0.301,4.461 -2.086,8.152 -0.363,10.684 2.394,2.617 1.141,0.672 4.43,1.98 3.754,1.496 1.504,0.852 3.418,2.461 v 0"
         style="fill:#ffffff;fill-opacity:1;fill-rule:evenodd;stroke:none"
         id="path102" />
      <path
         d="m 651.668,463.754 c -1.031,-10.352 -7.516,-32.801 -18.902,-31.883 -1.004,5.332 2.843,15.508 3.007,23.582 0.665,31.477 -15.062,28.215 -21.191,17.746 -2.516,-4.308 -5.199,-14.64 -10.894,-14.609 -8.833,20.164 23.375,74.246 39.269,48.398 6.117,-9.933 10.242,-28.027 8.711,-43.234 z m -6.23,-104.727 c -2.032,-9.422 -8.704,-28.484 -17.493,-29.843 -0.593,9.718 10.321,33.261 1.45,41.066 -4.231,3.75 -14.5,-0.742 -8.094,12.832 5.855,12.5 33.98,21.492 24.137,-24.055 z M 595.5,269.32 c -22.355,-32 -48.645,-59.226 -81.344,-79.031 -11.336,-6.828 -41.062,-22.09 -55.453,-22.969 6.27,5.118 18.641,8.75 27.129,12.977 63.547,31.379 90.973,74.922 122.492,135.558 2.461,4.754 3.828,10.418 9.063,10.528 4.636,-14.199 -15.399,-47.793 -21.887,-57.063 z m 21.035,-29.277 c -4.047,-6.973 -13.465,-21.16 -21.375,-22.273 0.625,8.046 16.098,24.257 8.903,33.964 -2.254,3.047 -13.313,4.414 -4.258,12.215 3.625,3.137 9.617,6.035 15.562,4.895 14.289,-2.844 5.371,-21.602 1.168,-28.801 z M 579.152,220.141 C 561.488,201 526.965,179.945 504.02,169.684 c -5.004,-2.239 -32.098,-13.254 -35.946,-11.68 0.821,2.949 -0.386,0.73 3.379,2.254 l 13.672,5.187 c 30.961,13.426 51.648,25.711 76.598,48.965 8.336,7.84 20.273,23.125 26.593,22.762 0.993,-7.715 -5.402,-12.949 -9.164,-17.031 z M 449.699,179.086 c 0.199,0.156 0.422,0.41 0.508,0.5 0.145,0.086 0.383,0.34 0.531,0.449 l 31.805,17.488 c 9.844,5.977 20.836,13.34 29.402,20.957 16.36,14.551 33.731,34.317 46.856,55.118 23.644,37.492 36.812,68.242 41.402,113.34 1.027,9.863 1.856,40.136 4.91,46.191 7.254,0.559 7.785,-13.34 8.094,-19.063 1.648,-32.097 -3.555,-63.808 -15.519,-92.644 -16.274,-39.192 -47.754,-80.117 -79.379,-105.859 -14.075,-11.438 -51.59,-35.879 -68.61,-36.477 z m 216.289,297.766 c -1.437,4.687 -7.41,45.195 -5.722,53.769 0.632,3.211 2.906,6.738 3.187,8.867 1.867,15.254 -48.445,-1.359 -66.613,-41.34 -11.77,-25.964 -5.652,-56.23 -8.688,-88.582 -9,-96.496 -45.019,-167.265 -123.871,-211.222 l -31.652,-15.477 c 0.812,-6.035 19.367,-24.609 23.031,-28 5.836,-5.32 23.758,-19.461 30.844,-21.426 4.348,-1.14 28.129,15.11 32.703,18.567 18.09,13.691 42.395,32.742 61.086,42.937 21.098,11.535 41.434,30.364 50.34,54.211 2.07,5.547 5.476,15.028 2.883,22.391 -3.528,9.785 -10.735,3.496 -16.731,7.129 -1.047,6.515 3.434,11.836 6.91,15.566 13.621,14.668 18.453,19.133 26.203,42.766 3.918,11.922 6.422,24.031 7.918,37.637 3.875,35.039 -11.16,28.289 -13.496,32.039 -1.734,8.117 4.024,11.328 7.871,15.312 10.457,10.695 10.317,17.473 13.039,27.805 0.942,3.535 2.262,22.109 0.758,27.051"
         style="fill:#ffffff;fill-opacity:1;fill-rule:evenodd;stroke:none"
         id="path104" />
      <path
         d="m 228.406,215.941 c -34.472,27.356 -74.953,82.414 -86.726,126.731 -5.875,22.312 -10.125,49.101 -7.903,72.793 0.602,6.238 0.926,17.969 8.11,17.871 6.418,-16.992 -3.586,-87.207 46.39,-159.785 55.161,-80.11 94.067,-80.871 109.078,-94.465 -17.503,0.5 -54.292,25.195 -68.949,36.855 z m 3.977,-25.32 c -31.059,19.207 -61.219,48.582 -80.856,78.652 -7.07,10.84 -25.136,40.176 -22.324,56.825 5.551,0.89 7.52,-6.258 9.492,-10.45 5.473,-11.648 14.653,-27.031 21.118,-38.574 21.781,-38.719 61.179,-79.336 101.957,-97.129 7.043,-3.066 21.625,-8.632 26.574,-12.605 -14.215,0.535 -43.715,15.703 -55.961,23.281 z m -74.02,46.199 c 5.692,1.516 10.485,-5.859 14.34,-9.941 25.68,-27.274 53.875,-46.727 88.344,-60.84 4.476,-1.855 13.16,-4.715 16.836,-7.148 -27.641,-0.789 -121.766,56.593 -119.52,77.929 z m -25.23,31.477 c 8.433,0.449 17.086,-2.637 17.086,-12.102 -3.754,-2.402 -13.317,-3.965 -6.93,-19.453 2.031,-4.969 8.594,-15.293 9.117,-18.691 -11.722,-0.77 -44.461,48.976 -19.273,50.246 z M 117.484,370.57 c -8.379,-14.043 2.403,-27.918 1.59,-41.308 -14.84,1.777 -32.9334,68.312 -5.437,63.496 8.402,-1.485 14.144,-8.399 13.668,-18.809 -5.969,-4.14 -2.078,-1.367 -9.821,-3.379 z m -21.8942,92.539 c -2.2929,14.278 4.0079,59.688 24.8122,49.102 15.203,-7.742 29.899,-42.109 22.465,-53.387 -8.547,1.317 -7.742,19.278 -18.699,21.348 -11.887,2.293 -13.367,-14.914 -12.969,-25.645 0.235,-6.945 1.629,-11.074 3.211,-16.738 3.492,-12.695 -13.722,-6.719 -18.8202,25.32 z M 279.965,199.918 C 189.219,252.457 157.754,340.121 157.57,451.82 c 0,11.848 0.235,18.332 -1.625,29.278 -5.007,29.425 -34.406,59.074 -62.6481,63.683 -16.9453,2.793 -6.9766,-9.23 -6.3711,-17.375 0.8515,-11.543 4.6484,-30.496 3.0625,-43.426 -1.0117,-8.281 -2.1328,-5.175 -2.1328,-15.988 0,0 -1.6992,-28.308 4.8867,-38.535 2.6758,-4.148 3.0703,-6.562 6.3711,-9.715 3.3317,-3.215 5.9567,-5.976 4.6327,-13.058 -3.047,-4.871 -14.6483,4.218 -14.6288,-23.946 0,-26.414 10.9958,-63.906 28.2028,-82.195 3.696,-3.977 15.715,-14.121 13.043,-21.867 -3.035,-3.856 -26.422,7.277 -14.101,-28.926 7.629,-22.332 29.16,-43.406 49.992,-54.5 24.281,-12.922 39.695,-28.117 61.371,-42.793 5.699,-3.906 28.027,-19.934 32.34,-19.16 6.5,1.133 26.055,16.777 31.066,21.133 4.606,4.043 22.414,22.586 23.418,28.437 -0.254,0.196 -28.457,13.563 -34.484,17.051"
         style="fill:#ffffff;fill-opacity:1;fill-rule:evenodd;stroke:none"
         id="path106" />
      <path
         d="m 514.246,394.371 c -11.723,-5.383 -9.703,-28.125 4.434,-28.117 5.152,0 13.961,8.691 1.465,21.699 -0.993,1.035 -1.563,1.652 -2.532,2.852 -2.429,2.961 -0.422,1.484 -3.367,3.566 v 0"
         style="fill:#ffffff;fill-opacity:1;fill-rule:evenodd;stroke:none"
         id="path108" />
      <path
         d="m 236.391,368.969 c 0.652,1.719 1.714,2.219 2.75,4.414 1.078,2.344 1.351,4.289 1.32,7.539 -0.098,7.961 -3.316,7.922 -4.07,11.867 -1.145,0.566 -2.239,0.899 -3.547,1.484 -2.742,-2.003 -0.809,-0.507 -2.918,-3.027 -0.992,-1.144 -1.547,-1.828 -2.504,-2.851 -1.965,-2.168 -3.457,-3.293 -4.68,-5.325 -1.644,-2.754 -6.586,-21.953 13.649,-14.101 v 0"
         style="fill:#ffffff;fill-opacity:1;fill-rule:evenodd;stroke:none"
         id="path110" />
      <path
         d="m 378.402,155.563 -8.82,-0.032 -5.109,0.157 3.539,23.437 5.109,0.129 0.891,0.105 4.789,-0.418 3.625,-23.293 z m 80.215,-16.895 c -11.523,7.754 -21.633,19.434 -29.863,30.449 -4.234,5.742 -7.859,15.449 -11.527,19.727 -6.797,0.203 -12.407,-2.551 -20.293,-3.184 -21.731,-1.66 -23.059,-1.535 -44.129,-0.226 -28.094,1.757 -18.426,11.476 -28.965,-7.332 -2.531,-4.485 -5.293,-8.606 -8.652,-12.981 -7.258,-9.453 -11.797,-13.711 -20.723,-21.687 -10.754,-9.661 -15.961,-10.43 -22.16,-14.641 -3.633,-2.461 -1.575,0.402 -2.438,-3.094 10.985,-4.355 24.969,-7.199 37.641,-10.304 6.113,-1.446 13.789,-3.321 19.765,-3.926 24.297,-2.403 13.461,-3.563 20.274,-4.961 5.574,6.984 10.867,26.242 13.223,29.453 l 24.71,0.078 c 2.278,-0.547 1.52,-0.906 3.754,-7.187 4.411,-12.411 4.09,-9.336 8.493,-18.653 l 1.839,-3.719 c 7.825,1.805 -6.503,1.622 18.739,5.157 14.109,2 40.429,8.066 54.14,12.558 4.301,1.395 2.149,-0.234 4.301,2.508 -0.797,1.125 -15.004,9.844 -18.129,11.965"
         style="fill:#ffffff;fill-opacity:1;fill-rule:evenodd;stroke:none"
         id="path112" />
      <path
         d="m 445.988,570.18 c 0,40.578 -32.894,73.476 -73.476,73.476 -40.578,0 -73.477,-32.898 -73.477,-73.476 0,-40.575 32.899,-73.477 73.477,-73.477 40.582,0 73.476,32.902 73.476,73.477"
         style="fill:#ffffff;fill-opacity:1;fill-rule:evenodd;stroke:none"
         id="path114" />
    </g>
  </g>
</svg>
