<?xml version="1.0" encoding="UTF-8" standalone="no"?>
<!-- Created with Inkscape (http://www.inkscape.org/) -->

<svg
   version="1.1"
   id="svg1"
   width="1280"
   height="706.09735"
   viewBox="0 0 1280 706.09735"
   sodipodi:docname="logo avito CMYK на тёмном фоне.ai"
   xmlns:inkscape="http://www.inkscape.org/namespaces/inkscape"
   xmlns:sodipodi="http://sodipodi.sourceforge.net/DTD/sodipodi-0.dtd"
   xmlns="http://www.w3.org/2000/svg"
   xmlns:svg="http://www.w3.org/2000/svg">
  <defs
     id="defs1">
    <clipPath
       clipPathUnits="userSpaceOnUse"
       id="clipPath4">
      <path
         d="M 0,529.573 H 960 V 0 H 0 Z"
         transform="translate(-782.68412,-212.45881)"
         id="path4" />
    </clipPath>
    <clipPath
       clipPathUnits="userSpaceOnUse"
       id="clipPath6">
      <path
         d="M 0,529.573 H 960 V 0 H 0 Z"
         transform="translate(-548.45951,-225.2171)"
         id="path6" />
    </clipPath>
    <clipPath
       clipPathUnits="userSpaceOnUse"
       id="clipPath8">
      <path
         d="M 0,529.573 H 960 V 0 H 0 Z"
         transform="translate(-697.46782,-321.26601)"
         id="path8" />
    </clipPath>
    <clipPath
       clipPathUnits="userSpaceOnUse"
       id="clipPath10">
      <path
         d="M 0,529.573 H 960 V 0 H 0 Z"
         transform="translate(-626.93552,-341.96811)"
         id="path10" />
    </clipPath>
    <clipPath
       clipPathUnits="userSpaceOnUse"
       id="clipPath12">
      <path
         d="M 0,529.573 H 960 V 0 H 0 Z"
         id="path12" />
    </clipPath>
    <clipPath
       clipPathUnits="userSpaceOnUse"
       id="clipPath14">
      <path
         d="M 0,529.573 H 960 V 0 H 0 Z"
         transform="translate(-218.668,-281.54651)"
         id="path14" />
    </clipPath>
    <clipPath
       clipPathUnits="userSpaceOnUse"
       id="clipPath16">
      <path
         d="M 0,529.573 H 960 V 0 H 0 Z"
         transform="translate(-314.71681,-244.71571)"
         id="path16" />
    </clipPath>
    <clipPath
       clipPathUnits="userSpaceOnUse"
       id="clipPath18">
      <path
         d="M 0,529.573 H 960 V 0 H 0 Z"
         transform="translate(-229.2598,-288.7682)"
         id="path18" />
    </clipPath>
    <clipPath
       clipPathUnits="userSpaceOnUse"
       id="clipPath20">
      <path
         d="M 0,529.573 H 960 V 0 H 0 Z"
         transform="translate(-301.71781,-251.93761)"
         id="path20" />
    </clipPath>
  </defs>
  <sodipodi:namedview
     id="namedview1"
     pagecolor="#ffffff"
     bordercolor="#000000"
     borderopacity="0.25"
     inkscape:showpageshadow="2"
     inkscape:pageopacity="0.0"
     inkscape:pagecheckerboard="0"
     inkscape:deskcolor="#d1d1d1">
    <inkscape:page
       x="0"
       y="0"
       inkscape:label="1"
       id="page1"
       width="1280"
       height="706.09735"
       margin="0"
       bleed="0" />
  </sodipodi:namedview>
  <g
     id="layer-MC0"
     inkscape:groupmode="layer"
     inkscape:label="Layer 1">
    <path
       id="path1"
       d="M 0,0 H 960 V 529.573 H 0 Z"
       style="fill:#00000000;fill-opacity:1;fill-rule:nonzero;stroke:none"
       transform="matrix(1.3333333,0,0,-1.3333333,0,706.09733)" />
    <path
       id="path2"
       d="M 0,0 20.368,53.532 40.628,0 Z M 4.247,92.438 -54.008,-59.699 h 31.294 l 12.089,31.775 H 51.197 L 63.224,-59.699 H 94.277 L 36.263,92.438 Z"
       style="fill:#ffffff;fill-opacity:1;fill-rule:nonzero;stroke:none"
       transform="matrix(1.3333333,0,0,-1.3333333,555.8268,378.52587)" />
    <path
       id="path3"
       d="m 0,0 c -14.925,0 -26.961,12.036 -26.961,26.961 0,14.925 12.036,26.961 26.961,26.961 14.925,0 26.961,-12.036 26.961,-26.961 C 26.961,12.036 14.925,0 0,0 m 0,82.327 c -30.572,0 -55.367,-24.794 -55.367,-55.366 0,-30.331 24.795,-55.367 55.367,-55.367 30.572,0 55.366,25.036 55.366,55.367 0,30.572 -24.794,55.366 -55.366,55.366"
       style="fill:#ffffff;fill-opacity:1;fill-rule:nonzero;stroke:none"
       transform="matrix(1.3333333,0,0,-1.3333333,1043.5788,422.81893)"
       clip-path="url(#clipPath4)" />
    <path
       id="path5"
       d="M 0,0 -25.276,67.643 H -55.125 L -14.443,-39.238 H 15.166 L 55.126,67.643 H 25.276 Z"
       style="fill:#ffffff;fill-opacity:1;fill-rule:nonzero;stroke:none"
       transform="matrix(1.3333333,0,0,-1.3333333,731.27933,405.80787)"
       clip-path="url(#clipPath6)" />
    <path
       id="path7"
       d="m 0,0 h -28.405 v -28.406 h -16.611 v -25.516 h 16.611 v -45.497 c 0,-25.757 14.202,-36.831 34.182,-36.831 7.703,0 14.203,1.445 19.74,3.852 v 26.48 c 0,0 -4.815,-1.926 -10.592,-1.926 -8.666,0 -14.925,3.37 -14.925,14.925 v 38.997 h 25.517 v 25.516 H 0 Z"
       style="fill:#ffffff;fill-opacity:1;fill-rule:nonzero;stroke:none"
       transform="matrix(1.3333333,0,0,-1.3333333,929.95707,277.74267)"
       clip-path="url(#clipPath8)" />
    <path
       id="path9"
       d="m 0,0 c -11.314,0 -20.702,-9.388 -20.702,-20.702 0,-11.555 9.388,-20.703 20.702,-20.703 11.555,0 20.702,9.148 20.702,20.703 C 20.702,-9.388 11.555,0 0,0"
       style="fill:#ffffff;fill-opacity:1;fill-rule:nonzero;stroke:none"
       transform="matrix(1.3333333,0,0,-1.3333333,835.914,250.13987)"
       clip-path="url(#clipPath10)" />
    <path
       id="path11"
       d="m 612.733,185.979 h 28.405 V 292.86 h -28.405 z"
       style="fill:#ffffff;fill-opacity:1;fill-rule:nonzero;stroke:none"
       transform="matrix(1.3333333,0,0,-1.3333333,0,706.09733)"
       clip-path="url(#clipPath12)" />
    <path
       id="path13"
       d="m 0,0 c -30.572,0 -55.366,-24.794 -55.366,-55.366 0,-30.572 24.794,-55.367 55.366,-55.367 30.572,0 55.367,24.795 55.367,55.367 C 55.367,-24.794 30.572,0 0,0"
       style="fill:#5ec67c;fill-opacity:1;fill-rule:nonzero;stroke:none"
       transform="matrix(1.3333333,0,0,-1.3333333,291.55733,330.702)"
       clip-path="url(#clipPath14)" />
    <path
       id="path15"
       d="m 0,0 c -18.536,0 -33.46,-14.925 -33.46,-33.46 0,-18.536 14.924,-33.461 33.46,-33.461 18.536,0 33.46,14.925 33.46,33.461 C 33.46,-14.925 18.536,0 0,0"
       style="fill:#ef3351;fill-opacity:1;fill-rule:nonzero;stroke:none"
       transform="matrix(1.3333333,0,0,-1.3333333,419.6224,379.80973)"
       clip-path="url(#clipPath16)" />
    <path
       id="path17"
       d="m 0,0 c 11.555,0 20.702,9.388 20.702,20.702 0,11.555 -9.147,20.703 -20.702,20.703 -11.314,0 -20.702,-9.148 -20.702,-20.703 C -20.702,9.388 -11.314,0 0,0"
       style="fill:#7d64b8;fill-opacity:1;fill-rule:nonzero;stroke:none"
       transform="matrix(1.3333333,0,0,-1.3333333,305.67973,321.07307)"
       clip-path="url(#clipPath18)" />
    <path
       id="path19"
       d="M 0,0 C 24.794,0 45.015,20.221 45.015,45.015 45.015,69.81 24.794,90.031 0,90.031 -24.794,90.031 -45.015,69.81 -45.015,45.015 -45.015,20.221 -24.794,0 0,0"
       style="fill:#40c1f3;fill-opacity:1;fill-rule:nonzero;stroke:none"
       transform="matrix(1.3333333,0,0,-1.3333333,402.2904,370.18053)"
       clip-path="url(#clipPath20)" />
  </g>
</svg>
