<svg xmlns="http://www.w3.org/2000/svg" viewBox="0 0 539.68 106.41"><g id="Layer_2" data-name="Layer 2"><g id="Layer_1-2" data-name="Layer 1"><polygon points="123 90.6 128 90.6 128 106.12 130.57 106.12 130.57 90.6 135.59 90.6 135.59 88.22 123 88.22 123 90.6"/><rect x="142.16" y="88.22" width="2.57" height="17.9"/><path d="M162.9,100.44c-.17.36-.37.87-.62,1.52-.14-.4-.35-.89-.6-1.47l-5.4-12.27h-3.13v17.9h2.5V94.23c0-.53,0-1,0-1.45L161.53,106l.07.16h1.34l5.92-13.33q0,.78,0,1.41v11.92h2.56V88.22h-3Z"/><polygon points="182.37 98.2 188.65 98.2 188.65 95.84 182.37 95.84 182.37 90.6 189.15 90.6 189.15 88.22 179.8 88.22 179.8 106.12 189.54 106.12 189.54 103.74 182.37 103.74 182.37 98.2"/><polygon points="199.31 88.22 196.73 88.22 196.73 106.12 206.28 106.12 206.28 103.74 199.31 103.74 199.31 88.22"/><polygon points="215.37 98.2 221.64 98.2 221.64 95.84 215.37 95.84 215.37 90.6 222.15 90.6 222.15 88.22 212.79 88.22 212.79 106.12 222.53 106.12 222.53 103.74 215.37 103.74 215.37 98.2"/><path d="M238.52,98.19A7.74,7.74,0,0,0,237,97a20,20,0,0,0-1.79-1c-.6-.3-1.13-.57-1.59-.82a6.62,6.62,0,0,1-1.14-.75,2.45,2.45,0,0,1-.66-.8,2.18,2.18,0,0,1-.22-1,1.88,1.88,0,0,1,.28-1.06,2.41,2.41,0,0,1,.76-.73,3.7,3.7,0,0,1,1.1-.42,6.25,6.25,0,0,1,1.28-.13,6.5,6.5,0,0,1,3.79,1l.43.29v-3l-.15-.07a8.54,8.54,0,0,0-3.86-.65,9.19,9.19,0,0,0-2.28.29,6.53,6.53,0,0,0-2,.88,4.64,4.64,0,0,0-1.45,1.54,4.64,4.64,0,0,0-.2,4,4.76,4.76,0,0,0,1,1.37,7.94,7.94,0,0,0,1.41,1.08c.53.31,1.1.63,1.72.94l1.6.82a8.6,8.6,0,0,1,1.24.8,3.24,3.24,0,0,1,.79.88,2.35,2.35,0,0,1-.54,2.87,4.42,4.42,0,0,1-2.65.65,7,7,0,0,1-1.14-.11,9.31,9.31,0,0,1-1.24-.3,8.65,8.65,0,0,1-1.17-.47,4.7,4.7,0,0,1-.93-.62l-.45-.39v3.13l.12.08a3.83,3.83,0,0,0,1,.45,10.86,10.86,0,0,0,1.22.33c.42.08.85.15,1.26.19a8.88,8.88,0,0,0,1.05.07,11.72,11.72,0,0,0,2.41-.25,6.29,6.29,0,0,0,2.05-.85,4.46,4.46,0,0,0,1.45-1.54,4.68,4.68,0,0,0,.53-2.3,4.21,4.21,0,0,0-.39-1.84A5.41,5.41,0,0,0,238.52,98.19Z"/><path d="M256.08,98.19A7.74,7.74,0,0,0,254.57,97a20,20,0,0,0-1.79-1c-.6-.3-1.13-.57-1.59-.82a6.62,6.62,0,0,1-1.14-.75,2.45,2.45,0,0,1-.66-.8,2.18,2.18,0,0,1-.22-1,1.88,1.88,0,0,1,.28-1.06,2.52,2.52,0,0,1,.76-.73,3.7,3.7,0,0,1,1.1-.42,6.25,6.25,0,0,1,1.28-.13,6.56,6.56,0,0,1,3.8,1l.42.29v-3l-.15-.07a8.54,8.54,0,0,0-3.86-.65,9.19,9.19,0,0,0-2.28.29,6.53,6.53,0,0,0-2,.88,4.64,4.64,0,0,0-1.45,1.54,4.64,4.64,0,0,0-.2,4,4.76,4.76,0,0,0,1,1.37,8,8,0,0,0,1.42,1.08c.52.31,1.09.63,1.71.94l1.6.82a9.34,9.34,0,0,1,1.25.8,3.19,3.19,0,0,1,.78.88,2.31,2.31,0,0,1-.54,2.87,4.4,4.4,0,0,1-2.64.65,7.05,7.05,0,0,1-1.15-.11,9.31,9.31,0,0,1-1.24-.3,8.65,8.65,0,0,1-1.17-.47,4.7,4.7,0,0,1-.93-.62l-.44-.39v3.13l.11.08a4,4,0,0,0,1,.45,11,11,0,0,0,1.23.33c.41.08.84.15,1.25.19a9,9,0,0,0,1.05.07,11.72,11.72,0,0,0,2.41-.25,6.29,6.29,0,0,0,2.05-.85,4.37,4.37,0,0,0,1.45-1.54,4.68,4.68,0,0,0,.53-2.3,4.21,4.21,0,0,0-.39-1.84A5.2,5.2,0,0,0,256.08,98.19Z"/><path d="M284,87.93a8.8,8.8,0,0,0-6.55,2.65,9.52,9.52,0,0,0-2.58,6.92,9.07,9.07,0,0,0,2.3,6.44,8,8,0,0,0,6.13,2.47,10.44,10.44,0,0,0,4.92-1l.14-.07v-2.62l-.41.25a8.25,8.25,0,0,1-4.38,1.13,5.7,5.7,0,0,1-4.37-1.8,7,7,0,0,1-1.66-4.87,7.32,7.32,0,0,1,1.78-5.16A6.09,6.09,0,0,1,284,90.31a8,8,0,0,1,4,1l.4.22v-2.8l-.16-.07A10.46,10.46,0,0,0,284,87.93Z"/><polygon points="298.34 88.22 295.77 88.22 295.77 106.12 305.31 106.12 305.31 103.74 298.34 103.74 298.34 88.22"/><path d="M317.28,88.22l-6.87,17.9h2.84l1.74-4.87h7l1.84,4.87h2.83l-6.89-17.9Zm1.19,3.5s0,.09,0,.13l2.59,7h-5.25l2.57-7S318.46,91.77,318.47,91.72Z"/><path d="M341.72,98.19A7.74,7.74,0,0,0,340.21,97a20,20,0,0,0-1.79-1c-.6-.3-1.13-.57-1.59-.82a6.62,6.62,0,0,1-1.14-.75,2.63,2.63,0,0,1-.67-.8,2.31,2.31,0,0,1-.21-1,1.88,1.88,0,0,1,.28-1.06,2.41,2.41,0,0,1,.76-.73,3.7,3.7,0,0,1,1.1-.42,6.25,6.25,0,0,1,1.28-.13,6.5,6.5,0,0,1,3.79,1l.42.29v-3l-.14-.07a8.54,8.54,0,0,0-3.86-.65,9.13,9.13,0,0,0-2.28.29,6.43,6.43,0,0,0-2,.88,4.64,4.64,0,0,0-1.45,1.54,4.23,4.23,0,0,0-.56,2.2,4.41,4.41,0,0,0,.35,1.8,5,5,0,0,0,1,1.37,7.94,7.94,0,0,0,1.41,1.08c.52.31,1.1.63,1.71.94l1.61.82a9.87,9.87,0,0,1,1.24.8,3.24,3.24,0,0,1,.79.88,2.09,2.09,0,0,1,.27,1.08,2.06,2.06,0,0,1-.82,1.79,4.36,4.36,0,0,1-2.64.65,6.94,6.94,0,0,1-1.14-.11,9.31,9.31,0,0,1-1.24-.3,8.65,8.65,0,0,1-1.17-.47,4.7,4.7,0,0,1-.93-.62l-.45-.39v3.13l.12.08a3.83,3.83,0,0,0,1,.45,10.31,10.31,0,0,0,1.22.33c.42.08.84.15,1.26.19a8.75,8.75,0,0,0,1.05.07,11.72,11.72,0,0,0,2.41-.25,6.29,6.29,0,0,0,2.05-.85,4.34,4.34,0,0,0,1.44-1.54,4.58,4.58,0,0,0,.54-2.3,4.08,4.08,0,0,0-.4-1.84A5.16,5.16,0,0,0,341.72,98.19Z"/><path d="M359.28,98.19A7.74,7.74,0,0,0,357.77,97a20,20,0,0,0-1.79-1c-.6-.3-1.13-.57-1.59-.82a6.62,6.62,0,0,1-1.14-.75,2.45,2.45,0,0,1-.66-.8,2.18,2.18,0,0,1-.22-1,1.88,1.88,0,0,1,.28-1.06,2.41,2.41,0,0,1,.76-.73,3.7,3.7,0,0,1,1.1-.42,6.25,6.25,0,0,1,1.28-.13,6.5,6.5,0,0,1,3.79,1l.43.29v-3l-.15-.07a8.54,8.54,0,0,0-3.86-.65,9.13,9.13,0,0,0-2.28.29,6.53,6.53,0,0,0-2,.88,4.64,4.64,0,0,0-1.45,1.54,4.64,4.64,0,0,0-.2,4A4.76,4.76,0,0,0,351,96a7.94,7.94,0,0,0,1.41,1.08c.53.31,1.1.63,1.72.94l1.6.82a9.87,9.87,0,0,1,1.24.8,3.24,3.24,0,0,1,.79.88,2.35,2.35,0,0,1-.54,2.87,4.42,4.42,0,0,1-2.65.65,6.94,6.94,0,0,1-1.14-.11,9.31,9.31,0,0,1-1.24-.3,8.65,8.65,0,0,1-1.17-.47,4.7,4.7,0,0,1-.93-.62l-.45-.39v3.13l.12.08a3.83,3.83,0,0,0,1,.45,10.86,10.86,0,0,0,1.22.33c.42.08.84.15,1.26.19a8.88,8.88,0,0,0,1.05.07,11.72,11.72,0,0,0,2.41-.25,6.29,6.29,0,0,0,2.05-.85,4.46,4.46,0,0,0,1.45-1.54,4.68,4.68,0,0,0,.53-2.3,4.08,4.08,0,0,0-.4-1.84A5.16,5.16,0,0,0,359.28,98.19Z"/><rect x="368.05" y="88.22" width="2.57" height="17.9"/><path d="M387,90.31a8.08,8.08,0,0,1,4,1l.4.22v-2.8l-.16-.07a10.5,10.5,0,0,0-4.2-.74,8.79,8.79,0,0,0-6.55,2.65,9.48,9.48,0,0,0-2.58,6.92,9.07,9.07,0,0,0,2.3,6.44,8,8,0,0,0,6.12,2.47,10.41,10.41,0,0,0,4.92-1l.15-.07v-2.62l-.41.25a8.29,8.29,0,0,1-4.39,1.13,5.69,5.69,0,0,1-4.36-1.8,6.92,6.92,0,0,1-1.67-4.87,7.28,7.28,0,0,1,1.79-5.16A6.07,6.07,0,0,1,387,90.31Z"/><path d="M315.8,45,333.05.12c.7.05,1.44.07,2.23.07h2l1.5,0c.72,0,1.52,0,2.41,0s1.69,0,2.41,0,1.22,0,1.5,0a7,7,0,0,1,0,1.45H345a26.57,26.57,0,0,0-3.42.49,1.62,1.62,0,0,0-1.29,1.11A10.91,10.91,0,0,0,340,5.91L340.66,47a14.18,14.18,0,0,0,.38,3.28,1.91,1.91,0,0,0,1.47,1.29,24.24,24.24,0,0,0,3.6.54,8.65,8.65,0,0,1,0,1.44c-.28,0-.81,0-1.57,0s-1.62,0-2.55,0-1.78,0-2.55,0-1.29,0-1.57,0-.78,0-1.5,0-1.52,0-2.38,0-1.66,0-2.41,0-1.25,0-1.53,0a6.93,6.93,0,0,1,0-1.44,27.3,27.3,0,0,0,3.38-.5,1.83,1.83,0,0,0,1.4-1.14,8,8,0,0,0,.24-2.78l-.62-44.58L315.24,53.38a3.86,3.86,0,0,1-1.08.23c-.49,0-.92.08-1.29.08L294.71,4.31l-1.25,43.36a8.86,8.86,0,0,0,.17,2.63A1.73,1.73,0,0,0,295,51.4q1.08.3,3.45.69a6.93,6.93,0,0,1,0,1.44c-.32,0-.93,0-1.81,0L294,53.42c-.86,0-1.48,0-1.85,0l-1.82,0-2.93.07-1.88,0a6.93,6.93,0,0,1,0-1.44,22.33,22.33,0,0,0,3.52-.65,2.07,2.07,0,0,0,1.43-1.34,10.76,10.76,0,0,0,.42-3.12l1.4-41.07a8.72,8.72,0,0,0-.21-2.82A1.76,1.76,0,0,0,290.66,2,29.64,29.64,0,0,0,287,1.49,8.77,8.77,0,0,1,287,0c1.17,0,2.4,0,3.7.08s2.68.07,4.12.07h2c.84,0,1.6,0,2.3-.07Z"/><path d="M352.17.25c1.12,0,2.54,0,4.27.07s3.12.08,4.19.08,2.47,0,4.23-.08,3.18-.07,4.3-.07a6.74,6.74,0,0,1,0,1.42,31.6,31.6,0,0,0-3.66.49,1.82,1.82,0,0,0-1.44,1.09A8.59,8.59,0,0,0,363.75,6V32.93q0,8.76,3.93,13.3c2.61,3,6.44,4.53,11.46,4.53q7.94,0,11.93-4.94t4-14.47V7.3a14.83,14.83,0,0,0-.3-3.6,2,2,0,0,0-1.53-1.39,24.73,24.73,0,0,0-4-.56,6.83,6.83,0,0,1,0-1.43c1,0,2.25,0,3.7,0s2.6,0,3.47,0,2.05,0,3.42,0,2.57,0,3.59,0a6.83,6.83,0,0,1,0,1.43,25.06,25.06,0,0,0-3.74.52,1.88,1.88,0,0,0-1.44,1.2,10.82,10.82,0,0,0-.31,3.15V32.48q0,9.66-4.95,15.43t-15.32,5.78q-9.08,0-14.52-4.88t-5.44-14.24V6.69a13.49,13.49,0,0,0-.27-3.22A1.79,1.79,0,0,0,356,2.2a25,25,0,0,0-3.81-.53A6.74,6.74,0,0,1,352.17.25Z"/><path d="M487.9,53.69a7.82,7.82,0,0,1,0-1.53,23.26,23.26,0,0,0,3.78-.57,3.33,3.33,0,0,0,2-1.59,23.18,23.18,0,0,0,1.76-4.07L512.36.46a6.68,6.68,0,0,1,1.49-.35A12.49,12.49,0,0,1,515.26,0l17.07,46.38A27.57,27.57,0,0,0,534,50.19a2.86,2.86,0,0,0,1.86,1.44,26.13,26.13,0,0,0,3.81.53,7.82,7.82,0,0,1,0,1.53c-1.32,0-2.8,0-4.45-.08s-3.17-.08-4.54-.08-2.75,0-4,.08-2.58.08-4,.08a7.82,7.82,0,0,1,0-1.53,20.6,20.6,0,0,0,3.54-.49,1.23,1.23,0,0,0,.88-1.33,3.89,3.89,0,0,0-.15-1c-.1-.38-.26-.85-.46-1.41L521.2,33.3H503.07l-5,13.85a10.06,10.06,0,0,0-.76,3,1.42,1.42,0,0,0,1.14,1.52,23.68,23.68,0,0,0,3.74.53,7.82,7.82,0,0,1,0,1.53c-1.27,0-2.5,0-3.7-.08s-2.42-.08-3.69-.08c-1,0-2.15,0-3.39.08S489,53.69,487.9,53.69Zm16-22.74h16.38L512.06,8.06Z"/><path d="M423.22,51.67a2,2,0,0,1-1.69-1.3,11.48,11.48,0,0,1-.34-3.32V41.72h-.07V.31h0l-3.38,0-3,0L411,.23c-1.24,0-2.26,0-3.07,0a6.52,6.52,0,0,0,0,1.53,28.6,28.6,0,0,1,4.29.45,2.11,2.11,0,0,1,1.68,1.3,10.92,10.92,0,0,1,.35,3.27v41a9.74,9.74,0,0,1-.3,2.86,1.88,1.88,0,0,1-1.65,1.1c-.89.16-2.35.31-4.37.46a6.53,6.53,0,0,0,0,1.53c.81,0,1.82,0,3,0l3.68-.08c1.24,0,2.24,0,3,0s1.83,0,3.07,0l3.81.08c1.3,0,2.35,0,3.16,0a6.53,6.53,0,0,0,0-1.53A43.07,43.07,0,0,1,423.22,51.67Z"/><path d="M460.32,52.16a37.23,37.23,0,0,1-4.42-.57,6.72,6.72,0,0,1-3-1.53,23.31,23.31,0,0,1-3.38-3.92c-1.21-1.68-2.55-3.49-4-5.45s-2.86-3.77-4.16-5.45-2.29-2.89-3-3.65a18.57,18.57,0,0,0-2.47-2.33,12,12,0,0,0-2.29-1.33V27.7a24.24,24.24,0,0,0,10.21-5.26,11.83,11.83,0,0,0,3.81-9.14A10.84,10.84,0,0,0,445,5.64a15.13,15.13,0,0,0-6.88-4.15,31.1,31.1,0,0,0-9.18-1.3h-1.6V2.43q6.06.24,9.3,3,3.56,3,3.55,8.73,0,6.39-4.19,9.41a17.14,17.14,0,0,1-8.66,2.89v3a6.65,6.65,0,0,1,1.77,1,15.34,15.34,0,0,1,2.6,2.66c1.15,1.38,2.47,3,3.94,5s3,3.95,4.46,6,2.85,3.9,4.07,5.6,2.13,3,2.77,4c.63,0,1.27,0,1.9,0s1.3,0,2,0l2.73,0,3.68.08c1.27,0,2.31,0,3.12,0A7.82,7.82,0,0,0,460.32,52.16Z"/><path d="M490.63,52.16a37.23,37.23,0,0,1-4.42-.57,6.82,6.82,0,0,1-3-1.53,23.35,23.35,0,0,1-3.37-3.92c-1.21-1.68-2.56-3.49-4-5.45s-2.85-3.77-4.15-5.45-2.3-2.89-3-3.65a18,18,0,0,0-2.47-2.33,11.68,11.68,0,0,0-2.29-1.33V27.7a24.24,24.24,0,0,0,10.21-5.26,11.83,11.83,0,0,0,3.81-9.14,10.84,10.84,0,0,0-2.64-7.66,15.08,15.08,0,0,0-6.88-4.15A31.1,31.1,0,0,0,459.2.19h-1.59V2.43c4,.16,7.14,1.15,9.3,3q3.55,3,3.55,8.73,0,6.39-4.2,9.41a17.14,17.14,0,0,1-8.65,2.89v3a7,7,0,0,1,1.77,1A15.34,15.34,0,0,1,462,33c1.16,1.38,2.47,3,3.94,5s3,3.95,4.46,6,2.86,3.9,4.07,5.6,2.13,3,2.77,4c.64,0,1.27,0,1.91,0s1.29,0,2,0l2.72,0,3.68.08c1.27,0,2.31,0,3.12,0A6.53,6.53,0,0,0,490.63,52.16Z"/><path d="M30.34,45,47.59.12c.7.05,1.44.07,2.23.07h2l1.5,0c.72,0,1.52,0,2.41,0s1.68,0,2.41,0,1.22,0,1.5,0a8.77,8.77,0,0,1,0,1.45h-.07A26,26,0,0,0,56.11,2a1.65,1.65,0,0,0-1.3,1.11,11.51,11.51,0,0,0-.24,2.82L55.2,47a13.13,13.13,0,0,0,.38,3.28,1.91,1.91,0,0,0,1.47,1.29,24.24,24.24,0,0,0,3.6.54,8.65,8.65,0,0,1,0,1.44c-.28,0-.81,0-1.58,0s-1.61,0-2.55,0-1.78,0-2.54,0-1.3,0-1.57,0-.78,0-1.51,0-1.51,0-2.37,0-1.67,0-2.41,0-1.26,0-1.54,0a8.65,8.65,0,0,1,0-1.44,27.22,27.22,0,0,0,3.39-.5,1.83,1.83,0,0,0,1.4-1.14,8,8,0,0,0,.24-2.78L49,3.09,29.78,53.38a3.86,3.86,0,0,1-1.08.23c-.49,0-.92.08-1.29.08L9.25,4.31,8,47.67a8.86,8.86,0,0,0,.17,2.63A1.71,1.71,0,0,0,9.5,51.4q1.08.3,3.45.69a6.93,6.93,0,0,1,0,1.44c-.32,0-.93,0-1.81,0l-2.62-.07c-.86,0-1.48,0-1.85,0l-1.82,0-2.93.07L0,53.53a6.93,6.93,0,0,1,0-1.44,22.57,22.57,0,0,0,3.52-.65A2.07,2.07,0,0,0,5,50.1,11.12,11.12,0,0,0,5.41,47L6.81,5.91A9.35,9.35,0,0,0,6.6,3.09,1.76,1.76,0,0,0,5.2,2a29.64,29.64,0,0,0-3.63-.49A7,7,0,0,1,1.57,0c1.16,0,2.4,0,3.7.08S8,.19,9.39.19h2c.83,0,1.6,0,2.3-.07Z"/><path d="M66.71.25c1.11,0,2.54,0,4.26.07S74.1.4,75.17.4s2.47,0,4.23-.08S82.58.25,83.7.25a6.74,6.74,0,0,1,0,1.42A31,31,0,0,0,80,2.16a1.86,1.86,0,0,0-1.45,1.09A9,9,0,0,0,78.29,6V32.93q0,8.76,3.92,13.3t11.47,4.53q7.93,0,11.93-4.94t4-14.47V7.3a14.2,14.2,0,0,0-.31-3.6,2,2,0,0,0-1.52-1.39,24.73,24.73,0,0,0-4-.56,6.83,6.83,0,0,1,0-1.43c1,0,2.25,0,3.7,0s2.6,0,3.46,0,2.06,0,3.43,0,2.57,0,3.58,0a6.83,6.83,0,0,1,0,1.43,25.09,25.09,0,0,0-3.73.52,1.89,1.89,0,0,0-1.45,1.2,11.29,11.29,0,0,0-.3,3.15V32.48q0,9.66-5,15.43T92.16,53.69q-9.07,0-14.52-4.88T72.19,34.57V6.69a14.19,14.19,0,0,0-.26-3.22A1.79,1.79,0,0,0,70.52,2.2a25.4,25.4,0,0,0-3.81-.53A6.74,6.74,0,0,1,66.71.25Z"/><path d="M202.44,53.69a7.82,7.82,0,0,1,0-1.53,22.92,22.92,0,0,0,3.77-.57,3.35,3.35,0,0,0,2-1.59A24,24,0,0,0,210,45.93L226.9.46a6.54,6.54,0,0,1,1.49-.35A12.49,12.49,0,0,1,229.8,0l17.07,46.38a27.57,27.57,0,0,0,1.64,3.81,2.86,2.86,0,0,0,1.86,1.44,25.92,25.92,0,0,0,3.81.53,7.82,7.82,0,0,1,0,1.53c-1.32,0-2.81,0-4.46-.08s-3.16-.08-4.53-.08-2.76,0-4,.08-2.58.08-4,.08a7.82,7.82,0,0,1,0-1.53,20.6,20.6,0,0,0,3.54-.49,1.23,1.23,0,0,0,.88-1.33,3.89,3.89,0,0,0-.15-1c-.11-.38-.26-.85-.46-1.41L235.74,33.3H217.61l-5,13.85a9.74,9.74,0,0,0-.76,3A1.42,1.42,0,0,0,213,51.63a23.68,23.68,0,0,0,3.74.53,7.82,7.82,0,0,1,0,1.53c-1.27,0-2.51,0-3.7-.08s-2.43-.08-3.69-.08c-1,0-2.15,0-3.4.08S203.56,53.69,202.44,53.69Zm16-22.74h16.39L226.6,8.06Z"/><path d="M137.76,51.67a2,2,0,0,1-1.69-1.3,11.4,11.4,0,0,1-.35-3.32V41.72h-.07V.31h0l-3.38,0-3,0L125.55.23c-1.24,0-2.26,0-3.07,0a6.53,6.53,0,0,0,0,1.53,28.27,28.27,0,0,1,4.28.45,2.11,2.11,0,0,1,1.69,1.3,10.92,10.92,0,0,1,.35,3.27v41a9.74,9.74,0,0,1-.3,2.86,1.9,1.9,0,0,1-1.65,1.1c-.9.16-2.35.31-4.37.46a6.52,6.52,0,0,0,0,1.53c.81,0,1.82,0,3,0l3.68-.08c1.24,0,2.23,0,3,0s1.84,0,3.08,0l3.81.08c1.29,0,2.35,0,3.16,0a7.82,7.82,0,0,0,0-1.53A43.07,43.07,0,0,1,137.76,51.67Z"/><path d="M174.85,52.16a37,37,0,0,1-4.41-.57,6.72,6.72,0,0,1-3-1.53A22.86,22.86,0,0,1,164,46.14c-1.21-1.68-2.55-3.49-4-5.45s-2.86-3.77-4.16-5.45-2.29-2.89-3-3.65a18,18,0,0,0-2.46-2.33,11.75,11.75,0,0,0-2.3-1.33V27.7a24.28,24.28,0,0,0,10.22-5.26,11.83,11.83,0,0,0,3.81-9.14,10.84,10.84,0,0,0-2.64-7.66,15.11,15.11,0,0,0-6.89-4.15,31,31,0,0,0-9.17-1.3h-1.6V2.43q6.06.24,9.3,3,3.56,3,3.55,8.73,0,6.39-4.2,9.41a17.11,17.11,0,0,1-8.65,2.89v3a6.65,6.65,0,0,1,1.77,1A15.34,15.34,0,0,1,146.2,33c1.15,1.38,2.47,3,3.94,5s3,3.95,4.46,6,2.85,3.9,4.06,5.6,2.14,3,2.78,4c.63,0,1.26,0,1.9,0s1.3,0,2,0l2.73,0,3.68.08c1.27,0,2.3,0,3.11,0A6.52,6.52,0,0,0,174.85,52.16Z"/><path d="M205.17,52.16a37.23,37.23,0,0,1-4.42-.57,6.82,6.82,0,0,1-3-1.53,22.89,22.89,0,0,1-3.37-3.92c-1.22-1.68-2.56-3.49-4-5.45s-2.86-3.77-4.15-5.45-2.3-2.89-3-3.65a18.57,18.57,0,0,0-2.47-2.33,12,12,0,0,0-2.29-1.33V27.7a24.24,24.24,0,0,0,10.21-5.26,11.83,11.83,0,0,0,3.81-9.14,10.84,10.84,0,0,0-2.64-7.66,15.08,15.08,0,0,0-6.88-4.15,31.1,31.1,0,0,0-9.18-1.3h-1.59V2.43c4,.16,7.14,1.15,9.3,3q3.54,3,3.55,8.73,0,6.39-4.2,9.41a17.14,17.14,0,0,1-8.65,2.89v3a7,7,0,0,1,1.77,1A15.34,15.34,0,0,1,176.51,33c1.16,1.38,2.47,3,3.94,5s3,3.95,4.46,6,2.86,3.9,4.07,5.6,2.13,3,2.77,4c.63,0,1.27,0,1.9,0s1.3,0,2,0l2.73,0,3.68.08c1.27,0,2.31,0,3.12,0A7.82,7.82,0,0,0,205.17,52.16Z"/></g></g></svg>