<?xml version="1.0" encoding="UTF-8"?>
<!DOCTYPE svg PUBLIC "-//W3C//DTD SVG 1.1//EN" "http://www.w3.org/Graphics/SVG/1.1/DTD/svg11.dtd">
<!-- Creator: CorelDRAW 2019 (64-Bit) -->
<svg xmlns="http://www.w3.org/2000/svg" xml:space="preserve" width="1070px" height="1070px" version="1.1" style="shape-rendering:geometricPrecision; text-rendering:geometricPrecision; image-rendering:optimizeQuality; fill-rule:evenodd; clip-rule:evenodd"
viewBox="0 0 246.44 64.6"
 xmlns:xlink="http://www.w3.org/1999/xlink"
 xmlns:xodm="http://www.corel.com/coreldraw/odm/2003">
 <defs>
  <style type="text/css">
   <![CDATA[
    .fil1 {fill:#F39D1C;fill-rule:nonzero}
    .fil0 {fill:#644887;fill-rule:nonzero}
   ]]>
  </style>
 </defs>
 <g id="Слой_x0020_1">
  <metadata id="CorelCorpID_0Corel-Layer"/>
  <polygon class="fil0" points="2.05,1.05 4.62,1.05 29.92,32.97 29.92,1.05 32.53,1.05 32.53,37.74 30.49,37.74 4.67,5.13 4.67,37.74 2.05,37.74 "/>
  <path class="fil0" d="M2.05 0.54l2.81 0 24.55 30.98 0 -30.98 3.63 0 0 37.7 -2.79 0 -25.07 -31.66 0 31.66 -3.63 0 0 -37.7 0.5 0zm83.87 26.51c0,-1.63 -0.62,-3.08 -1.61,-4.13 -1.01,-1.06 -2.39,-1.7 -3.9,-1.7 -1.5,0 -2.86,0.64 -3.84,1.69 -0.99,1.06 -1.61,2.52 -1.61,4.14 0,1.63 0.61,3.1 1.61,4.15 0.99,1.04 2.36,1.67 3.9,1.67 1.48,0 2.85,-0.65 3.84,-1.7 0.99,-1.06 1.61,-2.52 1.61,-4.12zm-0.88 -4.83c1.17,1.23 1.9,2.94 1.9,4.83 0,1.87 -0.73,3.57 -1.89,4.81 -1.18,1.25 -2.81,2.03 -4.58,2.03 -1.83,0 -3.46,-0.76 -4.63,-2 -1.18,-1.23 -1.89,-2.94 -1.89,-4.84 0,-1.89 0.72,-3.59 1.88,-4.83 1.17,-1.25 2.79,-2.02 4.58,-2.02 1.8,0 3.44,0.77 4.63,2.02zm-12.61 4.83c0,-2.23 0.88,-4.3 2.36,-5.8 1.42,-1.45 3.4,-2.36 5.68,-2.36 2.27,0 4.24,0.9 5.66,2.35 1.46,1.49 2.32,3.56 2.32,5.81 0,2.22 -0.88,4.29 -2.35,5.79 -1.43,1.45 -3.41,2.36 -5.69,2.36 -2.27,0 -4.24,-0.9 -5.65,-2.35 -1.46,-1.49 -2.33,-3.56 -2.33,-5.8zm3.08 -5.09c-1.3,1.31 -2.07,3.13 -2.07,5.09 0,1.97 0.76,3.79 2.04,5.09 1.23,1.27 2.95,2.05 4.93,2.05 2,0 3.73,-0.79 4.97,-2.05 1.29,-1.32 2.06,-3.14 2.06,-5.09 0,-1.98 -0.76,-3.8 -2.03,-5.1 -1.23,-1.26 -2.95,-2.05 -4.94,-2.05 -1.99,0 -3.72,0.8 -4.96,2.06zm-18.87 -2.73l1.96 0 5.2 12.26 5.25 -12.26 2.69 0 -7.02 15.75 -1.85 0 -7.01 -15.75 0.78 0zm1.3 1.01l-0.53 0 6.12 13.72 0.22 0 -5.81 -13.72zm6.32 12.74l-0.42 0.98 0.23 0 6.11 -13.72 -0.46 0 -5.46 12.74zm-11.62 -5.93c0,-1.63 -0.63,-3.08 -1.62,-4.13 -1,-1.06 -2.39,-1.7 -3.9,-1.7 -1.5,0 -2.86,0.64 -3.84,1.69 -0.99,1.06 -1.61,2.52 -1.61,4.14 0,1.63 0.61,3.1 1.61,4.15 0.99,1.04 2.36,1.67 3.9,1.67 1.48,0 2.85,-0.65 3.84,-1.71 0.99,-1.05 1.62,-2.51 1.62,-4.11zm-0.89 -4.83c1.17,1.23 1.9,2.94 1.9,4.83 0,1.87 -0.73,3.57 -1.89,4.81 -1.18,1.25 -2.81,2.03 -4.58,2.03 -1.83,0 -3.46,-0.76 -4.63,-2 -1.18,-1.23 -1.89,-2.94 -1.89,-4.84 0,-1.89 0.72,-3.59 1.88,-4.83 1.17,-1.25 2.79,-2.02 4.58,-2.02 1.8,0 3.44,0.77 4.63,2.02zm-12.61 4.83c0,-2.23 0.88,-4.3 2.36,-5.8 1.42,-1.45 3.4,-2.36 5.68,-2.36 2.27,0 4.24,0.9 5.66,2.35 1.45,1.49 2.32,3.56 2.32,5.81 0,2.22 -0.88,4.29 -2.35,5.79 -1.43,1.45 -3.41,2.36 -5.69,2.36 -2.27,0 -4.24,-0.9 -5.66,-2.35 -1.45,-1.49 -2.32,-3.56 -2.32,-5.8zm3.08 -5.09c-1.3,1.31 -2.07,3.13 -2.07,5.09 0,1.97 0.76,3.79 2.04,5.09 1.23,1.27 2.95,2.05 4.93,2.05 2,0 3.72,-0.79 4.97,-2.05 1.29,-1.32 2.06,-3.14 2.06,-5.09 0,-1.98 -0.76,-3.8 -2.03,-5.1 -1.23,-1.26 -2.95,-2.05 -4.94,-2.05 -1.99,0 -3.72,0.79 -4.96,2.06zm-37.85 -20.41l-1.81 0 0 35.68 1.6 0 0 -33.55 26.58 33.55 1.29 0 0 -35.68 -1.61 0 0 32.87 -26.05 -32.87z"/>
  <path class="fil0" d="M53.14 27.05c0,-3.53 -2.72,-6.34 -6.02,-6.34 -3.29,0 -5.95,2.84 -5.95,6.34 0,3.52 2.63,6.33 6.01,6.33 3.24,0 5.96,-2.84 5.96,-6.33zm-13.5 0c0,-4.1 3.18,-7.66 7.54,-7.66 4.33,0 7.47,3.5 7.47,7.66 0,4.1 -3.17,7.65 -7.53,7.65 -4.32,0 -7.48,-3.5 -7.48,-7.65z"/>
  <polygon class="fil0" points="56.64,19.73 58.27,19.73 63.8,32.78 69.39,19.73 70.96,19.73 64.4,34.47 63.2,34.47 "/>
  <path class="fil0" d="M86.43 27.05c0,-3.53 -2.72,-6.34 -6.02,-6.34 -3.29,0 -5.95,2.84 -5.95,6.34 0,3.52 2.63,6.33 6.01,6.33 3.24,0 5.96,-2.84 5.96,-6.33zm-13.49 0c0,-4.1 3.18,-7.66 7.53,-7.66 4.33,0 7.48,3.5 7.48,7.66 0,4.1 -3.18,7.65 -7.54,7.65 -4.32,0 -7.47,-3.5 -7.47,-7.65z"/>
  <polygon class="fil1" points="96.39,2.45 99.12,2.45 99.12,42.34 217.2,42.34 217.2,44.85 96.39,44.85 "/>
  <path class="fil0" d="M145.84 31.87l1.78 -2.05c4.03,3.73 7.76,5.45 13.14,5.45 5.51,0 9.28,-3.09 9.28,-7.39 0,-3.88 -2.04,-6.13 -10.37,-7.81 -8.8,-1.78 -12.36,-4.77 -12.36,-10.43 0,-5.45 4.98,-9.64 11.78,-9.64 5.34,0 8.85,1.47 12.57,4.46l-1.73 2.14c-3.45,-2.98 -6.91,-4.14 -10.94,-4.14 -5.4,0 -8.96,3.09 -8.96,7.03 0,3.88 1.99,6.23 10.69,8.01 8.48,1.73 12.05,4.77 12.05,10.22 0,5.93 -5.09,10.02 -12.16,10.02 -5.86,0 -10.37,-1.94 -14.77,-5.87z"/>
  <path class="fil0" d="M119.61 24.51l-2.5 0 9.69 -21.23 9.64 21.23 -16.83 0zm8.56 -24.21l-2.63 0 -11.18 24.21 -4.55 0 0 2.46 3.41 0 -4.75 10.27 2.83 0 4.66 -10.27 3.65 0 17.98 0 4.66 10.27 2.99 0 -17.07 -36.94z"/>
  <polygon class="fil0" points="181,34.7 181,25.13 186.93,25.13 202.01,25.13 202.01,22.61 181,22.61 181,3.04 204.36,3.04 204.36,0.52 178.27,0.52 178.27,22.61 174.85,22.61 174.85,25.13 178.27,25.13 178.27,37.21 204.62,37.21 204.62,34.7 "/>
  <path class="fil1" d="M225.64 26.33l4.5 0c4.07,0 7.5,-1.4 9.91,-4.04 2.14,-2.35 3.32,-5.5 3.32,-8.86 0,-3.37 -1.18,-6.52 -3.32,-8.86 -2.41,-2.65 -5.84,-4.05 -9.91,-4.05l-15.1 0 0 44.33 2.55 0 0 -41.72 12.55 0c7.34,0 10.67,5.36 10.67,10.33 0,2.71 -0.94,5.24 -2.65,7.1 -1.93,2.11 -4.7,3.22 -8.02,3.22l-8.85 0 0 2.09 19.27 17.42 1.72 1.56 3.83 0 -20.47 -18.52z"/>
  <path class="fil0" d="M7.82 62.23c-0.75,0.42 -1.62,0.66 -2.56,0.66 -1.51,0 -2.82,-0.57 -3.74,-1.49 -0.96,-0.95 -1.52,-2.27 -1.52,-3.73 0,-1.47 0.56,-2.79 1.52,-3.73 0.92,-0.93 2.23,-1.49 3.74,-1.49 0.92,0 1.79,0.23 2.53,0.65 0.76,0.42 1.39,1.04 1.81,1.78l0.1 0.17 -0.99 0.57 -0.1 -0.17c-0.3,-0.58 -0.78,-1.06 -1.37,-1.39 -0.57,-0.33 -1.26,-0.52 -1.98,-0.52 -1.21,0 -2.23,0.45 -2.95,1.17 -0.75,0.75 -1.19,1.79 -1.19,2.96 0,1.16 0.44,2.21 1.19,2.96 0.72,0.72 1.74,1.16 2.95,1.16 0.73,0 1.42,-0.19 2,-0.52 0.59,-0.34 1.08,-0.83 1.38,-1.42l0.09 -0.18 1 0.57 -0.1 0.17c-0.42,0.76 -1.05,1.38 -1.81,1.82zm4.32 -4.06l0 3.48 4.87 0 0 1.09 -6 0 0 -10.14 5.93 0 0 1.08 -4.8 0 0 3.4 4.45 0 0 1.09 -4.45 0zm5.6 -5.57l7.07 0 0 1.08 -3.07 0 0 9.06 -1.13 0 0 -9.06 -3.07 0 0 -1.08 0.2 0zm9.34 3.72l2.38 0c0.93,0 1.73,0.34 2.31,0.91 0.57,0.57 0.92,1.38 0.92,2.29 0,0.92 -0.35,1.72 -0.92,2.3 -0.58,0.57 -1.38,0.92 -2.31,0.92l-3.51 0 0 -10.14 1.13 0 0 3.72zm0 5.33l2.38 0c0.61,0 1.14,-0.22 1.51,-0.59 0.37,-0.38 0.59,-0.92 0.59,-1.54 0,-0.62 -0.22,-1.15 -0.59,-1.52 -0.37,-0.38 -0.9,-0.6 -1.51,-0.6l-2.38 0 0 4.25zm12.78 -4.12l4.99 4.94 0 -0.8 0.21 0.03c0.57,0.07 1.04,-0.07 1.35,-0.54 0.35,-0.5 0.54,-1.37 0.54,-2.75l0 -5.81 6.55 0 0 10.14 -1.13 0 0 -9.06 -4.3 0 0 4.74c0,1.67 -0.27,2.78 -0.78,3.45 -0.53,0.71 -1.3,0.95 -2.26,0.87l-1.45 0 -4.61 -4.54 0 4.54 -1.13 0 0 -10.14 1.13 0 0 4.28 4.48 -4.28 1.54 0 -5.13 4.93zm23 5.21l-0.93 0 0 -7.96 -5.47 7.96 -0.93 0 0 -10.14 1.12 0 0 7.96 5.46 -7.96 0.94 0 0 10.14 -0.19 0zm8.64 -5.75l0 -4.39 1.12 0 0 10.14 -1.12 0 0 -4.67 -5.28 0 0 4.67 -1.13 0 0 -10.14 1.13 0 0 4.39 5.28 0zm10.49 5.75l-0.93 0 0 -7.96 -5.47 7.96 -0.93 0 0 -10.14 1.12 0 0 7.96 5.46 -7.96 0.95 0 0 10.14 -0.2 0zm4.25 -5.21l5.26 5.21 -1.54 0 -4.61 -4.54 0 4.54 -1.13 0 0 -10.14 1.13 0 0 4.28 4.47 -4.28 1.55 0 -5.13 4.93zm11.14 4.34c-0.53,0.71 -1.3,0.95 -2.26,0.87l-0.18 -0.02 0 -1.05 0.22 0.03c0.57,0.07 1.03,-0.07 1.35,-0.54 0.34,-0.5 0.54,-1.37 0.54,-2.75l0 -5.81 6.55 0 0 10.14 -1.14 0 0 -9.06 -4.29 0 0 4.74c0,1.67 -0.28,2.78 -0.79,3.45zm15.77 0.87l-0.91 0 -0.95 -2.48 -4.62 0 -0.94 2.48 -1.2 0 3.94 -10.14 1.04 0c1.3,3.38 2.61,6.76 3.92,10.14l-0.28 0zm-4.16 -8.5l-1.89 4.93 3.78 0 -1.89 -4.93zm10.99 2.47c-0.2,0.3 -0.46,0.56 -0.78,0.77 0.43,0.2 0.78,0.49 1.04,0.84 0.33,0.46 0.51,1.01 0.51,1.63 0,0.86 -0.35,1.61 -0.98,2.14 -0.6,0.5 -1.45,0.8 -2.5,0.8 -0.93,0 -1.66,-0.22 -2.23,-0.58 -0.65,-0.42 -1.07,-1.03 -1.3,-1.7l-0.06 -0.15 1 -0.54 0.06 0.23c0.14,0.48 0.41,0.93 0.87,1.23 0.4,0.26 0.94,0.43 1.66,0.43 0.75,0 1.33,-0.19 1.72,-0.51 0.41,-0.33 0.63,-0.8 0.63,-1.35 0,-0.53 -0.2,-1 -0.57,-1.33 -0.36,-0.32 -0.87,-0.51 -1.52,-0.51l-1.3 0 0 -1.08 0.97 0c0.64,0 1.15,-0.18 1.51,-0.49 0.36,-0.31 0.56,-0.75 0.56,-1.25 0,-0.51 -0.21,-0.96 -0.56,-1.27 -0.36,-0.31 -0.87,-0.49 -1.49,-0.49 -0.62,0 -1.1,0.14 -1.46,0.37 -0.42,0.27 -0.7,0.66 -0.87,1.11l-0.08 0.2 -0.95 -0.54 0.06 -0.16c0.26,-0.62 0.67,-1.16 1.27,-1.54 0.53,-0.33 1.2,-0.52 2.03,-0.52 0.93,0 1.71,0.29 2.26,0.79 0.58,0.51 0.91,1.23 0.91,2.05 0,0.52 -0.14,1.01 -0.41,1.42zm3.28 1.46l0 3.48 4.87 0 0 1.09 -5.99 0 0 -10.14 5.92 0 0 1.08 -4.8 0 0 3.4 4.45 0 0 1.09 -4.45 0zm6.49 -5.57l3.31 0c0.93,0 1.74,0.34 2.31,0.91 0.58,0.58 0.92,1.39 0.92,2.3 0,0.92 -0.34,1.72 -0.92,2.29 -0.58,0.57 -1.38,0.92 -2.31,0.92l-2.38 0 0 3.72 -1.12 0 0 -10.14 0.19 0zm0.93 5.33l2.38 0c0.62,0 1.14,-0.22 1.52,-0.59 0.37,-0.38 0.59,-0.91 0.59,-1.53 0,-0.62 -0.22,-1.15 -0.59,-1.53 -0.37,-0.38 -0.9,-0.6 -1.52,-0.6l-2.38 0 0 4.25zm13.45 -0.94l0 -4.39 1.13 0 0 10.14 -1.13 0 0 -4.67 -5.28 0 0 4.67 -1.12 0 0 -10.14 1.12 0 0 4.39 5.28 0zm11.52 4.38c-0.93,0.94 -2.24,1.52 -3.69,1.52 -1.46,0 -2.76,-0.58 -3.7,-1.52 -0.94,-0.94 -1.52,-2.25 -1.52,-3.7 0,-1.45 0.58,-2.76 1.52,-3.7 0.94,-0.94 2.24,-1.52 3.7,-1.52 1.45,0 2.76,0.58 3.69,1.51 0.95,0.95 1.53,2.26 1.53,3.71 0,1.45 -0.58,2.76 -1.53,3.7zm-6.6 -0.77c0.74,0.74 1.76,1.19 2.91,1.19 1.15,0 2.17,-0.45 2.9,-1.19 0.74,-0.75 1.19,-1.78 1.19,-2.93 0,-1.15 -0.45,-2.19 -1.19,-2.93 -0.73,-0.74 -1.75,-1.2 -2.9,-1.2 -1.15,0 -2.17,0.46 -2.91,1.2 -0.74,0.74 -1.19,1.78 -1.19,2.93 0,1.15 0.45,2.18 1.19,2.93zm15.12 -8.83l-3.72 0 0 -1 3.91 0 0 1 -0.19 0zm1.82 10.97l-0.93 0 0 -7.96 -5.47 7.96 -0.93 0 0 -10.14 1.12 0 0 7.96 5.46 -7.96 0.95 0 0 10.14 -0.2 0zm7.13 -9.64c0.75,-0.42 1.62,-0.65 2.54,-0.65 1.51,0 2.8,0.56 3.71,1.48 0.95,0.95 1.5,2.27 1.5,3.74 0,1.46 -0.55,2.79 -1.5,3.74 -0.91,0.91 -2.2,1.48 -3.71,1.48 -0.93,0 -1.81,-0.24 -2.56,-0.67 -0.77,-0.43 -1.4,-1.06 -1.82,-1.81l-0.09 -0.17 1.01 -0.57 0.09 0.18c0.3,0.59 0.79,1.08 1.38,1.42 0.57,0.33 1.26,0.52 1.99,0.52 1.14,0 2.11,-0.39 2.81,-1.05 0.69,-0.64 1.13,-1.53 1.25,-2.53l-5.48 0 0 -1.08 5.48 0c-0.12,-1.01 -0.56,-1.9 -1.25,-2.53 -0.7,-0.66 -1.67,-1.06 -2.81,-1.06 -0.72,0 -1.4,0.19 -1.97,0.52 -0.59,0.33 -1.08,0.81 -1.39,1.39l-0.09 0.17 -0.99 -0.57 0.09 -0.17c0.43,-0.74 1.06,-1.36 1.81,-1.78zm9.43 -0.5l7.15 0 0 10.14 -1.14 0 0 -9.06 -5.08 0 0 9.06 -1.13 0 0 -10.14 0.2 0zm16.51 10.14l-0.93 0 0 -7.96 -5.47 7.96 -0.94 0 0 -10.14 1.13 0 0 7.96 5.45 -7.96 0.95 0 0 10.14 -0.19 0zm3.71 -0.87c-0.53,0.71 -1.3,0.95 -2.26,0.87l-0.18 -0.02 0 -1.05 0.21 0.03c0.57,0.07 1.04,-0.07 1.36,-0.54 0.34,-0.5 0.53,-1.37 0.53,-2.75l0 -5.81 6.56 0 0 10.14 -1.14 0 0 -9.06 -4.29 0 0 4.74c0,1.67 -0.28,2.78 -0.79,3.45zm10.88 -9.27l4.05 0 0 10.14 -1.12 0 0 -4 -2.38 0 -2.76 4 -1.3 0 2.81 -4.09c-0.63,-0.14 -1.19,-0.49 -1.6,-0.96 -0.47,-0.54 -0.76,-1.25 -0.76,-2.01 0,-0.85 0.34,-1.62 0.9,-2.18 0.55,-0.56 1.32,-0.9 2.16,-0.9zm-1.37 4.48c0.35,0.35 0.84,0.58 1.37,0.58l2.93 0 0 -3.98 -2.93 0c-0.53,0 -1.02,0.22 -1.37,0.58 -0.35,0.36 -0.57,0.86 -0.57,1.42 0,0.54 0.22,1.04 0.57,1.4zm14.71 -4.29l0 8.86 1.01 0 0 2.95 -1.12 0 0 -1.86 -7.14 0 0 -10.14 1.12 0 0 9.05 5 0 0 -9.05 1.13 0 0 0.19zm9.69 9.95l-0.93 0 0 -7.96 -5.47 7.96 -0.93 0 0 -10.14 1.12 0 0 7.96 5.46 -7.96 0.94 0 0 10.14 -0.19 0zm9.57 0l-0.93 0 0 -7.96 -5.48 7.96 -0.93 0 0 -10.14 1.12 0 0 7.96 5.46 -7.96 0.95 0 0 10.14 -0.19 0z"/>
 </g>
</svg>
