<?xml version="1.0" encoding="utf-8"?>
<svg version="1.1" xmlns="http://www.w3.org/2000/svg" xmlns:xlink="http://www.w3.org/1999/xlink" viewBox="0 0 5067 5067" style="enable-background:new 0 0 5067 5067;" xml:space="preserve">
<style type="text/css">
	.st0{fill-rule:evenodd;clip-rule:evenodd;fill:#FFFFFF;}}
</style>
<g transform="translate(0,2158.55)">
	<path class="st0" d="M746.7,323.6c0,8.2-21.1,25.7-27.6,31.8c-17.9,18.5-77.9,81.1-89.3,89.4c14.6,22.1,116.9,112.5,116.9,123.3
		v182.3h561.7V562.9H935v-95h233.7v-188H935v-92.5h373.3V0H746.7V323.6z"/>
	<polygon class="st0" points="4507,749.9 5067,749.9 5067,562.4 4693.7,562.4 4693.7,467.4 4927.4,467.4 4927.4,279.4 4693.7,279.4 
		4693.7,187 5067,187 5067,-0.5 4507,-0.5 "/>
	<path class="st0" d="M0,750.4h186.7V562.9H375v187.5h186.7V565.5c0-10.8-100.6-99.1-115.2-120.7c14.6-22.1,115.2-110.4,115.2-121.2
		v-131c0-7.7-14.6-19.5-21.1-25.2L396.1,22.6c-4.9-5.6-19.5-22.6-26-22.6H0V750.4z M186.7,187.5H375v187.5H186.7V187.5z"/>
	<path class="st0" d="M3758.6,750.1h186.7V562.7h376.6V-0.3h-563.3V750.1z M3945.3,187.2h188.3v187.5h-188.3V187.2z"/>
	<path class="st0" d="M1493.4,192.6v275.3h375v95h-375v187.5h366.9c9.7,0,110.4-105.8,123.4-118.6c9.7-9.8,71.4-64.2,71.4-74V279.9
		h-375v-92.5h375V0h-366.9c-8.1,0-42.2,38.5-50.3,45.7L1589.2,93C1581.1,100.2,1493.4,184.4,1493.4,192.6z"/>
	<path class="st0" d="M3013.6,189.8v560.4h186.7V562.7h188.3v187.5h185V189.8c0-7.7-16.2-19.5-21.1-25.2L3409.6,22.3
		c-4.9-5.6-19.5-22.6-26-22.6h-180.2c-8.1,0-42.2,38.5-50.3,45.7l-94.1,95C3050.9,147.7,3013.6,182.6,3013.6,189.8z M3200.2,187.2
		h188.3v187.5h-188.3V187.2z"/>
	<polygon class="st0" points="2240.1,749.9 2426.8,749.9 2426.8,467.4 2615.1,467.4 2615.1,749.9 2803.4,749.9 2803.4,-0.5 
		2615.1,-0.5 2615.1,279.4 2426.8,279.4 2426.8,-0.5 2240.1,-0.5 "/>
</g>
</svg>