<svg width="596" height="209" viewBox="0 0 596 209" fill="none" xmlns="http://www.w3.org/2000/svg">
<path d="M169.2 124.61L171.28 125.25C169.05 139.13 159.47 148.39 141.44 148.39C121.01 148.39 101.23 140.09 101.23 104.19C101.23 72.59 123.57 59.83 143.68 59.83C155.33 59.83 164.74 62.86 172.56 69.88L169.69 93.5C160.43 74.03 153.57 61.58 143.68 61.58C133.79 61.58 126.13 67.17 126.13 104.19C126.13 137.86 141.93 141.85 147.51 141.85C157.4 141.84 166.65 138.01 169.2 124.61Z" fill="white"/>
<path d="M256.48 104.18C256.48 128.91 244.83 149.18 217.7 149.18C190.57 149.18 178.92 128.92 178.92 104.18C178.92 79.44 190.57 59.34 217.7 59.34C244.83 59.34 256.48 79.45 256.48 104.18ZM232.86 101.47C227.28 78.01 218.34 59.66 207.65 61.58C196.96 63.49 196.96 83.28 202.55 106.74C208.13 130.2 217.07 148.55 227.76 146.63C238.45 144.71 238.45 124.93 232.86 101.47Z" fill="white"/>
<path d="M332.9 125.72C332.9 145.35 310.56 149.5 301.78 149.5C294.12 149.5 274.97 147.91 261.89 145.67L267.47 116.47C270.34 130.35 291.57 147.59 305.13 147.59C308.48 147.59 311.35 146.48 313.43 144.08C330.5 123.49 263.96 113.92 263.96 85.52C263.96 65.26 283.75 59.83 297.15 59.83C304.97 59.83 315.5 61.11 326.83 63.02L323.32 84.4C318.85 73.55 300.02 63.5 287.74 63.5C284.23 63.5 281.2 64.3 279.28 66.05C260.14 83.92 332.9 99.55 332.9 125.72Z" fill="white"/>
<path d="M406.77 124.61L408.85 125.25C406.62 139.13 397.04 148.39 379.01 148.39C358.58 148.39 338.8 140.09 338.8 104.19C338.8 72.59 361.14 59.83 381.25 59.83C392.9 59.83 402.31 62.86 410.13 69.88L407.26 93.5C398 74.03 391.14 61.58 381.25 61.58C371.36 61.58 363.7 67.17 363.7 104.19C363.7 137.86 379.5 141.85 385.08 141.85C394.97 141.84 404.22 138.01 406.77 124.61Z" fill="white"/>
<path d="M494.05 104.18C494.05 128.91 482.4 149.18 455.27 149.18C428.14 149.18 416.49 128.92 416.49 104.18C416.49 79.44 428.14 59.34 455.27 59.34C482.4 59.34 494.05 79.45 494.05 104.18ZM470.43 101.47C464.85 78.01 455.91 59.66 445.22 61.58C434.53 63.49 434.53 83.28 440.12 106.74C445.7 130.2 454.64 148.55 465.33 146.63C476.02 144.71 476.02 124.93 470.43 101.47Z" fill="white"/>
</svg>
