<svg xmlns="http://www.w3.org/2000/svg" viewBox="0 0 609.75 609.75"><defs><style>.cls-1{fill:#fff;}</style></defs><g id="Layer_2" data-name="Layer 2"><g id="Layer_1-2" data-name="Layer 1"><rect width="609.75" height="609.75"/><polygon class="cls-1" points="161.09 359.09 166.09 359.09 166.09 374.62 168.66 374.62 168.66 359.09 173.67 359.09 173.67 356.72 161.09 356.72 161.09 359.09"/><rect class="cls-1" x="180.24" y="356.72" width="2.57" height="17.9"/><path class="cls-1" d="M201,368.93c-.17.37-.37.88-.61,1.53-.15-.41-.35-.9-.61-1.48l-5.4-12.26h-3.13v17.9h2.5v-11.9c0-.53,0-1,0-1.44l5.89,13.18.07.16H201L207,361.29c0,.51,0,1,0,1.41v11.92h2.56v-17.9h-3Z"/><polygon class="cls-1" points="220.46 366.7 226.73 366.7 226.73 364.33 220.46 364.33 220.46 359.09 227.24 359.09 227.24 356.72 217.88 356.72 217.88 374.62 227.62 374.62 227.62 372.24 220.46 372.24 220.46 366.7"/><polygon class="cls-1" points="237.39 356.72 234.82 356.72 234.82 374.62 244.36 374.62 244.36 372.24 237.39 372.24 237.39 356.72"/><polygon class="cls-1" points="253.45 366.7 259.72 366.7 259.72 364.33 253.45 364.33 253.45 359.09 260.23 359.09 260.23 356.72 250.88 356.72 250.88 374.62 260.61 374.62 260.61 372.24 253.45 372.24 253.45 366.7"/><path class="cls-1" d="M276.61,366.69a8.62,8.62,0,0,0-1.52-1.17c-.55-.33-1.15-.66-1.79-1s-1.13-.57-1.59-.82a7.27,7.27,0,0,1-1.14-.74,2.45,2.45,0,0,1-.66-.8,2.18,2.18,0,0,1-.22-1,1.86,1.86,0,0,1,.28-1.06,2.41,2.41,0,0,1,.76-.73,3.2,3.2,0,0,1,1.11-.42,6.1,6.1,0,0,1,1.27-.14,6.61,6.61,0,0,1,3.8,1l.42.29v-3l-.15-.08a8.71,8.71,0,0,0-3.86-.64,9.19,9.19,0,0,0-2.28.28,6.66,6.66,0,0,0-2,.89,4.61,4.61,0,0,0-1.45,1.53,4.28,4.28,0,0,0-.56,2.2,4.22,4.22,0,0,0,.36,1.8,4.5,4.5,0,0,0,1,1.37,7.17,7.17,0,0,0,1.42,1.08c.52.32,1.09.63,1.71.94l1.6.83a7.7,7.7,0,0,1,1.25.8,3.38,3.38,0,0,1,.79.87,2.12,2.12,0,0,1,.27,1.09,2.1,2.1,0,0,1-.82,1.79,4.48,4.48,0,0,1-2.64.64,7,7,0,0,1-1.15-.1,9.31,9.31,0,0,1-1.24-.3,8,8,0,0,1-1.17-.48,4.68,4.68,0,0,1-.93-.61l-.44-.4v3.14l.11.08a4.41,4.41,0,0,0,1,.45,11,11,0,0,0,1.23.32c.41.09.84.15,1.26.2s.76.07,1,.07a11.06,11.06,0,0,0,2.41-.26,6.07,6.07,0,0,0,2.05-.84,4.37,4.37,0,0,0,1.45-1.54,4.71,4.71,0,0,0,.53-2.3,4.15,4.15,0,0,0-.39-1.84A5.22,5.22,0,0,0,276.61,366.69Z"/><path class="cls-1" d="M294.17,366.69a8.62,8.62,0,0,0-1.52-1.17c-.55-.33-1.15-.66-1.78-1s-1.14-.57-1.6-.82a7.27,7.27,0,0,1-1.14-.74,2.59,2.59,0,0,1-.66-.8,2.18,2.18,0,0,1-.22-1,1.86,1.86,0,0,1,.28-1.06,2.41,2.41,0,0,1,.76-.73,3.37,3.37,0,0,1,1.11-.42,6.1,6.1,0,0,1,1.27-.14,6.61,6.61,0,0,1,3.8,1l.42.29v-3l-.14-.08a8.76,8.76,0,0,0-3.87-.64,9.19,9.19,0,0,0-2.28.28,6.66,6.66,0,0,0-2,.89,4.71,4.71,0,0,0-1.45,1.53,4.28,4.28,0,0,0-.56,2.2,4.22,4.22,0,0,0,.36,1.8,4.5,4.5,0,0,0,1,1.37,7.17,7.17,0,0,0,1.42,1.08c.52.32,1.09.63,1.71.94l1.6.83a7.7,7.7,0,0,1,1.25.8,3.38,3.38,0,0,1,.79.87,2.12,2.12,0,0,1,.27,1.09,2.1,2.1,0,0,1-.82,1.79,4.48,4.48,0,0,1-2.64.64,6.77,6.77,0,0,1-1.14-.1,9.09,9.09,0,0,1-1.25-.3,8,8,0,0,1-1.17-.48,4.68,4.68,0,0,1-.93-.61l-.44-.4v3.14l.12.08a4.11,4.11,0,0,0,1,.45,11,11,0,0,0,1.23.32c.42.09.84.15,1.26.2s.76.07,1,.07a11.06,11.06,0,0,0,2.41-.26,6.2,6.2,0,0,0,2.06-.84,4.43,4.43,0,0,0,1.44-1.54,4.71,4.71,0,0,0,.54-2.3,4.15,4.15,0,0,0-.4-1.84A5.22,5.22,0,0,0,294.17,366.69Z"/><path class="cls-1" d="M322.1,356.43a8.83,8.83,0,0,0-6.55,2.64A9.56,9.56,0,0,0,313,366a9.16,9.16,0,0,0,2.3,6.45,8,8,0,0,0,6.13,2.47,10.56,10.56,0,0,0,4.92-1.05l.14-.08v-2.61l-.4.25a8.4,8.4,0,0,1-4.39,1.12,5.64,5.64,0,0,1-4.36-1.8,6.89,6.89,0,0,1-1.67-4.87,7.25,7.25,0,0,1,1.79-5.15,6.08,6.08,0,0,1,4.65-1.92,8,8,0,0,1,4,1l.4.22v-2.8l-.16-.07A10.47,10.47,0,0,0,322.1,356.43Z"/><polygon class="cls-1" points="336.42 356.72 333.85 356.72 333.85 374.62 343.39 374.62 343.39 372.24 336.42 372.24 336.42 356.72"/><path class="cls-1" d="M355.36,356.72l-6.87,17.9h2.85l1.73-4.87h7l1.84,4.87h2.83l-6.89-17.9Zm1.19,3.5s0,.09.05.13l2.59,7h-5.25l2.57-7Z"/><path class="cls-1" d="M379.8,366.69a8.19,8.19,0,0,0-1.51-1.17c-.55-.33-1.15-.66-1.79-1s-1.13-.57-1.59-.82a7.27,7.27,0,0,1-1.14-.74,2.45,2.45,0,0,1-.66-.8,2.18,2.18,0,0,1-.22-1,1.86,1.86,0,0,1,.28-1.06,2.31,2.31,0,0,1,.76-.73,3.23,3.23,0,0,1,1.1-.42,6.27,6.27,0,0,1,1.28-.14,6.58,6.58,0,0,1,3.79,1l.43.29v-3l-.15-.08a8.71,8.71,0,0,0-3.86-.64,9.19,9.19,0,0,0-2.28.28,6.55,6.55,0,0,0-2,.89,4.61,4.61,0,0,0-1.45,1.53,4.28,4.28,0,0,0-.56,2.2,4.22,4.22,0,0,0,.36,1.8,4.5,4.5,0,0,0,1,1.37,7.17,7.17,0,0,0,1.42,1.08c.52.32,1.09.63,1.71.94l1.6.83a7.7,7.7,0,0,1,1.25.8,3.16,3.16,0,0,1,.78.87,2.13,2.13,0,0,1,.28,1.09,2.1,2.1,0,0,1-.82,1.79,4.5,4.5,0,0,1-2.65.64,7,7,0,0,1-1.14-.1,9.31,9.31,0,0,1-1.24-.3,7.55,7.55,0,0,1-1.17-.48,4.68,4.68,0,0,1-.93-.61l-.44-.4v3.14l.11.08a4.2,4.2,0,0,0,1,.45,11.46,11.46,0,0,0,1.22.32c.42.09.85.15,1.26.2s.77.07,1.05.07a11.06,11.06,0,0,0,2.41-.26,6.07,6.07,0,0,0,2-.84,4.37,4.37,0,0,0,1.45-1.54,4.71,4.71,0,0,0,.53-2.3,4.15,4.15,0,0,0-.39-1.84A5.26,5.26,0,0,0,379.8,366.69Z"/><path class="cls-1" d="M397.37,366.69a8.62,8.62,0,0,0-1.52-1.17c-.55-.33-1.15-.66-1.79-1s-1.13-.57-1.59-.82a7.27,7.27,0,0,1-1.14-.74,2.45,2.45,0,0,1-.66-.8,2.18,2.18,0,0,1-.22-1,1.86,1.86,0,0,1,.28-1.06,2.41,2.41,0,0,1,.76-.73,3.23,3.23,0,0,1,1.1-.42,6.27,6.27,0,0,1,1.28-.14,6.63,6.63,0,0,1,3.8,1l.42.29v-3l-.15-.08a8.71,8.71,0,0,0-3.86-.64,9.19,9.19,0,0,0-2.28.28,6.55,6.55,0,0,0-2,.89,4.61,4.61,0,0,0-1.45,1.53,4.28,4.28,0,0,0-.56,2.2,4.22,4.22,0,0,0,.36,1.8,4.5,4.5,0,0,0,1,1.37,7.17,7.17,0,0,0,1.42,1.08c.52.32,1.09.63,1.71.94l1.6.83a7.7,7.7,0,0,1,1.25.8,3.16,3.16,0,0,1,.78.87,2,2,0,0,1,.28,1.09,2.1,2.1,0,0,1-.82,1.79,4.48,4.48,0,0,1-2.64.64,7,7,0,0,1-1.15-.1,9.31,9.31,0,0,1-1.24-.3,8,8,0,0,1-1.17-.48,4.68,4.68,0,0,1-.93-.61l-.44-.4v3.14l.11.08a4.41,4.41,0,0,0,1,.45,11,11,0,0,0,1.23.32c.41.09.84.15,1.25.2s.77.07,1.05.07a11.06,11.06,0,0,0,2.41-.26,6.07,6.07,0,0,0,2.05-.84,4.37,4.37,0,0,0,1.45-1.54,4.71,4.71,0,0,0,.53-2.3,4.15,4.15,0,0,0-.39-1.84A5.22,5.22,0,0,0,397.37,366.69Z"/><rect class="cls-1" x="406.13" y="356.72" width="2.57" height="17.9"/><path class="cls-1" d="M425.08,358.8a8.08,8.08,0,0,1,4,1l.4.22v-2.8l-.16-.07a10.51,10.51,0,0,0-4.2-.73,8.82,8.82,0,0,0-6.55,2.64A9.56,9.56,0,0,0,416,366a9.11,9.11,0,0,0,2.3,6.45,8,8,0,0,0,6.13,2.47,10.59,10.59,0,0,0,4.92-1.05l.14-.08v-2.61l-.41.25a8.38,8.38,0,0,1-4.39,1.12,5.66,5.66,0,0,1-4.36-1.8,6.93,6.93,0,0,1-1.66-4.87,7.29,7.29,0,0,1,1.78-5.15A6.09,6.09,0,0,1,425.08,358.8Z"/><path class="cls-1" d="M353.88,313.49l17.25-44.88c.7.05,1.44.08,2.24.08h1.95c.28,0,.78,0,1.5,0s1.53,0,2.41,0,1.69,0,2.41,0l1.5,0a6.93,6.93,0,0,1,0,1.44h-.07a26.14,26.14,0,0,0-3.42.5,1.63,1.63,0,0,0-1.29,1.1,10.91,10.91,0,0,0-.25,2.82l.63,41.08a13.42,13.42,0,0,0,.39,3.27,1.91,1.91,0,0,0,1.46,1.3,24.53,24.53,0,0,0,3.6.53,8.77,8.77,0,0,1,0,1.45c-.28,0-.8,0-1.57,0s-1.62,0-2.55,0-1.78,0-2.55,0-1.29,0-1.57,0-.78,0-1.5,0-1.52,0-2.38,0-1.66,0-2.41,0-1.25,0-1.53,0a7,7,0,0,1,0-1.45,27.74,27.74,0,0,0,3.38-.49,1.81,1.81,0,0,0,1.4-1.15,8.15,8.15,0,0,0,.25-2.78l-.63-44.58-19.2,50.3a4.46,4.46,0,0,1-1.09.23,12.75,12.75,0,0,1-1.29.07L332.8,272.8l-1.26,43.36a8.83,8.83,0,0,0,.17,2.63,1.74,1.74,0,0,0,1.33,1.1,30.66,30.66,0,0,0,3.46.69,8.77,8.77,0,0,1,0,1.45c-.33,0-.93,0-1.82,0l-2.62-.07c-.86,0-1.48,0-1.85,0l-1.81,0-2.94.07-1.88,0a7,7,0,0,1,0-1.45,21.21,21.21,0,0,0,3.52-.65,2.08,2.08,0,0,0,1.44-1.33,11.51,11.51,0,0,0,.42-3.12l1.39-41.08a8.72,8.72,0,0,0-.21-2.82,1.75,1.75,0,0,0-1.39-1.1,29.69,29.69,0,0,0-3.64-.5,8.65,8.65,0,0,1,0-1.44c1.17,0,2.4,0,3.71.07s2.67.08,4.12.08h2c.84,0,1.61,0,2.3-.08Z"/><path class="cls-1" d="M390.25,268.75c1.12,0,2.54,0,4.27.07s3.12.08,4.19.08,2.48,0,4.23-.08,3.19-.07,4.3-.07a6.74,6.74,0,0,1,0,1.42,29,29,0,0,0-3.65.49,1.8,1.8,0,0,0-1.45,1.08,8.66,8.66,0,0,0-.31,2.78v26.9q0,8.77,3.93,13.31t11.47,4.53q7.92,0,11.92-4.95t4-14.46V275.79a14.83,14.83,0,0,0-.3-3.6,2,2,0,0,0-1.53-1.38,22.67,22.67,0,0,0-4-.56,5.7,5.7,0,0,1,0-1.43c1,0,2.24,0,3.69,0s2.6,0,3.47,0,2.05,0,3.43,0,2.56,0,3.58,0a6.83,6.83,0,0,1,0,1.43,24,24,0,0,0-3.74.52,1.88,1.88,0,0,0-1.44,1.2,10.82,10.82,0,0,0-.31,3.15V301q0,9.67-5,15.44t-15.32,5.77q-9.06,0-14.51-4.87t-5.45-14.24V275.19a13.43,13.43,0,0,0-.27-3.22,1.79,1.79,0,0,0-1.41-1.27,25,25,0,0,0-3.81-.53A6.74,6.74,0,0,1,390.25,268.75Z"/><path class="cls-1" d="M526,322.18a6.44,6.44,0,0,1,0-1.52,23.29,23.29,0,0,0,3.77-.57,3.36,3.36,0,0,0,2-1.6,23.75,23.75,0,0,0,1.75-4.07L550.45,269a7.06,7.06,0,0,1,1.48-.34,10.74,10.74,0,0,1,1.41-.11l17.07,46.38a28.6,28.6,0,0,0,1.64,3.8,2.9,2.9,0,0,0,1.87,1.45,27.15,27.15,0,0,0,3.81.53,7.72,7.72,0,0,1,0,1.52c-1.33,0-2.81,0-4.46-.08s-3.16-.07-4.54-.07-2.75,0-4,.07-2.58.08-4,.08a7.72,7.72,0,0,1,0-1.52,22.07,22.07,0,0,0,3.55-.49,1.23,1.23,0,0,0,.87-1.34,3.89,3.89,0,0,0-.15-.95c-.1-.38-.25-.84-.46-1.4l-5.26-14.68H541.15l-4.95,13.84a10,10,0,0,0-.77,3,1.43,1.43,0,0,0,1.15,1.52,24.56,24.56,0,0,0,3.73.53,7.72,7.72,0,0,1,0,1.52c-1.27,0-2.5,0-3.69-.08s-2.43-.07-3.7-.07c-1,0-2.15,0-3.39.07S527.1,322.18,526,322.18Zm16-22.74h16.38l-8.23-22.88Z"/><path class="cls-1" d="M461.3,320.16a2,2,0,0,1-1.69-1.3,11.35,11.35,0,0,1-.34-3.31v-5.34h-.07V268.8h0c-1.5,0-2.63,0-3.38,0s-1.74,0-3,0l-3.72-.08-3.08,0a6.44,6.44,0,0,0,0,1.52,28.29,28.29,0,0,1,4.29.46A2.11,2.11,0,0,1,452,272a11.07,11.07,0,0,1,.34,3.28v41a9.61,9.61,0,0,1-.3,2.85,1.86,1.86,0,0,1-1.65,1.11c-.89.15-2.35.3-4.37.46a6.44,6.44,0,0,0,0,1.52c.81,0,1.82,0,3,0l3.68-.07c1.24,0,2.24,0,3,0s1.83,0,3.07,0l3.81.07c1.3,0,2.35,0,3.16,0a6.44,6.44,0,0,0,0-1.52A42.7,42.7,0,0,1,461.3,320.16Z"/><path class="cls-1" d="M498.4,320.66a42,42,0,0,1-4.42-.57,6.77,6.77,0,0,1-3-1.53,23.3,23.3,0,0,1-3.37-3.92c-1.22-1.68-2.56-3.49-4-5.45s-2.86-3.77-4.15-5.45-2.3-2.9-3-3.66a18.4,18.4,0,0,0-2.47-2.32,11.47,11.47,0,0,0-2.29-1.33v-.23a24.35,24.35,0,0,0,10.21-5.26,11.86,11.86,0,0,0,3.81-9.15,10.85,10.85,0,0,0-2.64-7.66,15.25,15.25,0,0,0-6.88-4.15,31.43,31.43,0,0,0-9.18-1.29h-1.59v2.23c4,.16,7.14,1.15,9.3,3q3.54,3,3.55,8.72,0,6.4-4.2,9.41a17.14,17.14,0,0,1-8.65,2.9v3a7,7,0,0,1,1.77,1,15.47,15.47,0,0,1,2.59,2.67c1.16,1.37,2.47,3,3.94,5s3,4,4.46,6,2.86,3.9,4.07,5.6,2.13,3,2.77,4c.63,0,1.27,0,1.9,0s1.3,0,2,0,1.55,0,2.73,0l3.68.07c1.27,0,2.31,0,3.12,0A7.72,7.72,0,0,0,498.4,320.66Z"/><path class="cls-1" d="M528.71,320.66a41.37,41.37,0,0,1-4.41-.57,6.72,6.72,0,0,1-3-1.53,23.26,23.26,0,0,1-3.38-3.92c-1.21-1.68-2.55-3.49-4-5.45s-2.85-3.77-4.15-5.45-2.29-2.9-3-3.66a17.82,17.82,0,0,0-2.46-2.32,11.54,11.54,0,0,0-2.3-1.33v-.23a24.4,24.4,0,0,0,10.22-5.26,11.86,11.86,0,0,0,3.81-9.15,10.86,10.86,0,0,0-2.65-7.66,15.25,15.25,0,0,0-6.88-4.15,31.36,31.36,0,0,0-9.17-1.29h-1.6v2.23c4,.16,7.14,1.15,9.3,3q3.56,3,3.55,8.72,0,6.4-4.2,9.41a17.14,17.14,0,0,1-8.65,2.9v3a7,7,0,0,1,1.77,1,15.84,15.84,0,0,1,2.6,2.67c1.15,1.37,2.46,3,3.94,5s2.95,4,4.45,6,2.86,3.9,4.07,5.6,2.14,3,2.77,4c.64,0,1.27,0,1.91,0s1.3,0,2,0,1.54,0,2.73,0l3.67.07c1.27,0,2.31,0,3.12,0A6.44,6.44,0,0,0,528.71,320.66Z"/><path class="cls-1" d="M68.42,313.49l17.25-44.88c.7.05,1.44.08,2.23.08h2c.28,0,.78,0,1.5,0s1.52,0,2.41,0,1.69,0,2.41,0l1.5,0a6.93,6.93,0,0,1,0,1.44h-.07a26.14,26.14,0,0,0-3.42.5,1.63,1.63,0,0,0-1.29,1.1,10.91,10.91,0,0,0-.25,2.82l.63,41.08a14.07,14.07,0,0,0,.38,3.27,1.93,1.93,0,0,0,1.47,1.3,24.53,24.53,0,0,0,3.6.53,8.77,8.77,0,0,1,0,1.45c-.28,0-.81,0-1.57,0s-1.62,0-2.55,0-1.78,0-2.55,0-1.29,0-1.57,0-.78,0-1.5,0-1.52,0-2.38,0-1.66,0-2.41,0-1.25,0-1.53,0a7,7,0,0,1,0-1.45,27.74,27.74,0,0,0,3.38-.49,1.82,1.82,0,0,0,1.4-1.15,8,8,0,0,0,.24-2.78l-.62-44.58-19.21,50.3a4.25,4.25,0,0,1-1.08.23,12.75,12.75,0,0,1-1.29.07L47.33,272.8l-1.25,43.36a8.83,8.83,0,0,0,.17,2.63,1.73,1.73,0,0,0,1.33,1.1,30.85,30.85,0,0,0,3.45.69A7,7,0,0,1,51,322c-.32,0-.93,0-1.81,0l-2.62-.07c-.86,0-1.48,0-1.85,0l-1.82,0L40,322l-1.88,0a7,7,0,0,1,0-1.45,21.21,21.21,0,0,0,3.52-.65,2.06,2.06,0,0,0,1.43-1.33,10.76,10.76,0,0,0,.42-3.12l1.4-41.08a8.72,8.72,0,0,0-.21-2.82,1.77,1.77,0,0,0-1.4-1.1,29.16,29.16,0,0,0-3.63-.5,8.65,8.65,0,0,1,0-1.44c1.17,0,2.4,0,3.7.07s2.68.08,4.12.08h2c.84,0,1.61,0,2.3-.08Z"/><path class="cls-1" d="M104.79,268.75c1.12,0,2.54,0,4.27.07s3.12.08,4.19.08,2.47,0,4.23-.08,3.18-.07,4.3-.07a6.74,6.74,0,0,1,0,1.42,29.51,29.51,0,0,0-3.66.49,1.8,1.8,0,0,0-1.44,1.08,8.66,8.66,0,0,0-.31,2.78v26.9q0,8.77,3.93,13.31c2.61,3,6.44,4.53,11.46,4.53q7.94,0,11.93-4.95t4-14.46V275.79a14.83,14.83,0,0,0-.3-3.6,2,2,0,0,0-1.53-1.38,22.67,22.67,0,0,0-4-.56,6.83,6.83,0,0,1,0-1.43c1,0,2.25,0,3.7,0s2.6,0,3.47,0,2,0,3.43,0,2.56,0,3.58,0a6.83,6.83,0,0,1,0,1.43,23.78,23.78,0,0,0-3.74.52,1.88,1.88,0,0,0-1.44,1.2,10.82,10.82,0,0,0-.31,3.15V301q0,9.67-4.95,15.44t-15.32,5.77q-9.08,0-14.52-4.87t-5.44-14.24V275.19A13.43,13.43,0,0,0,110,272a1.79,1.79,0,0,0-1.41-1.27,25,25,0,0,0-3.81-.53A6.74,6.74,0,0,1,104.79,268.75Z"/><path class="cls-1" d="M240.52,322.18a7.72,7.72,0,0,1,0-1.52,23.26,23.26,0,0,0,3.78-.57,3.35,3.35,0,0,0,2-1.6,22.84,22.84,0,0,0,1.76-4.07L265,269a7.32,7.32,0,0,1,1.49-.34,10.5,10.5,0,0,1,1.41-.11L285,314.88a27.31,27.31,0,0,0,1.64,3.8,2.9,2.9,0,0,0,1.86,1.45,27.61,27.61,0,0,0,3.81.53,7.72,7.72,0,0,1,0,1.52c-1.32,0-2.8,0-4.45-.08s-3.17-.07-4.54-.07-2.75,0-4,.07-2.58.08-4,.08a7.72,7.72,0,0,1,0-1.52,21.7,21.7,0,0,0,3.54-.49,1.23,1.23,0,0,0,.88-1.34,3.89,3.89,0,0,0-.15-.95c-.1-.38-.26-.84-.46-1.4l-5.26-14.68H255.69l-5,13.84a10.18,10.18,0,0,0-.76,3,1.42,1.42,0,0,0,1.15,1.52,24.56,24.56,0,0,0,3.73.53,7.72,7.72,0,0,1,0,1.52c-1.27,0-2.5,0-3.7-.08s-2.42-.07-3.69-.07c-1,0-2.15,0-3.39.07S241.64,322.18,240.52,322.18Zm16-22.74h16.38l-8.23-22.88Z"/><path class="cls-1" d="M175.84,320.16a2,2,0,0,1-1.69-1.3,11.35,11.35,0,0,1-.34-3.31v-5.34h-.07V268.8h0c-1.5,0-2.63,0-3.38,0s-1.74,0-3,0l-3.73-.08-3.07,0a6.44,6.44,0,0,0,0,1.52,28.29,28.29,0,0,1,4.29.46,2.08,2.08,0,0,1,1.68,1.29,11,11,0,0,1,.35,3.28v41a9.61,9.61,0,0,1-.3,2.85,1.88,1.88,0,0,1-1.65,1.11c-.89.15-2.35.3-4.37.46a6.44,6.44,0,0,0,0,1.52c.81,0,1.82,0,3,0l3.68-.07c1.24,0,2.24,0,3,0s1.83,0,3.07,0l3.81.07c1.3,0,2.35,0,3.16,0a6.44,6.44,0,0,0,0-1.52A42.36,42.36,0,0,1,175.84,320.16Z"/><path class="cls-1" d="M212.94,320.66a42,42,0,0,1-4.42-.57,6.72,6.72,0,0,1-3-1.53,23.73,23.73,0,0,1-3.38-3.92c-1.21-1.68-2.55-3.49-4-5.45s-2.86-3.77-4.16-5.45-2.29-2.9-3-3.66a18.4,18.4,0,0,0-2.47-2.32,11.47,11.47,0,0,0-2.29-1.33v-.23a24.35,24.35,0,0,0,10.21-5.26,11.86,11.86,0,0,0,3.81-9.15,10.85,10.85,0,0,0-2.64-7.66,15.3,15.3,0,0,0-6.88-4.15,31.43,31.43,0,0,0-9.18-1.29h-1.6v2.23c4,.16,7.15,1.15,9.3,3q3.56,3,3.55,8.72,0,6.4-4.19,9.41a17.15,17.15,0,0,1-8.66,2.9v3a6.65,6.65,0,0,1,1.77,1,15.46,15.46,0,0,1,2.6,2.67c1.16,1.37,2.47,3,3.94,5s3,4,4.46,6,2.86,3.9,4.07,5.6,2.13,3,2.77,4c.63,0,1.27,0,1.9,0s1.3,0,2,0,1.55,0,2.73,0l3.68.07c1.27,0,2.31,0,3.12,0A7.72,7.72,0,0,0,212.94,320.66Z"/><path class="cls-1" d="M243.25,320.66a41.37,41.37,0,0,1-4.41-.57,6.72,6.72,0,0,1-3-1.53,23.26,23.26,0,0,1-3.38-3.92c-1.21-1.68-2.56-3.49-4-5.45s-2.85-3.77-4.15-5.45-2.3-2.9-3-3.66a17.82,17.82,0,0,0-2.47-2.32,11.2,11.2,0,0,0-2.29-1.33v-.23a24.29,24.29,0,0,0,10.21-5.26,11.86,11.86,0,0,0,3.81-9.15,10.85,10.85,0,0,0-2.64-7.66A15.25,15.25,0,0,0,221,270a31.43,31.43,0,0,0-9.18-1.29h-1.59v2.23c4,.16,7.14,1.15,9.3,3q3.56,3,3.55,8.72,0,6.4-4.2,9.41a17.14,17.14,0,0,1-8.65,2.9v3a7,7,0,0,1,1.77,1,15.47,15.47,0,0,1,2.59,2.67c1.16,1.37,2.47,3,3.94,5s3,4,4.46,6,2.86,3.9,4.07,5.6,2.14,3,2.77,4c.64,0,1.27,0,1.91,0s1.29,0,2,0,1.54,0,2.72,0l3.68.07c1.27,0,2.31,0,3.12,0A6.44,6.44,0,0,0,243.25,320.66Z"/></g></g></svg>