<?xml version="1.0" standalone="no"?>
<!DOCTYPE svg PUBLIC "-//W3C//DTD SVG 20010904//EN"
 "http://www.w3.org/TR/2001/REC-SVG-20010904/DTD/svg10.dtd">
<svg version="1.0" xmlns="http://www.w3.org/2000/svg"
 width="1080.000000pt" height="1080.000000pt" viewBox="0 0 1080.000000 1080.000000"
 preserveAspectRatio="xMidYMid meet">
<metadata>
Created by potrace 1.16, written by Peter Selinger 2001-2019
</metadata>
<g transform="translate(0.000000,1080.000000) scale(0.100000,-0.100000)"
fill="#000000" stroke="none">
<path d="M5580 9994 c-25 -2 -115 -9 -200 -15 -355 -25 -717 -98 -1075 -216
-93 -31 -174 -59 -180 -63 -5 -4 -32 -15 -60 -25 -27 -9 -66 -24 -85 -32 -19
-8 -44 -19 -55 -23 -11 -5 -94 -45 -185 -88 -207 -101 -437 -233 -575 -332
-244 -175 -248 -178 -385 -294 -116 -99 -443 -423 -505 -501 -22 -27 -63 -77
-91 -110 -181 -214 -406 -568 -554 -870 -85 -175 -99 -207 -164 -380 -204
-539 -296 -1046 -296 -1635 0 -577 103 -1133 305 -1645 70 -179 90 -218 135
-263 41 -42 182 -146 251 -187 167 -97 472 -254 664 -342 313 -142 457 -205
461 -200 3 2 -55 65 -128 138 -159 160 -248 264 -394 461 -179 241 -314 468
-425 718 -28 63 -58 128 -65 144 -8 16 -14 34 -14 40 0 6 -7 23 -14 39 -22 41
-121 348 -150 462 -127 505 -158 1071 -87 1580 109 778 453 1529 972 2120 64
73 325 332 394 391 277 236 545 415 845 564 58 28 121 60 140 70 76 39 364
149 471 180 41 12 88 26 104 30 219 63 527 120 740 137 155 12 696 9 817 -5
189 -22 405 -62 563 -103 150 -39 343 -99 410 -128 11 -5 38 -15 60 -24 307
-116 589 -270 929 -507 60 -42 235 -187 346 -286 364 -326 697 -770 906 -1204
30 -63 59 -123 65 -133 38 -69 173 -445 214 -597 186 -693 189 -1425 10 -2105
-89 -339 -214 -651 -372 -933 -29 -52 -53 -96 -53 -98 0 -3 -38 -62 -84 -133
-71 -108 -129 -190 -251 -350 -45 -59 -218 -251 -289 -321 -42 -41 -76 -78
-76 -82 0 -12 33 -3 230 63 249 83 347 121 545 215 176 84 401 232 513 336 51
48 77 96 150 278 144 360 227 685 292 1140 38 272 38 814 0 1090 -70 500 -163
844 -347 1280 -63 150 -153 323 -293 565 -36 63 -168 255 -254 370 -290 388
-708 782 -1111 1048 -144 96 -189 123 -305 189 -462 261 -1030 455 -1560 534
-234 34 -698 61 -850 48z"/>
<path d="M5515 9590 c-35 -14 -66 -57 -72 -97 -14 -102 95 -168 185 -113 39
24 39 24 45 3 8 -30 6 98 -3 157 -4 30 -8 47 -9 38 -1 -16 -4 -16 -43 2 -46
21 -71 24 -103 10z m114 -39 c66 -62 23 -172 -67 -175 -34 0 -47 5 -71 29 -45
46 -45 102 -2 146 41 40 97 41 140 0z"/>
<path d="M6362 9525 c-111 -93 -13 -257 121 -201 36 15 37 14 37 -6 0 -43 12
-8 26 78 17 109 18 125 4 104 -9 -13 -12 -13 -21 3 -29 49 -120 62 -167 22z
m142 -25 c34 -34 38 -89 8 -129 -41 -55 -128 -54 -162 2 -39 63 -14 137 53
156 42 12 66 5 101 -29z"/>
<path d="M4761 9454 c-53 -44 -54 -123 -1 -175 23 -24 37 -29 77 -29 55 0 86
17 108 60 28 53 11 120 -37 154 -36 26 -111 21 -147 -10z m145 -18 c44 -44 47
-97 9 -138 -44 -48 -105 -49 -151 -3 -42 42 -27 131 27 161 42 23 78 17 115
-20z"/>
<path d="M6993 9374 c-72 -36 -81 -134 -18 -191 37 -35 86 -44 127 -22 18 9
19 8 13 -10 -3 -12 -3 -21 2 -21 11 0 77 189 69 197 -3 4 -6 1 -6 -5 0 -20
-18 -13 -25 9 -9 27 -63 59 -100 59 -16 0 -44 -8 -62 -16z m116 -20 c13 -9 29
-32 37 -50 12 -29 12 -39 0 -68 -21 -49 -59 -71 -119 -67 -10 0 -32 14 -48 30
-63 63 -20 171 68 171 21 0 49 -7 62 -16z"/>
<path d="M4338 9324 c-60 -32 -76 -121 -33 -173 50 -58 129 -64 179 -12 73 76
19 202 -86 201 -18 -1 -45 -7 -60 -16z m96 -8 c106 -44 77 -195 -37 -196 -105
0 -137 148 -43 194 38 19 39 19 80 2z"/>
<path d="M7437 9223 c-85 -154 -99 -184 -93 -190 2 -3 22 27 43 66 21 39 41
71 45 71 4 0 22 -9 42 -20 33 -20 34 -22 24 -56 -7 -25 -6 -51 2 -86 27 -112
150 -169 254 -118 72 35 116 126 97 197 -25 89 -92 143 -179 143 -53 0 -82
-11 -125 -50 l-35 -31 -36 18 c-20 9 -36 20 -36 25 0 4 16 37 36 73 20 36 34
68 32 71 -3 2 -35 -48 -71 -113z m298 -22 c142 -64 136 -251 -9 -306 -50 -19
-96 -11 -151 27 -96 65 -83 218 24 275 53 28 83 29 136 4z"/>
<path d="M6156 9060 c-3 -8 -13 -62 -22 -119 -21 -129 -14 -299 16 -415 11
-43 17 -82 14 -87 -3 -5 -45 -29 -93 -53 -188 -95 -366 -234 -440 -346 -70
-103 -102 -219 -84 -297 8 -33 8 -32 53 54 33 64 65 108 120 163 87 89 124
115 240 169 163 75 324 105 421 78 151 -42 360 -74 544 -83 395 -18 800 93
1110 307 89 61 109 79 125 109 7 14 35 53 62 87 27 35 47 66 44 71 -3 5 -54
-4 -113 -19 -59 -16 -109 -26 -111 -24 -3 2 19 34 48 70 29 36 50 68 48 71 -3
2 -35 -33 -72 -78 -44 -53 -63 -84 -54 -86 8 -1 57 9 108 23 52 14 101 25 108
25 8 0 -10 -30 -39 -67 -29 -37 -52 -73 -52 -81 0 -34 -259 -130 -457 -170
-130 -26 -146 -27 -440 -27 -247 1 -323 4 -400 18 -52 10 -122 22 -155 27 -33
5 -109 21 -170 34 -87 20 -114 31 -136 53 -29 31 -96 152 -122 223 -24 68 -65
228 -73 290 -9 70 -20 101 -28 80z"/>
<path d="M4953 8900 c-45 -203 -53 -250 -60 -378 -3 -62 -11 -116 -17 -120 -6
-5 -40 -14 -76 -21 -106 -20 -307 -70 -430 -107 -476 -144 -765 -325 -947
-594 -81 -119 -142 -272 -258 -645 -42 -136 -102 -309 -125 -360 -5 -11 -27
-63 -50 -115 -71 -165 -190 -370 -317 -550 -48 -67 -143 -184 -215 -262 -44
-49 -74 -88 -67 -88 34 0 250 133 399 245 122 93 259 244 341 375 63 100 132
262 170 400 20 73 92 350 110 421 13 57 66 193 100 262 44 90 66 123 131 203
182 225 454 390 873 529 209 70 245 80 420 120 38 9 74 20 79 25 5 5 3 90 -4
207 -6 109 -15 288 -18 398 l-7 200 -32 -145z"/>
<path d="M3495 8855 c-71 -25 -101 -94 -70 -158 25 -54 63 -73 132 -69 35 3
93 59 93 91 -1 25 -2 24 -21 -11 -18 -36 -62 -68 -92 -68 -11 0 -11 14 -1 88
15 103 17 142 7 142 -5 -1 -26 -7 -48 -15z"/>
<path d="M5159 8221 c-44 -45 -38 -121 12 -146 75 -39 149 0 149 79 0 37 -5
48 -31 70 -43 36 -91 35 -130 -3z"/>
<path d="M2730 8107 c-39 -14 -80 -67 -80 -104 0 -79 80 -142 153 -122 111 30
118 180 11 225 -39 16 -39 16 -84 1z m90 -22 c36 -19 53 -49 52 -92 -2 -47
-18 -73 -57 -89 -52 -21 -74 -17 -111 20 -53 53 -43 129 20 160 39 20 60 20
96 1z"/>
<path d="M8988 7691 c-30 -26 -33 -35 -33 -84 0 -63 24 -99 80 -117 69 -23
155 39 155 112 0 102 -126 157 -202 89z m155 -21 c36 -40 38 -100 3 -135 -67
-67 -176 -27 -176 66 0 34 6 47 35 76 32 32 40 35 73 30 24 -4 47 -17 65 -37z"/>
<path d="M5070 7642 c-56 -25 -80 -62 -80 -126 0 -110 132 -159 212 -78 25 24
30 38 31 78 0 31 -6 59 -17 76 -29 45 -102 69 -146 50z"/>
<path d="M8663 7576 c-106 -56 -270 -120 -423 -165 -170 -51 -133 -41 -505
-127 -88 -20 -196 -45 -240 -55 -389 -89 -660 -232 -791 -415 -46 -64 -110
-191 -101 -200 3 -3 36 17 74 44 99 71 199 127 308 171 95 39 268 94 335 106
19 3 53 10 75 15 22 5 78 16 125 25 378 67 477 92 648 164 130 54 263 145 396
270 55 53 180 204 164 200 -2 0 -31 -15 -65 -33z"/>
<path d="M2356 7543 c-24 -55 -26 -78 -9 -103 15 -22 52 -24 94 -6 11 5 23 -5
42 -31 15 -21 27 -32 27 -25 0 7 -11 28 -25 46 -29 38 -30 45 -12 70 13 17 15
17 46 2 18 -10 37 -16 42 -14 10 3 -162 98 -178 98 -6 0 -17 -17 -27 -37z"/>
<path d="M9128 7420 c-64 -32 -122 -60 -130 -62 -7 -3 -10 -8 -6 -12 3 -4 29
4 58 19 l52 26 -2 -33 c-4 -63 0 -78 28 -108 52 -59 152 -48 187 20 19 38 19
100 -1 128 -8 12 -28 29 -44 37 -19 10 -27 20 -24 30 8 19 17 23 -118 -45z
m151 -11 c50 -47 50 -111 -1 -154 -51 -43 -124 -32 -153 25 -18 35 -19 67 -1
99 29 52 114 68 155 30z"/>
<path d="M2169 7139 c-6 -11 -16 -37 -24 -58 l-13 -38 54 -22 c52 -22 114 -79
114 -105 0 -7 18 -18 41 -25 51 -15 63 -7 15 10 -20 7 -36 18 -36 24 0 15 50
138 60 149 5 5 22 4 41 -3 18 -6 34 -9 37 -7 8 8 -66 35 -95 34 -15 0 -63 13
-106 30 -75 30 -77 30 -88 11z m114 -36 c65 -25 68 -28 63 -54 -3 -16 -12 -45
-21 -65 l-15 -37 -33 30 c-17 17 -51 40 -74 52 -49 24 -47 20 -31 73 8 29 15
37 27 33 9 -3 47 -18 84 -32z"/>
<path d="M4952 7060 c-53 -38 -75 -81 -75 -145 0 -106 63 -167 173 -167 91 0
147 40 172 124 22 74 -20 165 -94 204 -15 8 -51 14 -81 14 -44 0 -62 -5 -95
-30z"/>
<path d="M9423 6789 c-82 -24 -110 -127 -53 -192 35 -40 76 -51 127 -34 42 13
83 66 83 104 0 81 -81 144 -157 122z m103 -40 c51 -48 36 -143 -27 -169 -40
-17 -94 -5 -119 27 -22 28 -27 91 -10 123 27 51 111 61 156 19z"/>
<path d="M7391 6525 c-108 -320 -261 -612 -435 -834 l-50 -64 17 -146 c28
-232 64 -629 77 -841 20 -322 17 -1221 -5 -1478 -4 -54 -4 -55 6 -17 6 22 28
144 50 270 34 200 52 325 99 700 40 320 65 899 52 1195 -8 186 -7 198 14 265
23 72 68 233 103 365 54 207 108 548 99 625 -3 26 -6 21 -27 -40z"/>
<path d="M9565 6509 c-16 -4 -63 -13 -103 -19 l-73 -12 7 -36 c11 -62 31 -92
61 -92 15 0 34 7 43 15 13 12 23 13 43 6 21 -8 31 -6 52 11 24 19 27 26 21 65
-8 63 -15 71 -51 62z"/>
<path d="M3871 6406 c-1 -182 -40 -365 -106 -497 -46 -92 -103 -164 -188 -241
-224 -201 -316 -357 -305 -521 5 -85 57 -192 130 -267 43 -45 222 -188 356
-285 15 -11 61 -47 102 -81 97 -79 351 -273 378 -289 26 -14 -5 30 -108 157
-54 68 -144 179 -199 248 -56 69 -127 156 -159 194 -31 38 -81 99 -110 135
-29 36 -59 74 -68 84 -52 62 -103 141 -109 167 -9 41 14 75 62 90 99 32 206
125 269 234 40 67 95 197 114 269 19 71 39 63 74 -31 51 -138 170 -377 296
-597 60 -105 173 -330 208 -415 71 -172 97 -326 89 -523 -8 -190 -30 -282
-137 -557 -25 -63 -21 -60 44 34 100 145 190 356 217 506 15 83 15 256 0 340
-30 170 -79 295 -242 615 -141 279 -180 367 -233 535 -44 138 -75 223 -129
350 -79 190 -217 450 -239 450 -3 0 -6 -47 -7 -104z"/>
<path d="M4990 6447 c-62 -32 -83 -65 -88 -136 -4 -52 -1 -67 23 -107 45 -77
136 -104 220 -65 98 45 132 146 82 241 -44 83 -150 113 -237 67z"/>
<path d="M9504 6286 c-44 -20 -64 -53 -64 -106 0 -52 18 -83 60 -105 69 -36
148 -2 171 74 28 94 -75 179 -167 137z m116 -33 c60 -55 42 -147 -33 -172
-106 -35 -181 102 -95 174 41 34 88 33 128 -2z"/>
<path d="M5172 5839 c-177 -23 -233 -239 -91 -351 43 -35 126 -47 183 -28 77
25 136 107 136 188 -1 79 -62 159 -141 186 -20 7 -55 9 -87 5z"/>
<path d="M5275 5246 c-144 -63 -179 -234 -70 -341 153 -149 401 -3 346 203
-31 113 -171 184 -276 138z"/>
<path d="M2424 5009 c14 -148 107 -377 210 -513 101 -134 311 -324 446 -405
119 -71 350 -177 426 -195 22 -5 14 3 -34 36 -402 274 -697 559 -906 876 -36
55 -85 138 -107 184 l-41 83 6 -66z"/>
<path d="M5400 4580 c-189 -101 -125 -388 87 -390 186 -1 279 202 161 351 -45
56 -178 77 -248 39z"/>
<path d="M5516 3960 c-83 -26 -129 -137 -92 -224 55 -131 244 -139 309 -12 57
110 -13 235 -135 242 -29 2 -66 -1 -82 -6z"/>
<path d="M8590 3464 c-405 -145 -797 -318 -1035 -459 -85 -50 -267 -170 -305
-201 -136 -111 -229 -199 -300 -285 -121 -146 -172 -202 -272 -301 -76 -75
-237 -211 -304 -258 -187 -129 -184 -127 -340 -215 -74 -41 -263 -131 -369
-176 -210 -88 -506 -178 -774 -234 -91 -19 -186 -39 -211 -45 -57 -12 -232
-36 -425 -56 -200 -21 -219 -24 -209 -34 17 -16 467 -126 654 -160 63 -11 138
-25 165 -30 156 -30 483 -67 660 -75 72 -3 183 -8 249 -10 299 -13 769 29
1136 101 307 61 763 200 975 298 28 13 79 36 115 52 36 16 146 69 245 119 406
206 804 476 1180 801 244 211 239 204 291 383 40 137 28 240 -32 272 -30 15
-132 18 -142 3 -7 -10 -125 -103 -204 -161 -24 -18 -96 -63 -159 -102 -393
-236 -735 -349 -1154 -381 -134 -11 -400 -5 -454 9 -31 9 -61 65 -61 116 0
120 156 283 445 464 39 24 82 52 96 62 39 26 205 110 274 138 149 61 259 142
299 223 28 57 32 89 13 129 -11 24 -14 25 -47 13z"/>
<path d="M4087 3376 c-70 -45 -130 -86 -133 -89 -10 -10 75 -124 103 -136 31
-14 60 -6 96 27 35 33 34 62 -3 128 l-29 52 39 26 c22 14 44 26 50 26 6 0 27
-26 47 -57 45 -72 41 -69 53 -57 6 6 -8 37 -40 87 -27 42 -51 77 -52 77 -2 0
-60 -38 -131 -84z m38 -79 c30 -53 31 -71 5 -97 -32 -32 -64 -25 -104 22 -20
23 -36 44 -36 48 0 4 100 70 107 70 1 0 14 -20 28 -43z"/>
<path d="M5495 3360 c-75 -31 -104 -145 -52 -211 49 -63 156 -68 210 -11 55
59 52 145 -7 199 -30 28 -43 33 -83 32 -27 0 -57 -4 -68 -9z"/>
<path d="M2755 3347 c-4 -8 3 -33 13 -54 17 -33 37 -48 138 -102 306 -164 570
-364 862 -654 93 -92 161 -168 160 -177 -7 -37 -243 -65 -468 -56 -225 8 -377
35 -615 108 -148 45 -173 58 -392 200 -87 57 -173 113 -190 123 -291 177 -319
193 -424 246 -108 54 -122 56 -148 23 -47 -60 -18 -141 92 -252 57 -59 80 -92
63 -92 -3 0 -42 18 -87 40 -125 60 -179 51 -179 -31 0 -37 8 -48 106 -152 392
-415 822 -719 1259 -892 294 -116 598 -179 920 -191 133 -5 361 4 475 20 279
38 559 109 846 215 142 52 204 80 204 90 0 5 -28 33 -62 62 -35 30 -65 56 -68
59 -3 3 -52 46 -110 96 -393 338 -676 560 -955 749 -71 48 -132 90 -135 94
-20 26 -273 199 -400 273 -278 162 -542 250 -792 265 -92 5 -108 4 -113 -10z"/>
<path d="M4310 3138 c0 -7 14 -22 30 -33 41 -27 49 -61 22 -88 l-21 -20 -46
42 c-55 50 -95 53 -128 9 -18 -24 -18 -30 -7 -58 15 -36 45 -60 77 -60 25 0
29 -10 12 -27 -8 -8 -8 -13 1 -18 10 -6 100 69 142 119 29 34 22 65 -22 108
-42 39 -60 47 -60 26z"/>
<path d="M7015 3042 c-44 -10 -83 -49 -99 -99 -6 -17 -3 -23 8 -23 9 0 16 7
16 15 0 8 13 29 28 46 69 77 153 0 87 -79 -42 -50 -28 -57 31 -17 44 30 58 31
84 5 33 -33 26 -72 -20 -114 -22 -20 -47 -36 -55 -36 -17 0 -20 -16 -5 -25 15
-9 64 20 99 60 62 71 28 164 -57 152 l-39 -5 10 29 c9 24 8 33 -9 55 -22 30
-49 42 -79 36z"/>
<path d="M4440 2865 c-36 -108 -46 -127 -70 -140 -37 -19 -64 -19 -80 0 -12
15 -30 12 -30 -5 0 -16 61 -42 84 -36 11 3 85 41 164 84 111 61 140 81 130 90
-11 8 -36 -2 -107 -44 -52 -30 -95 -53 -96 -52 -1 2 15 49 35 105 30 82 35
105 25 113 -10 9 -22 -17 -55 -115z"/>
<path d="M5424 2816 c-65 -29 -91 -104 -59 -166 23 -44 53 -60 111 -60 47 0
55 3 83 35 83 95 -21 241 -135 191z"/>
<path d="M4653 2711 c-57 -96 -63 -112 -48 -117 6 -2 32 32 58 76 27 44 49 80
50 80 2 0 -4 -45 -12 -100 -20 -135 -15 -139 89 -60 45 34 83 60 85 58 1 -1
-18 -38 -43 -81 -28 -48 -42 -81 -36 -87 6 -6 28 22 58 73 27 45 55 91 62 102
12 18 11 22 -4 32 -15 9 -33 0 -105 -54 -48 -36 -89 -64 -91 -62 -2 2 5 51 14
109 18 104 16 120 -15 120 -5 0 -33 -40 -62 -89z"/>
<path d="M6445 2599 c-67 -27 -85 -45 -85 -85 0 -35 28 -64 62 -64 10 0 18 -1
18 -2 0 -2 -7 -28 -15 -58 -8 -30 -15 -56 -15 -58 0 -1 8 2 18 7 12 6 23 31
31 66 10 45 18 58 37 66 38 14 40 12 54 -32 15 -44 21 -51 37 -41 13 9 -65
222 -81 221 -6 0 -33 -9 -61 -20z"/>
<path d="M5030 2600 c0 -5 12 -10 28 -10 41 0 72 -26 72 -60 0 -16 -3 -31 -8
-34 -4 -2 -31 2 -60 9 -74 20 -122 -2 -122 -56 0 -42 44 -72 98 -66 36 4 42 2
42 -14 0 -11 4 -19 10 -19 13 0 23 21 54 113 30 87 26 106 -24 132 -33 17 -90
20 -90 5z"/>
<path d="M5262 2429 c-12 -60 -20 -114 -17 -120 13 -20 24 -7 30 34 10 66 12
67 83 52 35 -7 65 -15 68 -18 3 -3 0 -23 -6 -46 -10 -38 -13 -41 -45 -41 -50
0 -78 -33 -72 -85 7 -46 28 -65 74 -65 50 0 76 34 69 90 -4 29 3 83 18 155 14
60 23 112 21 114 -14 13 -34 -14 -39 -54 -6 -36 -11 -45 -24 -41 -9 2 -33 7
-52 11 -72 13 -71 12 -68 67 5 90 -17 62 -40 -53z"/>
<path d="M6127 2504 c-37 -20 -25 -38 13 -19 40 21 77 19 90 -4 19 -36 11 -49
-39 -66 -90 -30 -116 -91 -55 -131 21 -14 31 -15 64 -5 22 6 45 21 51 33 11
21 12 21 25 3 24 -33 28 -7 10 78 -24 110 -35 127 -89 127 -23 -1 -55 -8 -70
-16z"/>
</g>
</svg>
