<svg xmlns="http://www.w3.org/2000/svg" xmlns:xlink="http://www.w3.org/1999/xlink" xmlns:inkscape="http://www.inkscape.org/namespaces/inkscape" version="1.1" width="1000" height="1000" viewBox="0 0 1000 1000">
<path transform="matrix(1,0,0,-1,0,1000)" d=""/>
<path transform="matrix(1,0,0,-1,0,1000)" d="M499.54 893.48C501.7 893.6 503.87 893.55 506.02 893.24 506.32 892.7 506.93 891.6 507.23 891.06 507.52 890.6 508.09 889.68 508.38 889.22 508.09 859.8 508.51 830.38 508.19 800.97 506.36 798.51 502.67 795.79 499.9 798.48L498.82 798.3C497.83 799.7 496.56 801.09 496.73 802.93 496.78 828.63 496.76 854.32 496.74 880.02 496.78 883.85 496.4 887.76 497.44 891.5L498.5 891.28 498.49 892.48 499.64 892.37 499.54 893.48M631.89 840.82C632.06 841.03 632.4 841.45 632.57 841.66 633 840.7 633.46 839.74 633.93 838.79 636.68 838.02 635.5 834.51 635.56 832.42 633.41 830.18 631.01 828.16 629.16 825.65L628.7 825.58C627.48 824.34 626.27 823.12 625.05 821.89 624.24 821.07 623.44 820.24 622.63 819.42 619.93 816.8 617.26 814.16 614.71 811.41 614.4 811.13 613.77 810.57 613.45 810.29L613.39 809.86C610.91 807.85 608.7 805.57 606.45 803.33L606.55 802.46 605.36 802.63 605.53 801.8C605.18 801.55 604.49 801.05 604.14 800.8 602.23 798.96 600.31 797.13 598.42 795.28L598.59 794.45 597.74 794.63C597.47 794.29 596.93 793.63 596.66 793.3 594.08 790.82 591.35 788.47 589.17 785.63L588.41 785.61 588.46 784.84C585.76 782.73 583.29 780.31 581.16 777.63H580.4L580.41 776.85C578.48 775.4 576.77 773.68 575.22 771.83 574.96 771.52 574.43 770.91 574.17 770.6 572.03 769.13 569.32 769.12 566.99 770.1 564.16 772.39 563.64 776.97 566.53 779.45 586.38 799.3 606.19 819.17 626.05 839.01 627.49 840.75 629.86 840.57 631.89 840.82M371.97 840.28C374.34 840.77 377.22 841.09 378.96 839.01 398.98 819.02 418.91 798.93 438.99 779 440.74 776.69 441.02 773.03 438.6 771.06L438.62 770.36 437.96 770.26C436.26 769.29 434.29 769.47 432.41 769.46 431.58 770.28 430.75 771.09 429.91 771.89 428.59 773.25 427.23 774.58 425.84 775.86 421.24 780.57 416.64 785.29 411.94 789.89 403.59 798.22 395.35 806.66 386.89 814.89 381.22 820.81 375.31 826.51 369.58 832.37 369.18 834.02 369.39 835.73 369.4 837.4 370.27 838.35 371.12 839.31 371.97 840.28M451.55 829.55C453.33 829.31 455.63 830.2 456.99 828.59 457.27 828.58 457.83 828.56 458.12 828.56 459.15 826.71 460.1 824.81 460.89 822.85 461.64 820.97 462.42 819.11 463.19 817.24 463.78 815.83 464.38 814.42 465.02 813.02 465.41 812.03 465.82 811.04 466.23 810.04 466.88 808.43 467.55 806.82 468.23 805.21 469.31 801.52 472.19 798.11 471.27 794.06 471.15 792.38 469.33 791.68 468.36 790.52 466.9 790.43 465.44 790.32 464 790.21 462.62 791.34 460.84 792.23 460.29 794.05 459.73 795.36 459.19 796.67 458.65 797.99 458.12 799.35 457.58 800.7 457.05 802.06 456.08 804.41 455.1 806.76 454.16 809.11 453.33 811 452.57 812.92 451.78 814.82 451.12 816.54 450.4 818.24 449.53 819.86 448.97 821.57 448.55 823.32 448.33 825.1 449.16 826.46 449.64 828.34 451.45 828.64L451.55 829.55M547.93 829.39C549.7 829.5 551.48 829.52 553.26 829.5 555.65 827.75 557.06 825.04 556.41 822.02 555.75 820.77 555.19 819.47 554.64 818.17 554.32 817.41 553.98 816.65 553.64 815.9 552.22 812.68 551.2 809.3 549.66 806.13 549.2 805.03 548.73 803.92 548.3 802.81 547.61 801.17 546.9 799.55 546.24 797.9 545.15 795.61 544.54 792.87 542.48 791.21 542.45 791.04 542.38 790.69 542.35 790.52 539.58 790.06 536.79 790.32 534.48 792.01 533.68 794.2 533.19 796.53 534.05 798.78 535.1 801.14 536.11 803.52 537.22 805.86 537.74 807.27 538.31 808.67 538.84 810.08 539.83 812.45 540.81 814.83 541.83 817.19 542.92 819.75 543.91 822.35 544.97 824.92 545.59 826.63 546.89 827.93 547.93 829.39M484.89 778.18C492.5 779.96 500.34 780.82 508.15 780.18 511.05 779.61 514.05 779.62 516.92 778.87 524.36 777.44 531.48 774.74 537.96 770.82 541.92 768.56 545.83 766.19 549.34 763.26 552.73 760.35 555.91 757.19 558.84 753.82 561.59 750.48 563.77 746.73 566.22 743.16 567.53 740.51 568.67 737.78 570.03 735.15 570.48 734.12 570.94 733.1 571.42 732.07L571.4 731.5C574.35 731.52 577.3 731.52 580.26 731.65 585.04 732.65 590.25 733.29 594.99 731.85 595.51 731.54 596.57 730.92 597.09 730.61 597.43 730.63 598.09 730.66 598.42 730.68L598.59 729.86C600.84 729.04 603.03 728.07 605.3 727.28 605.39 727.01 605.58 726.47 605.67 726.2 606.01 726.29 606.69 726.47 607.03 726.56 608.35 725.84 609.71 725.15 611.02 724.38L612.22 724.67C612.31 724.32 612.51 723.61 612.6 723.26 613.03 723.33 613.89 723.48 614.32 723.55L614.64 722.24 616.34 722.81 616.27 721.54C617.37 721.51 618.47 721.48 619.58 721.44L619.26 720.56C623.94 718.86 628.59 717.02 632.93 714.55 633.21 714.56 633.78 714.57 634.06 714.58 636.51 712.86 639.39 711.98 642.05 710.65 642.4 710.66 643.11 710.68 643.46 710.68L643.63 709.43C643.98 709.45 644.68 709.49 645.02 709.51 646.33 708.83 647.67 708.15 648.99 707.44 649.33 707.51 650.01 707.65 650.35 707.72L650.64 706.39C651.09 706.45 651.98 706.58 652.42 706.64L652.53 705.75C654.1 705.26 655.65 704.69 657.23 704.21 658.14 703.67 659.06 703.11 659.97 702.53 660.22 702.53 660.73 702.52 660.99 702.51 662.99 701.47 665.09 700.6 667.09 699.53L667.91 699.47C669.57 698.28 671.43 697.43 673.49 697.17L673.46 696.66C674.91 696.04 676.36 695.41 677.83 694.82 679 694.6 680.05 694.11 680.98 693.34L682.23 693.66C682.33 693.3 682.54 692.58 682.64 692.22L684.24 692.58C684.35 692.25 684.55 691.58 684.66 691.25 685.09 691.35 685.95 691.54 686.37 691.64L686.65 690.27 688.31 690.83C688.38 690.45 688.52 689.67 688.59 689.29 689.06 689.44 690.01 689.73 690.48 689.88L690.5 688.77C694.87 687.63 698.96 685.65 702.9 683.47 703.26 683.51 703.97 683.59 704.33 683.63L704.6 682.4C705.04 682.47 705.94 682.63 706.38 682.7L706.55 681.77C708.92 681.03 711.24 680.14 713.58 679.29L713.57 678.3C714.01 678.41 714.89 678.62 715.32 678.73 715.43 678.4 715.65 677.73 715.76 677.4L717.02 677.65C718.26 676.79 719.67 676.27 720.96 675.45 721.3 675.49 721.98 675.58 722.32 675.63 722.42 675.26 722.63 674.54 722.73 674.17L723.94 674.62C724.88 673.74 726.14 673.49 727.36 673.16 730.28 671.56 732.99 669.49 734.87 666.69 737.88 660.23 738.53 652.82 738.28 645.77 737.11 636.23 737.91 626.58 736.83 617.04 736.46 610.68 736.39 604.32 736.19 597.96 735.18 590.34 735.82 582.62 734.94 574.99 734.72 572.72 734.7 570.44 734.68 568.16L733.96 568.36C734.2 567.2 734.42 566.04 734.65 564.87 735.9 564.38 737.15 563.85 738.42 563.34L738.43 562.66C739.43 562.23 740.44 561.78 741.46 561.33L741.43 560.32 742.24 560.62C742.59 560.3 743.3 559.67 743.65 559.35L743.49 558.5 744.7 558.56 744.33 557.57 745.5 557.48 745.55 556.32 746.57 556.39C746.52 555.93 746.4 555 746.35 554.54L747.45 554.57C747.56 553.59 747.76 551.64 747.87 550.66L748.59 550.8C748.57 519.66 748.72 488.52 748.51 457.39L747.7 457.58C747.64 456.77 747.51 455.15 747.45 454.34L746.35 454.63 746.78 453.45C746.44 453.41 745.74 453.33 745.4 453.29L745.65 451.94C745.22 451.36 744.35 450.2 743.92 449.61 743.54 449.62 742.78 449.64 742.4 449.65L742.58 448.78C740.89 447.7 739.29 446.49 737.75 445.21 736.47 444.04 735.08 442.97 733.46 442.35L733.61 441.77C732.38 441.49 731.18 441.17 730 440.8 728.83 440.29 727.66 439.77 726.5 439.27L726.42 438.65C724.59 438.25 722.86 437.52 721.16 436.79 719.83 436.09 718.51 435.39 717.2 434.68 714.57 433.77 712.09 432.53 709.6 431.32L709.5 430.6C708.74 430.56 707.24 430.47 706.48 430.43L706.46 429.59C705.13 429.15 703.83 428.65 702.52 428.2L702.43 427.72C701.82 427.42 700.62 426.83 700.01 426.54 699.65 426.58 698.93 426.66 698.57 426.7L698.35 425.43C697.97 425.47 697.2 425.55 696.82 425.59 695.91 424.91 695.01 424.23 694.11 423.55 693.84 423.57 693.3 423.6 693.03 423.62 691.78 422.95 690.53 422.3 689.3 421.61 687.45 420.67 685.6 419.7 683.58 419.2L683.4 418.41C682.97 418.44 682.11 418.51 681.68 418.55L681.49 417.3C681.04 417.37 680.14 417.5 679.68 417.57L679.49 416.64C678.29 416.26 677.1 415.82 675.94 415.36 674.64 414.58 673.34 413.82 672.03 413.1 671.51 412.89 670.46 412.47 669.94 412.26 668.53 411.58 667.1 410.95 665.66 410.36L665.4 409.75C661.98 408.6 658.77 406.94 655.58 405.31L655.45 404.87C654.21 404.61 653.04 404.16 651.96 403.51 651.63 403.53 650.96 403.59 650.63 403.62L650.45 402.7C649.55 402.34 648.69 401.88 647.9 401.34L646.62 401.68 646.43 400.63C645.11 400.23 643.82 399.78 642.53 399.36L642.43 398.25C641.97 398.36 641.06 398.58 640.6 398.69 640.51 398.32 640.33 397.57 640.24 397.2L639.02 397.59C637.28 396.65 635.57 395.66 633.96 394.51 633.71 394.51 633.2 394.5 632.95 394.5 630.87 393.17 628.57 392.26 626.28 391.38L626.49 390.28C626.08 390.37 625.28 390.56 624.88 390.65 623.6 389.92 622.32 389.2 621.06 388.44 620.71 388.45 620 388.47 619.65 388.48L619.6 387.36 618.73 387.52C617.55 386.87 616.39 386.18 615.26 385.45 614.83 385.51 613.99 385.62 613.56 385.67L613.42 384.72C612.3 384.26 611.18 383.8 610.06 383.34 608.73 382.75 607.43 382.12 606.17 381.42 605.88 381.45 605.29 381.5 604.99 381.52 599.38 377.51 592.3 380.74 586.23 378.64 582.14 378.43 578.05 378.6 573.96 378.66 562.09 379.73 550.16 379.25 538.26 379.7 526.09 380.66 513.87 380.13 501.68 380.68 488.1 381.71 474.45 381.35 460.84 381.8 447.63 383.02 434.29 382.06 421.07 383.2 416.45 383.63 411.55 382.6 407.15 384.31 405.1 385.16 402.91 385.59 400.71 385.67 399.37 386.2 398.11 386.82 396.93 387.61L396.06 387.44C394.49 388.72 392.5 389.28 390.58 389.77 390.5 390.01 390.34 390.48 390.25 390.72L389.08 390.44C387.72 391.32 386.32 392.11 384.91 392.87 383.78 393.2 382.64 393.49 381.51 393.76L381.42 394.68C380.97 394.6 380.08 394.45 379.63 394.37L379.42 395.66C378.99 395.61 378.12 395.49 377.69 395.43L377.45 396.24C376.08 396.61 374.73 397.03 373.39 397.44L373.38 398.1C372.24 398.47 371.13 398.88 370.04 399.34 368.57 399.91 367.09 400.43 365.55 400.78 365.51 401.04 365.44 401.56 365.4 401.82L363.7 401.38C363.62 401.73 363.46 402.43 363.37 402.78 362.95 402.68 362.11 402.47 361.69 402.36L361.43 403.18C358.81 404 356.27 405.08 353.98 406.59L353.06 406.56C351.55 407.34 350.02 408.04 348.46 408.69L348.35 409.13C346.16 409.87 344.02 410.71 341.9 411.6 340.58 412.23 339.25 412.81 338.01 413.57 337.67 413.53 336.97 413.47 336.62 413.43L336.24 414.7C335.82 414.62 334.97 414.45 334.55 414.36L334.27 415.36C333.01 415.76 331.78 416.17 330.53 416.56L330.48 417.15C329.13 417.23 327.96 417.7 327 418.56 326.66 418.5 325.99 418.37 325.65 418.3L325.35 419.62C325.02 419.58 324.35 419.52 324.02 419.48 322.92 420.25 321.7 420.68 320.35 420.8L320.43 421.72C319.96 421.63 319.03 421.46 318.56 421.37L318.4 422.65C317.96 422.58 317.08 422.44 316.64 422.37L316.32 423.31C314.08 424.13 311.87 425.01 309.62 425.76L309.34 426.81 308.09 426.53C305.45 427.87 302.68 428.96 300.13 430.46 299.48 430.52 298.18 430.63 297.53 430.69L297.69 431.4C293.82 433.37 289.52 434.42 285.83 436.73 284.74 437.18 283.63 437.52 282.49 437.77L282.46 438.48C281.74 438.53 280.29 438.63 279.56 438.68L279.73 439.47C278.74 439.87 277.76 440.27 276.79 440.67 275.69 441.08 274.59 441.45 273.49 441.79L273.46 442.23C272.84 442.54 271.6 443.15 270.98 443.46L269.67 443.33C269.66 443.68 269.65 444.4 269.64 444.75L268.76 444.42C268.42 444.74 267.73 445.37 267.39 445.69L267.49 446.6C267.11 446.6 266.35 446.59 265.98 446.59 265.54 447.73 264.72 448.44 263.52 448.7L263.76 449.51 262.58 449.45 262.34 450.6 261.55 450.33 261.51 451.48 260.35 451.6 260.77 452.59C260.41 452.61 259.68 452.65 259.32 452.67L259.82 454.35C259.46 454.43 258.72 454.59 258.35 454.66L258.9 456.44 257.66 456.4C257.2 478.26 257.58 500.13 257.45 521.99 257.52 532.11 257.29 542.24 257.61 552.36 257.82 552.36 258.24 552.37 258.44 552.38 258.59 553.89 258.69 555.56 260.47 555.96 260.43 556.35 260.34 557.14 260.3 557.53L261.61 557.3 261.34 558.37 262.5 558.47 262.55 559.37C264.17 560.55 265.8 561.7 267.5 562.76L267.66 563.62C268.01 563.6 268.73 563.54 269.09 563.52 270.56 564.69 272.83 565.71 272.45 567.98 272.51 593.66 272.44 619.33 272.48 645.01 272.51 648.08 273.46 651.04 274.11 654.01 274.29 655.21 274.46 656.41 274.62 657.6L275.17 657.67C275.61 658.98 276.12 660.25 276.61 661.54L277.16 661.65C279.58 665.74 284.26 667.2 288.21 669.29L289.04 669.52C291.03 670.94 293.32 671.79 295.61 672.6L295.67 673.6C296.12 673.54 297.01 673.4 297.45 673.33L297.62 674.28C298.21 674.48 299.38 674.9 299.97 675.11 301.04 675.65 302.1 676.2 303.18 676.73 303.76 676.99 304.91 677.51 305.49 677.77L305.59 678.66C305.95 678.64 306.67 678.6 307.03 678.58 308.44 679.43 309.92 680.15 311.48 680.7L311.67 681.67C312.12 681.59 313.02 681.44 313.47 681.36L313.61 682.67C314.04 682.59 314.91 682.44 315.35 682.37 315.44 682.71 315.63 683.39 315.72 683.73L317.28 683.15C317.4 683.53 317.64 684.3 317.76 684.69L318.97 684.51C319.59 684.84 320.83 685.5 321.45 685.83L321.59 686.7C321.95 686.65 322.67 686.57 323.02 686.52 324.73 687.53 326.46 688.5 328.1 689.61L329.35 689.28 329.61 690.61C330.05 690.55 330.92 690.43 331.36 690.37L331.62 691.22C333.53 692.04 335.41 692.94 337.3 693.81L337.59 694.31C340.4 694.98 342.57 697.07 345.34 697.83L345.6 698.31C346.76 698.74 347.9 699.21 349.05 699.66 350.7 700.67 352.39 701.61 354.05 702.6L354.98 702.49C357.46 704.43 360.34 705.75 363.29 706.81L363.59 707.67C364.03 707.62 364.91 707.51 365.35 707.46L365.52 708.76C366 708.68 366.96 708.51 367.44 708.42L367.59 709.74C368.05 709.67 368.97 709.52 369.43 709.45L369.59 710.64C369.93 710.62 370.62 710.57 370.96 710.55 373.33 712.53 376.25 713.59 379.04 714.81 379.34 715.05 379.95 715.54 380.26 715.78 381.91 716.56 383.6 717.29 385.37 717.8 385.46 718.04 385.62 718.51 385.71 718.74L387.34 718.34 387.3 719.3C390.3 720.66 393.32 722.02 396.11 723.81 397.19 724.22 398.3 724.59 399.43 724.89L399.38 725.45C400.43 725.84 401.49 726.22 402.55 726.6L402.68 727.21C404.47 727.85 406.23 728.57 407.95 729.38 409.45 729.51 410.95 729.61 412.46 729.69L412.5 730.37C419.39 730.71 426.3 730.62 433.2 730.61 434.56 734.19 436.21 737.63 437.74 741.13 438.12 741.84 438.51 742.54 438.9 743.25 439.69 744.42 440.47 745.6 441.24 746.79 442.61 749.08 444.19 751.24 445.78 753.38L446.19 753.54C451.72 760.8 459.18 766.43 466.94 771.13 471.44 773.37 476.02 775.47 480.8 777.1 482.15 777.44 483.53 777.77 484.89 778.18M532.08 697.86C498.25 697.7 464.42 697.64 430.59 697.44 430.65 678.08 430.77 658.71 430.62 639.35L431.51 639.53 431.4 638.58C443.9 639.07 456.48 638.14 468.92 639.21 470.28 639.18 471.64 639.08 473 638.93 478.31 639.49 483.65 639.13 488.98 639.21 516.47 639.3 543.98 639.33 571.47 639.59 571.62 659.18 571.84 678.78 571.64 698.37 558.46 698.08 545.23 698.69 532.08 697.86M606.75 689.31 605.67 689.45C605.88 672.24 605.57 655.02 605.68 637.81 606.6 637.53 607.42 637.08 608.16 636.45L609.41 636.61 609.6 635.37C610.04 635.42 610.91 635.52 611.35 635.56L611.57 634.34C612.03 634.41 612.94 634.56 613.4 634.63L613.63 633.33C614.02 633.41 614.81 633.55 615.2 633.63 616.49 632.76 617.8 631.91 619.1 631.02 620.42 630.65 621.74 630.21 622.98 629.57 623.22 629.55 623.7 629.5 623.94 629.48 624.88 628.89 625.83 628.3 626.8 627.71 627.35 627.42 628.47 626.83 629.03 626.53 629.36 626.57 630.04 626.64 630.38 626.67 630.45 626.34 630.6 625.69 630.67 625.36L631.95 625.6C633.89 624.46 635.96 623.55 637.97 622.51 638.24 622.49 638.78 622.46 639.05 622.45 639.65 622.14 640.86 621.51 641.46 621.19L641.6 620.33C642.04 620.41 642.92 620.58 643.36 620.66 643.45 620.32 643.63 619.65 643.72 619.32L645 619.64C646.35 618.77 647.76 618.03 649.2 617.29 650.47 616.66 651.75 616.07 653.05 615.46L654.92 616.02C654.6 615.75 653.95 615.21 653.63 614.94 654.46 614.58 656.11 613.85 656.94 613.48 657.19 613.48 657.7 613.48 657.95 613.47 658.97 612.7 660.15 612.27 661.48 612.19L661.55 611.24C661.92 611.3 662.66 611.41 663.02 611.46 664.21 610.28 665.69 609.49 667.36 609.2L667.57 608.7C669.15 608.12 670.78 607.53 672.19 606.54L673.46 606.67 673.64 605.43C673.98 605.45 674.65 605.51 674.99 605.53 676.25 604.88 677.52 604.27 678.81 603.64 680.14 602.99 681.46 602.33 682.81 601.69 684.93 600.99 686.9 599.89 688.82 598.73 690.37 598.22 691.9 597.68 693.47 597.19L693.51 596.23C693.9 596.29 694.68 596.41 695.06 596.47 695.96 595.72 696.92 595.03 697.93 594.4 698.29 594.45 699.03 594.56 699.4 594.61 699.47 594.29 699.63 593.65 699.7 593.33L701.29 593.84C701.52 593.33 701.97 592.31 702.19 591.8 702.83 595.53 702.52 599.33 702.86 603.08 703.62 607.01 703.24 611.05 703.53 615.02 703.57 625.69 705.18 636.33 704.42 647 702.58 647.58 700.77 648.24 698.96 648.86 698.45 649.1 697.44 649.6 696.93 649.85 696.33 650.09 695.13 650.56 694.52 650.8L694.37 651.66C694.03 651.6 693.34 651.47 693 651.41 691.69 652.12 690.37 652.82 689.09 653.54 688.76 653.5 688.1 653.42 687.78 653.38L687.55 654.85C687.17 654.78 686.4 654.62 686.02 654.54 682.71 656.33 679.15 657.61 675.9 659.49L675.03 659.34C673.42 660.54 671.53 661.27 669.62 661.82 669.55 662.05 669.41 662.53 669.33 662.77L667.99 662.39C666.71 663.26 665.4 664.05 664.02 664.69 662.58 665.15 661.16 665.7 659.91 666.54L658.69 666.15 658.31 667.61C657.97 667.56 657.29 667.46 656.95 667.41 655.98 668.27 654.82 668.74 653.48 668.8L653.47 669.8C653.01 669.68 652.1 669.45 651.65 669.33 651.55 669.68 651.37 670.39 651.27 670.75L649.62 670.13 649.58 671.27C647.21 672 644.91 672.95 642.57 673.73L642.4 674.61C642.02 674.6 641.26 674.57 640.89 674.56 639.25 675.59 637.47 676.36 635.6 676.8L635.41 677.66C634.98 677.6 634.11 677.48 633.67 677.42L633.55 678.33C630.94 679.11 628.32 679.98 626.08 681.56 625.7 681.53 624.95 681.47 624.58 681.44L624.37 682.7C623.91 682.62 623 682.45 622.54 682.37 622.48 682.69 622.36 683.35 622.3 683.67L620.99 683.34C620.47 683.67 619.42 684.34 618.9 684.68 617.67 685.21 616.43 685.74 615.22 686.28 613.2 686.86 611.31 687.78 609.4 688.63L609.48 689.27C608.02 689.16 607.09 689.83 606.67 691.26 606.69 690.78 606.73 689.8 606.75 689.31M391.08 683.46C390.74 683.48 390.06 683.52 389.71 683.54L389.48 682.71C388.62 682.33 387.78 681.93 386.95 681.49L386.05 681.45C384.42 680.44 382.76 679.5 381.12 678.52 380.86 678.46 380.32 678.33 380.05 678.27 379.46 678 378.27 677.44 377.68 677.16L377.47 676.34C377.04 676.4 376.2 676.51 375.77 676.57L375.53 675.6C374.92 675.4 373.7 675 373.09 674.8 372.57 674.44 371.51 673.72 370.99 673.36L369.74 673.72C369.7 673.45 369.6 672.91 369.56 672.64 367.96 671.99 366.2 671.55 364.96 670.27L363.7 670.69C363.65 670.36 363.55 669.7 363.5 669.37L362.31 669.73 362.29 668.56C361.93 668.55 361.22 668.55 360.86 668.54 359.29 667.55 357.6 666.77 355.85 666.17 354.1 665.13 352.32 664.14 350.46 663.3L350.4 662.87C349.16 662.64 348.02 662.19 346.98 661.52H345.77C345.72 661.22 345.61 660.61 345.56 660.31L344.8 660.44C343.52 659.79 342.24 659.16 341.03 658.39L339.7 658.56 339.64 657.42C339.3 657.47 338.62 657.58 338.28 657.64L338.33 656.81C335.6 655.8 333 654.51 330.36 653.31V652.39C330.01 652.43 329.3 652.49 328.94 652.53 327.52 651.69 326.03 650.99 324.51 650.36L324.34 649.5C323.87 649.54 322.94 649.64 322.48 649.69L322.36 648.77C320.34 648.05 318.37 647.21 316.41 646.36L316.3 645.85C314.44 645.06 312.62 644.17 310.79 643.31 309.39 642.6 307.99 641.91 306.57 641.23L306.65 640.26 305.58 640.54C305.66 626.02 305.59 611.49 305.6 596.96 305.64 593.26 305.35 589.54 305.99 585.87 306.08 586.25 306.27 587 306.36 587.38 307.79 587.26 309 587.67 309.98 588.61 310.34 588.57 311.05 588.5 311.41 588.46L311.45 589.52C312.77 589.97 314.09 590.41 315.44 590.79L315.54 591.27C317.12 591.84 318.71 592.49 320.04 593.55 320.38 593.51 321.07 593.43 321.41 593.39L321.67 594.67 322.89 594.55C323.65 594.95 324.42 595.34 325.2 595.7 326.16 596.29 327.12 596.89 328.07 597.5 328.34 597.52 328.88 597.57 329.15 597.59 331.27 598.7 333.44 599.73 335.65 600.65L335.57 601.56C335.94 601.53 336.67 601.48 337.04 601.46 338.12 602.04 339.26 602.5 340.45 602.83L340.5 603.29C342.83 604 344.96 605.22 347.03 606.49 347.29 606.5 347.8 606.52 348.06 606.53 349.62 607.57 351.25 608.5 352.86 609.47 353.15 609.46 353.72 609.46 354.01 609.46 355.06 610.12 356.19 610.6 357.41 610.89L357.33 611.78 358.58 611.33 358.5 612.2C359.1 612.41 360.31 612.82 360.92 613.03 362.36 613.66 363.81 614.28 365.31 614.79 365.37 614.97 365.49 615.33 365.55 615.51 366.87 615.85 368.17 616.26 369.48 616.63L369.65 617.7 370.93 617.48C371.71 617.96 372.52 618.42 373.34 618.84L373.62 619.72C374.06 619.65 374.95 619.49 375.39 619.42L375.63 620.55C376 620.54 376.73 620.51 377.1 620.49 378.5 621.32 379.95 622.06 381.42 622.74L381.64 623.22C383.38 623.8 385.07 624.5 386.72 625.27 388.08 626.02 389.44 626.77 390.81 627.51 391.09 627.51 391.65 627.52 391.93 627.53 392.44 627.88 393.45 628.57 393.96 628.92 394.6 629.15 395.87 629.62 396.51 629.86 397.08 642.56 396.33 655.28 396.41 667.99 396.12 673.97 396.79 680.04 395.51 685.93 393.86 685.45 392.33 684.65 391.08 683.46M574.03 606.4C560 606.36 545.96 606.2 531.93 606.15 528.32 605.49 524.63 605.86 520.99 605.77 491.65 605.76 462.31 605.53 432.98 605.48 428.47 605.37 423.83 605.99 419.53 604.29L419.46 603.76C417.42 603.26 415.51 602.38 413.72 601.32 411.44 600.02 409.01 599 406.5 598.24L406.4 597.72C405.8 597.38 404.59 596.69 403.99 596.35L403.11 596.49C402.38 596.04 401.65 595.59 400.93 595.14 400.33 594.91 399.14 594.45 398.54 594.21L398.3 593.42C397.87 593.48 396.99 593.6 396.55 593.66L396.48 592.67C395.1 592.33 393.77 591.88 392.43 591.45L392.28 590.5C391.84 590.55 390.96 590.65 390.51 590.7L390.33 589.76C389.75 589.56 388.59 589.17 388.01 588.98 385.94 587.9 383.82 586.93 381.62 586.15L381.52 585.27C381.15 585.29 380.39 585.34 380.01 585.36 378.01 584.09 375.87 583.01 373.62 582.23L373.4 581.28C373.05 581.34 372.35 581.47 371.99 581.53 370.29 580.6 368.58 579.69 367.03 578.53 366.66 578.58 365.92 578.68 365.55 578.73L365.6 577.73C364.3 577.56 363.09 577.14 361.97 576.47 361.74 576.45 361.26 576.41 361.02 576.39 359.52 575.24 357.9 574.23 356.09 573.66 355.35 573.28 354.62 572.87 353.91 572.45L353.01 572.55C352.41 572.19 351.19 571.46 350.58 571.09L350.4 570.32C349.94 570.4 349.03 570.55 348.57 570.62L348.41 569.33C348.05 569.4 347.33 569.55 346.97 569.62 345.63 568.75 344.28 567.9 342.95 567.01 341.88 566.61 340.83 566.18 339.82 565.65L338.64 565.83 338.31 564.82C335.37 563.8 332.67 562.21 329.71 561.25L329.55 560.62C328.96 560.45 327.77 560.11 327.18 559.95 326.87 559.37 326.25 558.22 325.94 557.64 328.45 556.69 330.94 555.62 333.3 554.32 335.47 553.11 337.75 552.11 340.09 551.25 341 550.66 341.9 550.05 342.81 549.44 343.17 549.47 343.91 549.54 344.28 549.57L344.57 548.3C345.03 548.41 345.94 548.63 346.39 548.74L346.59 547.39C347.05 547.46 347.97 547.6 348.43 547.67L348.6 546.36C349.05 546.42 349.96 546.55 350.41 546.62L350.47 545.78C352.89 545.15 355.3 544.23 357.11 542.43L358.32 542.8 358.59 541.47C359.04 541.55 359.94 541.72 360.38 541.81L360.66 540.93C362.46 540.35 364.19 539.57 365.92 538.77 366.68 538.38 367.42 537.94 368.14 537.47L369.39 537.75 369.59 536.65C370.85 536.21 372.11 535.74 373.38 535.29L373.52 534.37C373.92 534.43 374.73 534.57 375.13 534.64 376.05 533.84 377.12 533.35 378.35 533.15L378.4 532.59C379.33 532.21 380.26 531.83 381.2 531.44 382.44 530.78 383.67 530.11 384.89 529.38 385.28 529.46 386.05 529.61 386.44 529.68L386.4 528.63C388.68 527.82 390.98 526.95 392.92 525.45 393.29 525.51 394.02 525.64 394.38 525.7L394.56 524.32C394.91 524.34 395.61 524.39 395.96 524.41 396.57 524.16 397.79 523.65 398.4 523.39L398.59 522.43C399.04 522.54 399.96 522.75 400.41 522.86L400.62 521.84C403.6 520.72 406.36 519.04 409.47 518.23L409.45 517.34 410.69 517.78 410.55 516.64C411.28 516.59 412.75 516.5 413.49 516.45L413.42 515.51C414.16 515.49 415.64 515.44 416.38 515.41L416.39 514.59C473.98 514.37 531.57 515.06 589.16 514.73 588.93 516.05 590.37 515.5 591.14 515.61 591.66 515.9 592.69 516.47 593.21 516.76 594.62 517.42 596.06 518.04 597.51 518.62L597.67 519.23C598.97 519.66 600.26 520.15 601.57 520.58L601.6 521.56C602.06 521.49 602.97 521.34 603.43 521.27L603.66 522.16C605.61 522.98 607.52 523.91 609.47 524.74L609.64 525.25C610.81 525.71 611.97 526.21 613.16 526.67 614.83 527.6 616.5 528.53 618.07 529.61L619.28 529.22C619.36 529.57 619.53 530.26 619.61 530.6 619.97 530.58 620.68 530.53 621.04 530.51 624.02 532.9 627.71 534.1 630.96 536.08 631.44 536.36 632.41 536.93 632.9 537.22 634.79 537.89 636.54 538.88 638.34 539.77L638.54 540.4C639.8 540.89 641.08 541.42 642.43 541.65L642.66 542.66C643.11 542.57 644 542.39 644.45 542.3V543.27C646.37 544.18 648.26 545.14 650.29 545.81 650.35 546.01 650.46 546.41 650.52 546.61L651.61 546.32 651.79 547.06C652.36 547.39 653.51 548.05 654.08 548.38 654.33 548.41 654.85 548.48 655.1 548.51 656.47 549.27 657.86 550.01 659.25 550.74 660.86 551.64 662.49 552.52 664.03 553.55 664.38 553.49 665.1 553.35 665.45 553.28L665.62 554.17C666.22 554.52 667.43 555.22 668.03 555.57L669.27 555.3C669.37 555.69 669.58 556.48 669.68 556.87L670.91 556.53C671.53 556.85 672.76 557.48 673.37 557.8 673.46 558.04 673.63 558.53 673.72 558.77L675.29 558.34C675.32 558.67 675.4 559.35 675.43 559.69L676.51 559.44 676.74 560.23C678 560.66 679.27 561.12 680.54 561.55L680.59 562.52C680.96 562.5 681.7 562.48 682.06 562.46 683 563.1 684.01 563.61 685.08 564 684 564.41 682.99 564.92 682.04 565.53 681.69 565.52 680.98 565.5 680.63 565.49 680.55 565.83 680.39 566.52 680.32 566.87L679.06 566.47C677.73 567.33 676.35 568.1 674.98 568.86 674.42 569.04 673.3 569.39 672.74 569.57 671.57 570.19 670.39 570.78 669.24 571.39 668.05 571.92 666.85 572.44 665.63 572.84L665.47 573.65C665.03 573.57 664.15 573.4 663.71 573.31L663.44 574.75C662.99 574.61 662.07 574.33 661.62 574.18 661.55 574.46 661.42 575.02 661.35 575.3 659.08 576.13 656.84 577.01 654.55 577.75L654.46 578.34C653.28 578.83 652.12 579.34 650.94 579.79 649.16 580.51 647.44 581.33 645.82 582.34L644.97 582.5C642.68 583.92 640.19 584.98 637.63 585.75L637.44 586.72C637.09 586.69 636.4 586.63 636.06 586.59 633.99 587.77 631.8 588.7 629.61 589.6 629.55 589.76 629.41 590.1 629.35 590.27 627.07 590.98 624.86 591.85 622.66 592.74 622.56 592.98 622.38 593.48 622.29 593.73L620.71 593.3 620.4 594.32C619.44 594.46 618.59 594.82 617.83 595.39L616.63 595.15C616.53 595.52 616.33 596.26 616.22 596.63L614.99 596.38C613.71 597.19 612.37 597.92 611.06 598.64 610.69 598.57 609.95 598.44 609.58 598.37L609.56 599.36C608.24 599.8 606.93 600.26 605.62 600.68L605.33 601.64C605 601.59 604.34 601.48 604.01 601.43 602.85 602.11 601.63 602.72 600.45 603.32 599.6 603.76 598.76 604.2 597.92 604.63 596.6 605.17 595.29 605.7 594.01 606.27 592.1 606.97 590.09 607.79 588.03 607.18 583.44 606.06 578.7 606.48 574.03 606.4M290.59 536.95C290.64 515.1 290.68 493.25 290.59 471.39L291.75 471.47C291.68 471.06 291.54 470.24 291.47 469.83 292.67 469.68 293.87 469.49 295.08 469.29 296.24 468.07 297.85 467.58 299.45 467.19L299.59 466.39C299.94 466.43 300.64 466.52 301 466.57 302.24 465.88 303.49 465.22 304.74 464.52 305.97 464.09 307.19 463.64 308.44 463.22L308.53 462.33C309.01 462.42 309.95 462.61 310.43 462.71L310.52 461.5C310.97 461.55 311.88 461.65 312.33 461.7L312.49 460.72C314.15 460.32 315.78 459.82 317.44 459.38 317.52 459.1 317.67 458.55 317.74 458.27L318.96 458.59C321.17 456.99 323.79 456.13 326.38 455.33L326.54 454.9C327.15 454.56 328.37 453.88 328.98 453.54 329.22 453.54 329.69 453.53 329.93 453.53 331.2 452.79 332.59 452.29 333.94 451.67 335.03 451.21 336.12 450.73 337.23 450.29 338.49 449.72 339.74 449.12 340.98 448.49 341.26 448.49 341.8 448.49 342.08 448.49 343.07 447.83 344.03 447.11 344.94 446.34 345.31 446.45 346.04 446.67 346.4 446.78L346.48 445.6C347.24 445.55 348.75 445.45 349.51 445.4V444.56C350.85 444.19 352.16 443.7 353.49 443.25L353.63 442.74C355.46 442.29 357.2 441.54 358.86 440.62 359.91 440.16 360.97 439.68 362.03 439.22 363.18 438.83 364.35 438.49 365.55 438.2L365.45 437.16C365.94 437.25 366.9 437.44 367.39 437.53L367.64 436.53C369.63 435.86 371.62 435.16 373.59 434.41L373.67 433.87C374.86 433.59 375.96 433.1 376.96 432.38L377.88 432.41C378.71 432.01 379.56 431.64 380.43 431.31L380.64 430.7C381.23 430.5 382.4 430.12 382.98 429.93 384.32 429.31 385.69 428.73 387.08 428.22 387.96 427.89 389.72 427.22 390.6 426.89 390.82 435.6 390.54 444.32 390.97 453.03 391.16 465.12 391.33 477.26 391.45 489.39L390.36 489.37 390.38 490.64C389.93 490.57 389.03 490.43 388.58 490.36L388.38 491.6C388 491.57 387.23 491.51 386.84 491.48 382.33 494.02 377.6 496.16 373.03 498.59 372.67 498.53 371.97 498.41 371.61 498.35L371.37 499.57C370.94 499.52 370.06 499.43 369.63 499.39L369.52 500.27C368.21 500.75 366.91 501.27 365.59 501.71L365.4 502.62C365.02 502.57 364.26 502.47 363.88 502.42 362.3 503.35 360.7 504.25 359.14 505.19 357.41 505.8 355.74 506.55 354.07 507.26 353.33 507.7 352.6 508.17 351.89 508.65L350.67 508.46 350.41 509.45C349.11 509.83 347.82 510.25 346.49 510.48L346.58 511.19C344.39 512.14 342.25 513.18 340.04 514.07 337.17 515.22 334.79 517.52 331.59 517.81L331.51 518.31C329.58 519.26 327.64 520.19 325.57 520.77L325.37 521.68C325.02 521.61 324.32 521.48 323.97 521.41 323.41 521.73 322.28 522.38 321.72 522.71L321.48 523.29C320.27 523.73 319.07 524.2 317.87 524.63 316.65 525.26 315.44 525.88 314.24 526.51L313.39 526.45 313.45 527.26C311.23 527.96 309.05 528.77 306.99 529.86 305.65 530.77 304.16 531.46 302.57 531.78L302.41 532.63C301.96 532.57 301.06 532.45 300.61 532.38L300.45 533.62C299.99 533.56 299.06 533.44 298.6 533.38L298.44 534.65C298.06 534.63 297.29 534.59 296.91 534.57 295.12 536.09 292.85 536.66 290.59 536.95M709.05 534.96C707.93 534.51 706.79 534.06 706.09 533.03 705.37 532.68 703.93 531.96 703.21 531.6 702.79 531.59 701.95 531.57 701.54 531.56L701.34 530.44C700.9 530.51 700.02 530.64 699.58 530.71L699.34 529.44C698.88 529.49 697.96 529.59 697.5 529.65L697.47 528.8C695.62 528.28 693.83 527.56 692.13 526.7 690.42 525.52 688.5 524.7 686.49 524.21L686.35 523.83C685.75 523.49 684.55 522.83 683.95 522.49L682.73 522.64C682.64 522.31 682.46 521.65 682.37 521.32 682.02 521.34 681.32 521.39 680.97 521.42 679.6 520.48 678.05 519.88 676.49 519.35L676.41 518.39C675.95 518.47 675.01 518.62 674.55 518.7L674.38 517.35C674.01 517.41 673.26 517.54 672.89 517.6 671.62 516.9 670.36 516.2 669.11 515.49L668.43 515.67 668.32 514.85C666.53 514.21 664.78 513.49 663.02 512.8 661.59 512.13 660.22 511.34 659 510.35L657.76 510.63C657.69 510.39 657.57 509.92 657.5 509.69 656.89 509.39 655.67 508.78 655.06 508.47 654.69 508.53 653.94 508.66 653.57 508.72L653.4 507.36C652.93 507.44 652 507.61 651.53 507.69L651.47 506.83C648.66 505.98 646.12 504.51 643.45 503.33L643.47 502.58C642.71 502.54 641.18 502.46 640.41 502.42L640.32 501.23 638.66 501.56C638.59 501.35 638.46 500.92 638.4 500.71 637.8 500.37 636.61 499.7 636.02 499.37L635.11 499.45C634.38 499.01 633.65 498.57 632.94 498.13 632.31 497.91 631.07 497.47 630.45 497.26L630.41 496.64C629.08 496.24 627.78 495.8 626.47 495.38L626.55 494.72C625.16 494.53 623.9 493.94 622.67 493.34 620 491.65 616.67 490.94 614.55 488.48 614.96 483.18 614.25 477.79 615.43 472.55L614.61 472.35C615.08 470.61 615.28 468.81 615.25 467 615.12 453.74 615.47 440.48 615.33 427.22 616.38 427.34 617.45 427.46 618.53 427.56L618.5 428.27C619.65 428.58 620.8 428.9 621.96 429.21 622.71 429.64 623.44 430.09 624.16 430.57L625.4 430.31 625.58 431.59C625.99 431.58 626.81 431.58 627.23 431.57 628.42 432.14 629.63 432.71 630.84 433.28 631.97 433.84 633.1 434.44 634.34 434.77L634.56 435.28C636.53 435.71 638.4 436.5 640.14 437.51L641.36 437.4 641.59 438.71C641.96 438.66 642.71 438.56 643.08 438.51 644.51 439.37 646.04 440.07 647.62 440.64L647.48 441.23C648.8 441.31 649.96 441.76 650.94 442.59 651.34 442.54 652.12 442.44 652.52 442.39L652.63 443.19C654.16 443.52 655.58 444.21 656.88 445.09 658.27 445.63 659.67 446.18 661.08 446.72 663.33 447.98 665.72 448.99 668.15 449.87 669.4 450.46 670.65 451.05 671.92 451.61 673.3 452.19 674.66 452.81 675.97 453.54 676.31 453.51 677.01 453.45 677.36 453.41L677.6 454.75C677.96 454.69 678.69 454.56 679.05 454.5 679.98 455.22 680.97 455.87 681.97 456.49L683.02 456.41C685.27 457.78 687.67 458.89 690.13 459.82 690.62 460.03 691.61 460.45 692.11 460.66 692.6 460.93 693.57 461.47 694.06 461.74 696.67 463.07 699.66 463.69 701.98 465.58 702.34 465.54 703.06 465.45 703.42 465.41L703.52 466.26C705.55 466.75 707.41 467.7 709.25 468.68 710.64 469.41 712.05 470.13 713.46 470.83 713.31 492.6 713.5 514.36 713.36 536.13 711.9 535.77 710.47 535.39 709.05 534.96M427.58 481.36C427.4 463.93 427.24 446.49 427.27 429.06 427.14 427.24 427.61 425.15 426.32 423.62L427.33 423.59C427.32 422.57 427.3 420.51 427.29 419.49L426.63 419.48C426.65 418.7 426.7 417.15 426.73 416.38 440.46 415.27 454.28 415.82 468 414.95 480.29 414.35 492.62 414.81 504.89 413.91 514.88 415.16 525.04 414.29 535.1 414.81 547.85 415.94 560.73 414.97 573.47 416.22 573.39 437.68 573.38 459.15 573.46 480.61 555.66 481 537.84 480.66 520.04 480.78 516.06 480.92 512.03 480.37 508.1 481.17 481.27 481.65 454.42 481.3 427.58 481.36M613.68 761.04C614.78 761.44 615.96 761.59 616.9 760.72 618.23 761.05 619.61 761.26 621 761.36 625.21 759.45 626.26 753.27 622.26 750.57 621.11 750.14 619.99 749.66 618.85 749.22 616.94 748.35 615.01 747.52 613.08 746.71 608.67 745.04 604.33 743.21 600 741.35 598.31 740.68 596.61 740.02 594.96 739.27 591.62 737.37 587.62 738.28 585.52 741.47 585.5 743.17 585.49 744.87 585.5 746.57L586.11 746.64C586.84 747.65 587.76 748.49 588.73 749.28 592.82 750.79 596.86 752.48 600.9 754.15 602.57 754.8 604.23 755.48 605.87 756.21 607.54 756.87 609.19 757.57 610.82 758.32 612.76 759.08 614.71 759.82 616.68 760.54L613.68 761.04M380.93 759.03C382.52 760.69 384.85 761.28 387.09 761.37 390.59 759.55 394.38 758.39 397.95 756.7 399.58 756.08 401.2 755.39 402.81 754.67 407.21 752.93 411.54 751 416 749.36 416.65 748.94 417.31 748.52 417.98 748.1 418.33 747.58 419.03 746.54 419.37 746.02 419.44 744.6 419.49 743.18 419.53 741.75 418.65 740.84 417.81 739.9 417.04 738.9 414.81 737.88 412.25 738.23 410.08 739.21 408.62 739.83 407.14 740.43 405.64 740.91L405.45 741.33C402.24 742.37 399.19 743.79 396.07 745.05 395.11 745.45 394.17 745.86 393.23 746.26 389.63 747.75 386.04 749.26 382.45 750.75L382.43 751.17C379.47 752.62 380.27 756.43 380.93 759.03M248.52 746.68C252.58 747.08 256.67 747.09 260.72 746.59 260.16 746.22 259.59 745.86 259.02 745.5 258.84 743.53 258.66 741.56 258.5 739.58 255.46 739.59 252.43 739.55 249.39 739.57 249.42 736.81 249.43 734.04 249.4 731.27 252.47 731.29 255.54 731.29 258.61 731.32 258.53 729.45 258.42 727.57 258.31 725.69 255.34 725.75 252.37 725.75 249.4 725.71 249.39 723 249.38 720.29 249.41 717.58 252.74 717.61 256.07 717.63 259.4 717.61 259.67 714.97 257.41 711.35 259.63 709.33 253.27 708.79 246.88 708.98 240.5 709.11 241.17 718.74 240.57 728.42 240.81 738.07 240.77 739.27 241.27 740.18 242.31 740.8 244.6 742.51 246.7 744.48 248.52 746.68M268.84 746.37C270.48 747.91 272.38 747.17 274.2 746.38 274.68 746.1 275.62 745.55 276.1 745.27 277.04 744.76 278 744.26 278.96 743.76 278.45 740.85 276.85 738.31 275.01 736.05 274.01 737.48 273 738.89 271.95 740.27 270.39 740.85 268.84 741.48 267.24 741.97 268.4 735.46 274.77 732.12 278.79 727.52 281.22 724.86 281.36 721.09 281.5 717.69 279.58 715.58 277.7 713.42 275.72 711.36 275.52 711.03 275.12 710.37 274.93 710.04 273.9 708.56 272.2 708.25 270.58 708.89 267.48 709.67 264.61 711.12 262.14 713.12 259.37 714.04 261.75 716.78 262.66 718.24 263.87 719.63 265.05 721.06 266.01 722.64 266.71 720.41 268.17 718.53 270.02 717.13 271.42 716.18 272.96 715.44 274.63 715.09 274.56 716.23 274.49 717.35 274.42 718.48L273.8 718.51C272.81 720.26 271.58 721.86 270.16 723.28 267.36 725.43 264.9 728.01 262.82 730.86 262.45 731.85 262.07 732.83 261.67 733.79 261.48 735.99 261.64 738.19 262.57 740.21 264.09 742.07 265.75 743.81 267.65 745.28 267.95 745.55 268.54 746.1 268.84 746.37M283.99 746.42C290.65 746.76 297.32 746.51 303.99 746.59 303.99 744.2 303.99 741.8 303.99 739.41 301.76 739.4 299.53 739.39 297.3 739.38 297.22 729.34 297.09 719.3 297.36 709.26 294.38 708.96 291.38 708.95 288.39 709.02 288.8 719.15 288.62 729.3 288.52 739.44 286.43 739.42 284.33 739.4 282.25 739.38 282.85 741.73 283.53 744.05 283.99 746.42M692.67 745.18C696.75 747.39 701.77 748.1 706.02 745.9 710.4 744.15 712.56 739.69 713.05 735.24 712.64 732 711.89 728.77 710.35 725.87 708.23 722.88 706 719.98 703.63 717.18 706.46 716.99 709.31 716.95 712.15 716.97 712.24 714.33 712.23 711.68 712.16 709.02 706.09 709 700.02 709.07 693.96 708.94 694.7 712.68 697.38 715.59 699.24 718.81 699.89 720.16 700.55 721.5 701.25 722.82 702.96 727.15 705.36 732.74 702.47 736.97 702.5 737.29 702.56 737.94 702.59 738.26 701.33 738.62 700.09 739 698.86 739.4 696.35 738.67 694.57 736.75 692.73 735.03 692.83 738.41 692.84 741.8 692.67 745.18M718.78 741.22C721.53 743.13 723.72 746.33 727.23 746.82 729.82 743.88 733.2 741.8 736 739.06 735.9 731.66 736.16 724.26 735.91 716.86 735.9 715.27 734.21 714.5 733.34 713.38L732.88 713.47C731.96 712.57 731.02 711.7 730.09 710.83 729.1 709.99 728.13 709.14 727.19 708.27 723.73 709.96 720.59 712.22 717.94 715.01 716.38 717.8 715.29 720.86 715.48 724.09 715.57 729.05 715.15 734.08 715.89 738.99 716.34 739.32 717.24 740 717.69 740.33 717.96 740.55 718.51 741 718.78 741.22M723.56 741.05C723.08 734.25 722.72 727.19 724.71 720.58 725.67 719.57 726.66 718.57 727.7 717.62 728.29 723.66 727.85 729.75 727.99 735.8 727.31 736.51 726.64 737.21 725.97 737.91 725.13 738.94 724.33 739.99 723.56 741.05M758.52 747.36C761.76 747.26 765.01 747.27 768.27 747.28 768.12 741.26 766.69 735.33 763.92 729.99 762.34 726.96 760.32 724.2 758.59 721.27 760.97 721.26 763.36 721.3 765.76 721.33 765.78 724.93 765.44 728.59 766.36 732.12 768.77 733.59 770.78 735.61 773.21 737.08 773.55 737.71 773.9 738.33 774.26 738.96 774.95 733.21 774.49 727.4 774.69 721.62 776.42 721.61 778.18 721.52 779.92 721.35 778.67 720 777.65 718.47 777.17 716.68 776.53 716.67 775.24 716.65 774.6 716.64 774.62 714.05 774.62 711.45 774.58 708.85 771.62 708.98 768.65 709.03 765.69 709.11 765.76 711.61 765.77 714.1 765.74 716.6 761.22 716.58 756.71 716.55 752.2 716.62 752.48 717.17 753.04 718.27 753.33 718.82 757.49 727.71 759.82 737.52 758.52 747.36M741.59 745.18C744.51 745.72 747.4 746.41 750.35 746.87 750.16 734.32 750.15 721.77 750.34 709.23 747.4 708.94 744.44 708.96 741.5 709.16 741.78 721.16 741.64 733.17 741.59 745.18M430.76 558.14C442.61 563.79 454.31 569.78 466.14 575.43 490.76 575.81 515.42 575.45 540.05 575.6 542.05 575.58 544.14 575.78 546.06 575.04 547.32 574.24 548.65 573.53 549.97 572.8 551.05 572.32 552.14 571.8 553.24 571.31 554.13 570.83 555.03 570.36 555.94 569.87 558.33 568.64 560.73 567.42 563.15 566.25 565.76 564.84 568.43 563.54 571.09 562.21 578.97 558.05 586.92 554.01 594.92 550.09 591.61 548.81 588.39 547.32 585.22 545.73 582.01 544.15 578.68 542.79 575.55 541.05 527.83 540.96 480.11 540.94 432.39 541.07 429.08 543.05 425.51 544.5 422.07 546.2 420.72 546.85 419.39 547.51 418.09 548.22 416.71 548.84 415.35 549.46 413.96 550.02 416.98 551.26 419.9 552.74 422.81 554.22 425.48 555.49 428.13 556.79 430.76 558.14M482.92 348.45C484.19 349.4 485.68 348.49 486.92 348.01 489.15 345.56 491.55 343.28 493.92 340.97 494.98 339.89 495.9 338.69 496.77 337.43L497.15 337.52C497.86 336.12 499.08 335.1 500.22 334.03 500.29 333.29 500.36 332.53 500.45 331.76 500.15 331.69 499.55 331.55 499.26 331.48 496.95 326.68 493.23 322.7 491.06 317.83 490.87 319.24 490.37 320.59 489.76 321.85 488.88 323.33 488.01 324.79 487.01 326.17 486.12 327.52 485.22 328.85 484.32 330.17 484.05 330.45 483.5 331.01 483.23 331.29 481.95 332.81 480.68 334.33 479.5 335.92 479.5 323 477.72 309.59 482.1 297.14 482.64 296.08 483.19 295.01 483.72 293.92 487.05 288.31 493.98 285.42 500.33 286.86 499.18 286.55 497.26 285.1 499.67 285.16 499.93 279.63 499.81 274.08 499.71 268.54 490.48 268.16 480.63 269.31 473.14 275.23 472.28 276.03 471.44 276.83 470.6 277.61 470.36 277.9 469.88 278.46 469.64 278.74 465.21 284.14 462.98 291.08 462.69 297.99 462.52 308.81 462.79 319.63 462.54 330.44 463.87 331.79 465.25 333.08 466.71 334.28 467 334.5 467.59 334.95 467.88 335.17 470.39 337.3 472.67 339.69 475.25 341.74 477.95 343.81 480.22 346.38 482.92 348.45M580.8 345.29C581.85 346.11 582.91 346.93 583.99 347.72 586.02 345.73 588.16 343.83 590.53 342.21L590.61 341.84C592.35 340.53 594.05 339.13 595.74 337.73 597.61 336.18 599.46 334.61 601.41 333.14L601.58 332.84C602.91 332.38 603.54 331.48 603.47 330.16 603.55 314.26 603.5 298.35 603.5 282.45H602.77C602.48 282.19 601.91 281.66 601.62 281.39 597.5 277.78 593.23 274.33 589.06 270.77 587.72 269.61 586.35 267.82 584.36 268.15 581.2 269.54 578.5 271.74 575.68 273.68 572.2 276.6 569.17 280.05 566.87 283.98 566.09 285.32 565.31 286.67 564.55 288.01 563.98 289.66 563.38 291.3 562.78 292.92 562.03 296.24 561.43 299.61 561.43 303.02 561.42 312.04 561.54 321.06 561.6 330.07 564.78 332.31 567.68 334.91 570.77 337.25 574.13 339.91 577.4 342.68 580.8 345.29M577.22 314.01C577.16 305.48 577.13 295.88 583.13 289.1 584.2 288.11 585.27 287.1 586.32 286.05 586.53 286.52 586.95 287.44 587.17 287.9 587.31 299.63 587.01 311.37 587.33 323.1 585.65 325.16 583.98 327.23 582.28 329.26 580.59 331.18 579.03 333.2 577.59 335.29 576.79 328.24 577.42 321.1 577.22 314.01M375.11 347.25C377.81 347.22 380.51 347.21 383.21 347.06 384.51 346.74 385.84 346.51 387.17 346.28 390.07 345.41 392.84 344.12 395.19 342.18 396 341.26 396.82 340.35 397.65 339.43L398.2 339.4C402.29 333.87 402.67 326.79 402.41 320.17 399.37 317.94 396.58 315.4 393.56 313.14L393.52 312.43C393.13 312.43 392.35 312.43 391.96 312.43 392.49 312.07 393.55 311.36 394.08 311 397.62 308.98 400.33 305.75 401.79 301.94 404.39 295.32 403.87 287.95 403.38 281.01 402.11 280.16 400.88 279.25 399.66 278.33 396.78 275.82 393.91 273.29 390.88 270.96 390.02 270.14 389.09 269.39 388.16 268.66 378.54 268.71 368.91 268.88 359.3 268.57 358.31 271.61 358.91 274.83 358.78 277.96 358.7 296.05 358.93 314.14 358.66 332.22 359.51 333.18 360.3 334.25 361.55 334.72L361.54 335.14C364.37 337.13 366.63 339.79 369.38 341.86L369.44 342.53 370.16 342.59C371.87 344.08 373.55 345.6 375.11 347.25M376.54 336.17C376.33 329.23 376.62 322.28 376.36 315.34 376.8 315.4 377.7 315.52 378.14 315.59 379.52 316.74 380.94 317.83 382.4 318.88 383.48 319.53 384.58 320.16 385.72 320.72 386.48 324.92 386.28 330.07 382.52 332.83L382.53 333.31C380.56 334.32 378.58 335.31 376.54 336.17M376.23 287.23C379.67 287.28 383.12 287.23 386.57 287.33 386.48 290.42 386.14 293.53 386.59 296.6 386.34 296.54 385.83 296.4 385.58 296.34 385.37 298.23 384.34 299.83 383.4 301.41 382 302.87 380.51 304.23 379.01 305.56 378.61 305.53 377.81 305.47 377.41 305.44L376.91 307.09C375.88 300.53 376.67 293.84 376.23 287.23M430.47 345.26C432.15 346.47 434.5 348.64 435.89 345.83 439.34 342.99 442.85 340.22 446.18 337.23 447.87 335.92 449.52 334.55 451.17 333.17 451.44 332.95 451.98 332.5 452.26 332.28 452.57 332.02 453.19 331.51 453.5 331.25 453.53 315.01 453.51 298.76 453.5 282.52L452.84 282.41C452.53 282.13 451.92 281.58 451.61 281.31 450.03 279.92 448.43 278.55 446.77 277.24 442.88 274.04 439.15 270.64 435.16 267.56 432.1 269.28 429.03 271.01 426.32 273.25 426.03 273.49 425.45 273.99 425.16 274.24 422.01 276.74 419.56 279.95 417.21 283.18 413.49 289.09 411.36 296.03 411.46 303.03 411.52 312.06 411.54 321.08 411.63 330.1 413.51 331.4 415.38 332.76 416.92 334.46 417.16 334.5 417.64 334.6 417.87 334.64 418.75 335.58 419.7 336.45 420.66 337.3 424.04 339.64 426.97 342.58 430.45 344.8L430.47 345.26M427.44 335.16C426.93 326.47 427.28 317.74 427.25 309.03 427.16 302.02 428.49 294.58 433.07 289.02 434.07 288.22 435.02 287.36 435.95 286.45 436.27 286.54 436.92 286.73 437.24 286.82 437.13 298.6 437.26 310.39 437.22 322.17 437.04 324.2 435.33 325.56 434.1 327.01 431.92 329.77 429.64 332.43 427.44 335.16M508.64 346.36C514.55 346.29 520.46 346.33 526.37 346.37 526.78 337.95 524.46 328.32 530.11 321.12 531.6 319.93 533.06 318.68 534.45 317.36 534.94 327.05 534.59 336.77 534.63 346.47 540.44 346.5 546.25 346.44 552.07 346.51 552.22 338.34 552.1 330.18 552.15 322.01 552.03 320.68 552.35 318.98 551.12 318.05 548.43 315.55 545.54 313.29 542.64 311.05 542.56 310.72 542.38 310.07 542.3 309.74 543.51 308.83 544.72 307.89 545.93 306.94 546.56 306.16 547.19 305.38 547.83 304.59L548.29 304.52C550.28 301.35 551.95 297.87 552.26 294.08 553.03 285.62 552.77 277.11 552.64 268.62 546.53 268.78 540.41 268.84 534.3 268.57 533.5 277.62 535.23 286.92 532.66 295.76 531.15 297.88 529.4 299.81 527.48 301.55 526.96 301.58 525.93 301.63 525.41 301.65 525.54 290.67 525.46 279.68 525.45 268.69 519.5 268.71 513.56 268.76 507.62 268.74 507.58 278.2 507.61 287.66 507.59 297.12 507.23 298.73 508.75 299.58 509.7 300.52L510.58 300.45 510.59 301.14C512.82 302.7 514.81 304.58 517.02 306.17 518.15 306.83 518.64 307.98 519.01 309.16 518.53 309.32 517.57 309.64 517.09 309.81 515.79 311.28 514.45 312.69 513.17 314.16 512.34 315.67 511.56 317.19 510.75 318.69 507.76 327.62 509.12 337.13 508.64 346.36M611.33 346.54C621.57 347.53 632.29 348.57 642.23 345.24 643.53 344.5 644.85 343.78 646.18 343.06 655.26 336.88 659.81 325.66 659.81 314.91 660.03 303.74 660.34 292.53 659.6 281.37 659.25 281.44 658.55 281.57 658.2 281.63 657.28 280.6 656.28 279.66 655.26 278.73 653.15 277.18 651.2 275.43 649.2 273.75 647.66 272.51 646.11 271.29 644.46 270.2L644.61 269.4C632.71 268.36 620.7 269.32 608.76 268.85 609.24 279.08 608.87 289.44 611.21 299.49 612.63 307.16 616.2 314.24 620.27 320.82 621.09 321.95 621.92 323.05 622.74 324.17 623.91 325.75 625.14 327.3 626.49 328.74L626.55 329.52 627.74 329.56C627.66 329.99 627.5 330.85 627.43 331.27 622.04 330.95 616.64 331.1 611.25 331.17 611.22 336.3 611.09 341.42 611.33 346.54M634.77 325.22C633.17 322.71 631.82 320.03 630.84 317.21 630.51 316.17 630.15 315.13 629.78 314.09 627.48 305.34 626.73 296.23 627.3 287.21L625.8 287.23C630.96 286.17 636.29 287.29 641.52 286.6 642.4 296.69 641.64 306.88 641.91 317.01 642.16 321.6 640.53 326 638.08 329.81 637.01 328.26 635.9 326.74 634.77 325.22M540.16 259.34C542.24 259.32 544.32 259.31 546.4 259.3 546.42 251.79 546.34 244.28 546.44 236.76 548.76 236.93 551.09 237.08 553.42 237.29 553.25 234.81 552.81 232.37 552.33 229.92 548.27 230.01 544.21 230.1 540.15 229.92 539.88 239.73 539.88 249.54 540.16 259.34M555.78 259.81C555.96 259.47 556.32 258.8 556.5 258.46 558.14 258.54 559.8 258.57 561.46 258.61 561.23 252.69 561.35 246.76 561.53 240.83 562.14 238.89 563.21 237.09 563.94 235.17 564.42 235.76 564.92 236.33 565.44 236.89 565.25 244.12 565.51 251.35 565.38 258.58 567.44 258.59 569.51 258.6 571.59 258.61 571.66 249.07 571.65 239.53 571.61 229.98 569.58 230.01 567.55 230.05 565.53 230.07 565.4 231.39 565.29 232.67 565.16 233.97 564.23 232.84 563.29 231.72 562.34 230.6 561.8 230.35 560.71 229.86 560.17 229.61 559.23 230.97 558.27 232.29 557.32 233.63L556.65 233.56C554.37 239.83 555.12 246.55 554.96 253.07 554.9 255.35 555.22 257.62 555.78 259.81M430.87 259.35C433.21 259.29 435.56 259.31 437.91 259.35 437.79 257.43 437.62 255.51 437.45 253.57 435.17 253.58 432.9 253.57 430.64 253.54 430.65 251.39 430.67 249.22 430.59 247.05 432.91 247.02 435.22 246.93 437.54 246.8 437.44 245.45 437.35 244.08 437.27 242.71 435.04 242.74 432.8 242.75 430.57 242.67 430.66 238.47 430.66 234.26 430.61 230.05 428.49 230.05 426.38 230.07 424.27 230.11 424.52 238.12 424.14 246.13 424.48 254.14 426.96 255.4 428.65 257.72 430.87 259.35M441.51 258.56C443.74 258.58 445.98 258.59 448.22 258.57 448.21 249.03 448.27 239.48 448.16 229.94 445.93 230.01 443.7 230.11 441.48 230.25 441.71 239.68 441.65 249.13 441.51 258.56M457.52 258.61C458.49 258.6 459.47 258.57 460.45 258.53L460.54 257.88C462.07 256.85 463.43 255.58 464.6 254.12 463.84 252.73 463.05 251.35 462.25 249.97 461.95 249.42 461.34 248.31 461.04 247.76 460.25 250.3 458.82 252.64 456.7 254.26 456.85 248.05 455.32 240.71 460.34 235.91 461.05 239.08 460.73 242.34 460.63 245.55 462.85 245.57 465.07 245.56 467.3 245.54 467.25 242.47 467.33 239.35 466.58 236.33L465.3 236.78 465.48 235.83C464 234.13 462.52 232.44 461.09 230.7 460.57 230.4 459.53 229.8 459.01 229.5 456.6 230.91 454.26 232.49 452.56 234.72 449.65 240.08 451.02 246.26 450.76 252.05 452.97 254.03 455.12 256.08 457.49 257.86L457.52 258.61M469.93 258.58C472.1 258.59 474.27 258.58 476.46 258.55 476.39 254.58 476.39 250.61 476.43 246.63 477.46 246.63 479.51 246.63 480.54 246.63 480.66 250.62 480.65 254.6 480.49 258.57 482.53 258.6 484.58 258.62 486.63 258.62 486.69 249.12 486.66 239.61 486.65 230.11 484.61 230.04 482.57 229.95 480.53 229.88 480.64 234.07 480.66 238.26 480.51 242.45 479.16 242.44 477.81 242.42 476.48 242.39 476.41 238.31 476.38 234.22 476.47 230.13 474.33 230.07 472.19 230.03 470.06 230 469.85 239.53 470.17 249.06 469.93 258.58M489.62 258.58C494.51 258.63 499.41 258.56 504.31 258.6 504.45 257.36 504.59 256.1 504.72 254.84L504.76 253.81C504.74 253.47 504.71 252.8 504.69 252.46 502.98 252.9 501.23 253.18 499.49 253.28 499.35 245.59 499.36 237.89 499.47 230.2 497.34 230.08 495.22 229.97 493.1 229.82 492.9 237.34 492.98 244.87 493.1 252.39 492.07 254.14 489.63 252.57 488.09 252.96 488.62 254.83 489.18 256.7 489.62 258.58M525.24 254.61C527.5 256.32 529.21 258.85 532.02 259.73 532.39 258.57 533.12 257.76 534.22 257.28 534.82 256.43 535.41 255.56 535.99 254.67 536.37 254.55 537.12 254.3 537.49 254.18 536.22 252.52 535.06 250.77 533.99 248.97 533.58 249.6 532.74 250.86 532.32 251.49L531.79 251.53C531.05 252.75 530.32 253.94 529.58 255.14 529.07 250.47 528.86 245.63 529.98 241.04 530.4 238.99 532.21 237.75 533.69 236.47 534.4 236.48 535.83 236.5 536.54 236.51 536.6 234.2 536.63 231.9 536.63 229.58 532.93 230.02 528.93 230.28 526.12 233.05 522.16 237.82 523.03 244.34 523.03 250.08 523.13 251.77 523.01 254.37 525.24 254.61M575.59 254.02C577.53 255.41 579.12 257.19 580.91 258.75 583.47 259.45 586.05 258.37 588.43 257.49 590.73 255.3 591.35 252.13 591.39 249.06 590.06 248.02 588.73 246.97 587.35 245.99 589.76 244.81 591.47 242.58 591.62 239.82 591.64 237.55 592.37 234.46 589.96 233.12 589.05 232.53 588.16 231.92 587.28 231.29L587.64 230.45C583.59 229.81 579.49 229.96 575.42 230.04 575.41 238.03 575.09 246.04 575.59 254.02M581.58 246.86C582.91 247.75 584.24 248.65 585.56 249.57 585.33 250.43 584.88 252.16 584.65 253.03 583.96 253.9 583.29 254.79 582.65 255.67 581.29 252.92 581.61 249.83 581.58 246.86M581.55 243.46C581.6 241.18 581.58 238.89 581.62 236.59 582.96 236.59 584.3 236.58 585.65 236.56 585.71 239.14 584.76 241.48 583.28 243.54 582.84 243.52 581.98 243.48 581.55 243.46M359.56 249.53C378.1 249.49 396.65 249.54 415.2 249.51 415.16 247.13 415.13 244.74 415.28 242.35 396.72 242.08 378.14 242.28 359.57 242.23 359.52 244.67 359.54 247.11 359.56 249.53M603.57 249.51C622.12 249.52 640.68 249.55 659.24 249.5 659.15 247.11 659.17 244.71 659.3 242.31 640.69 242.17 622.07 242.12 603.46 242.33 603.49 244.73 603.53 247.12 603.57 249.51" fill="#010101"/>
</svg>
