<svg width="11" height="20" viewBox="0 0 11 20" fill="#60BBF4" xmlns="http://www.w3.org/2000/svg">
<path d="M0.75779 19.2534C0.857852 19.3538 0.993823 19.4106 1.13591 19.4114C1.20643 19.4121 1.27634 19.3984 1.34136 19.3712C1.40638 19.344 1.46514 19.3039 1.51404 19.2534L10.4302 10.3821C10.4802 10.333 10.52 10.2744 10.5471 10.2098C10.5743 10.1452 10.5883 10.0759 10.5883 10.0059C10.5883 9.93592 10.5743 9.86661 10.5471 9.80203C10.52 9.73745 10.4802 9.67887 10.4302 9.6297L1.51404 0.75657C1.46501 0.704425 1.40594 0.662627 1.34035 0.633661C1.27475 0.604695 1.20397 0.589155 1.13222 0.587965C1.06047 0.586774 0.989204 0.599958 0.922676 0.626732C0.856148 0.653506 0.795712 0.693323 0.744967 0.743812C0.694222 0.794302 0.654204 0.854433 0.627295 0.920626C0.600386 0.986819 0.587135 1.05772 0.588331 1.12912C0.589528 1.20051 0.605146 1.27093 0.634259 1.3362C0.663371 1.40146 0.705381 1.46023 0.75779 1.50901L9.29581 10.0059L0.75779 18.5009C0.707943 18.5502 0.668386 18.6089 0.641393 18.6734C0.614399 18.738 0.600503 18.8072 0.600503 18.8772C0.600503 18.9471 0.614399 19.0163 0.641393 19.0809C0.668386 19.1455 0.707943 19.2041 0.75779 19.2534Z"/>
</svg>
