<svg width="17" height="32" viewBox="0 0 17 32" fill="#60BBF4" xmlns="http://www.w3.org/2000/svg">
<path d="M0.288206 31.7313C0.458312 31.902 0.689463 31.9986 0.931015 32C1.0509 32.0011 1.16974 31.9778 1.28027 31.9316C1.39081 31.8855 1.4907 31.8173 1.57382 31.7313L16.7313 16.6502C16.8164 16.5666 16.884 16.467 16.9301 16.3573C16.9762 16.2475 17 16.1296 17 16.0106C17 15.8916 16.9762 15.7738 16.9301 15.664C16.884 15.5542 16.8164 15.4547 16.7313 15.3711L1.57382 0.286755C1.49048 0.198109 1.39007 0.127051 1.27856 0.0778095C1.16705 0.0285679 1.04672 0.00214927 0.924738 0.000125764C0.802755 -0.00189774 0.68161 0.0205153 0.568512 0.066031C0.455414 0.111547 0.352674 0.179235 0.266408 0.265067C0.180141 0.350899 0.112111 0.453121 0.066365 0.56565C0.0206189 0.678178 -0.00190734 0.798713 0.000126402 0.920082C0.00216015 1.04145 0.0287124 1.16117 0.0782032 1.27212C0.127694 1.38307 0.199112 1.48298 0.288206 1.5659L14.8028 16.0106L0.288206 30.4522C0.203467 30.536 0.136219 30.6357 0.0903308 30.7454C0.044442 30.8552 0.020818 30.9729 0.020818 31.0918C0.020818 31.2106 0.044442 31.3284 0.0903308 31.4381C0.136219 31.5479 0.203467 31.6475 0.288206 31.7313Z"/>
</svg>
