<svg width="19" height="10" viewBox="0 0 19 10" fill="none" xmlns="http://www.w3.org/2000/svg">
<path d="M0.334505 0.169533C0.234129 0.269595 0.177309 0.405566 0.176493 0.547656C0.175837 0.618174 0.189512 0.688084 0.216682 0.753103C0.243853 0.818122 0.283945 0.876881 0.334505 0.925779L9.20575 9.84192C9.25492 9.89199 9.3135 9.93175 9.37809 9.95889C9.44267 9.98602 9.51197 10 9.58197 10C9.65197 10 9.72128 9.98602 9.78586 9.95889C9.85044 9.93175 9.90902 9.89199 9.95819 9.84192L18.8313 0.925779C18.8835 0.876754 18.9253 0.817686 18.9542 0.752092C18.9832 0.686498 18.9987 0.615718 18.9999 0.543963C19.0011 0.472209 18.9879 0.400947 18.9612 0.334419C18.9344 0.267891 18.8946 0.207456 18.8441 0.15671C18.7936 0.105965 18.7335 0.0659476 18.6673 0.0390382C18.6011 0.0121288 18.5302 -0.00112197 18.4588 7.43539e-05C18.3874 0.00127067 18.317 0.0168897 18.2517 0.0460019C18.1864 0.0751141 18.1277 0.117124 18.0789 0.169533L9.58197 8.70755L1.08694 0.169533C1.03764 0.119687 0.979027 0.0801291 0.914459 0.0531357C0.849894 0.0261424 0.780653 0.0122459 0.710724 0.0122459C0.640795 0.0122459 0.571556 0.0261424 0.50699 0.0531357C0.442425 0.0801291 0.383804 0.119687 0.334505 0.169533Z" fill="#AE75B0"/>
</svg>
