<svg width="19" height="10" viewBox="0 0 19 10" fill="none" xmlns="http://www.w3.org/2000/svg">
<path d="M0.157991 0.169533C0.057615 0.269595 0.000794991 0.405566 -2.04199e-05 0.547656C-0.000677275 0.618174 0.0129977 0.688084 0.0401682 0.753103C0.0673387 0.818122 0.107432 0.876881 0.157991 0.925779L9.02924 9.84192C9.07841 9.89199 9.13699 9.93175 9.20157 9.95889C9.26616 9.98603 9.33546 10 9.40546 10C9.47546 10 9.54476 9.98603 9.60935 9.95889C9.67393 9.93175 9.73251 9.89199 9.78168 9.84192L18.6548 0.925779C18.707 0.876754 18.7488 0.817686 18.7777 0.752092C18.8067 0.686498 18.8222 0.615718 18.8234 0.543963C18.8246 0.472209 18.8114 0.400947 18.7846 0.334419C18.7579 0.267891 18.7181 0.207456 18.6676 0.15671C18.6171 0.105965 18.5569 0.0659476 18.4908 0.0390382C18.4246 0.0121288 18.3537 -0.00112197 18.2823 7.43539e-05C18.2109 0.00127067 18.1404 0.0168897 18.0752 0.0460019C18.0099 0.0751141 17.9511 0.117124 17.9024 0.169533L9.40546 8.70755L0.910429 0.169533C0.86113 0.119687 0.802512 0.0801291 0.737946 0.0531357C0.67338 0.0261424 0.60414 0.0122459 0.534211 0.0122459C0.464281 0.0122459 0.395043 0.0261424 0.330477 0.0531357C0.26591 0.0801291 0.207291 0.119687 0.157991 0.169533Z" fill="#AE75B0"/>
</svg>
