<svg width="17" height="32" viewBox="0 0 17 32" fill="none" xmlns="http://www.w3.org/2000/svg">
<path d="M16.7118 0.268658C16.5417 0.0980187 16.3105 0.00142473 16.069 3.85284e-05C15.9491 -0.00107813 15.8303 0.0221694 15.7197 0.0683592C15.6092 0.114549 15.5093 0.182708 15.4262 0.268658L0.26874 15.3498C0.183613 15.4334 0.116024 15.533 0.069891 15.6427C0.0237577 15.7525 0 15.8704 0 15.9894C0 16.1084 0.0237577 16.2262 0.069891 16.336C0.116024 16.4458 0.183613 16.5453 0.26874 16.6289L15.4262 31.7132C15.5095 31.8019 15.6099 31.8729 15.7214 31.9222C15.833 31.9714 15.9533 31.9979 16.0753 31.9999C16.1972 32.0019 16.3184 31.9795 16.4315 31.934C16.5446 31.8885 16.6473 31.8208 16.7336 31.7349C16.8199 31.6491 16.8879 31.5469 16.9336 31.4344C16.9794 31.3218 17.0019 31.2013 16.9999 31.0799C16.9978 30.9586 16.9713 30.8388 16.9218 30.7279C16.8723 30.6169 16.8009 30.517 16.7118 30.4341L2.19717 15.9894L16.7118 1.5478C16.7965 1.46399 16.8638 1.36434 16.9097 1.25458C16.9556 1.14482 16.9792 1.02711 16.9792 0.908231C16.9792 0.789352 16.9556 0.671646 16.9097 0.561883C16.8638 0.452121 16.7965 0.352467 16.7118 0.268658Z" fill="#AE75B0"/>
</svg>
