<svg width="324" height="403" viewBox="0 0 324 403" fill="none" xmlns="http://www.w3.org/2000/svg">
<circle cx="2.48191" cy="2.48191" r="2.48191" transform="matrix(-0.965926 0.258819 0.258819 0.965926 322.604 345.812)" fill="#F9E59A"/>
<circle cx="2.48191" cy="2.48191" r="2.48191" transform="matrix(-0.965926 0.258819 0.258819 0.965926 313.711 345.812)" fill="#F9E59A"/>
<circle cx="2.48191" cy="2.48191" r="2.48191" transform="matrix(-0.965926 0.258819 0.258819 0.965926 285.582 348.707)" fill="#F9E59A"/>
<circle cx="2.48191" cy="2.48191" r="2.48191" transform="matrix(-0.965926 0.258819 0.258819 0.965926 284.963 342.918)" fill="#F9E59A"/>
<circle cx="2.48191" cy="2.48191" r="2.48191" transform="matrix(-1 0 0 1 283.414 294.043)" fill="#F9E59A"/>
<circle cx="2.48191" cy="2.48191" r="2.48191" transform="matrix(-1 0 0 1 273.836 309.617)" fill="#F9E59A"/>
<circle cx="2.48191" cy="2.48191" r="2.48191" transform="matrix(-1 0 0 1 310.238 301.758)" fill="#F9E59A"/>
<circle cx="2.48191" cy="2.48191" r="2.48191" transform="matrix(-1 0 0 1 310.238 290.176)" fill="#F9E59A"/>
<circle cx="2.48191" cy="2.48191" r="2.48191" transform="matrix(-1 0 0 1 320.785 321.613)" fill="#F9E59A"/>
<circle cx="2.48191" cy="2.48191" r="2.48191" transform="matrix(-1 0 0 1 255.844 295.141)" fill="#F9E59A"/>
<circle cx="2.48191" cy="2.48191" r="2.48191" transform="matrix(-1 0 0 1 273.836 295.141)" fill="#F9E59A"/>
<circle cx="2.48191" cy="2.48191" r="2.48191" transform="matrix(-1 0 0 1 183.041 329.473)" fill="#F9E59A"/>
<circle cx="2.48191" cy="2.48191" r="2.48191" transform="matrix(-1 0 0 1 193.588 312.926)" fill="#F9E59A"/>
<circle cx="2.48191" cy="2.48191" r="2.48191" transform="matrix(-1 0 0 1 140.021 321.613)" fill="#F9E59A"/>
<circle cx="2.48191" cy="2.48191" r="2.48191" transform="matrix(-1 0 0 1 131.541 328.852)" fill="#F9E59A"/>
<circle cx="2.48191" cy="2.48191" r="2.48191" transform="matrix(-0.965926 0.258819 0.258819 0.965926 282.686 271.355)" fill="#F9E59A"/>
<circle cx="2.48191" cy="2.48191" r="2.48191" transform="matrix(-0.965926 0.258819 0.258819 0.965926 290.133 271.355)" fill="#F9E59A"/>
<circle cx="2.48191" cy="2.48191" r="2.48191" transform="matrix(-0.965926 0.258819 0.258819 0.965926 301.094 271.355)" fill="#F9E59A"/>
<circle cx="2.48191" cy="2.48191" r="2.48191" transform="matrix(-1 0 0 1 301.965 185.109)" fill="#F9E59A"/>
<circle cx="2.48191" cy="2.48191" r="2.48191" transform="matrix(-1 0 0 1 292.658 185.109)" fill="#F9E59A"/>
<circle cx="2.48191" cy="2.48191" r="2.48191" transform="matrix(-1 0 0 1 301.965 170.219)" fill="#F9E59A"/>
<circle cx="2.48191" cy="2.48191" r="2.48191" transform="matrix(-1 0 0 1 292.658 170.219)" fill="#F9E59A"/>
<circle cx="2.48191" cy="2.48191" r="2.48191" transform="matrix(-1 0 0 1 286.453 178.488)" fill="#F9E59A"/>
<circle cx="2.48191" cy="2.48191" r="2.48191" transform="matrix(-1 0 0 1 265.771 165.254)" fill="#F9E59A"/>
<circle cx="2.48191" cy="2.48191" r="2.48191" transform="matrix(-1 0 0 1 209.721 280.457)" fill="#F9E59A"/>
<circle cx="2.48191" cy="2.48191" r="2.48191" transform="matrix(-1 0 0 1 107.135 167.32)" fill="#F9E59A"/>
<circle cx="2.48191" cy="2.48191" r="2.48191" transform="matrix(-1 0 0 1 96.3809 136.918)" fill="#F9E59A"/>
<circle cx="2.48191" cy="2.48191" r="2.48191" transform="matrix(-1 0 0 1 73.2168 132.578)" fill="#F9E59A"/>
<circle cx="2.48191" cy="2.48191" r="2.48191" transform="matrix(-1 0 0 1 52.9473 129.473)" fill="#F9E59A"/>
<circle cx="2.48191" cy="2.48191" r="2.48191" transform="matrix(-1 0 0 1 24.1992 122.855)" fill="#F9E59A"/>
<circle cx="2.48191" cy="2.48191" r="2.48191" transform="matrix(-1 0 0 1 20.8887 116.648)" fill="#F9E59A"/>
<circle cx="2.48191" cy="2.48191" r="2.48191" transform="matrix(-1 0 0 1 8.27344 116.648)" fill="#F9E59A"/>
<circle cx="2.48191" cy="2.48191" r="2.48191" transform="matrix(-1 0 0 1 4.96289 122.855)" fill="#F9E59A"/>
<circle cx="2.48191" cy="2.48191" r="2.48191" transform="matrix(-1 0 0 1 8.27344 143.949)" fill="#F9E59A"/>
<circle cx="2.48191" cy="2.48191" r="2.48191" transform="matrix(-1 0 0 1 19.2344 143.949)" fill="#F9E59A"/>
<circle cx="2.48191" cy="2.48191" r="2.48191" transform="matrix(-1 0 0 1 82.9375 112.102)" fill="#F9E59A"/>
<circle cx="2.48191" cy="2.48191" r="2.48191" transform="matrix(-1 0 0 1 62.0469 106.516)" fill="#F9E59A"/>
<circle cx="2.48191" cy="2.48191" r="2.48191" transform="matrix(-1 0 0 1 45.502 102.582)" fill="#F9E59A"/>
<circle cx="2.48191" cy="2.48191" r="2.48191" transform="matrix(-1 0 0 1 52.9473 84.1758)" fill="#F9E59A"/>
<circle cx="2.48191" cy="2.48191" r="2.48191" transform="matrix(-1 0 0 1 69.2871 86.6602)" fill="#F9E59A"/>
<circle cx="2.48191" cy="2.48191" r="2.48191" transform="matrix(-1 0 0 1 39.7109 82.9375)" fill="#F9E59A"/>
<circle cx="2.48191" cy="2.48191" r="2.48191" transform="matrix(-1 0 0 1 59.5664 69.4961)" fill="#F9E59A"/>
<circle cx="2.48191" cy="2.48191" r="2.48191" transform="matrix(-1 0 0 1 45.916 65.1523)" fill="#F9E59A"/>
<circle cx="2.48191" cy="2.48191" r="2.48191" transform="matrix(-1 0 0 1 34.125 61.6367)" fill="#F9E59A"/>
<circle cx="2.48191" cy="2.48191" r="2.48191" transform="matrix(-1 0 0 1 49.6387 51.9141)" fill="#F9E59A"/>
<circle cx="2.48191" cy="2.48191" r="2.48191" transform="matrix(-1 0 0 1 39.7109 50.4648)" fill="#F9E59A"/>
<circle cx="2.48191" cy="2.48191" r="2.48191" transform="matrix(-1 0 0 1 30.4043 50.4648)" fill="#F9E59A"/>
<circle cx="2.48191" cy="2.48191" r="2.48191" transform="matrix(-1 0 0 1 43.4336 40.3281)" fill="#F9E59A"/>
<circle cx="2.48191" cy="2.48191" r="2.48191" transform="matrix(-1 0 0 1 21.9238 0)" fill="#F9E59A"/>
<circle cx="2.48191" cy="2.48191" r="2.48191" transform="matrix(-1 0 0 1 16.1328 3.51562)" fill="#F9E59A"/>
<circle cx="2.48191" cy="2.48191" r="2.48191" transform="matrix(-1 0 0 1 11.168 21.3047)" fill="#F9E59A"/>
<circle cx="2.48191" cy="2.48191" r="2.48191" transform="matrix(-1 0 0 1 9.51367 15.7188)" fill="#F9E59A"/>
<circle cx="2.48191" cy="2.48191" r="2.48191" transform="matrix(-1 0 0 1 24.4043 31.8516)" fill="#F9E59A"/>
<circle cx="2.48191" cy="2.48191" r="2.48191" transform="matrix(-1 0 0 1 20.2695 26.8867)" fill="#F9E59A"/>
<circle cx="2.48191" cy="2.48191" r="2.48191" transform="matrix(-1 0 0 1 149.742 90.5898)" fill="#F9E59A"/>
<circle cx="2.48191" cy="2.48191" r="2.48191" transform="matrix(-1 0 0 1 153.672 87.2812)" fill="#F9E59A"/>
<circle cx="2.48191" cy="2.48191" r="2.48191" transform="matrix(-1 0 0 1 160.91 87.2812)" fill="#F9E59A"/>
<circle cx="2.48191" cy="2.48191" r="2.48191" transform="matrix(-1 0 0 1 178.904 99.6914)" fill="#F9E59A"/>
<circle cx="2.48191" cy="2.48191" r="2.48191" transform="matrix(-1 0 0 1 172.492 108.582)" fill="#F9E59A"/>
<circle cx="2.48191" cy="2.48191" r="2.48191" transform="matrix(-1 0 0 1 86.8672 164.844)" fill="#F9E59A"/>
<circle cx="2.48191" cy="2.48191" r="2.48191" transform="matrix(-1 0 0 1 61.4277 157.188)" fill="#F9E59A"/>
<circle cx="2.48191" cy="2.48191" r="2.48191" transform="matrix(-1 0 0 1 79.0078 190.902)" fill="#F9E59A"/>
<circle cx="2.48191" cy="2.48191" r="2.48191" transform="matrix(-1 0 0 1 99.8965 197.52)" fill="#F9E59A"/>
<circle cx="2.48191" cy="2.48191" r="2.48191" transform="matrix(-1 0 0 1 93.2773 218.199)" fill="#F9E59A"/>
<circle cx="2.48191" cy="2.48191" r="2.48191" transform="matrix(-1 0 0 1 119.131 203.312)" fill="#F9E59A"/>
<circle cx="2.48191" cy="2.48191" r="2.48191" transform="matrix(-1 0 0 1 111.686 222.129)" fill="#F9E59A"/>
<circle cx="2.48191" cy="2.48191" r="2.48191" transform="matrix(-1 0 0 1 104.861 239.918)" fill="#F9E59A"/>
<circle cx="2.48191" cy="2.48191" r="2.48191" transform="matrix(-1 0 0 1 126.99 225.441)" fill="#F9E59A"/>
<circle cx="2.48191" cy="2.48191" r="2.48191" transform="matrix(-1 0 0 1 122.027 246.742)" fill="#F9E59A"/>
<circle cx="2.48191" cy="2.48191" r="2.48191" transform="matrix(-1 0 0 1 118.098 264.945)" fill="#F9E59A"/>
<circle cx="2.48191" cy="2.48191" r="2.48191" transform="matrix(-1 0 0 1 135.678 252.535)" fill="#F9E59A"/>
<circle cx="2.48191" cy="2.48191" r="2.48191" transform="matrix(-1 0 0 1 130.92 269.078)" fill="#F9E59A"/>
<circle cx="2.48191" cy="2.48191" r="2.48191" transform="matrix(-1 0 0 1 126.783 281.695)" fill="#F9E59A"/>
<circle cx="2.48191" cy="2.48191" r="2.48191" transform="matrix(-1 0 0 1 142.916 273.012)" fill="#F9E59A"/>
<circle cx="2.48191" cy="2.48191" r="2.48191" transform="matrix(-1 0 0 1 155.945 280.457)" fill="#F9E59A"/>
<circle cx="2.48191" cy="2.48191" r="2.48191" transform="matrix(-1 0 0 1 168.977 284.18)" fill="#F9E59A"/>
<circle cx="2.48191" cy="2.48191" r="2.48191" transform="matrix(-1 0 0 1 174.354 292.66)" fill="#F9E59A"/>
<circle cx="2.48191" cy="2.48191" r="2.48191" transform="matrix(-1 0 0 1 172.285 301.551)" fill="#F9E59A"/>
<circle cx="2.48191" cy="2.48191" r="2.48191" transform="matrix(-1 0 0 1 147.26 84.8008)" fill="#F9E59A"/>
<circle cx="2.48191" cy="2.48191" r="2.48191" transform="matrix(-1 0 0 1 118.098 175.18)" fill="#F9E59A"/>
<circle cx="2.48191" cy="2.48191" r="2.48191" transform="matrix(-1 0 0 1 108.17 172.285)" fill="#F9E59A"/>
<circle cx="2.48191" cy="2.48191" r="2.48191" transform="matrix(-1 0 0 1 221.096 288.938)" fill="#F9E59A"/>
<circle cx="2.48191" cy="2.48191" r="2.48191" transform="matrix(-1 0 0 1 204.344 281.074)" fill="#F9E59A"/>
<circle cx="2.48191" cy="2.48191" r="2.48191" transform="matrix(-1 0 0 1 201.861 299.273)" fill="#F9E59A"/>
<circle cx="2.48191" cy="2.48191" r="2.48191" transform="matrix(-1 0 0 1 273.01 155.324)" fill="#F9E59A"/>
<circle cx="2.48191" cy="2.48191" r="2.48191" transform="matrix(-0.965926 0.258819 0.258819 0.965926 307.092 271.355)" fill="#F9E59A"/>
<circle cx="2.48191" cy="2.48191" r="2.48191" transform="matrix(-0.965926 0.258819 0.258819 0.965926 316.605 273.633)" fill="#F9E59A"/>
<circle cx="2.48191" cy="2.48191" r="2.48191" transform="matrix(-0.965926 0.258819 0.258819 0.965926 252.283 303.617)" fill="#F9E59A"/>
<circle cx="2.48191" cy="2.48191" r="2.48191" transform="matrix(-0.965926 0.258819 0.258819 0.965926 235.322 303.617)" fill="#F9E59A"/>
<circle cx="2.48191" cy="2.48191" r="2.48191" transform="matrix(-0.965926 0.258819 0.258819 0.965926 236.564 323.477)" fill="#F9E59A"/>
<circle cx="2.48191" cy="2.48191" r="2.48191" transform="matrix(-0.965926 0.258819 0.258819 0.965926 221.467 345.191)" fill="#F9E59A"/>
<circle cx="2.48191" cy="2.48191" r="2.48191" transform="matrix(-0.965926 0.258819 0.258819 0.965926 253.523 354.703)" fill="#F9E59A"/>
<circle cx="2.48191" cy="2.48191" r="2.48191" transform="matrix(-0.965926 0.258819 0.258819 0.965926 260.557 352.223)" fill="#F9E59A"/>
<circle cx="2.48191" cy="2.48191" r="2.48191" transform="matrix(-0.965926 0.258819 0.258819 0.965926 289.098 360.91)" fill="#F9E59A"/>
<circle cx="2.48191" cy="2.48191" r="2.48191" transform="matrix(-0.965926 0.258819 0.258819 0.965926 277.723 365.254)" fill="#F9E59A"/>
<circle cx="2.48191" cy="2.48191" r="2.48191" transform="matrix(-0.965926 0.258819 0.258819 0.965926 284.34 371.254)" fill="#F9E59A"/>
<circle cx="2.48191" cy="2.48191" r="2.48191" transform="matrix(-0.965926 0.258819 0.258819 0.965926 295.096 369.598)" fill="#F9E59A"/>
<circle cx="2.48191" cy="2.48191" r="2.48191" transform="matrix(-0.965926 0.258819 0.258819 0.965926 294.27 378.285)" fill="#F9E59A"/>
<circle cx="2.48191" cy="2.48191" r="2.48191" transform="matrix(-0.965926 0.258819 0.258819 0.965926 283.1 388.211)" fill="#F9E59A"/>
<circle cx="2.48191" cy="2.48191" r="2.48191" transform="matrix(-0.965926 0.258819 0.258819 0.965926 285.168 382.625)" fill="#F9E59A"/>
<circle cx="2.48191" cy="2.48191" r="2.48191" transform="matrix(-0.965926 0.258819 0.258819 0.965926 280.41 393.383)" fill="#F9E59A"/>
<circle cx="2.48191" cy="2.48191" r="2.48191" transform="matrix(-0.965926 0.258819 0.258819 0.965926 265.934 396.898)" fill="#F9E59A"/>
<circle cx="2.48191" cy="2.48191" r="2.48191" transform="matrix(-0.965926 0.258819 0.258819 0.965926 108.539 396.898)" fill="#F9E59A"/>
<circle cx="2.48191" cy="2.48191" r="2.48191" transform="matrix(-0.965926 0.258819 0.258819 0.965926 90.1328 393.797)" fill="#F9E59A"/>
<circle cx="2.48191" cy="2.48191" r="2.48191" transform="matrix(-0.965926 0.258819 0.258819 0.965926 83.3066 387.797)" fill="#F9E59A"/>
<circle cx="2.48191" cy="2.48191" r="2.48191" transform="matrix(-0.965926 0.258819 0.258819 0.965926 82.0664 378.699)" fill="#F9E59A"/>
<circle cx="2.48191" cy="2.48191" r="2.48191" transform="matrix(-0.965926 0.258819 0.258819 0.965926 86.2012 370.629)" fill="#F9E59A"/>
<circle cx="2.48191" cy="2.48191" r="2.48191" transform="matrix(-0.965926 0.258819 0.258819 0.965926 92.8203 365.047)" fill="#F9E59A"/>
<circle cx="2.48191" cy="2.48191" r="2.48191" transform="matrix(-0.965926 0.258819 0.258819 0.965926 118.467 356.359)" fill="#F9E59A"/>
<circle cx="2.48191" cy="2.48191" r="2.48191" transform="matrix(-0.965926 0.258819 0.258819 0.965926 145.768 356.359)" fill="#F9E59A"/>
<circle cx="2.48191" cy="2.48191" r="2.48191" transform="matrix(-0.965926 0.258819 0.258819 0.965926 145.768 345.812)" fill="#F9E59A"/>
<circle cx="2.48191" cy="2.48191" r="2.48191" transform="matrix(-0.965926 0.258819 0.258819 0.965926 171.621 345.812)" fill="#F9E59A"/>
<circle cx="2.48191" cy="2.48191" r="2.48191" transform="matrix(-0.965926 0.258819 0.258819 0.965926 124.465 345.812)" fill="#F9E59A"/>
<circle cx="2.48191" cy="2.48191" r="2.48191" transform="matrix(-0.965926 0.258819 0.258819 0.965926 119.709 335.266)" fill="#F9E59A"/>
<circle cx="2.48191" cy="2.48191" r="2.48191" transform="matrix(-0.965926 0.258819 0.258819 0.965926 113.711 331.336)" fill="#F9E59A"/>
<circle cx="2.48191" cy="2.48191" r="2.48191" transform="matrix(-0.965926 0.258819 0.258819 0.965926 113.09 313.34)" fill="#F9E59A"/>
<circle cx="2.48191" cy="2.48191" r="2.48191" transform="matrix(-0.965926 0.258819 0.258819 0.965926 119.914 294.105)" fill="#F9E59A"/>
<circle cx="2.48191" cy="2.48191" r="2.48191" transform="matrix(-0.965926 0.258819 0.258819 0.965926 127.98 285.418)" fill="#F9E59A"/>
<circle cx="2.48191" cy="2.48191" r="2.48191" transform="matrix(-0.965926 0.258819 0.258819 0.965926 144.734 279.422)" fill="#F9E59A"/>
<circle cx="2.48191" cy="2.48191" r="2.48191" transform="matrix(-0.965926 0.258819 0.258819 0.965926 150.732 288.52)" fill="#F9E59A"/>
<circle cx="2.48191" cy="2.48191" r="2.48191" transform="matrix(-0.965926 0.258819 0.258819 0.965926 165.209 288.52)" fill="#F9E59A"/>
<circle cx="2.48191" cy="2.48191" r="2.48191" transform="matrix(-0.965926 0.258819 0.258819 0.965926 166.865 334.023)" fill="#F9E59A"/>
<circle cx="2.48191" cy="2.48191" r="2.48191" transform="matrix(-0.965926 0.258819 0.258819 0.965926 196.854 396.898)" fill="#F9E59A"/>
<circle cx="2.48191" cy="2.48191" r="2.48191" transform="matrix(-0.965926 0.258819 0.258819 0.965926 247.525 385.316)" fill="#F9E59A"/>
<circle cx="2.48191" cy="2.48191" r="2.48191" transform="matrix(-0.965926 0.258819 0.258819 0.965926 247.525 370.008)" fill="#F9E59A"/>
<circle cx="2.48191" cy="2.48191" r="2.48191" transform="matrix(-0.965926 0.258819 0.258819 0.965926 208.85 374.148)" fill="#F9E59A"/>
<circle cx="2.48191" cy="2.48191" r="2.48191" transform="matrix(-0.965926 0.258819 0.258819 0.965926 244.424 374.148)" fill="#F9E59A"/>
<circle cx="2.48191" cy="2.48191" r="2.48191" transform="matrix(-0.965926 0.258819 0.258819 0.965926 244.631 382.625)" fill="#F9E59A"/>
<circle cx="2.48191" cy="2.48191" r="2.48191" transform="matrix(-1 0 0 1 209.576 383.184)" fill="#F9E59A"/>
<circle cx="2.48191" cy="2.48191" r="2.48191" transform="matrix(-1 0 0 1 203.516 383.25)" fill="#F9E59A"/>
<circle cx="2.48191" cy="2.48191" r="2.48191" transform="matrix(-1 0 0 1 154.086 383.25)" fill="#F9E59A"/>
<circle cx="2.48191" cy="2.48191" r="2.48191" transform="matrix(-1 0 0 1 154.086 374.148)" fill="#F9E59A"/>
<circle cx="2.48191" cy="2.48191" r="2.48191" transform="matrix(-1 0 0 1 148.914 374.148)" fill="#F9E59A"/>
<circle cx="2.48191" cy="2.48191" r="2.48191" transform="matrix(-1 0 0 1 148.914 383.25)" fill="#F9E59A"/>
<circle cx="2.48191" cy="2.48191" r="2.48191" transform="matrix(-1 0 0 1 106.309 383.25)" fill="#F9E59A"/>
<circle cx="2.48191" cy="2.48191" r="2.48191" transform="matrix(-1 0 0 1 106.309 374.148)" fill="#F9E59A"/>
<circle cx="2.48191" cy="2.48191" r="2.48191" transform="matrix(-1 0 0 1 102.379 371.668)" fill="#F9E59A"/>
<circle cx="2.48191" cy="2.48191" r="2.48191" transform="matrix(-0.965926 0.258819 0.258819 0.965926 208.85 374.148)" fill="#F9E59A"/>
<circle cx="2.48191" cy="2.48191" r="2.48191" transform="matrix(-0.965926 0.258819 0.258819 0.965926 202.852 374.148)" fill="#F9E59A"/>
<circle cx="2.48191" cy="2.48191" r="2.48191" transform="matrix(-0.965926 0.258819 0.258819 0.965926 151.973 334.023)" fill="#F9E59A"/>
<circle cx="2.48191" cy="2.48191" r="2.48191" transform="matrix(-0.965926 0.258819 0.258819 0.965926 147.215 315.203)" fill="#F9E59A"/>
<circle cx="2.48191" cy="2.48191" r="2.48191" transform="matrix(-0.965926 0.258819 0.258819 0.965926 119.088 317.066)" fill="#F9E59A"/>
<circle cx="2.48191" cy="2.48191" r="2.48191" transform="matrix(-0.965926 0.258819 0.258819 0.965926 130.256 290.383)" fill="#F9E59A"/>
<circle cx="2.48191" cy="2.48191" r="2.48191" transform="matrix(-0.965926 0.258819 0.258819 0.965926 145.975 288.52)" fill="#F9E59A"/>
<circle cx="2.48191" cy="2.48191" r="2.48191" transform="matrix(-0.965926 0.258819 0.258819 0.965926 252.283 323.477)" fill="#F9E59A"/>
<path d="M311.79 349.018H320.891L319.074 326.681M311.79 349.018L283.455 350.57M311.79 349.018L307.901 303.724M305.379 274.354L314.996 276.526L319.074 326.681M305.379 274.354H299.277M305.379 274.354L306.832 291.276M283.455 350.57L283.32 347.364M283.455 350.57L307.901 303.724M280.249 274.354H288.316M280.249 274.354L281.185 296.588M280.249 274.354L307.901 303.724M288.316 274.354H299.277M288.316 274.354C288.676 272.119 289.744 228.924 290.423 199.38M290.694 187.384L282.628 184.179M290.694 187.384H299.277M290.694 187.384C290.614 190.97 290.523 195.027 290.423 199.38M282.628 184.179L284.179 181.911M282.628 184.179L207.137 283.396M290.694 172.389H299.277V187.384M290.694 172.389L284.179 181.911M290.694 172.389L270.529 157.705L269.945 158.532M299.277 187.384V274.354M290.423 199.38L218.202 291.276M281.185 296.588L281.968 315.202M281.185 296.588L271.149 297.23M169.701 303.724V349.018M169.701 303.724L199.484 301.817M169.701 303.724L171.666 294.52L166.806 286.971L153.776 282.317M169.701 303.724L191.038 315.202M169.701 349.018L220.063 348.285M169.701 349.018H144.055M169.701 349.018L149.949 337.126M169.701 349.018L165.358 337.126M169.701 349.018L180.37 332.11M283.32 347.364L221.201 348.268M283.32 347.364L281.968 315.202M283.32 347.364L251.087 326.681M234.541 299.574L199.484 301.817M234.541 299.574L218.202 291.276M234.541 299.574L254.603 298.29M203.207 283.662L199.484 301.817M203.207 283.662L205.896 285.027M203.207 283.662L105.793 173.63M199.484 301.817L191.038 315.202M199.484 301.817L233.61 305.999M205.896 285.027L218.202 291.276M205.896 285.027L207.137 283.396M284.179 181.911L263.6 167.529M263.6 167.529L170.322 110.755M263.6 167.529L265.132 165.357M170.322 110.755L147.571 92.1412M170.322 110.755L171.149 109.515M147.571 92.1412L144.572 87.0739M147.571 92.1412L40.2284 28.4389M144.572 87.0739L150.777 89.9695L156.671 89.4979M144.572 87.0739L44.1581 25.4399M19.7527 2.37891L14.065 5.27446M19.7527 2.37891L39.1943 10.2383L41.426 20.683M19.7527 2.37891L22.1949 6.87736M93.6928 138.573L104.222 169.08M93.6928 138.573L80.6115 114.478M93.6928 138.573L50.5726 132.162M93.6928 138.573L58.6359 160.187M93.6928 138.573L76.2004 193.589M143.021 281.49L125.958 288.212M143.021 281.49L153.776 282.317M143.021 281.49L140.772 274.975M14.065 5.27446L7.54996 19.0284L9.20456 23.6819M14.065 5.27446L14.1906 5.71127M58.6359 160.187L50.5726 132.162M58.6359 160.187L80.6115 114.478M58.6359 160.187L76.2004 193.589M58.6359 160.187L105.793 173.63M125.958 288.212L117.685 298.139L111.17 317.271M125.958 288.212L124.109 284.696M153.776 282.317L164.324 291.107M153.776 282.317L128.129 292.555M111.17 317.271L111.687 334.127L117.685 338.264M111.17 317.271L128.129 292.555M111.17 317.271L116.754 319.959M111.17 317.271L117.685 338.264M117.685 338.264L123.165 349.018H144.055M117.685 338.264L129.37 330.206M105.793 173.63L104.222 169.08M105.793 173.63L76.2004 193.589M105.793 173.63L90.4478 220.683M105.793 173.63L116.822 205.585M104.222 169.08L114.892 177.353L207.137 283.396M22.7233 35.3676L23.4076 37.7461M22.7233 35.3676L21.5629 31.3345M22.7233 35.3676L18.5117 119.442M22.7233 35.3676L21.238 32.6788M9.20456 23.6819L11.1465 25.1814M9.20456 23.6819C7.68784 56.1191 4.67508 121.097 4.75781 121.51M44.1581 25.4399L41.7796 22.3376L41.426 20.683M44.1581 25.4399L43.0205 27.9219L40.2284 28.4389M40.2284 28.4389L37.6431 26.0604L32.2725 25.4399M32.2725 25.4399L34.7428 29.9901M32.2725 25.4399L30.9812 23.0615M156.671 89.4979L158.533 89.349L176.32 101.759L176.044 102.172M156.671 89.4979L41.426 20.683M265.132 165.357L171.149 109.515M265.132 165.357L266.226 163.806M171.149 109.515L172.39 107.653M172.39 107.653L266.226 163.806M172.39 107.653L173.424 106.102M266.226 163.806L267.53 161.957M267.53 161.957L173.424 106.102M267.53 161.957L268.632 160.394M173.424 106.102L174.458 104.551M174.458 104.551L268.632 160.394M174.458 104.551L176.044 102.172M268.632 160.394L269.945 158.532M269.945 158.532L176.044 102.172M41.7796 42.9515L36.8158 46.4082M41.7796 42.9515L41.0869 41.6758M41.7796 42.9515L47.5995 53.6716M41.7796 42.9515L31.0543 64.3231M27.7219 52.7409L36.8158 46.4082M27.7219 52.7409L25.2226 44.0542M27.7219 52.7409L47.5995 53.6716M27.7219 52.7409L31.0543 64.3231M36.8158 46.4082L25.2226 44.0542M25.2226 44.0542L23.4076 37.7461M41.0869 41.6758L23.4076 37.7461M41.0869 41.6758L37.6622 35.3676M37.6622 35.3676L21.5629 31.3345M37.6622 35.3676L34.7428 29.9901M21.5629 31.3345L20.224 26.6809M34.7428 29.9901L20.224 26.6809M20.224 26.6809L18.647 21.2M30.9812 23.0615L18.647 21.2M30.9812 23.0615L28.0618 17.684M18.647 21.2L17.0106 15.5123M28.0618 17.684L17.0106 15.5123M28.0618 17.684L24.6371 11.3758M17.0106 15.5123L15.5378 10.3934M24.6371 11.3758L15.5378 10.3934M24.6371 11.3758L22.1949 6.87736M15.5378 10.3934L14.1906 5.71127M22.1949 6.87736L14.1906 5.71127M47.5995 53.6716L31.0543 64.3231M47.5995 53.6716L37.1538 85.5228M47.5995 53.6716L57.3122 71.562M31.0543 64.3231L37.1538 85.5228M31.0543 64.3231L57.3122 71.562M37.1538 85.5228L57.3122 71.562M37.1538 85.5228L66.5986 88.6672M37.1538 85.5228L42.8069 105.171M57.3122 71.562L66.5986 88.6672M57.3122 71.562L42.8069 105.171M165.358 337.126H149.949M165.358 337.126L164.324 291.107M149.949 337.126L147.984 291.107H164.324M149.949 337.126C147.932 340.883 143.93 348.522 144.055 349.018M146.33 318.512L116.754 319.959M146.33 318.512L145.296 291.107L128.129 292.555M146.33 318.512L137.85 324.359M116.754 319.959L128.129 292.555M116.754 319.959L129.37 330.206M66.5986 88.6672L42.8069 105.171M66.5986 88.6672L50.5726 132.162M66.5986 88.6672L80.6115 114.478M42.8069 105.171L50.5726 132.162M42.8069 105.171L80.6115 114.478M50.5726 132.162L80.6115 114.478M76.2004 193.589L90.4478 220.683M76.2004 193.589L116.822 205.585M90.4478 220.683L116.822 205.585M90.4478 220.683L101.976 242.607M90.4478 220.683L124.567 228.026M116.822 205.585L101.976 242.607M116.822 205.585L124.567 228.026M18.5117 119.442H16.8571M18.5117 119.442L21.0181 123.889M8.58408 146.329H5.99876L5.79901 145.088M8.58408 146.329V151.19L10.6523 152.741L12.2035 154.292L12.7206 156.981L11.1694 159.67H8.58408L8.27384 156.464L7.86019 152.741L5.58511 154.913L4.96464 158.222L5.58511 161.738L8.58408 164.22H12.2035L15.6162 161.014L16.8571 156.154V152.121L13.2377 149.122V147.053V146.329M8.58408 146.329H13.2377M13.2377 146.329H16.8571L18.9198 137.333M21.238 32.6788L19.7527 29.9901H18.5634M21.238 32.6788L16.8571 119.442M16.8571 119.442H15.823M14.7888 119.442L18.5634 29.9901M14.7888 119.442H11.9967M14.7888 119.442H15.823M18.5634 29.9901H17.3742L15.5127 28.5528M15.5127 28.5528L11.9967 119.442M15.5127 28.5528L13.0885 26.6809M11.9967 119.442H8.99773M8.99773 119.442L13.0885 26.6809M8.99773 119.442H6.82607M13.0885 26.6809L11.1465 25.1814M11.1465 25.1814L6.82607 119.442M6.82607 119.442H5.99876L4.75781 121.51M4.75781 121.51L2.58614 125.13L3.35189 129.887M15.823 119.442L3.35189 129.887M3.35189 129.887L4.63372 137.85M21.0181 123.889L21.7175 125.13L18.9198 137.333M21.0181 123.889L4.63372 137.85M4.63372 137.85L5.79901 145.088M18.9198 137.333L5.79901 145.088M101.976 242.607L124.567 228.026M101.976 242.607L115.19 267.736M101.976 242.607L133.794 254.758M124.567 228.026L115.19 267.736M124.567 228.026L133.794 254.758M115.19 267.736L133.794 254.758M115.19 267.736L124.109 284.696M115.19 267.736L140.772 274.975M133.794 254.758L124.109 284.696M133.794 254.758L140.772 274.975M124.109 284.696L140.772 274.975M251.087 305.999V326.681M251.087 305.999H233.61M251.087 305.999L271.149 311.978M251.087 326.681H233.61V305.999M251.087 326.681L221.201 348.268M233.61 305.999L220.063 348.285M233.61 305.999L254.603 298.29M221.201 348.268L220.063 348.285M251.087 357.291L275.803 367.84L282.214 374.044L283.32 386.661L280.958 391.263M251.087 357.291L258.429 355.74L287.488 363.806L292.762 372.7V380.973L280.958 391.263M251.087 357.291L220.063 357.817M280.958 391.263L278.595 395.864L264.014 400.001H106.206L88.2119 396.899L81.5935 390.901L80.3525 382.214L84.1788 373.837L91.1075 368.253L116.754 359.567L144.055 359.104M220.063 357.817V348.285M220.063 357.817L144.055 359.104M220.063 348.285L180.37 332.11M144.055 359.104V349.018M144.055 349.018L137.85 324.359M129.37 330.206L137.85 324.359M191.038 315.202L180.37 332.11M254.603 298.29L271.149 297.23M281.968 315.202L271.149 311.978M271.149 311.978V297.23M307.901 303.724L306.832 291.276M306.832 291.276L311.79 305.616L319.074 326.681M245.71 372.7V388.626H100.104V373.837L245.71 372.7ZM242.607 376.423V385.73H206.826V376.423H242.607ZM201.759 376.423V385.73H151.707V376.423H201.759ZM146.33 376.423V385.73H103.31V376.423H146.33Z" stroke="#F9E59A" stroke-width="0.620477"/>
</svg>
