<svg width="936" height="617" viewBox="0 0 936 617" fill="none" xmlns="http://www.w3.org/2000/svg">
<path d="M936 566.602H896.065L891.383 548.905C886.748 531.372 882.113 513.815 877.455 496.306L876.776 494.573L875.067 495.416C874.506 495.697 873.873 496.001 873.265 496.399L872.867 496.657L872.68 497.101C872.048 498.6 871.228 500.074 870.315 501.455C826.541 408.219 764.719 324.837 687.916 255.15C688.828 254.261 689.718 253.371 690.608 252.458C703.576 243.844 716.568 235.229 729.559 226.615L743.09 217.649L741.826 216.315C741.264 215.73 740.749 215.215 740.093 214.723L739.742 214.442L739.297 214.396C736.98 214.208 733.867 213.576 730.964 212.476C743.324 200.233 755.683 187.967 768.043 175.725C766.615 174.297 765.234 172.869 763.806 171.394C751.634 183.449 739.461 195.528 727.289 207.584C726.68 205.407 726.282 203.019 726.165 200.678V200.257L725.908 199.906C725.58 199.414 725.182 198.993 724.808 198.571L723.192 196.746L710.715 213.904C701.914 225.983 693.136 238.062 684.357 250.187C684.053 250.492 683.749 250.796 683.421 251.1C658.538 228.862 632.133 208.052 604.277 188.787C533.348 139.769 455.843 102.924 374.264 78.93V6.41014H368.224V77.1744C296.243 56.6216 221.148 46.0643 144.625 46.0643C122.972 46.0643 102.279 47.0007 80.4621 49.0138C81.2814 47.1411 82.3348 45.245 83.5989 43.4192L83.833 43.068V42.6467C83.9266 41.8508 83.8798 41.1251 83.8096 40.3526L83.6457 38.4799L71.5435 41.9444C53.6125 47.0475 35.6815 52.174 17.7739 57.3473L7.52092 0.0664062L0.732422 1.30706L11.9451 63.5974C42.0954 231.273 72.2457 398.949 102.443 566.602H42.6338V572.641H368.271V616.696H374.31V572.641H897.423L897.821 573.203L897.68 572.641H936V566.602ZM198.184 401.196C199.916 402.929 201.649 404.661 203.404 406.37C207.29 410.209 211.152 414.071 215.015 417.91L190.038 442.583C179.715 452.789 169.064 463.299 159.396 472.874C181.494 431.066 197.201 401.36 197.201 401.36C197.201 401.36 125.688 330.081 54.0104 258.661C49.8203 235.3 45.6301 211.961 41.4166 188.599L18.64 61.9354C35.0963 63.176 51.5291 64.4635 67.9619 65.7276L86.6888 67.1789L86.2675 64.5805C86.1973 64.1124 86.127 63.6208 86.01 63.0824L85.8929 62.6142L85.5418 62.2865C83.318 60.2499 81.3517 57.7452 79.9472 55.3107C100.687 53.6487 121.802 52.8528 144.625 52.8528C220.235 52.8528 294.23 63.5974 364.76 83.799C309.211 189.606 253.686 295.366 198.161 401.196M148.605 493.286C160.122 481.956 175.876 466.366 190.904 451.478C201.555 440.921 211.831 430.761 219.931 422.779C223.746 426.548 227.515 430.317 231.284 434.062C212.861 452.227 191.911 472.944 170.96 493.614C154.855 509.508 138.773 525.402 123.862 540.126C132.429 523.928 140.81 508.103 148.628 493.286M522.955 410.185C519.21 413.907 515.441 417.629 511.672 421.351C465.838 376.196 420.051 331.064 374.287 285.886V263.46C404.671 293.4 435.032 323.339 465.417 353.302L523.025 410.115C523.025 410.115 522.978 410.162 522.955 410.185ZM374.31 295.577C395.589 316.551 416.867 337.525 438.146 358.522C461.016 381.088 483.886 403.654 506.78 426.22C502.988 429.966 499.219 433.711 495.427 437.456C455 397.638 414.643 357.844 374.287 318.002V295.577H374.31ZM416.235 465.851L441.54 490.805C437.748 494.573 433.956 498.319 430.163 502.087C421.502 493.52 412.841 484.976 404.156 476.432C394.184 466.6 384.236 456.768 374.287 446.937V424.511C388.262 438.299 402.26 452.087 416.212 465.874M374.31 327.67L396.97 350.025C428.15 380.784 459.33 411.543 490.534 442.302C486.672 446.117 482.833 449.933 478.97 453.749L374.31 350.54V327.67ZM457.809 474.699C454.017 478.468 450.225 482.214 446.432 485.982C434.236 473.95 422.041 461.918 409.845 449.886C398 438.205 386.155 426.548 374.31 414.844V392.348C402.143 419.83 429.976 447.264 457.832 474.699M425.294 506.91C421.502 510.655 417.71 514.424 413.918 518.169C406.848 511.17 399.756 504.171 392.663 497.195C386.553 491.156 380.42 485.116 374.31 479.077V456.651C391.328 473.412 408.347 490.173 425.294 506.91ZM374.31 488.745C385.898 500.168 397.462 511.568 409.049 523.015C405.257 526.76 401.464 530.529 397.696 534.274C393.295 529.92 388.894 525.59 384.493 521.259C381.099 517.912 377.728 514.588 374.334 511.24V488.745H374.31ZM474.054 458.618C470.262 462.363 466.494 466.108 462.701 469.854L374.31 382.704V360.231L474.054 458.618ZM392.78 539.12C388.988 542.865 385.219 546.611 381.427 550.356C379.062 548.015 376.675 545.674 374.31 543.357V520.931C380.467 526.994 386.647 533.057 392.78 539.143M376.534 555.202C375.785 555.927 375.036 556.676 374.31 557.425V553.001C375.059 553.727 375.809 554.476 376.534 555.202ZM428.97 275.516L374.31 221.629V199.157C395.285 219.85 418.857 243.141 441.868 265.871L490.019 313.437C498.119 328.911 506.171 344.29 514.177 359.552C485.782 331.532 457.388 303.536 428.97 275.539M374.31 189.442V167.04C383.791 176.403 394.278 186.797 404.976 197.354C422.509 214.7 440.51 232.491 455.328 247.121C463.357 262.477 471.386 277.81 479.392 293.119C444.349 258.591 409.33 224.017 374.31 189.442ZM374.31 157.419V134.923L382.808 143.351C395.542 155.968 409.891 170.177 420.542 180.711C428.548 196.02 436.601 211.399 444.677 226.802L374.31 157.419ZM374.31 125.232V110.578C376.839 113.083 379.531 115.752 382.152 118.35C386.764 122.938 391.165 127.292 394.161 130.242C399.381 140.214 404.625 150.233 409.915 160.322L374.31 125.232ZM374.31 100.864V92.39C377.377 98.2421 380.467 104.118 383.557 110.04C380.443 106.95 377.236 103.767 374.31 100.864ZM527.918 405.269C482.458 360.419 436.999 315.614 391.516 270.764L374.31 253.816V231.297C393.178 249.907 413.262 269.734 433.558 289.795C464.714 320.554 496.316 351.781 524.804 379.848C528.105 386.121 531.382 392.395 534.636 398.598C532.389 400.822 530.165 403.046 527.918 405.269ZM469.794 261.424L470.239 261.845L469.232 260.323C464.457 251.217 459.705 242.111 454.93 233.005C429.227 183.894 403.641 134.97 379.016 87.9892C490.323 122.095 592.549 179.845 678.248 256.227C631.922 302.155 585.573 348.082 539.247 394.01C516.635 350.891 493.273 306.251 469.794 261.4M673.285 290.708C639.483 323.948 605.681 357.141 571.879 390.335L549.056 412.737L548.798 412.269C546.621 408.149 544.444 403.959 542.267 399.792C587.376 355.105 632.484 310.418 677.616 265.731L673.285 290.708ZM113.07 560.492C126.203 547.5 141.09 532.8 156.493 517.584C183.905 490.477 212.861 461.848 236.153 438.908C239.968 442.7 243.761 446.469 247.529 450.214L218.737 478.609C189.008 507.916 158.413 538.09 129.48 566.648H109.84C110.917 564.612 111.994 562.552 113.094 560.515M222.037 484.952L252.375 455.036C256.191 458.828 259.983 462.597 263.705 466.296L263.658 466.343C230.745 498.763 195 534.064 162.041 566.625H139.171C166.816 539.401 194.415 512.177 222.014 484.976M268.503 471.235L268.597 471.141C272.436 474.957 276.228 478.726 279.95 482.424C268.035 494.175 255.161 506.91 242.122 519.761C225.9 535.772 209.537 551.948 194.649 566.625H171.803C204.036 534.836 236.27 503.024 268.527 471.258M243.901 527.65C257.759 513.979 271.593 500.308 284.843 487.246C288.705 491.085 292.497 494.854 296.196 498.506L291.046 503.586C270.587 523.764 247.248 546.845 227.211 566.578H204.434C217.262 553.938 230.582 540.782 243.901 527.626M266.537 537.458C278.195 525.964 289.876 514.447 301.065 503.398C304.951 507.261 308.743 511.03 312.395 514.658C296.196 530.693 276.111 550.567 259.795 566.625H236.996L266.561 537.458H266.537ZM282.876 553.446C294.44 542.046 306.238 530.412 317.264 519.503C321.313 523.53 325.176 527.345 328.827 530.997C317.919 541.835 303.804 555.787 292.755 566.625H269.533L282.876 553.469V553.446ZM307.502 561.733C316.234 553.118 325.363 544.129 333.72 535.866C337.816 539.939 341.609 543.708 345.05 547.126L325.34 566.625H302.54L307.502 561.733ZM341.913 559.883C344.605 557.238 347.273 554.616 349.942 551.971C353.851 555.857 357.199 559.181 359.891 561.85C362.115 564.073 363.777 565.525 365.111 566.531L365.017 566.625H335.078C337.348 564.378 339.619 562.131 341.889 559.883M616.987 548.132C621.716 543.497 626.421 538.839 631.126 534.157L625.789 564.916C622.84 559.298 619.914 553.703 616.987 548.132ZM633.022 523.225L613.663 541.812C611.042 536.826 608.443 531.887 605.868 526.971L637.821 495.439L632.999 523.225H633.022ZM639.741 484.437L602.591 520.651C599.969 515.641 597.371 510.678 594.796 505.786L596.458 504.147C612.493 488.3 628.528 472.499 644.563 456.605L639.741 484.437ZM646.459 445.72L645.967 446.188C627.802 463.931 609.614 481.699 591.472 499.466C588.827 494.409 586.229 489.447 583.677 484.625L607.32 461.286C621.973 446.843 636.627 432.4 651.258 417.91L646.435 445.72H646.459ZM653.154 406.955L580.33 478.258C577.661 473.154 575.063 468.215 572.581 463.463C588.874 447.358 605.213 431.253 621.505 415.171C633.654 403.186 645.827 391.201 657.953 379.216L653.154 406.978V406.955ZM659.872 368.237C630.541 397.006 601.163 425.822 571.785 454.615L569.257 457.096C566.518 451.876 563.92 446.937 561.486 442.278C591.823 412.315 622.114 382.446 652.451 352.506L664.694 340.428L659.872 368.237ZM666.567 329.472C643.486 352.085 620.452 374.698 597.418 397.334L558.138 435.888C555.259 430.41 552.661 425.448 550.367 421.07L584.941 386.964C613.757 358.546 642.573 330.104 671.389 301.663L666.567 329.496V329.472ZM631.805 566.602L684.568 261.939C759.452 330.151 821.321 412.737 865.025 506.231C862.005 506.395 858.611 505.997 855.568 505.037L855.076 504.873L854.585 505.06C854.046 505.248 853.578 505.458 853.087 505.669L850.816 506.676L851.916 508.221C861.888 522.313 871.86 536.428 881.832 550.567L893.139 566.578H631.782L631.805 566.602Z" fill="#AE75B0"/>
</svg>
