<svg width="146" height="96" viewBox="0 0 146 96" fill="none" xmlns="http://www.w3.org/2000/svg">
<path d="M145.987 87.835H139.796L139.07 85.0913C138.351 82.373 137.633 79.651 136.911 76.9364L136.805 76.6678L136.54 76.7985C136.453 76.842 136.355 76.8892 136.261 76.9509L136.199 76.9908L136.17 77.0598C136.072 77.292 135.945 77.5207 135.804 77.7348C129.017 63.2795 119.432 50.3521 107.525 39.5479C107.666 39.41 107.804 39.2721 107.942 39.1305C109.952 37.795 111.967 36.4594 113.981 35.1238L116.079 33.7338L115.883 33.527C115.796 33.4362 115.716 33.3564 115.614 33.2802L115.56 33.2366L115.491 33.2294C115.131 33.2003 114.649 33.1023 114.199 32.9318C116.115 31.0337 118.031 29.1319 119.947 27.2339C119.726 27.0125 119.512 26.7911 119.291 26.5624C117.403 28.4315 115.516 30.3042 113.629 32.1733C113.535 31.8357 113.473 31.4656 113.455 31.1026V31.0373L113.415 30.9829C113.364 30.9067 113.302 30.8413 113.244 30.776L112.994 30.4929L111.059 33.1532C109.695 35.0258 108.334 36.8985 106.973 38.7785C106.926 38.8257 106.879 38.8728 106.828 38.92C102.97 35.4722 98.876 32.2458 94.5572 29.259C83.5606 21.6593 71.5442 15.9469 58.8963 12.2269V0.983525H57.9599V11.9547C46.8 8.76826 35.1574 7.13147 23.2933 7.13147C19.9363 7.13147 16.728 7.27664 13.3456 7.58875C13.4726 7.29841 13.6359 7.00444 13.8319 6.72136L13.8682 6.66692V6.6016C13.8827 6.4782 13.8755 6.36569 13.8646 6.24593L13.8392 5.95559L11.9628 6.49272C9.18284 7.28389 6.40284 8.0787 3.62647 8.88076L2.03686 0L0.984375 0.19235L2.72278 9.84977C7.39725 35.8461 12.0717 61.8423 16.7534 87.835H7.48072V88.7713H57.9672V95.6016H58.9035V88.7713H140.006L140.068 88.8584L140.046 88.7713H145.987V87.835ZM31.5971 62.1907C31.8656 62.4593 32.1342 62.7279 32.4064 62.9928C33.0088 63.588 33.6077 64.1868 34.2065 64.782L30.3341 68.6072C28.7336 70.1896 27.0823 71.8191 25.5834 73.3035C29.0094 66.8217 31.4446 62.2161 31.4446 62.2161C31.4446 62.2161 20.3573 51.1651 9.24454 40.0923C8.5949 36.4703 7.94527 32.8519 7.292 29.2299L3.76075 9.59209C6.31211 9.78444 8.85984 9.98405 11.4076 10.18L14.311 10.405L14.2456 10.0022C14.2348 9.92961 14.2239 9.8534 14.2057 9.76993L14.1876 9.69734L14.1331 9.64653C13.7884 9.33079 13.4835 8.94246 13.2657 8.56502C16.4813 8.30734 19.7548 8.18395 23.2933 8.18395C35.0158 8.18395 46.4879 9.84977 57.4228 12.9818C48.8106 29.386 40.202 45.7829 31.5934 62.1907M23.9103 76.4682C25.6959 74.7116 28.1384 72.2946 30.4684 69.9864C32.1197 68.3496 33.7129 66.7745 34.9686 65.5369C35.5602 66.1212 36.1445 66.7055 36.7288 67.2862C33.8726 70.1025 30.6244 73.3144 27.3763 76.519C24.8793 78.9833 22.386 81.4475 20.0742 83.7303C21.4025 81.2189 22.7018 78.7655 23.9139 76.4682M81.9492 63.5844C81.3685 64.1614 80.7842 64.7385 80.1999 65.3155C73.0939 58.3147 65.9951 51.3175 58.8999 44.3131V40.8363C63.6106 45.4781 68.3178 50.1199 73.0285 54.7653L81.9601 63.5735C81.9601 63.5735 81.9529 63.5807 81.9492 63.5844ZM58.9035 45.8156C62.2025 49.0674 65.5015 52.3192 68.8005 55.5746C72.3462 59.0732 75.892 62.5718 79.4414 66.0704C78.8535 66.6511 78.2692 67.2318 77.6812 67.8124C71.4135 61.6391 65.1567 55.4694 58.8999 49.2924V45.8156H58.9035ZM65.4035 72.2147L69.3267 76.0835C68.7388 76.6678 68.1508 77.2485 67.5629 77.8328C66.2201 76.5045 64.8772 75.1798 63.5308 73.8551C61.9847 72.3308 60.4423 70.8066 58.8999 69.2823V65.8055C61.0665 67.9431 63.2368 70.0807 65.3999 72.2183M58.9035 50.7913L62.4166 54.2572C67.2508 59.026 72.0849 63.7949 76.9227 68.5637C76.3239 69.1553 75.7287 69.7468 75.1299 70.3384L58.9035 54.3371V50.7913ZM71.849 73.5866C71.2611 74.1709 70.6731 74.7516 70.0852 75.3359C68.1944 73.4704 66.3035 71.605 64.4127 69.7396C62.5763 67.9286 60.7399 66.1212 58.9035 64.3066V60.8189C63.2187 65.0796 67.5339 69.3331 71.8527 73.5866M66.808 78.5804C66.2201 79.1611 65.6321 79.7454 65.0442 80.3261C63.9482 79.2409 62.8485 78.1558 61.7488 77.0743C60.8016 76.1379 59.8507 75.2016 58.9035 74.2652V70.7884C61.542 73.387 64.1804 75.9855 66.808 78.5804ZM58.9035 75.7641C60.7 77.5352 62.4928 79.3026 64.2893 81.0773C63.7014 81.658 63.1134 82.2423 62.5291 82.823C61.8468 82.148 61.1645 81.4765 60.4822 80.8051C59.956 80.2862 59.4334 79.7708 58.9071 79.2518V75.7641H58.9035ZM74.3677 71.0933C73.7798 71.674 73.1955 72.2546 72.6075 72.8353L58.9035 59.3236V55.8396L74.3677 71.0933ZM61.767 83.5742C61.179 84.1549 60.5947 84.7356 60.0068 85.3163C59.6402 84.9534 59.2701 84.5904 58.9035 84.2311V80.7543C59.858 81.6943 60.8161 82.6343 61.767 83.5779M59.2483 86.0675C59.1321 86.18 59.016 86.2962 58.9035 86.4123V85.7264C59.0196 85.8389 59.1358 85.955 59.2483 86.0675ZM67.3778 42.7053L58.9035 34.3508V30.8667C62.1553 34.075 65.81 37.6861 69.3775 41.2101L76.8429 48.5847C78.0986 50.9836 79.347 53.368 80.5882 55.7343C76.186 51.3901 71.7837 47.0495 67.3778 42.709M58.9035 29.3606V25.8874C60.3734 27.3391 61.9993 28.9505 63.6578 30.5873C66.3761 33.2765 69.167 36.0348 71.4643 38.3031C72.7092 40.6838 73.954 43.061 75.1952 45.4345C69.7622 40.0814 64.3329 34.721 58.9035 29.3606ZM58.9035 24.3958V20.9081L60.2209 22.2146C62.1952 24.1708 64.42 26.3737 66.0713 28.0069C67.3125 30.3804 68.5609 32.7648 69.813 35.1529L58.9035 24.3958ZM58.9035 19.4056V17.1337C59.2955 17.522 59.7128 17.9357 60.1193 18.3386C60.8343 19.0499 61.5166 19.7249 61.9811 20.1822C62.7904 21.7283 63.6034 23.2816 64.4236 24.8458L58.9035 19.4056ZM58.9035 15.6275V14.3137C59.3789 15.2211 59.858 16.132 60.3371 17.0502C59.8544 16.5711 59.3572 16.0776 58.9035 15.6275ZM82.7186 62.8222C75.6706 55.8686 68.6226 48.9222 61.571 41.9686L58.9035 39.341V35.8497C61.8287 38.7349 64.9426 41.8089 68.0891 44.9192C72.9197 49.688 77.8191 54.5294 82.2359 58.8809C82.7477 59.8535 83.2557 60.8261 83.7602 61.7879C83.4118 62.1327 83.067 62.4775 82.7186 62.8222ZM73.7072 40.5205L73.7762 40.5858L73.6201 40.3499C72.8797 38.9382 72.143 37.5264 71.4026 36.1146C67.4177 28.5005 63.451 20.9153 59.633 13.6314C76.8901 18.9193 92.739 27.8726 106.026 39.7148C98.8434 46.8354 91.6575 53.956 84.4752 61.0766C80.9693 54.3915 77.3473 47.4705 73.7072 40.5169M105.256 45.0607C100.016 50.2142 94.775 55.3605 89.5343 60.5068L85.9958 63.98L85.9559 63.9074C85.6184 63.2686 85.2809 62.619 84.9433 61.973C91.9369 55.0448 98.9305 48.1165 105.928 41.1883L105.256 45.0607ZM18.4011 86.8878C20.4371 84.8735 22.7453 82.5944 25.1334 80.2353C29.3832 76.0327 33.8726 71.5941 37.4837 68.0375C38.0753 68.6254 38.6632 69.2097 39.2475 69.7904L34.7835 74.1926C30.1744 78.7365 25.431 83.4146 20.9452 87.8422H17.9003C18.0672 87.5265 18.2342 87.2071 18.4048 86.8914M35.2953 75.1762L39.9988 70.538C40.5903 71.1259 41.1783 71.7103 41.7553 72.2837L41.7481 72.2909C36.6453 77.3174 31.1035 82.7903 25.9935 87.8386H22.4477C26.7339 83.6178 31.0128 79.397 35.2916 75.1798M42.4993 73.0494L42.5138 73.0349C43.109 73.6265 43.697 74.2108 44.274 74.7842C42.4267 76.6061 40.4306 78.5804 38.4092 80.5729C35.8941 83.0553 33.3572 85.5631 31.049 87.8386H27.5069C32.5044 82.9101 37.5018 77.978 42.5029 73.0531M38.685 81.7959C40.8335 79.6764 42.9784 77.557 45.0325 75.5318C45.6314 76.127 46.2193 76.7113 46.7927 77.2775L45.9943 78.0651C42.8223 81.1935 39.204 84.7719 36.0973 87.8314H32.5661C34.5549 85.8716 36.6199 83.8319 38.685 81.7923M42.1945 83.3166C44.0018 81.5346 45.8128 79.749 47.5476 78.036C48.1501 78.6348 48.738 79.2192 49.3042 79.7817C46.7927 82.2677 43.6788 85.349 41.1492 87.8386H37.6144L42.1981 83.3166H42.1945ZM44.7277 85.7953C46.5205 84.0279 48.3497 82.2242 50.059 80.5329C50.6869 81.1572 51.2857 81.7487 51.8519 82.3149C50.1607 83.9952 47.9722 86.1583 46.2592 87.8386H42.659L44.7277 85.799V85.7953ZM48.5456 87.0801C49.8993 85.7445 51.3148 84.3509 52.6104 83.0698C53.2455 83.7013 53.8335 84.2856 54.367 84.8155L51.3111 87.8386H47.7762L48.5456 87.0801ZM53.8806 86.7934C54.298 86.3833 54.7117 85.9768 55.1255 85.5667C55.7315 86.1692 56.2505 86.6845 56.6679 87.0983C57.0127 87.443 57.2703 87.668 57.4772 87.8241L57.4627 87.8386H52.8209C53.1729 87.4902 53.525 87.1418 53.877 86.7934M96.5279 84.9715C97.261 84.2529 97.9905 83.5307 98.72 82.8049L97.8925 87.5737C97.4352 86.7027 96.9816 85.8353 96.5279 84.9715ZM99.0139 81.11L96.0125 83.9916C95.6061 83.2186 95.2032 82.4528 94.804 81.6907L99.7579 76.8021L99.0103 81.11H99.0139ZM100.056 75.0963L94.2959 80.7108C93.8894 79.9341 93.4866 79.1647 93.0874 78.4062L93.3451 78.1522C95.8311 75.6952 98.3171 73.2454 100.803 70.7812L100.056 75.0963ZM101.097 69.0936L101.021 69.1662C98.2046 71.9171 95.3847 74.6717 92.572 77.4263C92.1619 76.6424 91.7591 75.873 91.3635 75.1254L95.029 71.507C97.3009 69.2678 99.5728 67.0285 101.841 64.782L101.093 69.0936H101.097ZM102.135 63.0835L90.8445 74.1382C90.4308 73.347 90.0279 72.5813 89.6432 71.8445C92.1692 69.3476 94.7024 66.8507 97.2283 64.3574C99.1119 62.4992 100.999 60.6411 102.879 58.7829L102.135 63.0872V63.0835ZM103.177 57.0808C98.6292 61.5411 94.0745 66.0087 89.5198 70.4727L89.1279 70.8574C88.7032 70.0481 88.3004 69.2823 87.923 68.5601C92.6265 63.9146 97.3227 59.2837 102.026 54.6419L103.924 52.7692L103.177 57.0808ZM104.215 51.0707C100.636 54.5766 97.065 58.0824 93.4939 61.5919L87.404 67.5693C86.9576 66.72 86.5547 65.9506 86.1991 65.272L91.5595 59.9842C96.0271 55.5783 100.495 51.1687 104.962 46.7592L104.215 51.0744V51.0707ZM98.8252 87.835L107.006 40.6004C118.615 51.176 128.208 63.98 134.983 78.4752C134.515 78.5006 133.989 78.4389 133.517 78.2901L133.441 78.2647L133.365 78.2937C133.281 78.3227 133.209 78.3554 133.132 78.3881L132.78 78.5441L132.951 78.7836C134.497 80.9685 136.043 83.1569 137.589 85.349L139.342 87.8314H98.8216L98.8252 87.835Z" fill="white"/>
</svg>
