<svg width="936" height="617" viewBox="0 0 936 617" fill="none" xmlns="http://www.w3.org/2000/svg">
<path d="M935.268 566.536H895.333L890.651 548.839C886.016 531.306 881.381 513.749 876.723 496.24L876.044 494.507L874.335 495.35C873.774 495.631 873.141 495.935 872.533 496.333L872.135 496.591L871.948 497.035C871.316 498.534 870.496 500.008 869.583 501.389C825.809 408.153 763.987 324.771 687.184 255.084C688.096 254.195 688.986 253.305 689.876 252.392C702.844 243.778 715.836 235.163 728.827 226.549L742.358 217.583L741.094 216.249C740.532 215.664 740.017 215.149 739.361 214.657L739.01 214.376L738.565 214.33C736.248 214.142 733.135 213.51 730.232 212.41C742.592 200.167 754.951 187.901 767.311 175.659C765.883 174.231 764.502 172.803 763.074 171.328C750.902 183.383 738.729 195.462 726.557 207.518C725.948 205.341 725.55 202.953 725.433 200.612V200.191L725.176 199.84C724.848 199.348 724.45 198.927 724.076 198.505L722.46 196.68L709.983 213.838C701.182 225.917 692.404 237.996 683.625 250.121C683.321 250.426 683.017 250.73 682.689 251.034C657.806 228.796 631.401 207.986 603.545 188.721C532.616 139.703 455.111 102.858 373.532 78.8636V6.34373H367.492V77.108C295.511 56.5552 220.416 45.9979 143.893 45.9979C122.24 45.9979 101.547 46.9343 79.7297 48.9474C80.549 47.0747 81.6024 45.1786 82.8665 43.3528L83.1006 43.0016V42.5803C83.1942 41.7844 83.1474 41.0587 83.0772 40.2862L82.9133 38.4135L70.8111 41.878C52.8801 46.9811 34.9491 52.1076 17.0415 57.2809L6.7885 0L0 1.24065L11.2127 63.531C41.363 231.207 71.5133 398.883 101.711 566.536H41.9014V572.575H367.539V616.63H373.578V572.575H896.691L897.089 573.137L896.948 572.575H935.268V566.536ZM197.452 401.13C199.184 402.863 200.917 404.595 202.672 406.304C206.558 410.143 210.42 414.005 214.283 417.844L189.306 442.517C178.983 452.723 168.332 463.233 158.664 472.808C180.762 431 196.469 401.294 196.469 401.294C196.469 401.294 124.956 330.015 53.278 258.595C49.0879 235.234 44.8977 211.895 40.6842 188.533L17.9076 61.869C34.3639 63.1096 50.7967 64.3971 67.2295 65.6612L85.9564 67.1125L85.5351 64.5141C85.4649 64.046 85.3946 63.5544 85.2776 63.016L85.1605 62.5478L84.8094 62.2201C82.5856 60.1835 80.6193 57.6788 79.2148 55.2443C99.9546 53.5823 121.07 52.7864 143.893 52.7864C219.503 52.7864 293.498 63.531 364.028 83.7326C308.479 189.54 252.954 295.3 197.429 401.13M147.873 493.22C159.39 481.89 175.144 466.3 190.172 451.412C200.823 440.855 211.099 430.695 219.199 422.713C223.014 426.482 226.783 430.251 230.552 433.996C212.129 452.161 191.179 472.878 170.228 493.548C154.123 509.442 138.041 525.336 123.13 540.06C131.697 523.862 140.078 508.037 147.896 493.22M522.223 410.119C518.478 413.841 514.709 417.563 510.94 421.285C465.106 376.13 419.319 330.998 373.555 285.82V263.394C403.939 293.334 434.3 323.273 464.685 353.236L522.293 410.049C522.293 410.049 522.246 410.096 522.223 410.119ZM373.578 295.511C394.857 316.485 416.135 337.459 437.414 358.456C460.284 381.022 483.154 403.588 506.048 426.154C502.256 429.9 498.487 433.645 494.695 437.39C454.268 397.572 413.911 357.778 373.555 317.936V295.511H373.578ZM415.503 465.785L440.808 490.739C437.016 494.507 433.224 498.253 429.431 502.021C420.77 493.454 412.109 484.91 403.424 476.366C393.452 466.534 383.504 456.702 373.555 446.871V424.445C387.53 438.233 401.528 452.021 415.48 465.808M373.578 327.604L396.238 349.959C427.418 380.718 458.598 411.477 489.802 442.236C485.94 446.051 482.101 449.867 478.238 453.683L373.578 350.474V327.604ZM457.077 474.633C453.285 478.402 449.493 482.148 445.7 485.916C433.504 473.884 421.309 461.852 409.113 449.82C397.268 438.139 385.423 426.482 373.578 414.778V392.282C401.411 419.764 429.244 447.198 457.1 474.633M424.562 506.844C420.77 510.589 416.978 514.358 413.186 518.103C406.116 511.104 399.024 504.105 391.931 497.129C385.821 491.09 379.688 485.05 373.578 479.011V456.585C390.596 473.346 407.615 490.107 424.562 506.844ZM373.578 488.679C385.166 500.102 396.73 511.502 408.317 522.949C404.525 526.694 400.732 530.463 396.964 534.208C392.563 529.854 388.162 525.524 383.761 521.193C380.367 517.846 376.996 514.522 373.602 511.174V488.679H373.578ZM473.322 458.552C469.53 462.297 465.762 466.042 461.969 469.788L373.578 382.638V360.165L473.322 458.552ZM392.048 539.054C388.256 542.799 384.487 546.545 380.695 550.29C378.33 547.949 375.943 545.608 373.578 543.291V520.865C379.735 526.928 385.915 532.991 392.048 539.077M375.802 555.136C375.053 555.861 374.304 556.61 373.578 557.359V552.935C374.327 553.661 375.077 554.41 375.802 555.136ZM428.238 275.45L373.578 221.563V199.091C394.553 219.784 418.125 243.075 441.136 265.805L489.287 313.371C497.387 328.845 505.439 344.224 513.445 359.486C485.05 331.466 456.656 303.47 428.238 275.473M373.578 189.376V166.974C383.059 176.337 393.546 186.731 404.244 197.288C421.777 214.634 439.778 232.425 454.596 247.055C462.625 262.411 470.654 277.744 478.66 293.053C443.617 258.525 408.598 223.951 373.578 189.376ZM373.578 157.353V134.857L382.076 143.285C394.81 155.902 409.159 170.111 419.81 180.645C427.816 195.954 435.869 211.333 443.945 226.736L373.578 157.353ZM373.578 125.166V110.512C376.107 113.017 378.799 115.686 381.42 118.284C386.032 122.872 390.433 127.226 393.429 130.176C398.649 140.148 403.893 150.167 409.183 160.256L373.578 125.166ZM373.578 100.798V92.3236C376.645 98.1757 379.735 104.052 382.825 109.974C379.711 106.884 376.504 103.701 373.578 100.798ZM527.186 405.203C481.726 360.353 436.267 315.548 390.784 270.698L373.578 253.75V231.231C392.446 249.841 412.53 269.668 432.826 289.729C463.982 320.488 495.584 351.715 524.072 379.782C527.373 386.055 530.65 392.329 533.904 398.532C531.657 400.756 529.433 402.98 527.186 405.203ZM469.062 261.358L469.507 261.779L468.5 260.257C463.725 251.151 458.973 242.045 454.198 232.939C428.495 183.828 402.909 134.904 378.284 87.9228C489.591 122.029 591.817 179.779 677.516 256.161C631.19 302.089 584.841 348.016 538.515 393.944C515.903 350.825 492.541 306.185 469.062 261.334M672.553 290.642C638.751 323.882 604.949 357.075 571.147 390.269L548.324 412.671L548.066 412.203C545.889 408.083 543.712 403.893 541.535 399.726C586.644 355.039 631.752 310.352 676.884 265.665L672.553 290.642ZM112.338 560.426C125.471 547.434 140.358 532.734 155.761 517.518C183.173 490.411 212.129 461.782 235.421 438.842C239.236 442.634 243.029 446.403 246.797 450.148L218.005 478.543C188.276 507.85 157.681 538.024 128.748 566.582H109.108C110.185 564.546 111.262 562.486 112.362 560.449M221.305 484.886L251.643 454.97C255.459 458.762 259.251 462.531 262.973 466.23L262.926 466.277C230.013 498.697 194.268 533.998 161.309 566.559H138.439C166.084 539.335 193.683 512.111 221.282 484.91M267.771 471.169L267.865 471.075C271.704 474.891 275.496 478.66 279.218 482.358C267.303 494.109 254.429 506.844 241.39 519.695C225.168 535.706 208.805 551.882 193.917 566.559H171.071C203.304 534.77 235.538 502.958 267.795 471.192M243.169 527.584C257.027 513.913 270.861 500.242 284.111 487.18C287.973 491.019 291.765 494.788 295.464 498.44L290.314 503.52C269.855 523.698 246.516 546.779 226.479 566.512H203.702C216.53 553.872 229.85 540.716 243.169 527.56M265.805 537.392C277.463 525.898 289.144 514.381 300.333 503.332C304.219 507.195 308.011 510.964 311.663 514.592C295.464 530.627 275.379 550.501 259.063 566.559H236.264L265.829 537.392H265.805ZM282.144 553.38C293.708 541.98 305.506 530.346 316.532 519.437C320.581 523.464 324.444 527.279 328.095 530.931C317.187 541.769 303.072 555.721 292.023 566.559H268.801L282.144 553.403V553.38ZM306.77 561.667C315.502 553.052 324.631 544.063 332.988 535.8C337.084 539.873 340.877 543.642 344.318 547.06L324.608 566.559H301.808L306.77 561.667ZM341.181 559.817C343.873 557.172 346.541 554.55 349.21 551.905C353.119 555.791 356.467 559.115 359.159 561.784C361.383 564.007 363.045 565.459 364.379 566.465L364.285 566.559H334.346C336.616 564.312 338.887 562.065 341.157 559.817M616.255 548.066C620.984 543.431 625.689 538.773 630.394 534.091L625.057 564.85C622.108 559.232 619.182 553.637 616.255 548.066ZM632.29 523.159L612.931 541.746C610.31 536.76 607.711 531.821 605.136 526.905L637.089 495.373L632.267 523.159H632.29ZM639.009 484.371L601.859 520.585C599.237 515.575 596.639 510.612 594.064 505.72L595.726 504.081C611.761 488.234 627.796 472.433 643.831 456.539L639.009 484.371ZM645.727 445.654L645.235 446.122C627.07 463.865 608.882 481.633 590.74 499.4C588.095 494.343 585.497 489.381 582.945 484.559L606.588 461.22C621.241 446.777 635.895 432.334 650.526 417.844L645.703 445.654H645.727ZM652.422 406.889L579.598 478.192C576.929 473.088 574.331 468.149 571.849 463.397C588.142 447.292 604.481 431.187 620.773 415.105C632.922 403.12 645.095 391.135 657.221 379.15L652.422 406.912V406.889ZM659.14 368.171C629.809 396.94 600.431 425.756 571.053 454.549L568.525 457.03C565.786 451.81 563.188 446.871 560.754 442.212C591.091 412.249 621.382 382.38 651.719 352.44L663.962 340.362L659.14 368.171ZM665.835 329.406C642.754 352.019 619.72 374.632 596.686 397.268L557.406 435.822C554.527 430.344 551.929 425.382 549.635 421.004L584.209 386.898C613.025 358.48 641.841 330.038 670.657 301.597L665.835 329.43V329.406ZM631.073 566.536L683.836 261.873C758.72 330.085 820.589 412.671 864.293 506.165C861.273 506.329 857.879 505.931 854.836 504.971L854.344 504.807L853.853 504.994C853.314 505.182 852.846 505.392 852.355 505.603L850.084 506.61L851.184 508.155C861.156 522.247 871.128 536.362 881.1 550.501L892.407 566.512H631.05L631.073 566.536Z" fill="url(#paint0_linear_1_2688)"/>
<defs>
<linearGradient id="paint0_linear_1_2688" x1="-278.179" y1="1069.88" x2="1479.38" y2="694.347" gradientUnits="userSpaceOnUse">
<stop stop-color="#F8C723"/>
<stop offset="0.32" stop-color="#E3AE17"/>
<stop offset="0.68" stop-color="#F9EF8F"/>
<stop offset="1" stop-color="#FFD342"/>
</linearGradient>
</defs>
</svg>
