<svg width="1007" height="618" viewBox="0 0 1007 618" fill="none" xmlns="http://www.w3.org/2000/svg">
<path d="M1006.41 567.215H963.44L958.403 549.518C953.416 531.985 948.429 514.429 943.417 496.919L942.687 495.187L940.848 496.03C940.244 496.311 939.564 496.615 938.909 497.013L938.481 497.27L938.279 497.715C937.599 499.213 936.718 500.688 935.736 502.069C888.638 408.832 822.121 325.451 739.485 255.763C740.467 254.874 741.424 253.984 742.381 253.071C756.334 244.457 770.313 235.843 784.291 227.228L798.849 218.263L797.489 216.929C796.884 216.343 796.33 215.828 795.625 215.337L795.247 215.056L794.769 215.009C792.275 214.822 788.925 214.19 785.802 213.09C799.101 200.847 812.399 188.581 825.697 176.338C824.161 174.91 822.675 173.482 821.139 172.007C808.042 184.063 794.945 196.142 781.848 208.197C781.193 206.02 780.765 203.632 780.639 201.292V200.87L780.362 200.519C780.009 200.028 779.581 199.606 779.178 199.185L777.44 197.359L764.016 214.517C754.546 226.596 745.101 238.675 735.657 250.801C735.329 251.105 735.002 251.409 734.649 251.714C707.876 229.476 679.466 208.665 649.495 189.4C573.18 140.382 489.789 103.537 402.015 79.5433V7.02342H395.517V77.7877C318.07 57.2349 237.272 46.6776 154.939 46.6776C131.641 46.6776 109.377 47.614 85.9033 49.6271C86.7848 47.7544 87.9182 45.8583 89.2783 44.0325L89.5301 43.6813V43.26C89.6309 42.4641 89.5805 41.7384 89.5049 40.9659L89.3286 39.0932L76.3074 42.5577C57.0147 47.6608 37.7221 52.7873 18.4547 57.9606L7.42314 0.679688L0.119141 1.92034L12.1833 64.2107C44.6231 231.887 77.0629 399.563 109.553 567.215H45.2024V573.255H395.567V617.31H402.066V573.255H964.901L965.329 573.816L965.178 573.255H1006.41V567.215ZM212.565 401.81C214.428 403.542 216.292 405.274 218.181 406.983C222.362 410.822 226.518 414.685 230.674 418.524L203.8 443.196C192.693 453.402 181.233 463.913 170.831 473.487C194.607 431.679 211.507 401.974 211.507 401.974C211.507 401.974 134.563 330.694 57.4429 259.275C52.9346 235.913 48.4262 212.575 43.8927 189.213L19.3866 62.5487C37.0925 63.7893 54.7732 65.0768 72.4539 66.3409L92.6028 67.7922L92.1495 65.1939C92.0739 64.7257 91.9984 64.2341 91.8724 63.6957L91.7465 63.2275L91.3687 62.8998C88.976 60.8633 86.8604 58.3585 85.3492 55.924C107.664 54.262 130.382 53.4661 154.939 53.4661C236.29 53.4661 315.904 64.2107 391.79 84.4123C332.023 190.219 272.281 295.979 212.539 401.81M159.22 493.899C171.612 482.57 188.562 466.979 204.732 452.092C216.191 441.534 227.248 431.375 235.963 423.393C240.068 427.161 244.123 430.93 248.178 434.676C228.356 452.841 205.815 473.557 183.273 494.227C165.945 510.122 148.642 526.016 132.598 540.74C141.817 524.541 150.833 508.717 159.245 493.899M561.998 410.799C557.968 414.521 553.913 418.243 549.858 421.965C500.544 376.809 451.279 331.678 402.04 286.499V264.074C434.732 294.013 467.398 323.953 500.09 353.916L562.073 410.729C562.073 410.729 562.023 410.775 561.998 410.799ZM402.066 296.19C424.96 317.164 447.854 338.138 470.748 359.136C495.355 381.702 519.962 404.268 544.594 426.834C540.514 430.579 536.459 434.324 532.379 438.07C488.882 398.252 445.461 358.457 402.04 318.616V296.19H402.066ZM447.174 466.465L474.4 491.418C470.32 495.187 466.24 498.932 462.16 502.701C452.841 494.134 443.522 485.589 434.178 477.045C423.449 467.214 412.744 457.382 402.04 447.55V425.125C417.076 438.913 432.138 452.7 447.149 466.488M402.066 328.283L426.446 350.639C459.994 381.398 493.542 412.156 527.115 442.915C522.959 446.731 518.829 450.547 514.673 454.362L402.066 351.154V328.283ZM491.905 475.313C487.824 479.082 483.744 482.827 479.664 486.596C466.542 474.564 453.42 462.532 440.298 450.5C427.554 438.819 414.81 427.161 402.066 415.457V392.961C432.012 420.443 461.958 447.878 491.93 475.313M456.921 507.523C452.841 511.269 448.761 515.037 444.681 518.783C437.074 511.784 429.443 504.784 421.811 497.809C415.238 491.769 408.639 485.73 402.066 479.69V457.265C420.376 474.026 438.686 490.786 456.921 507.523ZM402.066 489.358C414.533 500.782 426.975 512.182 439.442 523.628C435.362 527.374 431.282 531.143 427.227 534.888C422.492 530.534 417.757 526.203 413.022 521.873C409.37 518.525 405.743 515.201 402.091 511.854V489.358H402.066ZM509.384 459.231C505.304 462.977 501.249 466.722 497.169 470.467L402.066 383.317V360.845L509.384 459.231ZM421.937 539.734C417.857 543.479 413.802 547.224 409.722 550.97C407.178 548.629 404.609 546.288 402.066 543.97V521.545C408.689 527.608 415.339 533.671 421.937 539.757M404.458 555.815C403.652 556.541 402.846 557.29 402.066 558.039V553.615C402.871 554.341 403.677 555.09 404.458 555.815ZM460.875 276.129L402.066 222.242V199.77C424.632 220.463 449.995 243.755 474.753 266.485L526.561 314.051C535.275 329.524 543.939 344.904 552.553 360.166C522.002 332.146 491.451 304.149 460.875 276.152M402.066 190.055V167.653C412.266 177.017 423.549 187.41 435.059 197.968C453.924 215.313 473.292 233.104 489.235 247.734C497.874 263.09 506.513 278.423 515.126 293.732C477.423 259.205 439.744 224.63 402.066 190.055ZM402.066 158.032V135.537L411.208 143.964C424.909 156.581 440.349 170.79 451.808 181.324C460.422 196.633 469.086 212.013 477.775 227.416L402.066 158.032ZM402.066 125.846V111.192C404.786 113.697 407.682 116.365 410.503 118.963C415.465 123.552 420.2 127.906 423.423 130.855C429.04 140.827 434.682 150.846 440.374 160.935L402.066 125.846ZM402.066 101.477V93.0033C405.365 98.8555 408.689 104.731 412.014 110.653C408.664 107.563 405.214 104.38 402.066 101.477ZM567.337 405.883C518.426 361.032 469.514 316.228 420.577 271.377L402.066 254.429V231.91C422.366 250.52 443.975 270.347 465.812 290.408C499.335 321.167 533.336 352.394 563.988 380.461C567.539 386.735 571.065 393.008 574.566 399.212C572.148 401.435 569.755 403.659 567.337 405.883ZM504.8 262.037L505.279 262.458L504.196 260.937C499.058 251.831 493.945 242.725 488.807 233.619C461.152 184.508 433.624 135.584 407.128 88.6025C526.888 122.709 636.876 180.458 729.083 256.84C679.239 302.768 629.371 348.696 579.527 394.623C555.198 351.505 530.062 306.865 504.8 262.014M723.744 291.321C687.375 324.561 651.006 357.755 614.637 390.948L590.08 413.35L589.803 412.882C587.461 408.762 585.119 404.572 582.776 400.405C631.31 355.718 679.844 311.031 728.403 266.344L723.744 291.321ZM120.988 561.106C135.117 548.114 151.136 533.413 167.708 518.198C197.201 491.09 228.356 462.462 253.417 439.521C257.522 443.313 261.602 447.082 265.657 450.828L234.678 479.222C202.692 508.53 169.773 538.704 138.643 567.262H117.512C118.671 565.225 119.829 563.166 121.013 561.129M238.229 485.566L270.871 455.65C274.976 459.442 279.056 463.211 283.061 466.909L283.01 466.956C247.599 499.377 209.139 534.677 173.677 567.239H149.07C178.815 540.014 208.51 512.79 238.204 485.589M288.224 471.848L288.325 471.755C292.455 475.57 296.535 479.339 300.54 483.038C287.72 494.789 273.868 507.523 259.839 520.375C242.385 536.386 224.78 552.561 208.762 567.239H184.18C218.861 535.45 253.543 503.637 288.249 471.872M261.753 528.263C276.663 514.593 291.549 500.922 305.804 487.86C309.96 491.699 314.04 495.468 318.019 499.12L312.478 504.199C290.466 524.377 265.355 547.458 243.796 567.192H219.289C233.091 554.551 247.422 541.396 261.753 528.24M286.108 538.072C298.651 526.578 311.219 515.061 323.258 504.012C327.439 507.874 331.519 511.643 335.448 515.271C318.019 531.306 296.409 551.18 278.855 567.239H254.323L286.133 538.072H286.108ZM303.688 554.06C316.13 542.66 328.824 531.025 340.687 520.117C345.044 524.143 349.2 527.959 353.129 531.611C341.392 542.449 326.205 556.4 314.317 567.239H289.332L303.688 554.083V554.06ZM330.184 562.346C339.579 553.732 349.401 544.743 358.393 536.48C362.8 540.553 366.88 544.322 370.583 547.739L349.376 567.239H324.845L330.184 562.346ZM367.208 560.497C370.104 557.852 372.975 555.23 375.847 552.585C380.053 556.471 383.654 559.795 386.551 562.463C388.943 564.687 390.732 566.138 392.167 567.145L392.067 567.239H359.853C362.297 564.991 364.74 562.744 367.183 560.497M663.171 548.746C668.258 544.111 673.321 539.453 678.383 534.771L672.641 565.53C669.467 559.912 666.319 554.317 663.171 548.746ZM680.423 523.839L659.594 542.425C656.773 537.439 653.978 532.5 651.207 527.584L685.586 496.053L680.398 523.839H680.423ZM687.652 485.051L647.681 521.264C644.86 516.255 642.065 511.292 639.294 506.4L641.082 504.761C658.335 488.913 675.588 473.113 692.84 457.218L687.652 485.051ZM694.88 446.333L694.351 446.801C674.807 464.545 655.237 482.312 635.718 500.079C632.872 495.023 630.076 490.06 627.331 485.238L652.769 461.9C668.535 447.457 684.302 433.014 700.043 418.524L694.855 446.333H694.88ZM702.083 407.568L623.729 478.871C620.858 473.768 618.062 468.829 615.393 464.077C632.922 447.972 650.502 431.867 668.032 415.785C681.103 403.8 694.2 391.814 707.247 379.829L702.083 407.592V407.568ZM709.312 368.851C677.754 397.62 646.145 426.436 614.536 455.228L611.816 457.71C608.869 452.49 606.074 447.55 603.454 442.892C636.096 412.929 668.687 383.06 701.328 353.12L714.5 341.041L709.312 368.851ZM716.515 330.086C691.682 352.699 666.898 375.311 642.115 397.947L599.853 436.501C596.755 431.024 593.959 426.061 591.491 421.684L628.691 387.577C659.695 359.159 690.699 330.718 721.703 302.276L716.515 330.109V330.086ZM679.114 567.215L735.883 262.552C816.454 330.765 883.021 413.35 930.044 506.844C926.795 507.008 923.143 506.61 919.868 505.651L919.339 505.487L918.811 505.674C918.231 505.861 917.728 506.072 917.199 506.283L914.756 507.289L915.939 508.834C926.669 522.926 937.398 537.042 948.127 551.18L960.292 567.192H679.088L679.114 567.215Z" fill="white"/>
</svg>
