<svg width="43" height="34" viewBox="0 0 43 34" fill="none" xmlns="http://www.w3.org/2000/svg">
<path d="M27.8077 9V5C27.8077 3.93913 27.3923 2.92172 26.653 2.17157C25.9137 1.42143 24.911 1 23.8654 1H4.94231C3.89674 1 2.894 1.42143 2.15468 2.17157C1.41535 2.92172 1 3.93913 1 5V29C1 30.0609 1.41535 31.0783 2.15468 31.8284C2.894 32.5786 3.89674 33 4.94231 33H23.8654C24.911 33 25.9137 32.5786 26.653 31.8284C27.3923 31.0783 27.8077 30.0609 27.8077 29V25M34.1154 9L42 17M42 17L34.1154 25M42 17H15.0938" stroke="white" stroke-width="2" stroke-linecap="round" stroke-linejoin="round"/>
</svg>
