<svg width="64" height="65" viewBox="0 0 64 65" fill="none" xmlns="http://www.w3.org/2000/svg">
<g id="Group">
<path id="Vector" d="M32.1365 3C15.7192 3 2.41113 16.2072 2.41113 32.5C2.41113 48.7929 15.7192 62 32.1365 62C48.5538 62 61.8618 48.7929 61.8618 32.5C61.8618 16.2072 48.5538 3 32.1365 3Z" stroke="white" stroke-width="4.05" stroke-linecap="round" stroke-linejoin="round"/>
<path id="Vector_2" d="M9.16211 51.2205C9.16211 51.2205 15.7879 42.8248 32.1368 42.8248C48.4858 42.8248 55.1145 51.2205 55.1145 51.2205M32.1368 32.4998C34.5019 32.4998 36.7702 31.5674 38.4425 29.9077C40.1149 28.248 41.0544 25.997 41.0544 23.6498C41.0544 21.3026 40.1149 19.0516 38.4425 17.3919C36.7702 15.7322 34.5019 14.7998 32.1368 14.7998C29.7717 14.7998 27.5035 15.7322 25.8311 17.3919C24.1588 19.0516 23.2192 21.3026 23.2192 23.6498C23.2192 25.997 24.1588 28.248 25.8311 29.9077C27.5035 31.5674 29.7717 32.4998 32.1368 32.4998Z" stroke="white" stroke-width="4.05" stroke-linecap="round" stroke-linejoin="round"/>
</g>
</svg>
