<svg width="68" height="68" viewBox="0 0 68 68" fill="none" xmlns="http://www.w3.org/2000/svg">
<path d="M33.9783 0C15.2223 0 0 15.2223 0 33.9783C0 52.7343 15.2223 67.9565 33.9783 67.9565C52.7343 67.9565 67.9565 52.7343 67.9565 33.9783C67.9565 15.2223 52.7343 0 33.9783 0ZM49.7442 23.1052C49.2345 28.4738 47.0259 41.5214 45.9046 47.5356C45.429 50.084 44.4776 50.9334 43.5941 51.0354C41.6234 51.2053 40.1283 49.7442 38.2256 48.487C35.2355 46.5163 33.5366 45.293 30.6484 43.3903C27.2846 41.1817 29.4592 39.9584 31.3959 37.9877C31.9056 37.478 40.604 29.5611 40.7739 28.8476C40.7975 28.7395 40.7944 28.6273 40.7648 28.5207C40.7352 28.4141 40.68 28.3164 40.604 28.2359C40.4002 28.0661 40.1283 28.134 39.8905 28.168C39.5847 28.2359 34.8277 31.3959 25.5517 37.6479C24.1925 38.5653 22.9693 39.041 21.882 39.0071C20.6588 38.9731 18.3483 38.3275 16.6154 37.7499C14.4747 37.0703 12.8098 36.6965 12.9457 35.5073C13.0137 34.8957 13.8631 34.2841 15.4601 33.6385C25.3818 29.3232 31.9736 26.4691 35.2694 25.1099C44.7154 21.1685 46.6522 20.4889 47.9433 20.4889C48.2152 20.4889 48.8608 20.5569 49.2685 20.8966C49.6083 21.1685 49.7102 21.5422 49.7442 21.8141C49.7102 22.0179 49.7782 22.6295 49.7442 23.1052Z" fill="white"/>
</svg>
