<svg width="33" height="32" viewBox="0 0 33 32" fill="none" xmlns="http://www.w3.org/2000/svg">
<path id="Vector" d="M16.3799 0C13.2154 0 10.122 0.938383 7.49076 2.69649C4.85958 4.45459 2.80882 6.95344 1.59782 9.87706C0.386815 12.8007 0.0699621 16.0177 0.687325 19.1214C1.30469 22.2251 2.82854 25.0761 5.06618 27.3137C7.30382 29.5513 10.1547 31.0752 13.2584 31.6926C16.3621 32.3099 19.5792 31.9931 22.5028 30.7821C25.4264 29.5711 27.9253 27.5203 29.6834 24.8891C31.4415 22.2579 32.3799 19.1645 32.3799 16C32.3754 11.7579 30.6883 7.69085 27.6886 4.69124C24.689 1.69163 20.622 0.00447972 16.3799 0ZM16.3799 29.5385C13.7022 29.5385 11.0847 28.7444 8.85832 27.2568C6.63193 25.7692 4.89668 23.6548 3.87198 21.1809C2.84729 18.7071 2.57918 15.985 3.10157 13.3588C3.62395 10.7326 4.91336 8.32025 6.80675 6.42686C8.70014 4.53347 11.1125 3.24406 13.7387 2.72168C16.3649 2.19929 19.087 2.4674 21.5608 3.49209C24.0347 4.51679 26.1491 6.25204 27.6367 8.47843C29.1243 10.7048 29.9183 13.3223 29.9183 16C29.9143 19.5894 28.4866 23.0306 25.9485 25.5686C23.4105 28.1067 19.9693 29.5344 16.3799 29.5385ZM26.226 16C26.226 16.3264 26.0964 16.6395 25.8656 16.8703C25.6347 17.1011 25.3217 17.2308 24.9953 17.2308H16.3799C16.0535 17.2308 15.7404 17.1011 15.5096 16.8703C15.2788 16.6395 15.1491 16.3264 15.1491 16V7.38461C15.1491 7.05819 15.2788 6.74514 15.5096 6.51433C15.7404 6.28351 16.0535 6.15384 16.3799 6.15384C16.7063 6.15384 17.0194 6.28351 17.2502 6.51433C17.481 6.74514 17.6107 7.05819 17.6107 7.38461V14.7692H24.9953C25.3217 14.7692 25.6347 14.8989 25.8656 15.1297C26.0964 15.3605 26.226 15.6736 26.226 16Z" fill="#F8E49A"/>
</svg>
