<svg width="67" height="67" viewBox="0 0 67 67" fill="none" xmlns="http://www.w3.org/2000/svg">
<path d="M43.7945 0H23.2423C4.4622 0 0 4.46555 0 23.2055V43.761C0 62.5344 4.43205 67 23.2055 67H43.761C62.5344 67 67 62.5679 67 43.7945V23.2423C67 4.4622 62.5679 0 43.7945 0ZM54.0891 47.8045H49.2015C47.3522 47.8045 46.7962 46.307 43.4796 42.9906C40.5853 40.2 39.3625 39.8516 38.6288 39.8516C37.6171 39.8516 37.3391 40.1297 37.3391 41.5266V45.9218C37.3391 47.111 36.9538 47.8078 33.8484 47.8078C30.8346 47.6053 27.9119 46.6897 25.3213 45.1363C22.7307 43.583 20.5461 41.4364 18.9476 38.8734C15.1526 34.1499 12.5121 28.6061 11.2359 22.6828C11.2359 21.9492 11.514 21.2859 12.9109 21.2859H17.7985C19.0548 21.2859 19.507 21.8454 19.9961 23.1351C22.3679 30.1165 26.4147 36.1867 28.0562 36.1867C28.686 36.1867 28.9608 35.9086 28.9608 34.3375V27.1484C28.753 23.8687 27.011 23.5907 27.011 22.4048C27.0334 22.092 27.1768 21.8002 27.4107 21.5913C27.6446 21.3825 27.9506 21.2729 28.264 21.2859H35.9422C36.9907 21.2859 37.3391 21.8085 37.3391 23.0648V32.7663C37.3391 33.8149 37.7913 34.1633 38.1063 34.1633C38.736 34.1633 39.2218 33.8149 40.3742 32.6625C42.8494 29.644 44.8717 26.281 46.3774 22.6795C46.5313 22.2469 46.8225 21.8765 47.2066 21.6249C47.5907 21.3733 48.0466 21.2542 48.5047 21.2859H53.3923C54.8562 21.2859 55.1678 22.0196 54.8562 23.0648C53.079 27.046 50.88 30.8252 48.2969 34.3375C47.771 35.1415 47.5599 35.5602 48.2969 36.5016C48.7827 37.2352 50.4945 38.6657 51.6469 40.0258C53.3216 41.6963 54.7123 43.6289 55.7641 45.7476C56.1828 47.1077 55.4827 47.8045 54.0891 47.8045Z" fill="white"/>
</svg>
