<svg width="55" height="65" viewBox="0 0 55 65" fill="none" xmlns="http://www.w3.org/2000/svg">
<!-- With black circle: -->
<!--<svg width="55" height="65" viewBox="-10.5 -5 75 75" fill="none" xmlns="http://www.w3.org/2000/svg">-->
<!--<g id="background">-->
<!--    <circle cx="27.5" cy="32.5" r="37.5" fill="#000"></circle>-->
<!--</g>-->
<g id="logo" fill="black">
    <path id="Vector" d="M36.8399 55.2695H17.6799C17.3999 55.2695 17.1699 55.4995 17.1699 55.7795C17.1699 56.0595 17.3999 56.2895 17.6799 56.2895H36.8399C37.1199 56.2895 37.3499 56.0595 37.3499 55.7795C37.3499 55.4995 37.1199 55.2695 36.8399 55.2695Z"/>
    <path id="Vector_2" d="M6.52984 6.51H13.0198V9.36L13.4898 9.59C19.1098 12.42 22.0298 10.74 22.1498 10.67L22.5598 10.42V6.48H23.5298V1.69H30.9998V6.48H31.9698V10.42L32.3798 10.67C32.4998 10.74 35.4198 12.43 41.0398 9.59L41.5098 9.36V6.51H47.9998V18.36L49.6898 21.29V4.82H39.8398L39.8198 8.31C36.5298 9.86 34.4798 9.6 33.6698 9.37V4.79H32.6998V0H21.8398V4.79H20.8698V9.37C20.0398 9.6 17.9998 9.85 14.7098 8.31V6.48L14.7398 4.82H4.83984V14.55C5.37984 14.29 5.94984 14.06 6.52984 13.88V6.51Z"/>
    <path id="Vector_3" d="M47.9996 50.1405C47.9996 55.6105 43.5496 60.0505 38.0896 60.0505H33.8196C31.4096 60.0505 29.1696 61.0705 27.2696 62.1405C25.3596 61.0705 23.1296 60.0505 20.7196 60.0505H16.4496C10.9796 60.0505 6.53961 55.6005 6.53961 50.1405V38.4005C5.95961 38.2205 5.38961 37.9905 4.84961 37.7305V50.1405C4.84961 56.5405 10.0596 61.7505 16.4596 61.7505H20.7296C22.9196 61.7505 25.0596 62.8205 26.8596 63.8605L27.2796 64.1105L27.6996 63.8605C29.4996 62.8205 31.6396 61.7505 33.8296 61.7505H38.0996C44.4996 61.7505 49.7096 56.5405 49.7096 50.1405V38.9805H47.9996V50.1405Z"/>
    <path id="Vector_4" d="M12.6801 50.0703L11.9701 51.2703L11.2401 50.0703H10.8701V52.0103H11.2901V50.8703L11.8601 51.8003H12.0601L12.6301 50.8503L12.6401 52.0103H13.0601V50.0703H12.6801Z"/>
    <path id="Vector_5" d="M13.5098 52.0103H13.9498V50.4403H14.8698L14.8798 50.0703H13.5098V52.0103Z"/>
    <path id="Vector_6" d="M16.5499 50.0703H14.9199V50.4403H15.5399V52.0103H15.9799V50.4403H16.5999V50.1603L17.3199 51.5003L17.2999 51.5203C17.2599 51.5803 17.2199 51.6203 17.1799 51.6503C17.1399 51.6803 17.0899 51.6903 17.0299 51.6903C16.9799 51.6903 16.9099 51.6803 16.8399 51.6503L16.7299 51.9903C16.8399 52.0303 16.9399 52.0603 17.0499 52.0603C17.1799 52.0603 17.2999 52.0203 17.4099 51.9503C17.5199 51.8703 17.6199 51.7603 17.6999 51.6203L18.5299 50.0903H18.0899L17.5599 51.1303L17.0499 50.0903H16.5999H16.5499V50.0703Z"/>
    <path id="Vector_7" d="M19.46 50.5195V52.0095H19.86L20.59 51.1195V52.0095H21.01V50.5195H20.62L19.89 51.3995V50.5195H19.46Z"/>
    <path id="Vector_8" d="M23.2404 52.0095V50.5195H22.8304L22.3304 51.3795L21.8504 50.5195H21.4004V52.0095H21.7904V51.1095L22.2204 51.8595H22.4104L22.8504 51.1195V52.0095H23.2404Z"/>
    <path id="Vector_9" d="M23.9698 51.95C24.0198 51.9 24.0498 51.83 24.0498 51.76C24.0498 51.68 24.0198 51.62 23.9698 51.57C23.9198 51.52 23.8498 51.5 23.7798 51.5C23.6998 51.5 23.6398 51.52 23.5898 51.57C23.5398 51.62 23.5098 51.68 23.5098 51.76C23.5098 51.84 23.5398 51.9 23.5898 51.95C23.6398 52 23.7098 52.03 23.7798 52.03C23.8598 52.03 23.9198 52 23.9698 51.95Z"/>
    <path id="Vector_10" d="M25.5504 51.2103H26.4304V52.0103H26.8804V50.0703H26.4304V50.8303H25.5504V50.0703H25.1104V52.0103H25.5504V51.2103Z"/>
    <path id="Vector_11" d="M27.6504 51.95C27.7004 51.9 27.7304 51.83 27.7304 51.76C27.7304 51.68 27.7004 51.62 27.6504 51.57C27.6004 51.52 27.5304 51.5 27.4604 51.5C27.3804 51.5 27.3204 51.52 27.2704 51.57C27.2204 51.62 27.1904 51.68 27.1904 51.76C27.1904 51.84 27.2204 51.9 27.2704 51.95C27.3204 52 27.3904 52.03 27.4604 52.03C27.5304 52.03 27.6004 52 27.6504 51.95Z"/>
    <path id="Vector_12" d="M28.6298 51.6603C28.4298 51.6603 28.2698 51.5803 28.1298 51.4303L27.8398 51.7003C27.9298 51.8103 28.0498 51.9003 28.1798 51.9603C28.3198 52.0203 28.4698 52.0503 28.6398 52.0503C28.8298 52.0503 28.9998 52.0103 29.1598 51.9203C29.3098 51.8303 29.4298 51.7103 29.5198 51.5603C29.6098 51.4103 29.6498 51.2403 29.6498 51.0403C29.6498 50.8503 29.6098 50.6803 29.5198 50.5203C29.4298 50.3703 29.3098 50.2503 29.1598 50.1603C29.0098 50.0703 28.8398 50.0303 28.6398 50.0303C28.4698 50.0303 28.3098 50.0603 28.1798 50.1203C28.0398 50.1803 27.9298 50.2603 27.8398 50.3803L28.1298 50.6503C28.2698 50.5003 28.4298 50.4203 28.6298 50.4203C28.7698 50.4203 28.8898 50.4603 28.9798 50.5403C29.0798 50.6203 29.1398 50.7303 29.1698 50.8603H28.3998V51.2003H29.1898C29.1598 51.3403 29.0998 51.4503 28.9998 51.5403C28.8898 51.6203 28.7698 51.6603 28.6298 51.6603Z"/>
    <path id="Vector_13" d="M30.2403 51.95C30.2903 51.9 30.3203 51.83 30.3203 51.76C30.3203 51.68 30.2903 51.62 30.2403 51.57C30.1903 51.52 30.1203 51.5 30.0503 51.5C29.9703 51.5 29.9103 51.52 29.8603 51.57C29.8103 51.62 29.7803 51.68 29.7803 51.76C29.7803 51.84 29.8103 51.9 29.8603 51.95C29.9103 52 29.9803 52.03 30.0503 52.03C30.1203 52.03 30.1803 52 30.2403 51.95Z"/>
    <path id="Vector_14" d="M32.9301 50.4303V50.0703H31.3701V52.0103H32.2901C32.5401 52.0103 32.7301 51.9603 32.8701 51.8503C33.0101 51.7403 33.0701 51.5903 33.0701 51.4003C33.0701 51.2203 33.0101 51.0703 32.8901 50.9803C32.7701 50.8803 32.5901 50.8303 32.3501 50.8303H31.8101V50.4303H32.9301ZM32.2601 51.1603C32.5001 51.1603 32.6101 51.2403 32.6101 51.4103C32.6101 51.5003 32.5801 51.5603 32.5201 51.6103C32.4601 51.6603 32.3701 51.6803 32.2601 51.6803H31.8101V51.1603H32.2601Z"/>
    <path id="Vector_15" d="M33.3905 51.25C33.2905 51.33 33.2305 51.44 33.2305 51.58C33.2305 51.67 33.2505 51.74 33.3005 51.81C33.3405 51.88 33.4105 51.93 33.4905 51.97C33.5705 52.01 33.6705 52.03 33.7905 52.03C34.0105 52.03 34.1605 51.96 34.2405 51.82V52.01H34.6405V51.16C34.6405 50.94 34.5805 50.77 34.4505 50.66C34.3305 50.55 34.1505 50.5 33.9205 50.5C33.8005 50.5 33.6805 50.52 33.5705 50.55C33.4605 50.58 33.3605 50.63 33.2805 50.68L33.4405 50.98C33.4905 50.94 33.5605 50.9 33.6405 50.88C33.7205 50.86 33.7905 50.84 33.8705 50.84C33.9805 50.84 34.0705 50.87 34.1305 50.92C34.1905 50.97 34.2205 51.04 34.2205 51.14H33.8805C33.6505 51.13 33.4905 51.17 33.3905 51.25ZM34.2105 51.38V51.53C34.1905 51.6 34.1505 51.65 34.0905 51.68C34.0305 51.71 33.9705 51.73 33.8905 51.73C33.8105 51.73 33.7505 51.71 33.7105 51.68C33.6705 51.65 33.6405 51.6 33.6405 51.55C33.6405 51.43 33.7305 51.38 33.9105 51.38H34.2105Z"/>
    <path id="Vector_16" d="M35.3198 52.1803C35.2798 52.2103 35.2398 52.2203 35.1798 52.2203C35.1398 52.2203 35.0898 52.2103 35.0498 52.2003C35.0098 52.1803 34.9698 52.1603 34.9298 52.1303L34.7698 52.4403C34.8198 52.4803 34.8798 52.5203 34.9598 52.5403C35.0398 52.5603 35.1098 52.5803 35.1898 52.5803C35.3298 52.5803 35.4498 52.5403 35.5498 52.4703C35.6498 52.4003 35.7298 52.2803 35.7998 52.1103L36.4698 50.5303H36.0498L35.6298 51.5403L35.2098 50.5303H34.7598L35.4098 52.0303L35.3998 52.0403C35.3898 52.1003 35.3598 52.1503 35.3198 52.1803Z"/>
    <path id="Vector_17" d="M38.0902 50.5195L37.5902 51.3795L37.1102 50.5195H36.6602V52.0095H37.0502V51.1095L37.4902 51.8595H37.6702L38.1102 51.1195V52.0095H38.5002V50.5195H38.0902Z"/>
    <path id="Vector_18" d="M39.47 50.5C39.35 50.5 39.23 50.52 39.12 50.55C39.01 50.58 38.91 50.63 38.83 50.68L38.99 50.98C39.04 50.94 39.11 50.9 39.19 50.88C39.27 50.86 39.34 50.84 39.42 50.84C39.53 50.84 39.62 50.87 39.68 50.92C39.74 50.97 39.77 51.04 39.77 51.14H39.43C39.21 51.14 39.05 51.18 38.95 51.26C38.85 51.34 38.79 51.45 38.79 51.59C38.79 51.68 38.81 51.75 38.86 51.82C38.9 51.89 38.97 51.94 39.05 51.98C39.13 52.02 39.23 52.04 39.35 52.04C39.57 52.04 39.72 51.97 39.8 51.83V52.02H40.2V51.17C40.2 50.95 40.14 50.78 40.01 50.67C39.87 50.55 39.7 50.5 39.47 50.5ZM39.75 51.54C39.73 51.61 39.69 51.66 39.63 51.69C39.57 51.72 39.51 51.74 39.43 51.74C39.35 51.74 39.29 51.72 39.25 51.69C39.21 51.66 39.18 51.61 39.18 51.56C39.18 51.44 39.27 51.39 39.45 51.39H39.75V51.54Z"/>
    <path id="Vector_19" d="M41.6103 51.0995H40.9603V50.5195H40.5303V52.0095H40.9603V51.4495H41.6103V52.0095H42.0403V50.5195H41.6103V51.0995Z"/>
    <path id="Vector_20" d="M43.0003 50.5C42.8803 50.5 42.7603 50.52 42.6503 50.55C42.5403 50.58 42.4403 50.63 42.3603 50.68L42.5203 50.98C42.5703 50.94 42.6403 50.9 42.7203 50.88C42.8003 50.86 42.8703 50.84 42.9503 50.84C43.0603 50.84 43.1503 50.87 43.2103 50.92C43.2703 50.97 43.3003 51.04 43.3003 51.14H42.9603C42.7403 51.14 42.5803 51.18 42.4803 51.26C42.3803 51.34 42.3203 51.45 42.3203 51.59C42.3203 51.68 42.3403 51.75 42.3903 51.82C42.4303 51.89 42.5003 51.94 42.5803 51.98C42.6603 52.02 42.7603 52.04 42.8803 52.04C43.1003 52.04 43.2503 51.97 43.3303 51.83V52.02H43.7303V51.17C43.7303 50.95 43.6703 50.78 43.5403 50.67C43.4103 50.55 43.2303 50.5 43.0003 50.5ZM43.2803 51.54C43.2603 51.61 43.2203 51.66 43.1603 51.69C43.1003 51.72 43.0403 51.74 42.9603 51.74C42.8803 51.74 42.8203 51.72 42.7803 51.69C42.7403 51.66 42.7103 51.61 42.7103 51.56C42.7103 51.44 42.8003 51.39 42.9803 51.39H43.2803V51.54Z"/>
    <path id="Vector_21" d="M41.44 15.7795L35.38 26.2795L29.31 15.7695H10.37C4.65 15.7695 0 20.4195 0 26.1395C0 31.8595 4.65 36.5095 10.37 36.5095C12.56 36.5095 14.67 35.8195 16.41 34.5595L15.12 32.3295C13.77 33.3695 12.1 33.9395 10.36 33.9395C6.05 33.9395 2.55 30.4395 2.55 26.1295C2.55 21.8195 6.05 18.3195 10.36 18.3195H22.05V36.4995H24.61V18.3295H27.82L33.89 28.8395L30.57 34.5895L31.68 36.5095H53.4L54.51 34.5895L43.66 15.7795H41.44ZM33.9 33.9495L42.54 18.9795L51.18 33.9495H33.9Z"/>
    <path id="Vector_22" d="M20.9797 46.9003C23.0797 46.9003 24.7897 45.1903 24.7897 43.0903C24.7897 40.9903 23.0797 39.2803 20.9797 39.2803C18.8797 39.2803 17.1797 41.0003 17.1797 43.1003C17.1797 45.2003 18.8797 46.9003 20.9797 46.9003ZM20.9797 40.8503C22.2197 40.8503 23.2197 41.8603 23.2197 43.1003C23.2197 44.3403 22.2097 45.3403 20.9797 45.3403C19.7397 45.3403 18.7297 44.3303 18.7297 43.1003C18.7397 41.8603 19.7397 40.8503 20.9797 40.8503Z"/>
    <path id="Vector_23" d="M14.0297 46.9C15.1597 46.9 16.2197 46.41 16.9397 45.54L15.7497 44.54C15.3197 45.05 14.6897 45.34 14.0297 45.34C12.7897 45.34 11.7897 44.33 11.7897 43.1C11.7897 41.86 12.7997 40.85 14.0297 40.85C14.6897 40.85 15.3197 41.14 15.7497 41.65L16.9397 40.65C16.2097 39.79 15.1497 39.29 14.0297 39.29C11.9297 39.29 10.2197 41 10.2197 43.1C10.2197 45.2 11.9297 46.9 14.0297 46.9Z"/>
    <path id="Vector_24" d="M41.5203 45.34V46.9H43.1003V40.85H44.8203V39.29H39.8203V40.85H41.5303L41.5203 45.34Z"/>
    <path id="Vector_25" d="M31.3798 44.41C31.3798 43.72 31.0998 43.09 30.6298 42.63C30.8698 42.28 31.0098 41.87 31.0098 41.42C31.0098 40.25 30.0598 39.29 28.8798 39.29H25.5898V46.9H28.8798C30.2598 46.9 31.3798 45.78 31.3798 44.41ZM27.1498 40.85H28.8798C29.1898 40.85 29.4498 41.1 29.4498 41.41C29.4498 41.67 29.2698 41.89 29.0198 41.96L27.1498 42.44V40.85ZM27.1498 44.05L29.2098 43.53C29.5698 43.66 29.8198 44.01 29.8198 44.41C29.8198 44.93 29.3998 45.35 28.8798 45.35H27.1498V44.05Z"/>
    <path id="Vector_26" d="M35.8996 46.8998C37.3196 46.8998 38.5596 46.1198 39.2096 44.9698L37.8496 44.1998C37.4596 44.8798 36.7396 45.3398 35.8996 45.3398C35.1996 45.3398 34.5696 45.0198 34.1596 44.5198L39.6996 42.9898C39.6396 40.9398 37.9596 39.2998 35.8996 39.2998C34.4796 39.2998 33.2396 40.0798 32.5896 41.2298C32.2796 41.7798 32.0996 42.4198 32.0996 43.0998C32.0996 45.1998 33.7996 46.8998 35.8996 46.8998ZM33.9496 41.9898C34.3396 41.3098 35.0596 40.8498 35.8996 40.8498C36.6996 40.8498 37.3896 41.2698 37.7896 41.8898L33.6596 43.0298C33.6696 42.6598 33.7796 42.2998 33.9496 41.9898Z"/>
</g>
</svg>
